<svg id="Слой_1" data-name="Слой 1" xmlns="http://www.w3.org/2000/svg" xmlns:xlink="http://www.w3.org/1999/xlink" viewBox="0 0 102 73.7"><defs><style>.cls-1{fill:none;}.cls-2{clip-path:url(#clip-path);}.cls-3{fill:#f28d19;}.cls-4{clip-path:url(#clip-path-2);}.cls-5{fill:#71727c;}.cls-6{clip-path:url(#clip-path-5);}.cls-7{fill:#0f0f0e;}</style><clipPath id="clip-path"><rect class="cls-1" x="112.12" width="102" height="73.7"/></clipPath><clipPath id="clip-path-2"><rect class="cls-1" width="102" height="73.7"/></clipPath><clipPath id="clip-path-5"><rect class="cls-1" x="-117.89" width="102" height="73.7"/></clipPath></defs><g class="cls-2"><path class="cls-3" d="M75.42-18.4,138.72-55l37.5,65-63.3,36.6Zm36,39.9,9.7-5.6L100.12,2Zm22.7-13.1,21.1-12.2-15-26-34.1,19.7Z"/></g><g class="cls-4"><rect class="cls-5" width="102" height="73.7"/></g><g class="cls-4"><path class="cls-3" d="M73.7,132.2,37.1,68.9l65-37.5,36.6,63.3Zm26.7-58.8L88.2,52.3l-26,15,19.7,34.1Zm13.1,22.8-5.6-9.7L94,107.5Z"/></g><g class="cls-4"><path class="cls-3" d="M-36.7-18.4,26.6-55,64.1,10,.8,46.6Zm36,39.9L9,15.9-12,2ZM22,8.4,43.1-3.8l-15-26L-6-10.1Z"/></g><g class="cls-6"><path class="cls-3" d="M-44.19,132.2l-36.6-63.3,65-37.5,36.6,63.3Zm26.7-58.8-12.2-21.1-26,15L-36,101.4Zm13.1,22.8L-10,86.5l-13.9,21Z"/></g><path class="cls-7" d="M34.52,66.79l-2.63-4.55L13.71,72.74,1.71,52l7.79-4.5,9.75,16.89,10.39-6L19.89,41.46l7.8-4.5,9.75,16.89,2.6-1.5,2.25,3.89-2.6,1.5,2.62,4.55Z"/><path class="cls-7" d="M48.16,58.92,33.53,33.59l20.79-12,2.25,3.89-13,7.5,4.5,7.8,5.54-8.4,7.8-4.5L71.54,45.42ZM61.5,46l-4.88-8.44L51.08,46l2.62,4.55Z"/><path class="cls-7" d="M93,33l-2.62-4.55L72.16,39l-12-20.78,7.8-4.5L77.71,30.6l10.39-6L78.35,7.71l7.79-4.5L95.89,20.1l2.6-1.5,2.25,3.89L98.14,24l2.63,4.55Z"/></svg>