<svg id="Слой_1" data-name="Слой 1" xmlns="http://www.w3.org/2000/svg" xmlns:xlink="http://www.w3.org/1999/xlink" viewBox="0 0 102 73.7"><defs><style>.cls-1{fill:none;}.cls-2{clip-path:url(#clip-path);}.cls-3{fill:#f28d19;}.cls-4{clip-path:url(#clip-path-2);}.cls-5{clip-path:url(#clip-path-3);}.cls-6{fill:#71727c;}.cls-7{fill:#0f0f0e;}</style><clipPath id="clip-path"><rect class="cls-1" x="117.89" width="102" height="73.7"/></clipPath><clipPath id="clip-path-2"><rect class="cls-1" x="-126.14" width="102" height="73.7"/></clipPath><clipPath id="clip-path-3"><rect class="cls-1" width="102" height="73.7"/></clipPath></defs><g class="cls-2"><path class="cls-3" d="M81.19-18.4,144.49-55,182,10l-63.3,36.6Zm36,39.9,9.7-5.6L105.89,2Zm22.7-13.1L161-3.8l-15-26-34.1,19.7Z"/></g><g class="cls-4"><path class="cls-3" d="M-52.44,132.2-89,68.9l65-37.5,36.6,63.3Zm26.7-58.8-12.2-21.1-26,15,19.7,34.1Zm13.1,22.8-5.6-9.7-13.9,21Z"/></g><g class="cls-5"><rect class="cls-6" width="102" height="73.7"/></g><g class="cls-5"><path class="cls-3" d="M73.7,132.2,37.1,68.9l65-37.5,36.6,63.3Zm26.7-58.8L88.2,52.3l-26,15,19.7,34.1Zm13.1,22.8-5.6-9.7L94,107.5Z"/></g><g class="cls-5"><path class="cls-3" d="M-36.7-18.4,26.6-55,64.1,10,.8,46.6Zm36,39.9L9,15.9-12,2ZM22,8.4,43.1-3.8l-15-26L-6-10.1Z"/></g><path class="cls-7" d="M36.9,64.93l-2.62-4.55L16.09,70.88,4.09,50.1l7.79-4.5,9.75,16.88,10.4-6L22.28,39.6l7.79-4.51L39.82,52l2.6-1.5,2.25,3.9-2.6,1.5,2.62,4.55Z"/><path class="cls-7" d="M50.54,57.05,35.91,31.72l20.79-12L59,23.62l-13,7.5,4.5,7.79L56,30.51,63.8,26,73.92,43.55Zm13.34-12.9L59,35.71l-5.54,8.4,2.62,4.54Z"/><path class="cls-7" d="M77.17,41.68l-3-5.2L82,32l.75,1.3,6.5-3.75-4.88-8.45L70,29.33l-2.25-3.89,7.4-11.2-10.4,6-2.25-3.9L84.63,3.59,86.5,6.84l-8.31,12.6,11.69-6.75,9.37,16.24Z"/></svg>