<svg id="Слой_1" data-name="Слой 1" xmlns="http://www.w3.org/2000/svg" xmlns:xlink="http://www.w3.org/1999/xlink" viewBox="0 0 102 73.7"><defs><style>.cls-1{fill:none;}.cls-2{clip-path:url(#clip-path);}.cls-3{fill:#71727c;}.cls-4{fill:#f28d19;}.cls-5{clip-path:url(#clip-path-4);}.cls-6{clip-path:url(#clip-path-5);}.cls-7{fill:#0f0f0e;}</style><clipPath id="clip-path"><rect class="cls-1" width="102" height="73.7"/></clipPath><clipPath id="clip-path-4"><rect class="cls-1" x="-127.79" width="102" height="73.7"/></clipPath><clipPath id="clip-path-5"><rect class="cls-1" x="126.14" width="102" height="73.7"/></clipPath></defs><g class="cls-2"><rect class="cls-3" width="102" height="73.7"/></g><g class="cls-2"><path class="cls-4" d="M73.7,132.2,37.1,68.9l65-37.5,36.6,63.3Zm26.7-58.8L88.2,52.3l-26,15,19.7,34.1Zm13.1,22.8-5.6-9.7L94,107.5Z"/></g><g class="cls-2"><path class="cls-4" d="M-36.7-18.4,26.6-55,64.1,10,.8,46.6Zm36,39.9L9,15.9-12,2ZM22,8.4,43.1-3.8l-15-26L-6-10.1Z"/></g><g class="cls-5"><path class="cls-4" d="M-54.09,132.2l-36.6-63.3,65-37.5,36.6,63.3Zm26.7-58.8-12.2-21.1-26,15,19.7,34.1Zm13.1,22.8-5.6-9.7-13.9,21Z"/></g><g class="cls-6"><path class="cls-4" d="M89.44-18.4,152.74-55l37.5,65-63.3,36.6Zm36,39.9,9.7-5.6L114.14,2Zm22.7-13.1,21.1-12.2-15-26-34.1,19.7Z"/></g><path class="cls-7" d="M34.15,65.14,31.53,60.6,13.34,71.1l-12-20.79,7.8-4.5L18.89,62.7l10.39-6L19.53,39.81l7.79-4.5L37.07,52.2l2.6-1.5,2.25,3.9-2.6,1.5L42,60.64Z"/><path class="cls-7" d="M47.79,57.27,33.17,31.94,54,19.94l2.25,3.89-13,7.5,4.5,7.8,5.54-8.4,7.8-4.5L71.17,43.77Zm13.34-12.9-4.88-8.44-5.54,8.39,2.63,4.55Z"/><path class="cls-7" d="M74.42,41.89,59.8,16.56l26-15L100.4,26.89ZM85.11,18.4,80.23,10,69.84,16,77.72,29.6Zm5.25,9.1-2.25-3.9L82.56,32Z"/></svg>