<svg id="Слой_1" data-name="Слой 1" xmlns="http://www.w3.org/2000/svg" xmlns:xlink="http://www.w3.org/1999/xlink" viewBox="0 0 102 73.7"><defs><style>.cls-1{fill:none;}.cls-2{clip-path:url(#clip-path);}.cls-3{fill:#71727c;}.cls-4{fill:#f28d19;}.cls-5{clip-path:url(#clip-path-4);}.cls-6{fill:#0f0f0e;}</style><clipPath id="clip-path"><rect class="cls-1" width="102" height="73.7"/></clipPath><clipPath id="clip-path-4"><rect class="cls-1" x="-112.12" width="102" height="73.7"/></clipPath></defs><g class="cls-2"><rect class="cls-3" width="102" height="73.7"/></g><g class="cls-2"><path class="cls-4" d="M73.7,132.2,37.1,68.9l65-37.5,36.6,63.3Zm26.7-58.8L88.2,52.3l-26,15,19.7,34.1Zm13.1,22.8-5.6-9.7L94,107.5Z"/></g><g class="cls-2"><path class="cls-4" d="M-36.7-18.4,26.6-55,64.1,10,.8,46.6Zm36,39.9L9,15.9-12,2ZM22,8.4,43.1-3.8l-15-26L-6-10.1Z"/></g><g class="cls-5"><path class="cls-4" d="M-38.42,132.2-75,68.9l65-37.5,36.6,63.3Zm26.7-58.8-12.2-21.1-26,15,19.7,34.1ZM1.38,96.2l-5.6-9.7-13.9,21Z"/></g><path class="cls-6" d="M26.41,70.79l-3-5.2,7.79-4.5.75,1.3,7.8-4.5L34.5,48.8l-15.59,9L11.79,45.46l20.78-12,2.25,3.9-13,7.49,2.62,4.55L40,40.4l9.75,16.89Z"/><path class="cls-6" d="M53,55.41,38.42,30.08l20.78-12L61.45,22l-13,7.5L53,37.27l5.54-8.39,7.8-4.5L76.42,41.91ZM66.38,42.52,61.5,34.07,56,42.47,58.58,47Z"/><path class="cls-6" d="M86.16,36.29,73.79,14.86l-6.5,3.75L65,14.71,79.33,6.46,94,31.79Z"/></svg>