<svg id="Слой_1" data-name="Слой 1" xmlns="http://www.w3.org/2000/svg" xmlns:xlink="http://www.w3.org/1999/xlink" viewBox="0 0 102 73.7"><defs><style>.cls-1{fill:none;}.cls-2{clip-path:url(#clip-path);}.cls-3{fill:#f28d19;}.cls-4{clip-path:url(#clip-path-2);}.cls-5{fill:#71727c;}.cls-6{isolation:isolate;}.cls-7{fill:#0f0f0e;}</style><clipPath id="clip-path"><rect class="cls-1" x="127.79" width="102" height="73.7"/></clipPath><clipPath id="clip-path-2"><rect class="cls-1" width="102" height="73.7"/></clipPath></defs><g class="cls-2"><path class="cls-3" d="M91.09-18.4,154.39-55l37.5,65-63.3,36.6Zm36,39.9,9.7-5.6L115.79,2Zm22.7-13.1,21.1-12.2-15-26-34.1,19.7Z"/></g><g class="cls-4"><rect class="cls-5" width="102" height="73.7"/></g><g class="cls-4"><path class="cls-3" d="M73.7,132.2,37.1,68.9l65-37.5,36.6,63.3Zm26.7-58.8L88.2,52.3l-26,15,19.7,34.1Zm13.1,22.8-5.6-9.7L94,107.5Z"/></g><g class="cls-4"><path class="cls-3" d="M-36.7-18.4,26.6-55,64.1,10,.8,46.6Zm36,39.9L9,15.9-12,2ZM22,8.4,43.1-3.8l-15-26L-6-10.1Z"/></g><g class="cls-6"><path class="cls-7" d="M18.67,74.68,4,49.35l26-15L44.65,59.68ZM29.35,51.19l-4.87-8.44-10.39,6L22,62.39Zm5.25,9.09-2.25-3.89-5.54,8.39Z"/><path class="cls-7" d="M47.9,57.81,33.27,32.48l26-15L73.88,42.81ZM58.58,34.32l-4.87-8.45-10.4,6,7.88,13.64Zm5.25,9.09-2.25-3.9L56,47.91Z"/><path class="cls-7" d="M77.12,40.93,62.5,15.6l26-15L103.1,25.93ZM87.81,17.44,82.93,9,72.54,15l7.88,13.64Zm5.25,9.09-2.25-3.89L85.26,31Z"/></g></svg>