<svg id="Слой_1" data-name="Слой 1" xmlns="http://www.w3.org/2000/svg" xmlns:xlink="http://www.w3.org/1999/xlink" viewBox="0 0 102 73"><defs><style>.cls-1{fill:none;}.cls-2{clip-path:url(#clip-path);}.cls-3{fill:#854e13;}.cls-4{clip-path:url(#clip-path-2);}.cls-5{clip-path:url(#clip-path-3);}.cls-6{fill:#9f173a;}.cls-7{clip-path:url(#clip-path-4);}.cls-8{fill:#e21d49;}.cls-9{clip-path:url(#clip-path-7);}.cls-10{isolation:isolate;}.cls-11{fill:#fff;}</style><clipPath id="clip-path"><rect class="cls-1" x="113.37" y="105.18" width="102" height="73.7"/></clipPath><clipPath id="clip-path-2"><rect class="cls-1" x="-9.28" y="105.13" width="102" height="73.7"/></clipPath><clipPath id="clip-path-3"><rect class="cls-1" x="120.92" y="-0.35" width="102" height="73.7"/></clipPath><clipPath id="clip-path-4"><rect class="cls-1" y="-0.35" width="102" height="73.7"/></clipPath><clipPath id="clip-path-7"><rect class="cls-1" x="-109.74" y="-0.4" width="102" height="73.7"/></clipPath></defs><g class="cls-2"><path class="cls-3" d="M76.67,86.78,140,50.18l37.5,65-63.3,36.6Zm36,39.9,9.7-5.6-21-13.9Zm22.7-13.1,21.1-12.2-15-26-34.1,19.7Z"/></g><g class="cls-4"><path class="cls-3" d="M-46,86.73l63.3-36.6,37.5,65-63.3,36.6Zm36,39.9,9.7-5.6-21-13.9Zm22.7-13.2,21.1-12.2-15-26-34.1,19.7Z"/></g><g class="cls-5"><path class="cls-6" d="M84.22-18.75l63.3-36.6,37.5,65-63.3,36.6Zm36,39.9,9.7-5.6-21-13.9Zm22.7-13.1L164-4.15l-15-26-34.1,19.7Z"/></g><g class="cls-7"><rect class="cls-8" y="-0.35" width="102" height="73.7"/></g><g class="cls-7"><path class="cls-6" d="M73.7,131.85,37.1,68.55l65-37.5,36.6,63.3Zm26.7-58.8L88.2,52l-26,15,19.7,34.1Zm13.1,22.8-5.6-9.7-13.9,21Z"/></g><g class="cls-7"><path class="cls-6" d="M-36.7-18.75l63.3-36.6,37.5,65L.8,46.25Zm36,39.9L9,15.55-12,1.65ZM22,8.05,43.1-4.15l-15-26L-6-10.45Z"/></g><g class="cls-9"><path class="cls-6" d="M-36,131.8l-36.6-63.3,65-37.5L29,94.3ZM-9.34,73l-12.2-21.1-26,15,19.7,34.1ZM3.76,95.8l-5.6-9.7-13.9,21Z"/></g><g class="cls-10"><path class="cls-11" d="M34.7,65.25,32.08,60.7,13.89,71.2l-12-20.78,7.79-4.5L19.43,62.8l10.4-6L20.08,39.92l7.79-4.5L37.62,52.3l2.6-1.5,2.25,3.9-2.6,1.5,2.62,4.55Z"/><path class="cls-11" d="M48.34,57.37l-3-5.19,7.79-4.5.75,1.3,7.8-4.5-5.25-9.1-15.59,9L33.71,32,54.5,20l2.25,3.9-13,7.5L46.38,36,62,27l9.75,16.88Z"/><path class="cls-11" d="M75,42,60.34,16.67l26-15L101,27ZM85.65,18.51l-4.87-8.45-10.39,6L78.26,29.7ZM90.9,27.6l-2.25-3.9-5.54,8.4Z"/></g></svg>