<svg id="Слой_1" data-name="Слой 1" xmlns="http://www.w3.org/2000/svg" xmlns:xlink="http://www.w3.org/1999/xlink" viewBox="0 0 102 73"><defs><style>.cls-1{fill:none;}.cls-2{clip-path:url(#clip-path);}.cls-3{fill:#854e13;}.cls-4{clip-path:url(#clip-path-2);}.cls-5{clip-path:url(#clip-path-3);}.cls-6{fill:#e21d49;}.cls-7{fill:#9f173a;}.cls-8{clip-path:url(#clip-path-6);}.cls-9{isolation:isolate;}.cls-10{fill:#fff;}</style><clipPath id="clip-path"><rect class="cls-1" x="-5.37" y="105.18" width="102" height="73.7"/></clipPath><clipPath id="clip-path-2"><rect class="cls-1" x="114.99" y="105.18" width="102" height="73.7"/></clipPath><clipPath id="clip-path-3"><rect class="cls-1" y="-0.35" width="102" height="73.7"/></clipPath><clipPath id="clip-path-6"><rect class="cls-1" x="-118.61" y="-0.35" width="102" height="73.7"/></clipPath></defs><g class="cls-2"><path class="cls-3" d="M-42.07,86.78l63.3-36.6,37.5,65-63.3,36.6Zm36,39.9,9.7-5.6-21-13.9Zm22.7-13.1,21.1-12.2-15-26-34.1,19.7Z"/></g><g class="cls-4"><path class="cls-3" d="M78.29,86.78l63.3-36.6,37.5,65-63.3,36.6Zm36,39.9,9.7-5.6-21-13.9Zm22.7-13.1,21.1-12.2-15-26L109,95.08Z"/></g><g class="cls-5"><rect class="cls-6" y="-0.35" width="102" height="73.7"/></g><g class="cls-5"><path class="cls-7" d="M73.7,131.85,37.1,68.55l65-37.5,36.6,63.3Zm26.7-58.8L88.2,52l-26,15,19.7,34.1Zm13.1,22.8-5.6-9.7-13.9,21Z"/></g><g class="cls-5"><path class="cls-7" d="M-36.7-18.75l63.3-36.6,37.5,65L.8,46.25Zm36,39.9L9,15.55-12,1.65ZM22,8.05,43.1-4.15l-15-26L-6-10.45Z"/></g><g class="cls-8"><path class="cls-7" d="M-44.91,131.85l-36.6-63.3,65-37.5,36.6,63.3Zm26.7-58.8L-30.41,52l-26,15,19.7,34.1Zm13.1,22.8-5.6-9.7-13.9,21Z"/></g><g class="cls-9"><path class="cls-10" d="M36.38,64.2l-2.63-4.55L15.57,70.15l-12-20.78,7.79-4.5,9.75,16.89,10.39-6L21.75,38.87l7.8-4.5L39.3,51.26l2.6-1.5,2.25,3.89-2.6,1.5,2.62,4.55Z"/><path class="cls-10" d="M50,56.32l-3-5.19,7.79-4.5.75,1.3,7.8-4.5-5.25-9.1-15.59,9L35.39,31,56.18,19l2.25,3.9-13,7.5,2.62,4.55,15.59-9L73.4,42.82Z"/><path class="cls-10" d="M76.65,41l-3-5.2,7.79-4.5.75,1.3,7.8-4.5L84.74,19,69.15,28,62,15.62l20.79-12,2.25,3.9-13,7.5,2.62,4.54,15.59-9L100,27.45Z"/></g></svg>