<svg id="Слой_1" data-name="Слой 1" xmlns="http://www.w3.org/2000/svg" xmlns:xlink="http://www.w3.org/1999/xlink" viewBox="0 0 102 73"><defs><style>.cls-1{fill:none;}.cls-2{clip-path:url(#clip-path);}.cls-3{fill:#854e13;}.cls-4{clip-path:url(#clip-path-2);}.cls-5{clip-path:url(#clip-path-3);}.cls-6{fill:#9f173a;}.cls-7{clip-path:url(#clip-path-4);}.cls-8{fill:#e21d49;}.cls-9{clip-path:url(#clip-path-7);}.cls-10{isolation:isolate;}.cls-11{fill:#fff;}</style><clipPath id="clip-path"><rect class="cls-1" x="-10.62" y="105.18" width="102" height="73.7"/></clipPath><clipPath id="clip-path-2"><rect class="cls-1" x="113.24" y="105.18" width="102" height="73.7"/></clipPath><clipPath id="clip-path-3"><rect class="cls-1" x="118.61" y="-0.35" width="102" height="73.7"/></clipPath><clipPath id="clip-path-4"><rect class="cls-1" y="-0.35" width="102" height="73.7"/></clipPath><clipPath id="clip-path-7"><rect class="cls-1" x="-120.92" y="-0.35" width="102" height="73.7"/></clipPath></defs><g class="cls-2"><path class="cls-3" d="M-47.32,86.78,16,50.18l37.5,65-63.3,36.6Zm36,39.9,9.7-5.6-21-13.9Zm22.7-13.1,21.1-12.2-15-26-34.1,19.7Z"/></g><g class="cls-4"><path class="cls-3" d="M76.54,86.78l63.3-36.6,37.5,65L114,151.78Zm36,39.9,9.7-5.6-21-13.9Zm22.7-13.1,21.1-12.2-15-26-34.1,19.7Z"/></g><g class="cls-5"><path class="cls-6" d="M81.91-18.75l63.3-36.6,37.5,65-63.3,36.6Zm36,39.9,9.7-5.6-21-13.9Zm22.7-13.1,21.1-12.2-15-26-34.1,19.7Z"/></g><g class="cls-7"><rect class="cls-8" y="-0.35" width="102" height="73.7"/></g><g class="cls-7"><path class="cls-6" d="M73.7,131.85,37.1,68.55l65-37.5,36.6,63.3Zm26.7-58.8L88.2,52l-26,15,19.7,34.1Zm13.1,22.8-5.6-9.7-13.9,21Z"/></g><g class="cls-7"><path class="cls-6" d="M-36.7-18.75l63.3-36.6,37.5,65L.8,46.25Zm36,39.9L9,15.55-12,1.65ZM22,8.05,43.1-4.15l-15-26L-6-10.45Z"/></g><g class="cls-9"><path class="cls-6" d="M-47.22,131.85l-36.6-63.3,65-37.5,36.6,63.3Zm26.7-58.8L-32.72,52l-26,15,19.7,34.1Zm13.1,22.8-5.6-9.7-13.9,21Z"/></g><g class="cls-10"><path class="cls-11" d="M34.79,65.62l-2.62-4.55L14,71.57,2,50.79l7.79-4.5,9.75,16.88,10.4-6L20.17,40.29,28,35.79l9.75,16.88,2.6-1.5,2.25,3.9L40,56.57l2.62,4.55Z"/><path class="cls-11" d="M48.43,57.74l-3-5.19,7.79-4.5L54,49.34l7.8-4.5-5.25-9.09-15.59,9L33.81,32.41l20.78-12,2.25,3.9-13,7.5,2.62,4.54,15.59-9,9.75,16.89Z"/><path class="cls-11" d="M93.25,31.87l-2.63-4.55L72.43,37.82,60.43,17l7.8-4.5L78,29.42l10.39-6L78.62,6.54,86.41,2l9.75,16.88,2.6-1.5,2.25,3.9-2.6,1.5L101,27.37Z"/></g></svg>