<svg id="Слой_1" data-name="Слой 1" xmlns="http://www.w3.org/2000/svg" xmlns:xlink="http://www.w3.org/1999/xlink" viewBox="0 0 102 73"><defs><style>.cls-1{fill:none;}.cls-2{clip-path:url(#clip-path);}.cls-3,.cls-6{isolation:isolate;}.cls-3{font-size:60px;fill:#9f173a;font-family:High-Marker-Flat, High Marker Flat;}.cls-4{clip-path:url(#clip-path-2);}.cls-5{fill:#e21d49;}.cls-7{fill:#fff;}.cls-8{clip-path:url(#clip-path-5);}</style><clipPath id="clip-path"><rect class="cls-1" x="109.9" y="-0.35" width="102" height="73.7"/></clipPath><clipPath id="clip-path-2"><rect class="cls-1" y="-0.35" width="102" height="73.7"/></clipPath><clipPath id="clip-path-5"><rect class="cls-1" x="-113.77" y="-0.35" width="102" height="73.7"/></clipPath></defs><g class="cls-2"><text class="cls-3" transform="matrix(0.5, 0.87, -0.87, 0.5, 73.23, -18.67)">0</text></g><g class="cls-4"><rect class="cls-5" y="-0.35" width="102" height="73.7"/></g><g class="cls-4"><text class="cls-3" transform="matrix(0.87, -0.5, 0.5, 0.87, 73.65, 131.83)">0</text></g><g class="cls-4"><text class="cls-3" transform="matrix(0.5, 0.87, -0.87, 0.5, -36.72, -18.67)">0</text></g><g class="cls-6"><path class="cls-7" d="M34.2,65.25l-2.6-4.5L13.4,71.25l-12-20.8L9.2,46,19,62.85l10.4-6L19.6,40l7.8-4.5,9.8,16.9,2.6-1.5,2.2,3.9-2.6,1.5,2.6,4.5Z"/><path class="cls-7" d="M47.8,57.35,38,40.45l15.6-9L51,27l-13,7.5-2.2-3.9,20.8-12,7.1,12.3-15.6,9L53.3,49l7.8-4.5-.8-1.3,7.8-4.5,3,5.2Z"/><path class="cls-7" d="M92.6,31.55,90,27.05,71.8,37.55l-12-20.8,7.8-4.5,9.8,16.9,10.4-6L78,6.25l7.8-4.5,9.8,16.9,2.6-1.5,2.2,3.9-2.6,1.5,2.6,4.5Z"/></g><g class="cls-8"><text class="cls-3" transform="matrix(0.87, -0.5, 0.5, 0.87, -40.12, 131.83)">0</text></g></svg>