<svg id="Слой_1" data-name="Слой 1" xmlns="http://www.w3.org/2000/svg" xmlns:xlink="http://www.w3.org/1999/xlink" viewBox="0 0 102 73"><defs><style>.cls-1{fill:none;}.cls-2{clip-path:url(#clip-path);}.cls-3,.cls-6{isolation:isolate;}.cls-3{font-size:60px;fill:#9f173a;font-family:High-Marker-Flat, High Marker Flat;}.cls-4{clip-path:url(#clip-path-2);}.cls-5{fill:#e21d49;}.cls-7{fill:#fff;}.cls-8{clip-path:url(#clip-path-5);}</style><clipPath id="clip-path"><rect class="cls-1" x="113.77" y="-0.35" width="102" height="73.7"/></clipPath><clipPath id="clip-path-2"><rect class="cls-1" y="-0.35" width="102" height="73.7"/></clipPath><clipPath id="clip-path-5"><rect class="cls-1" x="-115.42" y="-0.35" width="102" height="73.7"/></clipPath></defs><g class="cls-2"><text class="cls-3" transform="matrix(0.5, 0.87, -0.87, 0.5, 77.08, -18.67)">0</text></g><g class="cls-4"><rect class="cls-5" y="-0.35" width="102" height="73.7"/></g><g class="cls-4"><text class="cls-3" transform="matrix(0.87, -0.5, 0.5, 0.87, 73.64, 131.83)">0</text></g><g class="cls-4"><text class="cls-3" transform="matrix(0.5, 0.87, -0.87, 0.5, -36.72, -18.67)">0</text></g><g class="cls-6"><path class="cls-7" d="M42.3,61.15l-2.6-4.5L21.5,67.15l-12-20.8,7.8-4.5,9.8,16.9,10.4-6-9.8-16.9,7.8-4.5,9.8,16.9,2.6-1.5,2.2,3.9-2.6,1.5,2.6,4.5Z"/><path class="cls-7" d="M62.4,49.55,50,28.15,43.5,32l-2.2-3.9,14.3-8.2,14.6,25.3Z"/><path class="cls-7" d="M73.5,43.15l-3-5.2,7.8-4.5.8,1.3L85.6,31l-4.9-8.4-14.3,8.2-2.2-3.9,7.4-11.2-10.4,6L59,17.75,81.1,5,83,8.15l-8.3,12.6L86.4,14l9.4,16.2Z"/></g><g class="cls-8"><text class="cls-3" transform="matrix(0.87, -0.5, 0.5, 0.87, -41.74, 131.83)">0</text></g></svg>