<svg id="Слой_1" data-name="Слой 1" xmlns="http://www.w3.org/2000/svg" xmlns:xlink="http://www.w3.org/1999/xlink" viewBox="0 0 102 73"><defs><style>.cls-1{fill:none;}.cls-2{clip-path:url(#clip-path);}.cls-3,.cls-6{isolation:isolate;}.cls-3{font-size:60px;fill:#9f173a;font-family:High-Marker-Flat, High Marker Flat;}.cls-4{clip-path:url(#clip-path-2);}.cls-5{fill:#e21d49;}.cls-7{fill:#fff;}.cls-8{clip-path:url(#clip-path-5);}</style><clipPath id="clip-path"><rect class="cls-1" x="113.77" y="-0.35" width="102" height="73.7"/></clipPath><clipPath id="clip-path-2"><rect class="cls-1" y="-0.35" width="102" height="73.7"/></clipPath><clipPath id="clip-path-5"><rect class="cls-1" x="-109.9" y="-0.35" width="102" height="73.7"/></clipPath></defs><g class="cls-2"><text class="cls-3" transform="matrix(0.5, 0.87, -0.87, 0.5, 77.08, -18.67)">0</text></g><g class="cls-4"><rect class="cls-5" y="-0.35" width="102" height="73.7"/></g><g class="cls-4"><text class="cls-3" transform="matrix(0.87, -0.5, 0.5, 0.87, 73.69, 131.83)">0</text></g><g class="cls-4"><text class="cls-3" transform="matrix(0.5, 0.87, -0.87, 0.5, -36.67, -18.67)">0</text></g><g class="cls-6"><path class="cls-7" d="M36.3,63.75l-2.6-4.5L15.5,69.75,3.5,49l7.8-4.5,9.8,16.9,10.4-6-9.8-16.9L29.5,34l9.8,16.9,2.6-1.5,2.2,3.9-2.6,1.5,2.6,4.5Z"/><path class="cls-7" d="M49.9,55.85,40.1,39l15.6-9-2.6-4.5L40.1,33l-2.2-3.9,20.8-12,7.1,12.3-15.6,9,5.2,9.1L63.2,43l-.8-1.3,7.8-4.5,3,5.2Z"/><path class="cls-7" d="M76.6,40.55l-3-5.2,7.8-4.5.8,1.3,7.8-4.5-5.2-9.1-15.6,9-7.1-12.3,20.8-12,2.2,3.9-13,7.5,2.6,4.5,15.6-9,9.8,16.9Z"/></g><g class="cls-8"><text class="cls-3" transform="matrix(0.87, -0.5, 0.5, 0.87, -36.25, 131.83)">0</text></g></svg>