<svg id="Слой_1" data-name="Слой 1" xmlns="http://www.w3.org/2000/svg" xmlns:xlink="http://www.w3.org/1999/xlink" viewBox="0 0 102 73"><defs><style>.cls-1{fill:none;}.cls-2{clip-path:url(#clip-path);}.cls-3,.cls-6{isolation:isolate;}.cls-3{font-size:60px;fill:#9f173a;font-family:High-Marker-Flat, High Marker Flat;}.cls-4{clip-path:url(#clip-path-2);}.cls-5{fill:#e21d49;}.cls-7{fill:#fff;}.cls-8{clip-path:url(#clip-path-5);}</style><clipPath id="clip-path"><rect class="cls-1" x="115.42" y="-0.35" width="102" height="73.7"/></clipPath><clipPath id="clip-path-2"><rect class="cls-1" y="-0.35" width="102" height="73.7"/></clipPath><clipPath id="clip-path-5"><rect class="cls-1" x="-115.45" y="-0.35" width="102" height="73.7"/></clipPath></defs><g class="cls-2"><text class="cls-3" transform="matrix(0.5, 0.87, -0.87, 0.5, 78.71, -18.67)">0</text></g><g class="cls-4"><rect class="cls-5" y="-0.35" width="102" height="73.7"/></g><g class="cls-4"><text class="cls-3" transform="matrix(0.87, -0.5, 0.5, 0.87, 73.67, 131.83)">0</text></g><g class="cls-4"><text class="cls-3" transform="matrix(0.5, 0.87, -0.87, 0.5, -36.7, -18.67)">0</text></g><g class="cls-6"><path class="cls-7" d="M40.1,61.85l-2.6-4.5L19.3,67.85l-12-20.8,7.8-4.5,9.8,16.9,10.4-6-9.8-16.9,7.8-4.5L43.1,49l2.6-1.5,2.2,3.9-2.6,1.5,2.6,4.5Z"/><path class="cls-7" d="M53.8,54.05,44,37.15l15.6-9L57,23.65l-13,7.5-2.2-3.9,20.8-12,7.1,12.3-15.6,9,5.2,9.1,7.8-4.5-.8-1.3,7.8-4.5,3,5.2Z"/><path class="cls-7" d="M86.9,34.85,74.5,13.45,68,17.25l-2.2-3.9,14.3-8.2,14.6,25.3Z"/></g><g class="cls-8"><text class="cls-3" transform="matrix(0.87, -0.5, 0.5, 0.87, -41.73, 131.83)">0</text></g></svg>