<svg id="Слой_1" data-name="Слой 1" xmlns="http://www.w3.org/2000/svg" xmlns:xlink="http://www.w3.org/1999/xlink" viewBox="0 0 102 73"><defs><style>.cls-1{fill:none;}.cls-2{clip-path:url(#clip-path);}.cls-3,.cls-6{isolation:isolate;}.cls-3{font-size:60px;fill:#9f173a;font-family:High-Marker-Flat, High Marker Flat;}.cls-4{clip-path:url(#clip-path-2);}.cls-5{fill:#e21d49;}.cls-7{fill:#fff;}.cls-8{clip-path:url(#clip-path-5);}</style><clipPath id="clip-path"><rect class="cls-1" x="113.77" y="-0.35" width="102" height="73.7"/></clipPath><clipPath id="clip-path-2"><rect class="cls-1" y="-0.2" width="102" height="73.7"/></clipPath><clipPath id="clip-path-5"><rect class="cls-1" x="-115.42" y="-0.35" width="102" height="73.7"/></clipPath></defs><g class="cls-2"><text class="cls-3" transform="matrix(0.5, 0.87, -0.87, 0.5, 77.09, -18.67)">0</text></g><g class="cls-4"><rect class="cls-5" y="-0.2" width="102" height="73.7"/></g><g class="cls-4"><text class="cls-3" transform="matrix(0.87, -0.5, 0.5, 0.87, 73.63, 131.98)">0</text></g><g class="cls-4"><text class="cls-3" transform="matrix(0.5, 0.87, -0.87, 0.5, -36.72, -18.52)">0</text></g><g class="cls-6"><path class="cls-7" d="M32.9,66.1l-2.6-4.5L12.1,72.1.1,51.3l7.8-4.5,9.8,16.9,10.4-6L18.3,40.8l7.8-4.5,9.8,16.9,2.6-1.5,2.2,3.9-2.6,1.5,2.6,4.5Z"/><path class="cls-7" d="M46.6,58.2,32,32.9l26-15L72.6,43.2ZM57.3,34.7l-4.9-8.4L42,32.3l7.9,13.6Zm5.2,9.1-2.2-3.9-5.5,8.4Z"/><path class="cls-7" d="M75.8,41.3,68.7,29l5.2-3-6.7.4L61.2,16,89.8-.5l6,10.4-3.7,5.6,5.2-3,7.1,12.3ZM87.2,13.1l-3-5.2-13,7.5,3,5.2,8.4-.5Zm7.1,12.3-2.6-4.5-13,7.5,2.6,4.5Z"/></g><g class="cls-8"><text class="cls-3" transform="matrix(0.87, -0.5, 0.5, 0.87, -41.75, 131.83)">0</text></g></svg>