<svg id="Слой_1" data-name="Слой 1" xmlns="http://www.w3.org/2000/svg" xmlns:xlink="http://www.w3.org/1999/xlink" viewBox="0 0 102 73"><defs><style>.cls-1{fill:none;}.cls-2{clip-path:url(#clip-path);}.cls-3,.cls-6{isolation:isolate;}.cls-3{font-size:60px;fill:#9f173a;font-family:High-Marker-Flat, High Marker Flat;}.cls-4{clip-path:url(#clip-path-2);}.cls-5{fill:#e21d49;}.cls-7{fill:#fff;}.cls-8{clip-path:url(#clip-path-5);}</style><clipPath id="clip-path"><rect class="cls-1" x="109.9" y="-0.35" width="102" height="73.7"/></clipPath><clipPath id="clip-path-2"><rect class="cls-1" y="-0.35" width="102" height="73.7"/></clipPath><clipPath id="clip-path-5"><rect class="cls-1" x="-113.77" y="-0.2" width="102" height="73.7"/></clipPath></defs><g class="cls-2"><text class="cls-3" transform="matrix(0.5, 0.87, -0.87, 0.5, 73.22, -18.67)">0</text></g><g class="cls-4"><rect class="cls-5" y="-0.35" width="102" height="73.7"/></g><g class="cls-4"><text class="cls-3" transform="matrix(0.87, -0.5, 0.5, 0.87, 73.67, 131.83)">0</text></g><g class="cls-4"><text class="cls-3" transform="matrix(0.5, 0.87, -0.87, 0.5, -36.68, -18.67)">0</text></g><g class="cls-6"><path class="cls-7" d="M33,66l-2.6-4.5L12.2,72,.2,51.15,8,46.65l9.8,16.9,10.4-6-9.8-16.9,7.8-4.5L36,53.05l2.6-1.5,2.2,3.9L38.2,57l2.6,4.5Z"/><path class="cls-7" d="M46.6,58.05,32,32.75l26-15,14.6,25.3Zm10.7-23.5-4.9-8.4-10.4,6,7.9,13.6Zm5.3,9.1-2.2-3.9-5.5,8.4Z"/><path class="cls-7" d="M94,30.65l-2.2-3.9-23.4,1.4-7.1-12.3,26-15,14.6,25.3ZM81.7,9.25l-10.4,6,4.1,7.1,13.4-.8Z"/></g><g class="cls-8"><text class="cls-3" transform="matrix(0.87, -0.5, 0.5, 0.87, -40.14, 131.98)">0</text></g></svg>