<svg id="Слой_1" data-name="Слой 1" xmlns="http://www.w3.org/2000/svg" xmlns:xlink="http://www.w3.org/1999/xlink" viewBox="0 0 102 73"><defs><style>.cls-1{fill:none;}.cls-2{clip-path:url(#clip-path);}.cls-3{fill:#854e13;}.cls-4{clip-path:url(#clip-path-2);}.cls-5,.cls-8{isolation:isolate;}.cls-5{font-size:60px;fill:#9f173a;font-family:High-Marker-Flat, High Marker Flat;}.cls-6{clip-path:url(#clip-path-3);}.cls-7{fill:#e21d49;}.cls-9{fill:#fff;}.cls-10{clip-path:url(#clip-path-6);}</style><clipPath id="clip-path"><rect class="cls-1" x="-2.76" y="105.18" width="102" height="73.7"/></clipPath><clipPath id="clip-path-2"><rect class="cls-1" x="115.42" y="-0.2" width="102" height="73.7"/></clipPath><clipPath id="clip-path-3"><rect class="cls-1" y="-0.35" width="102" height="73.7"/></clipPath><clipPath id="clip-path-6"><rect class="cls-1" x="-115.45" y="-0.35" width="102" height="73.7"/></clipPath></defs><g class="cls-2"><path class="cls-3" d="M-39.46,86.78l63.3-36.6,37.5,65L-2,151.78Zm36,39.9,9.7-5.6-21-13.9Zm22.7-13.2,21.1-12.2-15-26L-8.76,95Z"/></g><g class="cls-4"><text class="cls-5" transform="matrix(0.5, 0.87, -0.87, 0.5, 78.7, -18.52)">0</text></g><g class="cls-6"><rect class="cls-7" y="-0.35" width="102" height="73.7"/></g><g class="cls-6"><text class="cls-5" transform="matrix(0.87, -0.5, 0.5, 0.87, 73.67, 131.83)">0</text></g><g class="cls-6"><text class="cls-5" transform="matrix(0.5, 0.87, -0.87, 0.5, -36.68, -18.67)">0</text></g><g class="cls-8"><path class="cls-9" d="M34,65.65l-2.6-4.5L13.2,71.55l-12-20.8L9,46.25l9.8,16.9,10.4-6-9.8-16.9,7.8-4.5L37,52.65l2.6-1.5,2.2,3.9-2.6,1.5,2.6,4.5Z"/><path class="cls-9" d="M47.6,57.75,33,32.45l26-15,14.6,25.3Zm10.7-23.5-4.9-8.4-10.4,6,7.9,13.6Zm5.3,9.1-2.2-3.9-5.5,8.4Z"/><path class="cls-9" d="M80.8,38.65l-3-5.2L88,18.05,82.8,9,64.6,19.45l-2.2-3.9,26-15,8.2,14.3L86.4,30.25l2.2,3.9Z"/></g><g class="cls-10"><text class="cls-5" transform="matrix(0.87, -0.5, 0.5, 0.87, -41.74, 131.83)">0</text></g></svg>