<svg id="Слой_1" data-name="Слой 1" xmlns="http://www.w3.org/2000/svg" xmlns:xlink="http://www.w3.org/1999/xlink" viewBox="0 0 102 73"><defs><style>.cls-1{fill:none;}.cls-2{clip-path:url(#clip-path);}.cls-3,.cls-6{isolation:isolate;}.cls-3{font-size:60px;fill:#9f173a;font-family:High-Marker-Flat, High Marker Flat;}.cls-4{clip-path:url(#clip-path-2);}.cls-5{fill:#e21d49;}.cls-7{fill:#fff;}.cls-8{clip-path:url(#clip-path-5);}</style><clipPath id="clip-path"><rect class="cls-1" x="120.92" y="-0.35" width="102" height="73.7"/></clipPath><clipPath id="clip-path-2"><rect class="cls-1" y="-0.35" width="102" height="73.7"/></clipPath><clipPath id="clip-path-5"><rect class="cls-1" x="-120.92" y="-0.35" width="102" height="73.7"/></clipPath></defs><g class="cls-2"><text class="cls-3" transform="matrix(0.5, 0.87, -0.87, 0.5, 84.25, -18.67)">0</text></g><g class="cls-4"><rect class="cls-5" y="-0.35" width="102" height="73.7"/></g><g class="cls-4"><text class="cls-3" transform="matrix(0.87, -0.5, 0.5, 0.87, 73.72, 131.83)">0</text></g><g class="cls-4"><text class="cls-3" transform="matrix(0.5, 0.87, -0.87, 0.5, -36.66, -18.67)">0</text></g><g class="cls-6"><path class="cls-7" d="M34.3,65.25l-2.6-4.5L13.5,71.25l-12-20.8L9.3,46l9.8,16.9,10.4-6L19.7,40l7.8-4.5,9.8,16.9,2.6-1.5,2.2,3.9-2.6,1.5,2.6,4.5Z"/><path class="cls-7" d="M48,57.35l-9.8-16.9,15.6-9L51.2,27l-13,7.5L36,30.55l20.8-12,7.1,12.3-15.6,9L53.5,49l7.8-4.5-.8-1.3,7.8-4.5,3,5.2Z"/><path class="cls-7" d="M92.8,31.55l-2.2-3.9-23.4,1.4-7.1-12.3,26-15,14.6,25.3ZM80.4,10.05l-10.4,6,4.1,7.1,13.4-.8Z"/></g><g class="cls-8"><text class="cls-3" transform="matrix(0.87, -0.5, 0.5, 0.87, -47.19, 131.83)">0</text></g></svg>