<svg id="Слой_1" data-name="Слой 1" xmlns="http://www.w3.org/2000/svg" xmlns:xlink="http://www.w3.org/1999/xlink" viewBox="0 0 102 73"><defs><style>.cls-1{fill:none;}.cls-2{clip-path:url(#clip-path);}.cls-3{fill:#e21d49;}.cls-4,.cls-7{isolation:isolate;}.cls-4{font-size:60px;fill:#9f173a;font-family:High-Marker-Flat, High Marker Flat;}.cls-5{clip-path:url(#clip-path-4);}.cls-6{clip-path:url(#clip-path-5);}.cls-8{fill:#fff;}</style><clipPath id="clip-path"><rect class="cls-1" y="-0.35" width="102" height="73.7"/></clipPath><clipPath id="clip-path-4"><rect class="cls-1" x="130.26" y="-0.35" width="102" height="73.7"/></clipPath><clipPath id="clip-path-5"><rect class="cls-1" x="-143.45" y="-0.35" width="102" height="73.7"/></clipPath></defs><g class="cls-2"><rect class="cls-3" y="-0.35" width="102" height="73.7"/></g><g class="cls-2"><text class="cls-4" transform="matrix(0.87, -0.5, 0.5, 0.87, 73.68, 131.87)">0</text></g><g class="cls-2"><text class="cls-4" transform="matrix(0.5, 0.87, -0.87, 0.5, -36.68, -18.64)">0</text></g><g class="cls-5"><text class="cls-4" transform="matrix(0.5, 0.87, -0.87, 0.5, 93.57, -18.64)">0</text></g><g class="cls-6"><text class="cls-4" transform="matrix(0.87, -0.5, 0.5, 0.87, -69.77, 131.87)">0</text></g><g class="cls-7"><path class="cls-8" d="M42.7,60.82l-2.62-4.54L21.89,66.78,9.89,46l7.8-4.5,9.75,16.89,10.39-6L28.08,35.49,35.87,31l9.75,16.89,2.6-1.5,2.25,3.9-2.6,1.5,2.63,4.54Z"/><path class="cls-8" d="M62.84,49.2,50.46,27.76,44,31.51l-2.25-3.89L56,19.37,70.63,44.7Z"/><path class="cls-8" d="M73.88,42.82,64.13,25.94l15.59-9-2.63-4.55-13,7.5L61.85,16,82.64,4l7.12,12.34-15.59,9,5.25,9.1,7.8-4.5-.75-1.3,7.79-4.5,3,5.19Z"/></g></svg>