<svg id="Слой_1" data-name="Слой 1" xmlns="http://www.w3.org/2000/svg" xmlns:xlink="http://www.w3.org/1999/xlink" viewBox="0 0 102 73"><defs><style>.cls-1{fill:none;}.cls-2{clip-path:url(#clip-path);}.cls-3{fill:#e21d49;}.cls-4,.cls-5{isolation:isolate;}.cls-4{font-size:60px;fill:#9f173a;font-family:High-Marker-Flat, High Marker Flat;}.cls-6{fill:#fff;}.cls-7{clip-path:url(#clip-path-4);}</style><clipPath id="clip-path"><rect class="cls-1" y="-0.35" width="102" height="73.7"/></clipPath><clipPath id="clip-path-4"><rect class="cls-1" x="-148.4" y="-0.35" width="102" height="73.7"/></clipPath></defs><g class="cls-2"><rect class="cls-3" y="-0.35" width="102" height="73.7"/></g><g class="cls-2"><text class="cls-4" transform="matrix(0.87, -0.5, 0.5, 0.87, 73.68, 131.87)">0</text></g><g class="cls-2"><text class="cls-4" transform="matrix(0.5, 0.87, -0.87, 0.5, -36.7, -18.64)">0</text></g><g class="cls-5"><path class="cls-6" d="M40.13,61.94,37.5,57.39,19.32,67.89l-12-20.78,7.79-4.5L24.86,59.5l10.39-6L25.5,36.61l7.8-4.5L43.05,49l2.59-1.5,2.25,3.89-2.59,1.5,2.62,4.55Z"/><path class="cls-6" d="M53.77,54.06l-3-5.19,7.79-4.5.75,1.3,7.79-4.5-5.25-9.1-15.58,9L39.14,28.73l20.79-12,2.25,3.9-13,7.5,2.62,4.55,15.59-9,9.75,16.88Z"/><path class="cls-6" d="M86.89,34.94,74.52,13.51,68,17.26l-2.25-3.9L80.06,5.11,94.68,30.44Z"/></g><g class="cls-7"><text class="cls-4" transform="matrix(0.87, -0.5, 0.5, 0.87, -74.72, 131.87)">0</text></g></svg>