<svg id="Слой_1" data-name="Слой 1" xmlns="http://www.w3.org/2000/svg" xmlns:xlink="http://www.w3.org/1999/xlink" viewBox="0 0 102 73"><defs><style>.cls-1{fill:none;}.cls-2{clip-path:url(#clip-path);}.cls-3{isolation:isolate;font-size:60px;fill:#9f173a;font-family:High-Marker-Flat, High Marker Flat;}.cls-4{clip-path:url(#clip-path-2);}.cls-5{fill:#e21d49;}.cls-6{fill:#fff;}.cls-7{clip-path:url(#clip-path-6);}.cls-8{fill:#137590;}.cls-9{clip-path:url(#clip-path-7);}.cls-10{clip-path:url(#clip-path-8);}.cls-11{fill:#854e13;}</style><clipPath id="clip-path"><rect class="cls-1" x="116.52" y="-0.35" width="102" height="73.7"/></clipPath><clipPath id="clip-path-2"><rect class="cls-1" y="-0.35" width="102" height="73.7"/></clipPath><clipPath id="clip-path-6"><rect class="cls-1" y="83.29" width="102" height="73.7"/></clipPath><clipPath id="clip-path-7"><rect class="cls-1" x="113.77" y="83.29" width="102" height="73.7"/></clipPath><clipPath id="clip-path-8"><rect class="cls-1" y="-95.43" width="102" height="73.7"/></clipPath></defs><g class="cls-2"><text class="cls-3" transform="matrix(0.5, 0.87, -0.87, 0.5, 79.86, -18.67)">0</text></g><g class="cls-4"><rect class="cls-5" y="-0.35" width="102" height="73.7"/></g><g class="cls-4"><path class="cls-6" d="M32.9,66.15l-2.6-4.5L12.1,72.15.1,51.35l7.8-4.5,9.8,16.9,10.4-6-9.8-16.9,7.8-4.5,9.8,16.9,2.6-1.5,2.2,3.9-2.6,1.5,2.6,4.5Z"/><path class="cls-6" d="M46.5,58.25,31.9,33l26-15,14.6,25.3Zm10.7-23.5-4.9-8.4-10.4,6L49.8,46Zm5.3,9.1L60.3,40l-5.5,8.4Z"/><path class="cls-6" d="M75.8,41.35,61.2,16.05l26-15,14.6,25.3Zm10.7-23.5-4.9-8.4-10.4,6,7.9,13.6ZM91.7,27l-2.2-3.9L84,31.45Z"/></g><g class="cls-4"><text class="cls-3" transform="matrix(0.87, -0.5, 0.5, 0.87, 73.64, 131.83)">0</text></g><g class="cls-4"><text class="cls-3" transform="matrix(0.5, 0.87, -0.87, 0.5, -36.72, -18.67)">0</text></g><g class="cls-7"><path class="cls-8" d="M-36.7,65l63.3-36.6,37.5,65L.8,130Zm36,39.8L9,99.19l-21-13.9ZM22,91.69l21.1-12.2-15-26L-6,73.19Z"/></g><g class="cls-9"><path class="cls-8" d="M77.07,65l63.3-36.6,37.5,65L114.57,130Zm36,39.8,9.7-5.6-21-13.9Zm22.7-13.1,21.1-12.2-15-26-34.1,19.7Z"/></g><g class="cls-10"><path class="cls-11" d="M73.7,36.67,37.1-26.63l65-37.5L138.6-.83ZM100.4-22,88.2-43.13l-26,15L81.9,6ZM113.5.67,107.9-9,94,12Z"/></g></svg>