<svg id="Слой_1" data-name="Слой 1" xmlns="http://www.w3.org/2000/svg" xmlns:xlink="http://www.w3.org/1999/xlink" viewBox="0 0 102 73"><defs><style>.cls-1{fill:none;}.cls-2{clip-path:url(#clip-path);}.cls-3,.cls-7{isolation:isolate;}.cls-3{font-size:60px;fill:#9f173a;font-family:High-Marker-Flat, High Marker Flat;}.cls-4{clip-path:url(#clip-path-2);}.cls-5{fill:#e21d49;}.cls-6{clip-path:url(#clip-path-5);}.cls-8{fill:#fff;}</style><clipPath id="clip-path"><rect class="cls-1" x="133.56" y="-0.35" width="102" height="73.7"/></clipPath><clipPath id="clip-path-2"><rect class="cls-1" y="-0.35" width="102" height="73.7"/></clipPath><clipPath id="clip-path-5"><rect class="cls-1" x="-141.8" y="-0.35" width="102" height="73.7"/></clipPath></defs><g class="cls-2"><text class="cls-3" transform="matrix(0.5, 0.87, -0.87, 0.5, 96.88, -18.64)">0</text></g><g class="cls-4"><rect class="cls-5" y="-0.35" width="102" height="73.7"/></g><g class="cls-4"><text class="cls-3" transform="matrix(0.87, -0.5, 0.5, 0.87, 73.68, 131.87)">0</text></g><g class="cls-4"><text class="cls-3" transform="matrix(0.5, 0.87, -0.87, 0.5, -36.68, -18.64)">0</text></g><g class="cls-6"><text class="cls-3" transform="matrix(0.87, -0.5, 0.5, 0.87, -68.12, 131.87)">0</text></g><g class="cls-7"><path class="cls-8" d="M41.05,61.85,38.43,57.3,20.24,67.8,8.24,47l7.8-4.5L25.79,59.4l10.39-6L26.43,36.52,34.22,32,44,48.9l2.6-1.5,2.25,3.9-2.6,1.5,2.63,4.55Z"/><path class="cls-8" d="M61.19,50.22,48.81,28.79l-6.49,3.75-2.25-3.9,14.29-8.25L69,45.72Z"/><path class="cls-8" d="M72.23,43.85,57.61,18.52l26-15L98.21,28.85ZM82.92,20.36,78,11.91l-10.39,6,7.87,13.64Zm5.25,9.09-2.25-3.9L80.37,34Z"/></g></svg>