<svg id="Слой_1" data-name="Слой 1" xmlns="http://www.w3.org/2000/svg" xmlns:xlink="http://www.w3.org/1999/xlink" viewBox="0 0 102 73"><defs><style>.cls-1{fill:none;}.cls-2{clip-path:url(#clip-path);}.cls-3,.cls-7{isolation:isolate;}.cls-3{font-size:60px;fill:#9f173a;font-family:High-Marker-Flat, High Marker Flat;}.cls-4{clip-path:url(#clip-path-2);}.cls-5{fill:#e21d49;}.cls-6{clip-path:url(#clip-path-5);}.cls-8{fill:#fff;}</style><clipPath id="clip-path"><rect class="cls-1" x="140.15" y="-0.35" width="102" height="73.7"/></clipPath><clipPath id="clip-path-2"><rect class="cls-1" y="-0.35" width="102" height="73.7"/></clipPath><clipPath id="clip-path-5"><rect class="cls-1" x="-138.5" y="-0.35" width="102" height="73.7"/></clipPath></defs><g class="cls-2"><text class="cls-3" transform="matrix(0.5, 0.87, -0.87, 0.5, 103.46, -18.64)">0</text></g><g class="cls-4"><rect class="cls-5" y="-0.35" width="102" height="73.7"/></g><g class="cls-4"><text class="cls-3" transform="matrix(0.87, -0.5, 0.5, 0.87, 73.68, 131.87)">0</text></g><g class="cls-4"><text class="cls-3" transform="matrix(0.5, 0.87, -0.87, 0.5, -36.69, -18.64)">0</text></g><g class="cls-6"><text class="cls-3" transform="matrix(0.87, -0.5, 0.5, 0.87, -64.83, 131.87)">0</text></g><g class="cls-7"><path class="cls-8" d="M42.89,60.09l-2.63-4.55L22.08,66l-12-20.78,7.79-4.5,9.75,16.89,10.39-6L28.26,34.76l7.8-4.5,9.75,16.89,2.59-1.5,2.25,3.89L48.06,51l2.62,4.55Z"/><path class="cls-8" d="M63,48.46,50.65,27l-6.5,3.75-2.25-3.9,14.29-8.25L70.82,44Z"/><path class="cls-8" d="M74.06,42.09l-3-5.2,7.8-4.5.75,1.3,7.79-4.5L82.15,20.1l-15.59,9L59.44,16.76l20.78-12,2.25,3.9-13,7.5,2.63,4.54,15.58-9,9.75,16.89Z"/></g></svg>