<svg id="Слой_1" data-name="Слой 1" xmlns="http://www.w3.org/2000/svg" xmlns:xlink="http://www.w3.org/1999/xlink" viewBox="0 0 102 73"><defs><style>.cls-1{fill:none;}.cls-2{clip-path:url(#clip-path);}.cls-3{fill:#e21d49;}.cls-4,.cls-5{isolation:isolate;}.cls-4{font-size:60px;fill:#9f173a;font-family:High-Marker-Flat, High Marker Flat;}.cls-6{fill:#fff;}</style><clipPath id="clip-path"><rect class="cls-1" y="-0.35" width="102" height="73.7"/></clipPath></defs><g class="cls-2"><rect class="cls-3" y="-0.35" width="102" height="73.7"/></g><g class="cls-2"><text class="cls-4" transform="matrix(0.87, -0.5, 0.5, 0.87, 73.68, 131.87)">0</text></g><g class="cls-2"><text class="cls-4" transform="matrix(0.5, 0.87, -0.87, 0.5, -36.7, -18.64)">0</text></g><g class="cls-5"><path class="cls-6" d="M33,66.06l-2.62-4.54L12.17,72,.17,51.23,8,46.73l9.75,16.89,10.39-6L18.36,40.73l7.79-4.5L35.9,53.12l2.6-1.5,2.25,3.9L38.15,57l2.63,4.54Z"/><path class="cls-6" d="M46.62,58.19,36.87,41.3l15.59-9-2.63-4.54-13,7.5-2.25-3.9,20.79-12L62.5,31.7l-15.58,9,5.25,9.09L60,45.29,59.21,44,67,39.49l3,5.2Z"/><path class="cls-6" d="M73.25,42.81,66.13,30.47l5.19-3-6.69.4-6-10.39L87.2,1l6,10.39L89.51,17l5.19-3,7.13,12.34ZM84.66,14.58l-3-5.2-13,7.5,3,5.2L80,21.57Zm7.13,12.34-2.63-4.55-13,7.5,2.63,4.55Z"/></g></svg>