<svg id="Слой_1" data-name="Слой 1" xmlns="http://www.w3.org/2000/svg" xmlns:xlink="http://www.w3.org/1999/xlink" viewBox="0 0 102 73"><defs><style>.cls-1{fill:none;}.cls-2{clip-path:url(#clip-path);}.cls-3{fill:#e21d49;}.cls-4,.cls-5{isolation:isolate;}.cls-4{font-size:60px;fill:#9f173a;font-family:High-Marker-Flat, High Marker Flat;}.cls-6{fill:#fff;}.cls-7{clip-path:url(#clip-path-4);}</style><clipPath id="clip-path"><rect class="cls-1" y="-0.35" width="102" height="73.7"/></clipPath><clipPath id="clip-path-4"><rect class="cls-1" x="-120.92" y="-0.35" width="102" height="73.7"/></clipPath></defs><g class="cls-2"><rect class="cls-3" y="-0.35" width="102" height="73.7"/></g><g class="cls-2"><text class="cls-4" transform="matrix(0.87, -0.5, 0.5, 0.87, 73.72, 131.83)">0</text></g><g class="cls-2"><text class="cls-4" transform="matrix(0.5, 0.87, -0.87, 0.5, -36.66, -18.67)">0</text></g><g class="cls-5"><path class="cls-6" d="M40.2,61.85l-2.6-4.5L19.4,67.85l-12-20.8,7.8-4.5L25,59.45l10.4-6-9.8-16.9,7.8-4.5L43.2,49l2.6-1.5,2.2,3.9-2.6,1.5,2.6,4.5Z"/><path class="cls-6" d="M53.8,54.05l-3-5.2,7.8-4.5.8,1.3,7.8-4.5L62,32.05l-15.6,9-7.1-12.3,20.8-12,2.2,3.9-13,7.5,2.6,4.5,15.6-9,9.8,16.9Z"/><path class="cls-6" d="M86.9,34.85,74.5,13.45,68,17.25l-2.2-3.9,14.3-8.2,14.6,25.3Z"/></g><g class="cls-7"><text class="cls-4" transform="matrix(0.87, -0.5, 0.5, 0.87, -47.2, 131.83)">0</text></g></svg>