<svg id="Слой_1" data-name="Слой 1" xmlns="http://www.w3.org/2000/svg" xmlns:xlink="http://www.w3.org/1999/xlink" viewBox="0 0 102 73"><defs><style>.cls-1{fill:none;}.cls-2{clip-path:url(#clip-path);}.cls-3{fill:#854e13;}.cls-4{clip-path:url(#clip-path-2);}.cls-5{fill:#e21d49;}.cls-6,.cls-9{isolation:isolate;}.cls-6{font-size:60px;fill:#9f173a;font-family:High-Marker-Flat, High Marker Flat;}.cls-7{clip-path:url(#clip-path-5);}.cls-8{clip-path:url(#clip-path-6);}.cls-10{fill:#fff;}</style><clipPath id="clip-path"><rect class="cls-1" x="-64.5" y="-94.38" width="102" height="73.7"/></clipPath><clipPath id="clip-path-2"><rect class="cls-1" y="-0.35" width="102" height="73.7"/></clipPath><clipPath id="clip-path-5"><rect class="cls-1" x="130.26" y="-0.35" width="102" height="73.7"/></clipPath><clipPath id="clip-path-6"><rect class="cls-1" x="-136.85" y="-0.35" width="102" height="73.7"/></clipPath></defs><g class="cls-2"><path class="cls-3" d="M9.1,37.82l-36.6-63.4,65-37.5L74.1.22Zm26.8-58.7L23.7-42l-26,15L17.4,7.12ZM49,1.82l-5.6-9.7-13.9,21Z"/></g><g class="cls-4"><rect class="cls-5" y="-0.35" width="102" height="73.7"/></g><g class="cls-4"><text class="cls-6" transform="matrix(0.87, -0.5, 0.5, 0.87, 73.68, 131.87)">0</text></g><g class="cls-4"><text class="cls-6" transform="matrix(0.5, 0.87, -0.87, 0.5, -36.67, -18.64)">0</text></g><g class="cls-7"><text class="cls-6" transform="matrix(0.5, 0.87, -0.87, 0.5, 93.59, -18.64)">0</text></g><g class="cls-8"><text class="cls-6" transform="matrix(0.87, -0.5, 0.5, 0.87, -63.18, 131.87)">0</text></g><g class="cls-9"><path class="cls-10" d="M34,65.65l-2.62-4.54L13.18,71.61l-12-20.79L9,46.32l9.75,16.89,10.39-6L19.37,40.32l7.79-4.5,9.75,16.89,2.6-1.5,2.25,3.9-2.6,1.5,2.63,4.54Z"/><path class="cls-10" d="M47.63,57.78,33,32.45l26-15L73.61,42.78ZM58.32,34.29l-4.88-8.45-10.39,6,7.88,13.64Zm5.25,9.09-2.25-3.9-5.54,8.4Z"/><path class="cls-10" d="M80.76,38.65l-3-5.19,10.16-15.4L82.67,9,64.49,19.47l-2.25-3.9,26-15,8.25,14.29L86.3,30.26l2.25,3.89Z"/></g></svg>