<svg id="Слой_1" data-name="Слой 1" xmlns="http://www.w3.org/2000/svg" xmlns:xlink="http://www.w3.org/1999/xlink" viewBox="0 0 102 73"><defs><style>.cls-1{fill:none;}.cls-2{clip-path:url(#clip-path);}.cls-3{fill:#e21d49;}.cls-4,.cls-6{isolation:isolate;}.cls-4{font-size:60px;fill:#9f173a;font-family:High-Marker-Flat, High Marker Flat;}.cls-5{clip-path:url(#clip-path-4);}.cls-7{fill:#fff;}</style><clipPath id="clip-path"><rect class="cls-1" y="-0.35" width="102" height="73.7"/></clipPath><clipPath id="clip-path-4"><rect class="cls-1" x="-140.15" y="-0.35" width="102" height="73.7"/></clipPath></defs><g class="cls-2"><rect class="cls-3" y="-0.35" width="102" height="73.7"/></g><g class="cls-2"><text class="cls-4" transform="matrix(0.87, -0.5, 0.5, 0.87, 73.68, 131.87)">0</text></g><g class="cls-2"><text class="cls-4" transform="matrix(0.5, 0.87, -0.87, 0.5, -36.69, -18.64)">0</text></g><g class="cls-5"><text class="cls-4" transform="matrix(0.87, -0.5, 0.5, 0.87, -66.48, 131.87)">0</text></g><g class="cls-6"><path class="cls-7" d="M40.56,62.31l-2.62-4.55L19.75,68.26l-12-20.78L15.54,43l9.75,16.89,10.4-6L25.94,37l7.79-4.5,9.75,16.89,2.6-1.5,2.25,3.89-2.6,1.5,2.62,4.55Z"/><path class="cls-7" d="M60.69,50.69,48.32,29.25,41.82,33l-2.25-3.9,14.29-8.25L68.49,46.19Z"/><path class="cls-7" d="M75.63,42.06l-3-5.2L82.8,21.47l-5.25-9.09L59.36,22.88,57.11,19l26-15,8.25,14.29L81.18,33.66l2.25,3.9Z"/></g></svg>