<svg id="Слой_1" data-name="Слой 1" xmlns="http://www.w3.org/2000/svg" xmlns:xlink="http://www.w3.org/1999/xlink" viewBox="0 0 102 73"><defs><style>.cls-1{fill:none;}.cls-2{clip-path:url(#clip-path);}.cls-3{isolation:isolate;font-size:60px;fill:#9f173a;font-family:High-Marker-Flat, High Marker Flat;}.cls-4{clip-path:url(#clip-path-2);}.cls-5{fill:#e21d49;}.cls-6{fill:#fff;}.cls-7{clip-path:url(#clip-path-6);}.cls-8{clip-path:url(#clip-path-7);}.cls-9{fill:#137590;}.cls-10{clip-path:url(#clip-path-8);}.cls-11{fill:#854e13;}.cls-12{clip-path:url(#clip-path-9);}</style><clipPath id="clip-path"><rect class="cls-1" x="118.72" y="-0.35" width="102" height="73.7"/></clipPath><clipPath id="clip-path-2"><rect class="cls-1" y="-0.35" width="102" height="73.7"/></clipPath><clipPath id="clip-path-6"><rect class="cls-1" x="-122.02" y="-0.35" width="102" height="73.7"/></clipPath><clipPath id="clip-path-7"><rect class="cls-1" x="6.6" y="85.39" width="102" height="73.7"/></clipPath><clipPath id="clip-path-8"><rect class="cls-1" x="-2.2" y="-100.38" width="102" height="73.7"/></clipPath><clipPath id="clip-path-9"><rect class="cls-1" x="-129.71" y="-95.43" width="102" height="73.7"/></clipPath></defs><g class="cls-2"><text class="cls-3" transform="matrix(0.5, 0.87, -0.87, 0.5, 82.01, -18.67)">0</text></g><g class="cls-4"><rect class="cls-5" y="-0.35" width="102" height="73.7"/></g><g class="cls-4"><path class="cls-6" d="M34.8,65l-2.6-4.5L14,71,2,50.15l7.8-4.5,9.8,16.9,10.4-6-9.8-16.9,7.8-4.5,9.8,16.9,2.6-1.5,2.2,3.9L40,56l2.6,4.5Z"/><path class="cls-6" d="M48.5,57.15,33.9,31.85l26-15,14.6,25.3Zm10.7-23.5-4.9-8.4-10.4,6,7.9,13.6Zm5.2,9.1-2.2-3.9-5.5,8.4Z"/><path class="cls-6" d="M77.7,40.25l-3-5.2,7.8-4.5.8,1.3,6.5-3.8-4.9-8.4-14.3,8.2L68.4,24l7.4-11.2-10.4,6-2.2-3.9L85.3,2.05l1.9,3.2-8.3,12.6,11.7-6.8,9.4,16.2Z"/></g><g class="cls-4"><text class="cls-3" transform="matrix(0.87, -0.5, 0.5, 0.87, 73.63, 131.83)">0</text></g><g class="cls-4"><text class="cls-3" transform="matrix(0.5, 0.87, -0.87, 0.5, -36.73, -18.67)">0</text></g><g class="cls-7"><text class="cls-3" transform="matrix(0.87, -0.5, 0.5, 0.87, -48.31, 131.83)">0</text></g><g class="cls-8"><path class="cls-9" d="M-30.1,67.09l63.3-36.6,37.5,65L7.4,132.09Zm36,39.8,9.7-5.6-21-13.9Zm22.7-13.1,21.1-12.2-15-26L.6,75.29Z"/></g><g class="cls-10"><path class="cls-11" d="M71.5,31.72,34.9-31.58l65-37.5,36.5,63.3ZM98.2-27,86-48.08l-26,15L79.7,1Zm13.1,22.7L105.7-14,91.8,7Z"/></g><g class="cls-12"><path class="cls-11" d="M-56,36.67l-36.6-63.3,65-37.5L9-.83ZM-29.31-22l-12.2-21.1-26,15L-47.81,6ZM-16.21.67-21.81-9l-13.9,21Z"/></g></svg>