<svg id="Слой_1" data-name="Слой 1" xmlns="http://www.w3.org/2000/svg" xmlns:xlink="http://www.w3.org/1999/xlink" viewBox="0 0 102 73"><defs><style>.cls-1{fill:none;}.cls-2{clip-path:url(#clip-path);}.cls-3{isolation:isolate;font-size:60px;fill:#9f173a;font-family:High-Marker-Flat, High Marker Flat;}.cls-4{clip-path:url(#clip-path-2);}.cls-5{fill:#e21d49;}.cls-6{fill:#fff;}.cls-7{clip-path:url(#clip-path-6);}.cls-8{clip-path:url(#clip-path-7);}.cls-9{fill:#137590;}.cls-10{clip-path:url(#clip-path-8);}.cls-11{clip-path:url(#clip-path-9);}.cls-12{fill:#854e13;}.cls-13{clip-path:url(#clip-path-10);}</style><clipPath id="clip-path"><rect class="cls-1" x="116.52" y="-0.35" width="102" height="73.7"/></clipPath><clipPath id="clip-path-2"><rect class="cls-1" y="-0.35" width="102" height="73.7"/></clipPath><clipPath id="clip-path-6"><rect class="cls-1" x="-116.52" y="-0.35" width="102" height="73.7"/></clipPath><clipPath id="clip-path-7"><rect class="cls-1" x="-2.75" y="83.29" width="102" height="73.7"/></clipPath><clipPath id="clip-path-8"><rect class="cls-1" x="116.52" y="87.04" width="102" height="73.7"/></clipPath><clipPath id="clip-path-9"><rect class="cls-1" x="-4.95" y="-95.43" width="102" height="73.7"/></clipPath><clipPath id="clip-path-10"><rect class="cls-1" x="-116.52" y="-95.43" width="102" height="73.7"/></clipPath></defs><g class="cls-2"><text class="cls-3" transform="matrix(0.5, 0.87, -0.87, 0.5, 79.88, -18.67)">0</text></g><g class="cls-4"><rect class="cls-5" y="-0.35" width="102" height="73.7"/></g><g class="cls-4"><path class="cls-6" d="M38.8,62.75l-2.6-4.5L18,68.75,6,48l7.8-4.5,9.8,16.9,10.4-6-9.8-16.9L32,33l9.8,16.9,2.6-1.5,2.2,3.9L44,53.75l2.6,4.5Z"/><path class="cls-6" d="M52.4,54.85,37.8,29.55l26-15,14.6,25.3Zm10.7-23.5L58.2,23,47.8,29l7.9,13.6Zm5.3,9.1-2.2-3.9L60.7,45Z"/><path class="cls-6" d="M88.2,34.25,75.8,12.85l-6.5,3.8-2.2-3.9,14.3-8.2L96,29.85Z"/></g><g class="cls-4"><text class="cls-3" transform="matrix(0.87, -0.5, 0.5, 0.87, 73.69, 131.83)">0</text></g><g class="cls-4"><text class="cls-3" transform="matrix(0.5, 0.87, -0.87, 0.5, -36.66, -18.67)">0</text></g><g class="cls-7"><text class="cls-3" transform="matrix(0.87, -0.5, 0.5, 0.87, -42.88, 131.83)">0</text></g><g class="cls-8"><path class="cls-9" d="M-39.45,65l63.3-36.6,37.5,65L-1.95,130Zm36,39.8,9.7-5.6-21-13.9Zm22.7-13.1,21.1-12.2-15-26-34.1,19.7Z"/></g><g class="cls-10"><path class="cls-9" d="M79.82,68.74l63.3-36.6,37.5,65-63.3,36.6Zm36,39.8,9.7-5.6-21-13.9Zm22.7-13.1,21.1-12.2-15-26-34.1,19.7Z"/></g><g class="cls-11"><path class="cls-12" d="M68.65,36.67l-36.6-63.3,65-37.5,36.6,63.3ZM95.45-22l-12.2-21.1-26,15L77,6ZM108.55.67,103-9,89.05,12Z"/></g><g class="cls-13"><path class="cls-12" d="M-42.82,36.67l-36.6-63.3,65-37.5L22.08-.83ZM-16.12-22l-12.2-21.1-26,15L-34.62,6ZM-3,.67-8.62-9l-13.9,21Z"/></g></svg>