<svg id="Слой_1" data-name="Слой 1" xmlns="http://www.w3.org/2000/svg" xmlns:xlink="http://www.w3.org/1999/xlink" viewBox="0 0 102 73"><defs><style>.cls-1{fill:none;}.cls-2{clip-path:url(#clip-path);}.cls-11,.cls-3{isolation:isolate;}.cls-3{font-size:60px;fill:#9f173a;font-family:High-Marker-Flat, High Marker Flat;}.cls-4{clip-path:url(#clip-path-2);}.cls-5{fill:#137590;}.cls-6{clip-path:url(#clip-path-3);}.cls-7{fill:#854e13;}.cls-8{clip-path:url(#clip-path-4);}.cls-9{clip-path:url(#clip-path-5);}.cls-10{fill:#e21d49;}.cls-12{fill:#fff;}</style><clipPath id="clip-path"><rect class="cls-1" x="-125.34" y="0.72" width="102" height="73.7"/></clipPath><clipPath id="clip-path-2"><rect class="cls-1" x="-11.54" y="87.04" width="102" height="73.7"/></clipPath><clipPath id="clip-path-3"><rect class="cls-1" x="-7.14" y="-96.48" width="102" height="73.7"/></clipPath><clipPath id="clip-path-4"><rect class="cls-1" x="-125.34" y="-94.38" width="102" height="73.7"/></clipPath><clipPath id="clip-path-5"><rect class="cls-1" y="-0.35" width="102" height="73.7"/></clipPath></defs><g class="cls-2"><text class="cls-3" transform="matrix(0.87, -0.5, 0.5, 0.87, -51.67, 132.93)">0</text></g><g class="cls-4"><path class="cls-5" d="M-48.24,68.74l63.3-36.6,37.5,65-63.3,36.6Zm36,39.8,9.7-5.6-21-13.9Zm22.7-13.1,21.1-12.2-15-26-34.1,19.7Z"/></g><g class="cls-6"><path class="cls-7" d="M66.56,35.62,30-27.68l65-37.5,36.6,63.3Zm26.7-58.7-12.2-21.1-26,15,19.7,34.1Zm13.1,22.7-5.6-9.7-13.9,21Z"/></g><g class="cls-8"><path class="cls-7" d="M-51.64,37.82l-36.6-63.4,65-37.5L13.36.22Zm26.7-58.7L-37.14-42l-26,15,19.7,34.1Zm13.1,22.7-5.6-9.7-13.9,21Z"/></g><g class="cls-9"><rect class="cls-10" y="-0.35" width="102" height="73.7"/></g><g class="cls-9"><text class="cls-3" transform="matrix(0.87, -0.5, 0.5, 0.87, 73.68, 131.87)">0</text></g><g class="cls-9"><text class="cls-3" transform="matrix(0.5, 0.87, -0.87, 0.5, -36.67, -18.64)">0</text></g><g class="cls-11"><path class="cls-12" d="M34.73,65.4l-2.62-4.54L13.92,71.36l-12-20.79,7.8-4.5L19.47,63l10.39-6L20.11,40.07l7.79-4.5,9.75,16.89,2.6-1.5,2.25,3.9-2.6,1.5,2.63,4.54Z"/><path class="cls-12" d="M48.37,57.53,33.75,32.2l26-15L74.35,42.53ZM59.06,34l-4.88-8.45-10.39,6,7.88,13.64Zm5.25,9.09-2.25-3.9-5.54,8.4Z"/><path class="cls-12" d="M77.6,40.65l-3-5.19L82.39,31l.75,1.3,7.8-4.5-5.25-9.1-15.59,9L63,15.32l20.78-12L86,7.22l-13,7.5,2.62,4.55,15.59-9L101,27.15Z"/></g></svg>