<svg id="Слой_1" data-name="Слой 1" xmlns="http://www.w3.org/2000/svg" xmlns:xlink="http://www.w3.org/1999/xlink" viewBox="0 0 102 73"><defs><style>.cls-1{fill:none;}.cls-2{clip-path:url(#clip-path);}.cls-3{isolation:isolate;font-size:60px;fill:#9f173a;font-family:High-Marker-Flat, High Marker Flat;}.cls-4{clip-path:url(#clip-path-2);}.cls-5{fill:#e21d49;}.cls-6{fill:#fff;}.cls-7{clip-path:url(#clip-path-6);}.cls-8{clip-path:url(#clip-path-7);}.cls-9{fill:#854e13;}.cls-10{clip-path:url(#clip-path-8);}</style><clipPath id="clip-path"><rect class="cls-1" x="115.97" y="-0.35" width="102" height="73.7"/></clipPath><clipPath id="clip-path-2"><rect class="cls-1" y="-0.35" width="102" height="73.7"/></clipPath><clipPath id="clip-path-6"><rect class="cls-1" x="-116.52" y="-0.35" width="102" height="73.7"/></clipPath><clipPath id="clip-path-7"><rect class="cls-1" y="-97.63" width="102" height="73.7"/></clipPath><clipPath id="clip-path-8"><rect class="cls-1" x="-119.82" y="-97.63" width="102" height="73.7"/></clipPath></defs><g class="cls-2"><text class="cls-3" transform="matrix(0.5, 0.87, -0.87, 0.5, 79.24, -18.67)">0</text></g><g class="cls-4"><rect class="cls-5" y="-0.35" width="102" height="73.7"/></g><g class="cls-4"><path class="cls-6" d="M37.5,63.75l-2.6-4.5L16.7,69.75,4.7,49l7.8-4.5,9.8,16.9,10.4-6-9.8-16.9L30.7,34l9.8,16.9,2.6-1.5,2.2,3.9-2.6,1.5,2.6,4.5Z"/><path class="cls-6" d="M57.6,52.15,45.2,30.75l-6.5,3.8-2.2-3.9,14.3-8.2,14.6,25.3Z"/><path class="cls-6" d="M68.7,45.75l-7.1-12.3,5.2-3-6.7.4-6-10.4L82.7,4l6,10.4L85,20l5.2-3,7.1,12.3Zm11.4-28.2-3-5.2-13,7.5,3,5.2,8.4-.5Zm7.1,12.3-2.6-4.5-13,7.5,2.6,4.5Z"/></g><g class="cls-4"><text class="cls-3" transform="matrix(0.87, -0.5, 0.5, 0.87, 73.69, 131.83)">0</text></g><g class="cls-4"><text class="cls-3" transform="matrix(0.5, 0.87, -0.87, 0.5, -36.65, -18.67)">0</text></g><g class="cls-7"><text class="cls-3" transform="matrix(0.87, -0.5, 0.5, 0.87, -42.84, 131.83)">0</text></g><g class="cls-8"><path class="cls-9" d="M73.6,34.47,37-28.83l65-37.5L138.6-3Zm26.7-58.7L88.1-45.33l-26,15L81.8,3.77Zm13.2,22.7-5.6-9.7L94,9.77Z"/></g><g class="cls-10"><path class="cls-9" d="M-46.12,34.47l-36.6-63.3,65-37.5L18.88-3Zm26.7-58.7-12.2-21.1-26,15,19.7,34.1Zm13.2,22.7-5.6-9.7-13.9,21Z"/></g></svg>