<svg id="Слой_1" data-name="Слой 1" xmlns="http://www.w3.org/2000/svg" xmlns:xlink="http://www.w3.org/1999/xlink" viewBox="0 0 102 73"><defs><style>.cls-1{fill:none;}.cls-2{clip-path:url(#clip-path);}.cls-3{fill:#e21d49;}.cls-4{fill:#fff;}.cls-5{isolation:isolate;font-size:60px;fill:#9f173a;font-family:High-Marker-Flat, High Marker Flat;}.cls-6{clip-path:url(#clip-path-5);}.cls-7{clip-path:url(#clip-path-6);}.cls-8{fill:#854e13;}.cls-9{clip-path:url(#clip-path-7);}</style><clipPath id="clip-path"><rect class="cls-1" y="-0.35" width="102" height="73.7"/></clipPath><clipPath id="clip-path-5"><rect class="cls-1" x="-111.02" y="-0.35" width="102" height="73.7"/></clipPath><clipPath id="clip-path-6"><rect class="cls-1" y="-95.43" width="102" height="73.7"/></clipPath><clipPath id="clip-path-7"><rect class="cls-1" x="-115.97" y="-97.63" width="102" height="73.7"/></clipPath></defs><g class="cls-2"><rect class="cls-3" y="-0.35" width="102" height="73.7"/></g><g class="cls-2"><path class="cls-4" d="M40.7,62l-2.6-4.5L19.9,68l-12-20.8,7.8-4.5,9.8,16.9,10.4-6-9.8-16.9,7.8-4.5,9.8,16.9,2.6-1.5,2.2,3.9L45.9,53l2.6,4.5Z"/><path class="cls-4" d="M54.4,54.05l-3-5.2,7.8-4.5.8,1.3,6.5-3.8-4.9-8.4-14.3,8.2-2.2-3.9,7.4-11.2-10.4,6-2.2-3.9L61.8,16l1.9,3.2-8.3,12.6L67.1,25l9.4,16.2Z"/><path class="cls-4" d="M86.2,35.65,73.8,14.25l-6.5,3.8-2.2-3.9L79.4,6,94,31.25Z"/></g><g class="cls-2"><text class="cls-5" transform="matrix(0.87, -0.5, 0.5, 0.87, 73.65, 131.83)">0</text></g><g class="cls-2"><text class="cls-5" transform="matrix(0.5, 0.87, -0.87, 0.5, -36.69, -18.67)">0</text></g><g class="cls-6"><text class="cls-5" transform="matrix(0.87, -0.5, 0.5, 0.87, -37.39, 131.83)">0</text></g><g class="cls-7"><path class="cls-8" d="M73.7,36.67,37.1-26.63l65-37.5L138.7-.83ZM100.4-22,88.2-43.13l-26,15L81.9,6ZM113.5.67,107.9-9,94,12Z"/></g><g class="cls-9"><path class="cls-8" d="M-42.27,34.47l-36.6-63.3,65-37.5L22.73-3Zm26.7-58.7-12.2-21.1-26,15,19.7,34.1Zm13.1,22.7-5.6-9.7L-22,9.77Z"/></g></svg>