<svg id="Слой_1" data-name="Слой 1" xmlns="http://www.w3.org/2000/svg" xmlns:xlink="http://www.w3.org/1999/xlink" viewBox="0 0 102 73"><defs><style>.cls-1{fill:none;}.cls-2{clip-path:url(#clip-path);}.cls-3{isolation:isolate;font-size:60px;fill:#9f173a;font-family:High-Marker-Flat, High Marker Flat;}.cls-4{clip-path:url(#clip-path-2);}.cls-5{fill:#e21d49;}.cls-6{fill:#fff;}.cls-7{clip-path:url(#clip-path-6);}.cls-8{clip-path:url(#clip-path-7);}.cls-9{fill:#854e13;}.cls-10{clip-path:url(#clip-path-8);}</style><clipPath id="clip-path"><rect class="cls-1" x="123.66" y="-0.35" width="102" height="73.7"/></clipPath><clipPath id="clip-path-2"><rect class="cls-1" y="-0.35" width="102" height="73.7"/></clipPath><clipPath id="clip-path-6"><rect class="cls-1" x="-115.97" y="-0.35" width="102" height="73.7"/></clipPath><clipPath id="clip-path-7"><rect class="cls-1" y="-97.63" width="102" height="73.7"/></clipPath><clipPath id="clip-path-8"><rect class="cls-1" x="-115.97" y="-97.63" width="102" height="73.7"/></clipPath></defs><g class="cls-2"><text class="cls-3" transform="matrix(0.5, 0.87, -0.87, 0.5, 86.95, -18.67)">0</text></g><g class="cls-4"><rect class="cls-5" y="-0.35" width="102" height="73.7"/></g><g class="cls-4"><path class="cls-6" d="M36.1,64.45,33.5,60,15.3,70.45l-12-20.8,7.8-4.5,9.8,16.9,10.4-6-9.8-16.9,7.8-4.5,9.8,16.9,2.6-1.5L43.9,54l-2.6,1.5L43.9,60Z"/><path class="cls-6" d="M49.8,56.55,40,39.65l15.6-9L53,26.15l-13,7.5-2.2-3.9,20.8-12,7.1,12.3-15.6,9,5.2,9.1,7.8-4.5-.8-1.3,7.8-4.5,3,5.2Z"/><path class="cls-6" d="M76.4,41.15l-3-5.2,7.8-4.5.8,1.3L88.5,29l-4.9-8.4-14.3,8.2-2.2-3.9,7.4-11.2-10.4,6-2.2-3.9L84,3l1.9,3.2-8.3,12.6L89.3,12l9.4,16.2Z"/></g><g class="cls-4"><text class="cls-3" transform="matrix(0.87, -0.5, 0.5, 0.87, 73.61, 131.83)">0</text></g><g class="cls-4"><text class="cls-3" transform="matrix(0.5, 0.87, -0.87, 0.5, -36.73, -18.67)">0</text></g><g class="cls-7"><text class="cls-3" transform="matrix(0.87, -0.5, 0.5, 0.87, -42.27, 131.83)">0</text></g><g class="cls-8"><path class="cls-9" d="M73.6,34.47,37-28.83l65-37.5L138.6-3Zm26.8-58.7L88.2-45.33l-26,15L81.9,3.77Zm13.1,22.7-5.6-9.7L94,9.77Z"/></g><g class="cls-10"><path class="cls-9" d="M-42.37,34.47-79-28.83l65-37.5L22.63-3Zm26.7-58.7-12.2-21.1-26,15,19.7,34.1Zm13.2,22.7-5.6-9.7L-22,9.77Z"/></g></svg>