<svg id="Слой_1" data-name="Слой 1" xmlns="http://www.w3.org/2000/svg" xmlns:xlink="http://www.w3.org/1999/xlink" viewBox="0 0 102 73"><defs><style>.cls-1{fill:none;}.cls-2{clip-path:url(#clip-path);}.cls-3{fill:#e21d49;}.cls-4,.cls-5{isolation:isolate;}.cls-4{font-size:60px;fill:#9f173a;font-family:High-Marker-Flat, High Marker Flat;}.cls-6{fill:#fff;}</style><clipPath id="clip-path"><rect class="cls-1" y="-0.35" width="102" height="73.7"/></clipPath></defs><g class="cls-2"><rect class="cls-3" y="-0.35" width="102" height="73.7"/></g><g class="cls-2"><text class="cls-4" transform="matrix(0.87, -0.5, 0.5, 0.87, 73.68, 131.87)">0</text></g><g class="cls-2"><text class="cls-4" transform="matrix(0.5, 0.87, -0.87, 0.5, -36.7, -18.64)">0</text></g><g class="cls-5"><path class="cls-6" d="M34.28,65.31l-2.62-4.54L13.47,71.27l-12-20.79L9.26,46,19,62.87l10.4-6L19.66,40l7.79-4.5L37.2,52.37l2.6-1.5,2.25,3.9-2.6,1.5,2.62,4.54Z"/><path class="cls-6" d="M47.92,57.44,38.17,40.55l15.59-9L51.13,27l-13,7.5-2.25-3.9,20.79-12L63.8,31,48.21,40,53.46,49l7.8-4.5-.75-1.3,7.79-4.5,3,5.2Z"/><path class="cls-6" d="M92.74,31.56l-2.25-3.89-23.44,1.4L59.92,16.73l26-15,14.63,25.33ZM80.36,10.13,70,16.13l4.12,7.14,13.4-.8Z"/></g></svg>