<svg id="Слой_1" data-name="Слой 1" xmlns="http://www.w3.org/2000/svg" xmlns:xlink="http://www.w3.org/1999/xlink" viewBox="0 0 102 73"><defs><style>.cls-1{fill:none;}.cls-2{clip-path:url(#clip-path);}.cls-3{fill:#e21d49;}.cls-4,.cls-5{isolation:isolate;}.cls-4{font-size:60px;fill:#9f173a;font-family:High-Marker-Flat, High Marker Flat;}.cls-6{fill:#fff;}</style><clipPath id="clip-path"><rect class="cls-1" y="-0.35" width="102" height="73.7"/></clipPath></defs><g class="cls-2"><rect class="cls-3" y="-0.35" width="102" height="73.7"/></g><g class="cls-2"><text class="cls-4" transform="matrix(0.87, -0.5, 0.5, 0.87, 73.68, 131.87)">0</text></g><g class="cls-2"><text class="cls-4" transform="matrix(0.5, 0.87, -0.87, 0.5, -36.7, -18.64)">0</text></g><g class="cls-5"><path class="cls-6" d="M36.1,63.81l-2.62-4.54L15.29,69.77,3.29,49l7.79-4.5,9.75,16.89,10.4-6L21.48,38.48,29.27,34,39,50.87l2.6-1.5,2.25,3.9-2.6,1.5,2.62,4.54Z"/><path class="cls-6" d="M49.74,55.94,40,39.05l15.59-9L53,25.51,40,33l-2.25-3.9,20.79-12,7.12,12.34L50,38.45l5.25,9.09,7.8-4.5-.75-1.3,7.79-4.5,3,5.2Z"/><path class="cls-6" d="M76.37,40.56,61.74,15.23l20.79-12,2.25,3.9-13,7.5,4.5,7.79L81.83,14l7.8-4.5L99.75,27.06ZM89.71,27.67l-4.88-8.45-5.54,8.4,2.62,4.55Z"/></g></svg>