<svg id="Слой_1" data-name="Слой 1" xmlns="http://www.w3.org/2000/svg" xmlns:xlink="http://www.w3.org/1999/xlink" viewBox="0 0 102 73"><defs><style>.cls-1{fill:none;}.cls-2{clip-path:url(#clip-path);}.cls-3,.cls-6{isolation:isolate;}.cls-3{font-size:60px;fill:#9f173a;font-family:High-Marker-Flat, High Marker Flat;}.cls-4{clip-path:url(#clip-path-2);}.cls-5{fill:#e21d49;}.cls-7{fill:#fff;}</style><clipPath id="clip-path"><rect class="cls-1" x="-130.26" y="-0.35" width="102" height="73.7"/></clipPath><clipPath id="clip-path-2"><rect class="cls-1" y="-0.35" width="102" height="73.7"/></clipPath></defs><g class="cls-2"><text class="cls-3" transform="matrix(0.87, -0.5, 0.5, 0.87, -56.58, 131.87)">0</text></g><g class="cls-4"><rect class="cls-5" y="-0.35" width="102" height="73.7"/></g><g class="cls-4"><text class="cls-3" transform="matrix(0.87, -0.5, 0.5, 0.87, 73.68, 131.87)">0</text></g><g class="cls-4"><text class="cls-3" transform="matrix(0.5, 0.87, -0.87, 0.5, -36.69, -18.64)">0</text></g><g class="cls-6"><path class="cls-7" d="M42.34,61.19l-2.63-4.55L21.53,67.14l-12-20.79,7.79-4.5,9.75,16.89,10.39-6L27.71,35.85l7.8-4.5,9.75,16.89,2.59-1.5,2.25,3.9-2.59,1.5,2.62,4.55Z"/><path class="cls-7" d="M62.47,49.56,50.1,28.13l-6.5,3.75L41.35,28l14.29-8.25L70.27,45.06Z"/><path class="cls-7" d="M73.51,43.19l-3-5.2,7.8-4.5.75,1.3L85.55,31l-4.87-8.45L66.39,30.84,64.14,27l7.39-11.2-10.39,6-2.25-3.9L81,5.1l1.88,3.25L74.53,21,86.22,14.2,95.6,30.44Z"/></g></svg>