<svg id="Слой_1" data-name="Слой 1" xmlns="http://www.w3.org/2000/svg" xmlns:xlink="http://www.w3.org/1999/xlink" viewBox="0 0 102 73"><defs><style>.cls-1{fill:none;}.cls-2{clip-path:url(#clip-path);}.cls-3,.cls-6{isolation:isolate;}.cls-3{font-size:60px;fill:#9f173a;font-family:High-Marker-Flat, High Marker Flat;}.cls-4{clip-path:url(#clip-path-2);}.cls-5{fill:#e21d49;}.cls-7{fill:#fff;}</style><clipPath id="clip-path"><rect class="cls-1" x="138.5" y="-0.35" width="102" height="73.7"/></clipPath><clipPath id="clip-path-2"><rect class="cls-1" y="-0.35" width="102" height="73.7"/></clipPath></defs><g class="cls-2"><text class="cls-3" transform="matrix(0.5, 0.87, -0.87, 0.5, 101.82, -18.64)">0</text></g><g class="cls-4"><rect class="cls-5" y="-0.35" width="102" height="73.7"/></g><g class="cls-4"><text class="cls-3" transform="matrix(0.87, -0.5, 0.5, 0.87, 73.68, 131.87)">0</text></g><g class="cls-4"><text class="cls-3" transform="matrix(0.5, 0.87, -0.87, 0.5, -36.68, -18.64)">0</text></g><g class="cls-6"><path class="cls-7" d="M38.83,62.69,36.2,58.14,18,68.64,6,47.86l7.79-4.5,9.75,16.89,10.39-6L24.2,37.36l7.8-4.5,9.75,16.89,2.59-1.5,2.25,3.89L44,53.64l2.62,4.55Z"/><path class="cls-7" d="M59,51.06,46.59,29.63l-6.5,3.75-2.25-3.9,14.29-8.25L66.76,46.56Z"/><path class="cls-7" d="M88.19,34.19l-2.63-4.55L67.38,40.14l-12-20.78,7.79-4.5,9.75,16.89,10.39-6L73.56,8.86l7.8-4.5,9.75,16.89,2.6-1.5L96,23.64l-2.6,1.5L96,29.69Z"/></g></svg>