<svg id="Слой_1" data-name="Слой 1" xmlns="http://www.w3.org/2000/svg" xmlns:xlink="http://www.w3.org/1999/xlink" viewBox="0 0 102 73"><defs><style>.cls-1{fill:none;}.cls-2{clip-path:url(#clip-path);}.cls-3{isolation:isolate;font-size:60px;fill:#9f173a;font-family:High-Marker-Flat, High Marker Flat;}.cls-4{clip-path:url(#clip-path-2);}.cls-5{fill:#e21d49;}.cls-6{fill:#fff;}.cls-7{clip-path:url(#clip-path-6);}.cls-8{clip-path:url(#clip-path-7);}.cls-9{fill:#854e13;}.cls-10{clip-path:url(#clip-path-8);}</style><clipPath id="clip-path"><rect class="cls-1" x="116.52" y="-0.35" width="102" height="73.7"/></clipPath><clipPath id="clip-path-2"><rect class="cls-1" y="-0.35" width="102" height="73.7"/></clipPath><clipPath id="clip-path-6"><rect class="cls-1" x="-120.37" y="2.4" width="102" height="73.7"/></clipPath><clipPath id="clip-path-7"><rect class="cls-1" x="-3.3" y="-97.63" width="102" height="73.7"/></clipPath><clipPath id="clip-path-8"><rect class="cls-1" x="-117.62" y="-95.43" width="102" height="73.7"/></clipPath></defs><g class="cls-2"><text class="cls-3" transform="matrix(0.5, 0.87, -0.87, 0.5, 79.87, -18.67)">0</text></g><g class="cls-4"><rect class="cls-5" y="-0.35" width="102" height="73.7"/></g><g class="cls-4"><path class="cls-6" d="M40.1,61.85l-2.6-4.5L19.3,67.85l-12-20.8,7.8-4.5,9.8,16.9,10.4-6-9.8-16.9,7.8-4.5L43.1,49l2.6-1.5,2.2,3.9-2.6,1.5,2.6,4.5Z"/><path class="cls-6" d="M60.2,50.25,47.8,28.85l-6.5,3.8-2.2-3.9,14.3-8.2L68,45.85Z"/><path class="cls-6" d="M71.3,43.85,56.7,18.55l20.8-12,2.2,3.9L66.7,18l4.5,7.8,5.5-8.4,7.8-4.5,10.1,17.5ZM84.6,31l-4.9-8.4L74.2,31l2.6,4.5Z"/></g><g class="cls-4"><text class="cls-3" transform="matrix(0.87, -0.5, 0.5, 0.87, 73.68, 131.83)">0</text></g><g class="cls-4"><text class="cls-3" transform="matrix(0.5, 0.87, -0.87, 0.5, -36.67, -18.67)">0</text></g><g class="cls-7"><text class="cls-3" transform="matrix(0.87, -0.5, 0.5, 0.87, -46.71, 134.58)">0</text></g><g class="cls-8"><path class="cls-9" d="M70.4,34.47,33.8-28.83l65-37.5L135.4-3Zm26.7-58.7L84.9-45.33l-26,15L78.6,3.77Zm13.2,22.7-5.6-9.7-13.9,21Z"/></g><g class="cls-10"><path class="cls-9" d="M-43.92,36.67l-36.6-63.3,65-37.5L21.08-.83ZM-17.22-22l-12.2-21.1-26,15L-35.72,6ZM-4.12.67-9.72-9l-13.9,21Z"/></g></svg>