<svg id="Слой_1" data-name="Слой 1" xmlns="http://www.w3.org/2000/svg" xmlns:xlink="http://www.w3.org/1999/xlink" viewBox="0 0 102 73"><defs><style>.cls-1{fill:none;}.cls-2{clip-path:url(#clip-path);}.cls-3{fill:#e21d49;}.cls-4,.cls-5{isolation:isolate;}.cls-4{font-size:60px;fill:#9f173a;font-family:High-Marker-Flat, High Marker Flat;}.cls-6{fill:#fff;}</style><clipPath id="clip-path"><rect class="cls-1" y="-0.35" width="102" height="73.7"/></clipPath></defs><g class="cls-2"><rect class="cls-3" y="-0.35" width="102" height="73.7"/></g><g class="cls-2"><text class="cls-4" transform="matrix(0.87, -0.5, 0.5, 0.87, 73.68, 131.87)">0</text></g><g class="cls-2"><text class="cls-4" transform="matrix(0.5, 0.87, -0.87, 0.5, -36.69, -18.64)">0</text></g><g class="cls-5"><path class="cls-6" d="M36.29,63.81l-2.62-4.54L15.48,69.77,3.48,49l7.79-4.5L21,61.37l10.4-6L21.67,38.48,29.46,34l9.75,16.89,2.6-1.5,2.25,3.9-2.6,1.5,2.62,4.54Z"/><path class="cls-6" d="M49.93,55.94,40.18,39.05l15.59-9-2.63-4.54-13,7.5-2.25-3.9,20.79-12,7.12,12.34-15.59,9,5.25,9.09,7.8-4.5-.75-1.3,7.79-4.5,3,5.2Z"/><path class="cls-6" d="M76.56,40.56l-3-5.19,7.79-4.5.75,1.3,7.8-4.5-5.25-9.1-15.59,9L61.93,15.23l20.79-12L85,7.13l-13,7.5,2.62,4.55,15.59-9,9.75,16.88Z"/></g></svg>