<svg id="Слой_1" data-name="Слой 1" xmlns="http://www.w3.org/2000/svg" xmlns:xlink="http://www.w3.org/1999/xlink" viewBox="0 0 102 73"><defs><style>.cls-1{fill:none;}.cls-2{clip-path:url(#clip-path);}.cls-3{fill:#e21d49;}.cls-4,.cls-5{isolation:isolate;}.cls-4{font-size:60px;fill:#9f173a;font-family:High-Marker-Flat, High Marker Flat;}.cls-6{fill:#fff;}.cls-7{clip-path:url(#clip-path-4);}</style><clipPath id="clip-path"><rect class="cls-1" y="-0.35" width="102" height="73.7"/></clipPath><clipPath id="clip-path-4"><rect class="cls-1" x="-148.4" y="-0.35" width="102" height="73.7"/></clipPath></defs><g class="cls-2"><rect class="cls-3" y="-0.35" width="102" height="73.7"/></g><g class="cls-2"><text class="cls-4" transform="matrix(0.87, -0.5, 0.5, 0.87, 73.68, 131.87)">0</text></g><g class="cls-2"><text class="cls-4" transform="matrix(0.5, 0.87, -0.87, 0.5, -36.69, -18.64)">0</text></g><g class="cls-5"><path class="cls-6" d="M34.18,65.31l-2.62-4.54L13.37,71.27l-12-20.79L9.16,46l9.75,16.89,10.4-6L19.56,40l7.79-4.5L37.1,52.37l2.6-1.5L42,54.77l-2.6,1.5L42,60.81Z"/><path class="cls-6" d="M47.82,57.44,38.07,40.55l15.59-9L51,27l-13,7.5-2.25-3.9,20.79-12L63.7,31,48.11,40,53.36,49l7.8-4.5-.75-1.3,7.79-4.5,3,5.2Z"/><path class="cls-6" d="M92.64,31.56,90,27,71.82,37.52l-12-20.79,7.8-4.5,9.75,16.89,10.39-6L78,6.23l7.79-4.5,9.75,16.89,2.6-1.5L100.4,21l-2.6,1.5,2.63,4.54Z"/></g><g class="cls-7"><text class="cls-4" transform="matrix(0.87, -0.5, 0.5, 0.87, -74.72, 131.87)">0</text></g></svg>