<svg id="Слой_1" data-name="Слой 1" xmlns="http://www.w3.org/2000/svg" xmlns:xlink="http://www.w3.org/1999/xlink" viewBox="0 0 102 73"><defs><style>.cls-1{fill:none;}.cls-2{clip-path:url(#clip-path);}.cls-3{isolation:isolate;font-size:60px;fill:#9f173a;font-family:High-Marker-Flat, High Marker Flat;}.cls-4{clip-path:url(#clip-path-2);}.cls-5{fill:#e21d49;}.cls-6{fill:#fff;}.cls-7{clip-path:url(#clip-path-6);}.cls-8{clip-path:url(#clip-path-7);}.cls-9{fill:#137590;}.cls-10{clip-path:url(#clip-path-8);}.cls-11{clip-path:url(#clip-path-9);}.cls-12{fill:#854e13;}.cls-13{clip-path:url(#clip-path-10);}</style><clipPath id="clip-path"><rect class="cls-1" x="122.02" y="-0.35" width="102" height="73.7"/></clipPath><clipPath id="clip-path-2"><rect class="cls-1" y="-0.35" width="102" height="73.7"/></clipPath><clipPath id="clip-path-6"><rect class="cls-1" x="-116.52" y="-0.35" width="102" height="73.7"/></clipPath><clipPath id="clip-path-7"><rect class="cls-1" y="87.04" width="102" height="73.7"/></clipPath><clipPath id="clip-path-8"><rect class="cls-1" x="128.61" y="85.39" width="102" height="73.7"/></clipPath><clipPath id="clip-path-9"><rect class="cls-1" x="-7.69" y="-95.43" width="102" height="73.7"/></clipPath><clipPath id="clip-path-10"><rect class="cls-1" x="-121.47" y="-95.43" width="102" height="73.7"/></clipPath></defs><g class="cls-2"><text class="cls-3" transform="matrix(0.5, 0.87, -0.87, 0.5, 85.29, -18.67)">0</text></g><g class="cls-4"><rect class="cls-5" y="-0.35" width="102" height="73.7"/></g><g class="cls-4"><path class="cls-6" d="M34.3,65.35l-2.6-4.5L13.5,71.35l-12-20.8,7.8-4.5L19.1,63l10.4-6-9.8-16.9,7.8-4.5,9.8,16.9L39.9,51l2.2,3.9-2.6,1.5,2.6,4.5Z"/><path class="cls-6" d="M47.9,57.45,33.3,32.15l26-15,14.6,25.3ZM58.6,34l-4.9-8.4-10.4,6,7.9,13.6Zm5.3,9.1-2.2-3.9-5.5,8.4Z"/><path class="cls-6" d="M77.1,40.65l-9.8-16.9,15.6-9-2.6-4.5-13,7.5-2.2-3.9,20.8-12L93,14.15l-15.6,9,5.2,9.1,7.8-4.5-.8-1.3L97.4,22l3,5.2Z"/></g><g class="cls-4"><text class="cls-3" transform="matrix(0.87, -0.5, 0.5, 0.87, 73.71, 131.83)">0</text></g><g class="cls-4"><text class="cls-3" transform="matrix(0.5, 0.87, -0.87, 0.5, -36.64, -18.67)">0</text></g><g class="cls-7"><text class="cls-3" transform="matrix(0.87, -0.5, 0.5, 0.87, -42.83, 131.83)">0</text></g><g class="cls-8"><path class="cls-9" d="M-36.7,68.74l63.3-36.6,37.5,65L.8,133.74Zm36,39.8,9.7-5.6L-12,89ZM22,95.44l21.1-12.2-15-26L-6,76.94Z"/></g><g class="cls-10"><path class="cls-9" d="M91.91,67.09l63.3-36.6,37.5,65-63.3,36.6Zm36,39.8,9.7-5.6-21-13.9Zm22.7-13.1,21.1-12.2-15-26-34.1,19.7Z"/></g><g class="cls-11"><path class="cls-12" d="M66,36.67l-36.6-63.3,65-37.5L131-.83ZM92.71-22l-12.2-21.1-26,15L74.21,6ZM105.81.67,100.21-9,86.31,12Z"/></g><g class="cls-13"><path class="cls-12" d="M-47.87,36.67l-36.6-63.3,65-37.5L17.13-.83ZM-21.07-22l-12.2-21.1-26,15L-39.57,6ZM-8,.67-13.57-9l-13.9,21Z"/></g></svg>