<svg id="Слой_1" data-name="Слой 1" xmlns="http://www.w3.org/2000/svg" xmlns:xlink="http://www.w3.org/1999/xlink" viewBox="0 0 102 73"><defs><style>.cls-1{fill:none;}.cls-2{clip-path:url(#clip-path);}.cls-3{isolation:isolate;font-size:60px;fill:#9f173a;font-family:High-Marker-Flat, High Marker Flat;}.cls-4{clip-path:url(#clip-path-2);}.cls-5{fill:#e21d49;}.cls-6{fill:#fff;}.cls-7{clip-path:url(#clip-path-6);}.cls-8{clip-path:url(#clip-path-7);}.cls-9{fill:#854e13;}.cls-10{clip-path:url(#clip-path-8);}</style><clipPath id="clip-path"><rect class="cls-1" x="117.62" y="2.4" width="102" height="73.7"/></clipPath><clipPath id="clip-path-2"><rect class="cls-1" y="-0.35" width="102" height="73.7"/></clipPath><clipPath id="clip-path-6"><rect class="cls-1" x="-118.72" y="-0.35" width="102" height="73.7"/></clipPath><clipPath id="clip-path-7"><rect class="cls-1" y="-95.43" width="102" height="73.7"/></clipPath><clipPath id="clip-path-8"><rect class="cls-1" x="-120.92" y="-100.38" width="102" height="73.7"/></clipPath></defs><g class="cls-2"><text class="cls-3" transform="matrix(0.5, 0.87, -0.87, 0.5, 80.93, -15.92)">0</text></g><g class="cls-4"><rect class="cls-5" y="-0.35" width="102" height="73.7"/></g><g class="cls-4"><path class="cls-6" d="M32.9,66.15l-2.6-4.5L12.1,72.15.1,51.35l7.8-4.5,9.8,16.9,10.4-6-9.8-16.9,7.8-4.5,9.8,16.9,2.6-1.5,2.2,3.9-2.6,1.5,2.6,4.5Z"/><path class="cls-6" d="M46.6,58.25,31.9,33l26-15,14.6,25.3Zm10.6-23.5-4.9-8.4-10.4,6L49.8,46Zm5.3,9.1L60.3,40l-5.5,8.4Z"/><path class="cls-6" d="M94,30.85l-2.6-4.5L73.2,36.85l-12-20.8,7.8-4.5,9.8,16.9,10.4-6L79.4,5.55l7.8-4.5L97,18l2.6-1.5,2.2,3.9-2.6,1.5,2.6,4.5Z"/></g><g class="cls-4"><text class="cls-3" transform="matrix(0.87, -0.5, 0.5, 0.87, 73.64, 131.83)">0</text></g><g class="cls-4"><text class="cls-3" transform="matrix(0.5, 0.87, -0.87, 0.5, -36.71, -18.67)">0</text></g><g class="cls-7"><text class="cls-3" transform="matrix(0.87, -0.5, 0.5, 0.87, -45.09, 131.83)">0</text></g><g class="cls-8"><path class="cls-9" d="M73.7,36.67,37.1-26.63l65-37.5L138.7-.83ZM100.4-22,88.2-43.13l-26,15L81.9,6ZM113.5.67,107.9-9,94,12Z"/></g><g class="cls-10"><path class="cls-9" d="M-47.22,31.72l-36.6-63.3,65-37.5,36.5,63.3ZM-20.52-27l-12.2-21.1-26,15L-39,1Zm13.1,22.7L-13-14-26.92,7Z"/></g></svg>