<svg id="Слой_1" data-name="Слой 1" xmlns="http://www.w3.org/2000/svg" xmlns:xlink="http://www.w3.org/1999/xlink" viewBox="0 0 102 73"><defs><style>.cls-1{fill:none;}.cls-2{clip-path:url(#clip-path);}.cls-3{fill:#e21d49;}.cls-4,.cls-5{isolation:isolate;}.cls-4{font-size:60px;fill:#9f173a;font-family:High-Marker-Flat, High Marker Flat;}.cls-6{fill:#fff;}</style><clipPath id="clip-path"><rect class="cls-1" y="-0.35" width="102" height="73.7"/></clipPath></defs><g class="cls-2"><rect class="cls-3" y="-0.35" width="102" height="73.7"/></g><g class="cls-2"><text class="cls-4" transform="matrix(0.87, -0.5, 0.5, 0.87, 73.68, 131.87)">0</text></g><g class="cls-2"><text class="cls-4" transform="matrix(0.5, 0.87, -0.87, 0.5, -36.69, -18.64)">0</text></g><g class="cls-5"><path class="cls-6" d="M36.59,64.66,34,60.12,15.78,70.62l-12-20.79,7.79-4.5,9.75,16.89,10.4-6L22,39.33l7.79-4.5,9.75,16.89,2.6-1.5,2.25,3.9-2.6,1.5,2.62,4.54Z"/><path class="cls-6" d="M50.23,56.79,40.48,39.9l15.59-9-2.63-4.54-13,7.5L38.2,30,59,18,66.11,30.3l-15.59,9,5.25,9.09,7.8-4.5-.75-1.3,7.79-4.5,3,5.2Z"/><path class="cls-6" d="M76.86,41.41,67.11,24.53l15.59-9L80.07,11l-13,7.5-2.25-3.9,20.79-12,7.12,12.34-15.59,9L82.4,33l7.8-4.5-.75-1.3,7.79-4.5,3,5.19Z"/></g></svg>