<svg id="Слой_1" data-name="Слой 1" xmlns="http://www.w3.org/2000/svg" xmlns:xlink="http://www.w3.org/1999/xlink" viewBox="0 0 102 73"><defs><style>.cls-1{fill:none;}.cls-2{clip-path:url(#clip-path);}.cls-3,.cls-6{isolation:isolate;}.cls-3{font-size:60px;fill:#9f173a;font-family:High-Marker-Flat, High Marker Flat;}.cls-4{clip-path:url(#clip-path-2);}.cls-5{fill:#e21d49;}.cls-7{fill:#fff;}</style><clipPath id="clip-path"><rect class="cls-1" x="-130.26" y="-0.35" width="102" height="73.7"/></clipPath><clipPath id="clip-path-2"><rect class="cls-1" y="-0.35" width="102" height="73.7"/></clipPath></defs><g class="cls-2"><text class="cls-3" transform="matrix(0.87, -0.5, 0.5, 0.87, -56.58, 131.87)">0</text></g><g class="cls-4"><rect class="cls-5" y="-0.35" width="102" height="73.7"/></g><g class="cls-4"><text class="cls-3" transform="matrix(0.87, -0.5, 0.5, 0.87, 73.68, 131.87)">0</text></g><g class="cls-4"><text class="cls-3" transform="matrix(0.5, 0.87, -0.87, 0.5, -36.67, -18.64)">0</text></g><g class="cls-6"><path class="cls-7" d="M33,66l-2.62-4.54L12.18,71.91.18,51.12,8,46.62l9.75,16.89,10.39-6L18.37,40.62l7.79-4.5L35.91,53l2.6-1.5,2.25,3.9-2.6,1.5,2.63,4.54Z"/><path class="cls-7" d="M46.63,58.08,32,32.75l26-15L72.61,43.08ZM57.32,34.59l-4.88-8.45-10.39,6,7.88,13.64Zm5.25,9.09-2.25-3.9-5.55,8.4Z"/><path class="cls-7" d="M75.86,41.2,68.73,28.86l5.2-3-6.7.4-6-10.39L89.81-.63l6,10.39-3.69,5.6,5.19-3,7.13,12.34ZM87.27,13l-3-5.19-13,7.5,3,5.19,8.37-.5Zm7.12,12.35-2.62-4.55-13,7.5,2.62,4.55Z"/></g></svg>