<svg id="Слой_1" data-name="Слой 1" xmlns="http://www.w3.org/2000/svg" xmlns:xlink="http://www.w3.org/1999/xlink" viewBox="0 0 102 73"><defs><style>.cls-1{fill:none;}.cls-2{clip-path:url(#clip-path);}.cls-3,.cls-7{isolation:isolate;}.cls-3{font-size:60px;fill:#9f173a;font-family:High-Marker-Flat, High Marker Flat;}.cls-4{clip-path:url(#clip-path-2);}.cls-5{fill:#e21d49;}.cls-6{clip-path:url(#clip-path-5);}.cls-8{fill:#fff;}</style><clipPath id="clip-path"><rect class="cls-1" x="143.45" y="-0.35" width="102" height="73.7"/></clipPath><clipPath id="clip-path-2"><rect class="cls-1" y="-0.35" width="102" height="73.7"/></clipPath><clipPath id="clip-path-5"><rect class="cls-1" x="-133.56" y="-0.35" width="102" height="73.7"/></clipPath></defs><g class="cls-2"><text class="cls-3" transform="matrix(0.5, 0.87, -0.87, 0.5, 106.77, -18.64)">0</text></g><g class="cls-4"><rect class="cls-5" y="-0.35" width="102" height="73.7"/></g><g class="cls-4"><text class="cls-3" transform="matrix(0.87, -0.5, 0.5, 0.87, 73.68, 131.87)">0</text></g><g class="cls-4"><text class="cls-3" transform="matrix(0.5, 0.87, -0.87, 0.5, -36.68, -18.64)">0</text></g><g class="cls-6"><text class="cls-3" transform="matrix(0.87, -0.5, 0.5, 0.87, -59.88, 131.87)">0</text></g><g class="cls-7"><path class="cls-8" d="M45.64,58.94,43,54.39,24.82,64.89l-12-20.79,7.8-4.5,9.75,16.89,10.39-6L31,33.6l7.79-4.5L48.55,46l2.6-1.5,2.25,3.9-2.6,1.5,2.63,4.55Z"/><path class="cls-8" d="M65.77,47.31,53.39,25.88,46.9,29.63l-2.25-3.9,14.29-8.25L73.56,42.81Z"/><path class="cls-8" d="M83.31,37.19,70.93,15.75,64.44,19.5l-2.25-3.9L76.48,7.35,91.1,32.69Z"/></g></svg>