<svg id="Слой_1" data-name="Слой 1" xmlns="http://www.w3.org/2000/svg" xmlns:xlink="http://www.w3.org/1999/xlink" viewBox="0 0 102 73"><defs><style>.cls-1{fill:none;}.cls-2{clip-path:url(#clip-path);}.cls-3{fill:#854e13;}.cls-4{clip-path:url(#clip-path-2);}.cls-5,.cls-9{isolation:isolate;}.cls-5{font-size:60px;fill:#9f173a;font-family:High-Marker-Flat, High Marker Flat;}.cls-6{clip-path:url(#clip-path-3);}.cls-7{fill:#e21d49;}.cls-8{clip-path:url(#clip-path-6);}.cls-10{fill:#fff;}</style><clipPath id="clip-path"><rect class="cls-1" x="-41.24" y="-94.38" width="102" height="73.7"/></clipPath><clipPath id="clip-path-2"><rect class="cls-1" x="136.85" y="-0.35" width="102" height="73.7"/></clipPath><clipPath id="clip-path-3"><rect class="cls-1" y="-0.35" width="102" height="73.7"/></clipPath><clipPath id="clip-path-6"><rect class="cls-1" x="-148.4" y="-0.35" width="102" height="73.7"/></clipPath></defs><g class="cls-2"><path class="cls-3" d="M32.36,37.82l-36.6-63.3,65-37.5L97.36.32Zm26.7-58.7L46.86-42l-26,15,19.7,34.1Zm13.2,22.7-5.6-9.7-13.9,21Z"/></g><g class="cls-4"><text class="cls-5" transform="matrix(0.5, 0.87, -0.87, 0.5, 100.18, -18.64)">0</text></g><g class="cls-6"><rect class="cls-7" y="-0.35" width="102" height="73.7"/></g><g class="cls-6"><text class="cls-5" transform="matrix(0.87, -0.5, 0.5, 0.87, 73.68, 131.87)">0</text></g><g class="cls-6"><text class="cls-5" transform="matrix(0.5, 0.87, -0.87, 0.5, -36.67, -18.64)">0</text></g><g class="cls-8"><text class="cls-5" transform="matrix(0.87, -0.5, 0.5, 0.87, -74.72, 131.87)">0</text></g><g class="cls-9"><path class="cls-10" d="M35.59,64.19,33,59.64,14.78,70.14l-12-20.79,7.8-4.5,9.75,16.89,10.39-6L21,38.85l7.79-4.5,9.75,16.89,2.6-1.5,2.25,3.9-2.6,1.5,2.63,4.55Z"/><path class="cls-10" d="M49.23,56.31,34.61,31l26-15L75.21,41.31ZM59.92,32.82,55,24.38l-10.39,6L52.53,44Zm5.25,9.09L62.92,38l-5.55,8.39Z"/><path class="cls-10" d="M78.46,39.44,63.83,14.1l20.79-12L86.87,6l-13,7.5,4.5,7.8,5.54-8.4,7.8-4.5,10.12,17.54ZM91.8,26.54l-4.88-8.45-5.54,8.4L84,31Z"/></g></svg>