<svg id="Слой_1" data-name="Слой 1" xmlns="http://www.w3.org/2000/svg" xmlns:xlink="http://www.w3.org/1999/xlink" viewBox="0 0 102 73"><defs><style>.cls-1{fill:none;}.cls-2{clip-path:url(#clip-path);}.cls-3{fill:#066047;}.cls-4{clip-path:url(#clip-path-2);}.cls-5{fill:#039769;}.cls-6{clip-path:url(#clip-path-5);}.cls-7{isolation:isolate;}.cls-8{fill:#fff;}</style><clipPath id="clip-path"><rect class="cls-1" x="112.23" y="-0.35" width="102" height="73.7"/></clipPath><clipPath id="clip-path-2"><rect class="cls-1" y="-0.35" width="102" height="73.7"/></clipPath><clipPath id="clip-path-5"><rect class="cls-1" x="-123.11" y="-0.35" width="102" height="73.7"/></clipPath></defs><g class="cls-2"><path class="cls-3" d="M75.53-18.75l63.3-36.6,37.5,65L113,46.25Zm36,39.9,9.7-5.6-21-13.9Zm22.7-13.1,21.1-12.2-15-26-34.1,19.7Z"/></g><g class="cls-4"><rect class="cls-5" y="-0.35" width="102" height="73.7"/></g><g class="cls-4"><path class="cls-3" d="M73.7,131.85,37.1,68.55l65-37.5,36.6,63.3Zm26.7-58.8L88.2,52l-26,15,19.7,34.1Zm13.1,22.8-5.6-9.7-13.9,21Z"/></g><g class="cls-4"><path class="cls-3" d="M-36.7-18.75l63.3-36.6,37.5,65L.8,46.25Zm36,39.9L9,15.55-12,1.65ZM22,8.05,43.1-4.15l-15-26L-6-10.45Z"/></g><g class="cls-6"><path class="cls-3" d="M-49.41,131.85-86,68.55l65-37.5,36.6,63.3Zm26.7-58.8L-34.91,52l-26,15,19.7,34.1Zm13.1,22.8-5.6-9.7-13.9,21Z"/></g><g class="cls-7"><path class="cls-8" d="M28.06,68.56,18.31,51.67l15.58-9-2.62-4.54-13,7.5L16,41.73l20.78-12,7.13,12.34-15.59,9,5.25,9.09,7.79-4.5-.75-1.3,7.8-4.5,3,5.2Z"/><path class="cls-8" d="M54.69,53.18,44.94,36.3l15.58-9L57.9,22.75l-13,7.5-2.25-3.9,20.78-12,7.13,12.34L55,35.69l5.25,9.1L68,40.29,67.27,39l7.8-4.5,3,5.19Z"/><path class="cls-8" d="M87.81,34.06,75.43,12.63l-6.49,3.75-2.25-3.9L81,4.23,95.6,29.56Z"/></g></svg>