<svg id="Слой_1" data-name="Слой 1" xmlns="http://www.w3.org/2000/svg" xmlns:xlink="http://www.w3.org/1999/xlink" viewBox="0 0 102 73"><defs><style>.cls-1{fill:none;}.cls-2{clip-path:url(#clip-path);}.cls-3{fill:#066047;}.cls-4{clip-path:url(#clip-path-2);}.cls-5{fill:#039769;}.cls-6{clip-path:url(#clip-path-5);}.cls-7{isolation:isolate;}.cls-8{fill:#fff;}</style><clipPath id="clip-path"><rect class="cls-1" x="112.12" y="-0.35" width="102" height="73.7"/></clipPath><clipPath id="clip-path-2"><rect class="cls-1" y="-0.35" width="102" height="73.7"/></clipPath><clipPath id="clip-path-5"><rect class="cls-1" x="-110.79" y="-0.35" width="102" height="73.7"/></clipPath></defs><g class="cls-2"><path class="cls-3" d="M75.42-18.75l63.3-36.6,37.5,65-63.3,36.6Zm36,39.9,9.7-5.6-21-13.9Zm22.7-13.1,21.1-12.2-15-26-34.1,19.7Z"/></g><g class="cls-4"><rect class="cls-5" y="-0.35" width="102" height="73.7"/></g><g class="cls-4"><path class="cls-3" d="M73.7,131.85,37.1,68.55l65-37.5,36.6,63.3Zm26.7-58.8L88.2,52l-26,15,19.7,34.1Zm13.1,22.8-5.6-9.7-13.9,21Z"/></g><g class="cls-4"><path class="cls-3" d="M-36.7-18.75l63.3-36.6,37.5,65L.8,46.25Zm36,39.9L9,15.55-12,1.65ZM22,8.05,43.1-4.15l-15-26L-6-10.45Z"/></g><g class="cls-6"><path class="cls-3" d="M-37.09,131.85l-36.6-63.3,65-37.5,36.6,63.3Zm26.7-58.8L-22.59,52l-26,15,19.7,34.1Zm13.1,22.8-5.6-9.7-13.9,21Z"/></g><g class="cls-7"><path class="cls-8" d="M19.4,74.19,9.65,57.31l15.59-9-2.63-4.55-13,7.5-2.25-3.9,20.78-12L35.28,47.7l-15.59,9,5.25,9.1,7.8-4.5L32,60l7.79-4.5,3,5.19Z"/><path class="cls-8" d="M64.21,48.32l-2.62-4.55L43.4,54.27l-12-20.78L39.2,29,49,45.87l10.39-6L49.59,23l7.79-4.5,9.75,16.88,2.6-1.5L72,37.77l-2.6,1.5L72,43.82Z"/><path class="cls-8" d="M77.85,40.44,63.23,15.11l26-15,14.62,25.33ZM88.54,17,83.66,8.51l-10.39,6,7.88,13.64Zm5.25,9.1-2.25-3.9L86,30.55Z"/></g></svg>