<svg id="Слой_1" data-name="Слой 1" xmlns="http://www.w3.org/2000/svg" xmlns:xlink="http://www.w3.org/1999/xlink" viewBox="0 0 102 73"><defs><style>.cls-1{fill:none;}.cls-2{clip-path:url(#clip-path);}.cls-3{fill:#066047;}.cls-4{clip-path:url(#clip-path-2);}.cls-5{fill:#039769;}.cls-6{clip-path:url(#clip-path-5);}.cls-7{isolation:isolate;}.cls-8{fill:#fff;}</style><clipPath id="clip-path"><rect class="cls-1" x="116.24" y="-0.35" width="102" height="73.7"/></clipPath><clipPath id="clip-path-2"><rect class="cls-1" y="-0.35" width="102" height="73.7"/></clipPath><clipPath id="clip-path-5"><rect class="cls-1" x="-118.6" y="-0.35" width="102" height="73.7"/></clipPath></defs><g class="cls-2"><path class="cls-3" d="M79.54-18.75l63.3-36.6,37.5,65L117,46.25Zm36,39.9,9.7-5.6-21-13.9Zm22.7-13.1,21.1-12.2-15-26-34.1,19.7Z"/></g><g class="cls-4"><rect class="cls-5" y="-0.35" width="102" height="73.7"/></g><g class="cls-4"><path class="cls-3" d="M73.7,131.85,37.1,68.55l65-37.5,36.6,63.3Zm26.7-58.8L88.2,52l-26,15,19.7,34.1Zm13.1,22.8-5.6-9.7-13.9,21Z"/></g><g class="cls-4"><path class="cls-3" d="M-36.7-18.75l63.3-36.6,37.5,65L.8,46.25Zm36,39.9L9,15.55-12,1.65ZM22,8.05,43.1-4.15l-15-26L-6-10.45Z"/></g><g class="cls-6"><path class="cls-3" d="M-44.9,131.85l-36.6-63.3,65-37.5,36.6,63.3Zm26.7-58.8L-30.4,52l-26,15,19.7,34.1Zm13.1,22.8-5.6-9.7-13.9,21Z"/></g><g class="cls-7"><path class="cls-8" d="M22.05,72.36,12.3,55.47l15.59-9-2.62-4.54-13,7.5L10,45.53l20.78-12,7.13,12.34-15.59,9L27.6,64l7.79-4.5-.75-1.29,7.8-4.5,3,5.19Z"/><path class="cls-8" d="M48.68,57l-3-5.2,7.8-4.5.75,1.3,6.49-3.75L55.85,36.4,41.56,44.65l-2.25-3.9,7.39-11.2-10.39,6-2.25-3.89L56.14,18.91,58,22.15,49.7,34.75,61.39,28l9.38,16.24Z"/><path class="cls-8" d="M92.2,31.86l-2.62-4.55L71.39,37.81,59.39,17l7.79-4.5,9.75,16.89,10.4-6L77.58,6.53,85.37,2l9.75,16.89,2.6-1.5L100,21.31l-2.6,1.5L100,27.36Z"/></g></svg>