<svg id="Слой_1" data-name="Слой 1" xmlns="http://www.w3.org/2000/svg" xmlns:xlink="http://www.w3.org/1999/xlink" viewBox="0 0 102 73"><defs><style>.cls-1{fill:none;}.cls-2{clip-path:url(#clip-path);}.cls-3{fill:#137590;}.cls-4{clip-path:url(#clip-path-2);}.cls-5{fill:#066047;}.cls-6{clip-path:url(#clip-path-3);}.cls-7{fill:#039769;}.cls-8{clip-path:url(#clip-path-6);}.cls-9{isolation:isolate;}.cls-10{fill:#fff;}</style><clipPath id="clip-path"><rect class="cls-1" x="-7.52" y="85.39" width="102" height="73.7"/></clipPath><clipPath id="clip-path-2"><rect class="cls-1" x="112.66" y="-0.35" width="102" height="73.7"/></clipPath><clipPath id="clip-path-3"><rect class="cls-1" y="-0.35" width="102" height="73.7"/></clipPath><clipPath id="clip-path-6"><rect class="cls-1" x="-115.92" y="-0.35" width="102" height="73.7"/></clipPath></defs><g class="cls-2"><path class="cls-3" d="M-44.22,67l63.3-36.6,37.5,65L-6.72,132Zm36,39.9,9.7-5.6-21-13.9Zm22.7-13.1,21.1-12.2-15-26-34.1,19.7Z"/></g><g class="cls-4"><path class="cls-5" d="M76-18.75l63.3-36.6,37.5,65-63.3,36.6Zm36,39.9,9.7-5.6-21-13.9Zm22.7-13.1,21.1-12.2-15-26-34.1,19.7Z"/></g><g class="cls-6"><rect class="cls-7" y="-0.35" width="102" height="73.7"/></g><g class="cls-6"><path class="cls-5" d="M73.7,131.85,37.1,68.55l65-37.5,36.6,63.3Zm26.7-58.8L88.2,52l-26,15,19.7,34.1Zm13.1,22.8-5.6-9.7-13.9,21Z"/></g><g class="cls-6"><path class="cls-5" d="M-36.7-18.75l63.3-36.6,37.5,65L.8,46.25Zm36,39.9L9,15.55-12,1.65ZM22,8.05,43.1-4.15l-15-26L-6-10.45Z"/></g><g class="cls-8"><path class="cls-5" d="M-42.22,131.85l-36.6-63.3,65-37.5,36.6,63.3Zm26.7-58.8L-27.72,52l-26,15,19.7,34.1Zm13.1,22.8L-8,86.15l-13.9,21Z"/></g><g class="cls-9"><path class="cls-10" d="M26.86,69.7,17.11,52.82l15.59-9-2.62-4.55-13,7.5-2.25-3.9,20.78-12,7.13,12.35-15.59,9,5.25,9.09,7.79-4.5-.75-1.3,7.8-4.5,3,5.19Z"/><path class="cls-10" d="M60,50.58,47.61,29.15,41.12,32.9,38.87,29l14.29-8.25L67.78,46.08Z"/><path class="cls-10" d="M89.22,33.7l-2.63-4.54L68.41,39.66l-12-20.79,7.79-4.5L74,31.26l10.39-6L74.59,8.37l7.79-4.5,9.75,16.89,2.6-1.5L97,23.16l-2.6,1.5L97,29.2Z"/></g></svg>