<svg id="Слой_1" data-name="Слой 1" xmlns="http://www.w3.org/2000/svg" xmlns:xlink="http://www.w3.org/1999/xlink" viewBox="0 0 102 73"><defs><style>.cls-1{fill:none;}.cls-2{clip-path:url(#clip-path);}.cls-3{fill:#137590;}.cls-4{clip-path:url(#clip-path-2);}.cls-5{clip-path:url(#clip-path-3);}.cls-6{fill:#066047;}.cls-7{clip-path:url(#clip-path-4);}.cls-8{fill:#039769;}.cls-9{isolation:isolate;}.cls-10{fill:#fff;}</style><clipPath id="clip-path"><rect class="cls-1" x="2.05" y="85.39" width="102" height="73.7"/></clipPath><clipPath id="clip-path-2"><rect class="cls-1" x="108.4" y="85.39" width="102" height="73.7"/></clipPath><clipPath id="clip-path-3"><rect class="cls-1" x="115.92" y="-0.35" width="102" height="73.7"/></clipPath><clipPath id="clip-path-4"><rect class="cls-1" y="-0.35" width="102" height="73.7"/></clipPath></defs><g class="cls-2"><path class="cls-3" d="M-34.65,67l63.3-36.6,37.5,65L2.85,132Zm36,39.9,9.7-5.6-21-13.9Zm22.7-13.1,21.1-12.2-15-26-34.1,19.7Z"/></g><g class="cls-4"><path class="cls-3" d="M71.7,67,135,30.39l37.5,65L109.2,132Zm36,39.9,9.7-5.6-21-13.9Zm22.7-13.1,21.1-12.2-15-26-34.1,19.7Z"/></g><g class="cls-5"><path class="cls-6" d="M79.22-18.75l63.3-36.6,37.5,65-63.3,36.6Zm36,39.9,9.7-5.6-21-13.9Zm22.7-13.1L159-4.15l-15-26-34.1,19.7Z"/></g><g class="cls-7"><rect class="cls-8" y="-0.35" width="102" height="73.7"/></g><g class="cls-7"><path class="cls-6" d="M73.7,131.85,37.1,68.55l65-37.5,36.6,63.3Zm26.7-58.8L88.2,52l-26,15,19.7,34.1Zm13.1,22.8-5.6-9.7-13.9,21Z"/></g><g class="cls-7"><path class="cls-6" d="M-36.7-18.75l63.3-36.6,37.5,65L.8,46.25Zm36,39.9L9,15.55-12,1.65ZM22,8.05,43.1-4.15l-15-26L-6-10.45Z"/></g><g class="cls-9"><path class="cls-10" d="M34.93,65.67,25.18,48.79l15.58-9-2.62-4.55-13,7.5-2.25-3.9,20.78-12,7.13,12.34-15.59,9,5.25,9.1,7.79-4.5-.75-1.3,7.8-4.5,3,5.19Z"/><path class="cls-10" d="M68.05,46.55,55.68,25.12l-6.5,3.75L46.93,25l14.29-8.25L75.84,42.05Z"/><path class="cls-10" d="M85.59,36.42,73.21,15l-6.49,3.75-2.25-3.9L78.76,6.59,93.38,31.92Z"/></g></svg>