<svg id="Слой_1" data-name="Слой 1" xmlns="http://www.w3.org/2000/svg" xmlns:xlink="http://www.w3.org/1999/xlink" viewBox="0 0 102 73"><defs><style>.cls-1{fill:none;}.cls-2{clip-path:url(#clip-path);}.cls-3{fill:#039769;}.cls-4{fill:#066047;}.cls-5{clip-path:url(#clip-path-4);}.cls-6{isolation:isolate;}.cls-7{fill:#fff;}</style><clipPath id="clip-path"><rect class="cls-1" y="-0.35" width="102" height="73.7"/></clipPath><clipPath id="clip-path-4"><rect class="cls-1" x="-109.92" y="-0.35" width="102" height="73.7"/></clipPath></defs><g class="cls-2"><rect class="cls-3" y="-0.35" width="102" height="73.7"/></g><g class="cls-2"><path class="cls-4" d="M73.7,131.85,37.1,68.55l65-37.5,36.6,63.3Zm26.7-58.8L88.2,52l-26,15,19.7,34.1Zm13.1,22.8-5.6-9.7-13.9,21Z"/></g><g class="cls-2"><path class="cls-4" d="M-36.7-18.75l63.3-36.6,37.5,65L.8,46.25Zm36,39.9L9,15.55-12,1.65ZM22,8.05,43.1-4.15l-15-26L-6-10.45Z"/></g><g class="cls-5"><path class="cls-4" d="M-36.22,131.85l-36.6-63.3,65-37.5,36.6,63.3Zm26.7-58.8L-21.72,52l-26,15,19.7,34.1Zm13.1,22.8L-2,86.15l-13.9,21Z"/></g><g class="cls-6"><path class="cls-7" d="M22.83,72.09,13.08,55.2l15.59-9-2.62-4.55-13,7.5-2.25-3.89,20.78-12L38.72,45.6l-15.59,9,5.25,9.09,7.79-4.5-.75-1.3,7.8-4.5,3,5.2Z"/><path class="cls-7" d="M49.46,56.71l-3-5.2,7.8-4.5.75,1.3,7.79-4.5-5.25-9.09L42,43.72,34.84,31.38l20.78-12,2.25,3.9-13,7.5,2.63,4.54,15.59-9,9.75,16.89Z"/><path class="cls-7" d="M80,39.09l-3-5.2L87.15,18.5,81.9,9.4,63.72,19.9,61.47,16l26-15L95.7,15.29,85.53,30.69l2.25,3.9Z"/></g></svg>