<svg id="Слой_1" data-name="Слой 1" xmlns="http://www.w3.org/2000/svg" xmlns:xlink="http://www.w3.org/1999/xlink" viewBox="0 0 102 73.7"><defs><style>.cls-1{fill:none;}.cls-2{clip-path:url(#clip-path);}.cls-3{fill:#e4e4e6;}.cls-4{clip-path:url(#clip-path-2);}.cls-5{clip-path:url(#clip-path-3);}.cls-6{fill:#71717b;}.cls-7{isolation:isolate;}.cls-8{fill:#d5d4d8;}</style><clipPath id="clip-path"><rect class="cls-1" x="-109.65" width="102" height="73.7"/></clipPath><clipPath id="clip-path-2"><rect class="cls-1" x="127.79" width="102" height="73.7"/></clipPath><clipPath id="clip-path-3"><rect class="cls-1" width="102" height="73.7"/></clipPath></defs><g class="cls-2"><path class="cls-3" d="M-35.95,132.2l-36.6-63.3,65-37.5,36.6,63.3Zm26.7-58.8-12.2-21.1-26,15,19.7,34.1ZM3.85,96.2l-5.6-9.7-13.9,21Z"/></g><g class="cls-4"><path class="cls-3" d="M91.09-18.4,154.39-55l37.5,65-63.3,36.6Zm36,39.9,9.7-5.6L115.79,2Zm22.7-13.1,21.1-12.2-15-26-34.1,19.7Z"/></g><g class="cls-5"><rect class="cls-6" width="102" height="73.7"/></g><g class="cls-5"><path class="cls-3" d="M73.7,132.2,37.1,68.9l65-37.5,36.6,63.3Zm26.7-58.8L88.2,52.3l-26,15,19.7,34.1Zm13.1,22.8-5.6-9.7L94,107.5Z"/></g><g class="cls-5"><path class="cls-3" d="M-36.7-18.4,26.6-55,64.1,10,.8,46.6Zm36,39.9L9,15.9-12,2ZM22,8.4,43.1-3.8l-15-26L-6-10.1Z"/></g><g class="cls-7"><path class="cls-8" d="M35.33,65.71,23,44.27,16.46,48l-2.25-3.89L28.5,35.88,43.12,61.21Z"/><path class="cls-8" d="M52.87,55.58,40.49,34.15,34,37.9,31.75,34,46,25.75,60.66,51.08Z"/><path class="cls-8" d="M63.91,49.21,49.28,23.88l26-15L89.89,34.21ZM74.59,25.72l-4.87-8.45-10.39,6L67.2,36.91Zm5.25,9.09-2.25-3.9-5.54,8.4Z"/></g></svg>