<svg id="Слой_1" data-name="Слой 1" xmlns="http://www.w3.org/2000/svg" xmlns:xlink="http://www.w3.org/1999/xlink" viewBox="0 0 102 73.7"><defs><style>.cls-1{fill:none;}.cls-2{clip-path:url(#clip-path);}.cls-3{fill:#71717b;}.cls-4{fill:#e4e4e6;}.cls-5{clip-path:url(#clip-path-4);}.cls-6{clip-path:url(#clip-path-5);}.cls-7{fill:#d5d4d8;}</style><clipPath id="clip-path"><rect class="cls-1" width="102" height="73.7"/></clipPath><clipPath id="clip-path-4"><rect class="cls-1" x="-127.79" width="102" height="73.7"/></clipPath><clipPath id="clip-path-5"><rect class="cls-1" x="109.65" width="102" height="73.7"/></clipPath></defs><g class="cls-2"><rect class="cls-3" width="102" height="73.7"/></g><g class="cls-2"><path class="cls-4" d="M73.7,132.2,37.1,68.9l65-37.5,36.6,63.3Zm26.7-58.8L88.2,52.3l-26,15,19.7,34.1Zm13.1,22.8-5.6-9.7L94,107.5Z"/></g><g class="cls-2"><path class="cls-4" d="M-36.7-18.4,26.6-55,64.1,10,.8,46.6Zm36,39.9L9,15.9-12,2ZM22,8.4,43.1-3.8l-15-26L-6-10.1Z"/></g><g class="cls-5"><path class="cls-4" d="M-54.09,132.2l-36.6-63.3,65-37.5,36.6,63.3Zm26.7-58.8-12.2-21.1-26,15,19.7,34.1Zm13.1,22.8-5.6-9.7-13.9,21Z"/></g><g class="cls-6"><path class="cls-4" d="M73-18.4,136.25-55l37.5,65-63.3,36.6Zm36,39.9,9.7-5.6L97.65,2Zm22.7-13.1,21.1-12.2-15-26-34.1,19.7Z"/></g><path class="cls-7" d="M19.08,74.54,9.33,57.65l15.59-9-2.63-4.54-13,7.5-2.25-3.9,20.79-12L35,48.05l-15.59,9,5.25,9.09,7.8-4.5-.75-1.29,7.79-4.5,3,5.19Z"/><path class="cls-7" d="M63.9,48.67l-2.25-3.9L38.21,46.18,31.09,33.84l26-15L71.69,44.17ZM51.52,27.23l-10.39,6,4.12,7.15,13.4-.81Z"/><path class="cls-7" d="M93.12,31.79l-2.25-3.9L67.44,29.3,60.31,17l26-15,14.63,25.33ZM80.75,10.36l-10.39,6,4.12,7.14,13.39-.8Z"/></svg>