<svg id="Слой_1" data-name="Слой 1" xmlns="http://www.w3.org/2000/svg" xmlns:xlink="http://www.w3.org/1999/xlink" viewBox="0 0 102 73.7"><defs><style>.cls-1{fill:none;}.cls-2{clip-path:url(#clip-path);}.cls-3{fill:#71717b;}.cls-4{fill:#e4e4e6;}.cls-5{clip-path:url(#clip-path-4);}.cls-6{clip-path:url(#clip-path-5);}.cls-7{fill:#d5d4d8;}</style><clipPath id="clip-path"><rect class="cls-1" width="102" height="73.7"/></clipPath><clipPath id="clip-path-4"><rect class="cls-1" x="-127.79" width="102" height="73.7"/></clipPath><clipPath id="clip-path-5"><rect class="cls-1" x="126.14" width="102" height="73.7"/></clipPath></defs><g class="cls-2"><rect class="cls-3" width="102" height="73.7"/></g><g class="cls-2"><path class="cls-4" d="M73.7,132.2,37.1,68.9l65-37.5,36.6,63.3Zm26.7-58.8L88.2,52.3l-26,15,19.7,34.1Zm13.1,22.8-5.6-9.7L94,107.5Z"/></g><g class="cls-2"><path class="cls-4" d="M-36.7-18.4,26.6-55,64.1,10,.8,46.6Zm36,39.9L9,15.9-12,2ZM22,8.4,43.1-3.8l-15-26L-6-10.1Z"/></g><g class="cls-5"><path class="cls-4" d="M-54.09,132.2l-36.6-63.3,65-37.5,36.6,63.3Zm26.7-58.8-12.2-21.1-26,15,19.7,34.1Zm13.1,22.8-5.6-9.7-13.9,21Z"/></g><g class="cls-6"><path class="cls-4" d="M89.44-18.4,152.74-55l37.5,65-63.3,36.6Zm36,39.9,9.7-5.6L114.14,2Zm22.7-13.1,21.1-12.2-15-26-34.1,19.7Z"/></g><path class="cls-7" d="M37.85,63.92,25.48,42.49,19,46.24l-2.25-3.9L31,34.09,45.64,59.42Z"/><path class="cls-7" d="M55.39,53.8,43,32.36l-6.49,3.75-2.25-3.89L48.56,24,63.18,49.3Z"/><path class="cls-7" d="M72.92,43.67,60.55,22.24,54.05,26l-2.25-3.9,14.29-8.25L80.72,39.17Z"/></svg>