<svg id="Слой_1" data-name="Слой 1" xmlns="http://www.w3.org/2000/svg" xmlns:xlink="http://www.w3.org/1999/xlink" viewBox="0 0 102 73.7"><defs><style>.cls-1{fill:none;}.cls-2{clip-path:url(#clip-path);}.cls-3{fill:#e4e4e6;}.cls-4{clip-path:url(#clip-path-2);}.cls-5{clip-path:url(#clip-path-3);}.cls-6{fill:#71717b;}.cls-7{fill:#d5d4d8;}</style><clipPath id="clip-path"><rect class="cls-1" x="117.89" width="102" height="73.7"/></clipPath><clipPath id="clip-path-2"><rect class="cls-1" x="-126.14" width="102" height="73.7"/></clipPath><clipPath id="clip-path-3"><rect class="cls-1" width="102" height="73.7"/></clipPath></defs><g class="cls-2"><path class="cls-3" d="M81.19-18.4,144.49-55,182,10l-63.3,36.6Zm36,39.9,9.7-5.6L105.89,2Zm22.7-13.1L161-3.8l-15-26-34.1,19.7Z"/></g><g class="cls-4"><path class="cls-3" d="M-52.44,132.2-89,68.9l65-37.5,36.6,63.3Zm26.7-58.8-12.2-21.1-26,15,19.7,34.1Zm13.1,22.8-5.6-9.7-13.9,21Z"/></g><g class="cls-5"><rect class="cls-6" width="102" height="73.7"/></g><g class="cls-5"><path class="cls-3" d="M73.7,132.2,37.1,68.9l65-37.5,36.6,63.3Zm26.7-58.8L88.2,52.3l-26,15,19.7,34.1Zm13.1,22.8-5.6-9.7L94,107.5Z"/></g><g class="cls-5"><path class="cls-3" d="M-36.7-18.4,26.6-55,64.1,10,.8,46.6Zm36,39.9L9,15.9-12,2ZM22,8.4,43.1-3.8l-15-26L-6-10.1Z"/></g><path class="cls-7" d="M35.1,65.63,22.73,44.19l-6.5,3.75L14,44.05,28.27,35.8,42.9,61.13Z"/><path class="cls-7" d="M52.64,55.5,40.26,34.07l-6.49,3.75-2.25-3.9,14.29-8.25L60.43,51Z"/><path class="cls-7" d="M63.68,49.13,53.93,32.24l15.59-9-2.63-4.55-13,7.5L51.65,22.3l20.79-12,7.12,12.34L64,31.64l5.25,9.09,7.8-4.5-.75-1.3,7.79-4.5,3,5.2Z"/></svg>