<svg id="Слой_1" data-name="Слой 1" xmlns="http://www.w3.org/2000/svg" xmlns:xlink="http://www.w3.org/1999/xlink" viewBox="0 0 102 73.7"><defs><style>.cls-1{fill:none;}.cls-2{clip-path:url(#clip-path);}.cls-3{fill:#71717b;}.cls-4{fill:#e4e4e6;}.cls-5{clip-path:url(#clip-path-4);}.cls-6{fill:#d5d4d8;}</style><clipPath id="clip-path"><rect class="cls-1" width="102" height="73.7"/></clipPath><clipPath id="clip-path-4"><rect class="cls-1" x="-112.12" width="102" height="73.7"/></clipPath></defs><g class="cls-2"><rect class="cls-3" width="102" height="73.7"/></g><g class="cls-2"><path class="cls-4" d="M73.7,132.2,37.1,68.9l65-37.5,36.6,63.3Zm26.7-58.8L88.2,52.3l-26,15,19.7,34.1Zm13.1,22.8-5.6-9.7L94,107.5Z"/></g><g class="cls-2"><path class="cls-4" d="M-36.7-18.4,26.6-55,64.1,10,.8,46.6Zm36,39.9L9,15.9-12,2ZM22,8.4,43.1-3.8l-15-26L-6-10.1Z"/></g><g class="cls-5"><path class="cls-4" d="M-38.42,132.2-75,68.9l65-37.5,36.6,63.3Zm26.7-58.8-12.2-21.1-26,15,19.7,34.1ZM1.38,96.2l-5.6-9.7-13.9,21Z"/></g><path class="cls-6" d="M29.88,70,17.51,48.52,11,52.27l-2.25-3.9,14.29-8.25L37.68,65.45Z"/><path class="cls-6" d="M59.11,53.08l-2.25-3.9L33.42,50.59,26.3,38.24l26-15L66.9,48.58ZM46.73,31.64l-10.39,6,4.13,7.15L53.86,44Z"/><path class="cls-6" d="M88.34,36.2l-2.25-3.9L62.65,33.71,55.53,21.37l26-15L96.13,31.7ZM76,14.77l-10.39,6,4.12,7.14,13.4-.8Z"/></svg>