<svg id="Слой_1" data-name="Слой 1" xmlns="http://www.w3.org/2000/svg" xmlns:xlink="http://www.w3.org/1999/xlink" viewBox="0 0 102 73.7"><defs><style>.cls-1{fill:none;}.cls-2{clip-path:url(#clip-path);}.cls-3{fill:#e4e4e6;}.cls-4{clip-path:url(#clip-path-2);}.cls-5{fill:#71717b;}.cls-6{isolation:isolate;font-size:24px;fill:#d5d4d8;font-family:High-Marker-Flat, High Marker Flat;}</style><clipPath id="clip-path"><rect class="cls-1" x="127.79" width="102" height="73.7"/></clipPath><clipPath id="clip-path-2"><rect class="cls-1" width="102" height="73.7"/></clipPath></defs><g class="cls-2"><path class="cls-3" d="M91.09-18.4,154.39-55l37.5,65-63.3,36.6Zm36,39.9,9.7-5.6L115.79,2Zm22.7-13.1,21.1-12.2-15-26-34.1,19.7Z"/></g><g class="cls-4"><rect class="cls-5" width="102" height="73.7"/></g><g class="cls-4"><text class="cls-6" transform="matrix(0.87, -0.5, 0.5, 0.87, 25.81, 71.2)">214</text></g><g class="cls-4"><path class="cls-3" d="M73.7,132.2,37.1,68.9l65-37.5,36.6,63.3Zm26.7-58.8L88.2,52.3l-26,15,19.7,34.1Zm13.1,22.8-5.6-9.7L94,107.5Z"/></g><g class="cls-4"><path class="cls-3" d="M-36.7-18.4,26.6-55,64.1,10,.8,46.6Zm36,39.9L9,15.9-12,2ZM22,8.4,43.1-3.8l-15-26L-6-10.1Z"/></g></svg>