<svg id="Слой_1" data-name="Слой 1" xmlns="http://www.w3.org/2000/svg" xmlns:xlink="http://www.w3.org/1999/xlink" viewBox="0 0 102 73"><defs><style>.cls-1{fill:none;}.cls-2{clip-path:url(#clip-path);}.cls-3{fill:#066047;}.cls-4{clip-path:url(#clip-path-2);}.cls-5{fill:#0b91b2;}.cls-6{fill:#137590;}.cls-7{isolation:isolate;}.cls-8{fill:#fff;}.cls-9{clip-path:url(#clip-path-5);}</style><clipPath id="clip-path"><rect class="cls-1" x="-113.77" y="-110.82" width="102" height="73.7"/></clipPath><clipPath id="clip-path-2"><rect class="cls-1" y="-0.85" width="102" height="73.7"/></clipPath><clipPath id="clip-path-5"><rect class="cls-1" x="-113.77" y="-0.35" width="102" height="73.7"/></clipPath></defs><g class="cls-2"><path class="cls-3" d="M-40.07,21.38l-36.6-63.3,65-37.5,36.6,63.3Zm26.7-58.8-12.2-21.1-26,15,19.7,34.1Zm13.1,22.8-5.6-9.7-13.9,21Z"/></g><g class="cls-4"><rect class="cls-5" y="-0.85" width="102" height="73.7"/></g><g class="cls-4"><path class="cls-6" d="M73.7,131.35,37.1,68.05l65-37.5,36.6,63.3Zm26.7-58.9L88.2,51.35l-26,15,19.7,34.1Zm13.1,22.9-5.6-9.7-13.9,21Z"/></g><g class="cls-4"><path class="cls-6" d="M-36.7-19.25l63.3-36.6,37.5,65L.8,45.85Zm36,39.9L9,15-12,1.15ZM22,7.45,43.1-4.75l-15-26L-6-11Z"/></g><g class="cls-7"><path class="cls-8" d="M18.7,73.85l-3-5.2,7.8-4.5.8,1.3,6.5-3.7-4.9-8.4-14.3,8.1-2.2-3.9,7.4-11.2-10.4,6-2.3-3.9,22.1-12.8,1.9,3.2-8.3,12.6,11.7-6.8,9.4,16.2Z"/><path class="cls-8" d="M44.1,59.15,29.5,33.85l26-15,14.6,25.3Zm10.7-23.4-4.9-8.4-10.4,6L47.4,47Zm5.2,9-2.2-3.9-5.5,8.4Z"/><path class="cls-8" d="M73.3,42.35l-7.1-12.3,5.2-3-6.7.4-6-10.4L87.3.45l6,10.4-3.7,5.6,5.2-3,7.1,12.3Zm11.4-28.3-3-5.2-13,7.5,3,5.2,8.4-.5Zm7.1,12.4L89.2,22l-13,7.5L78.8,34Z"/></g><g class="cls-9"><path class="cls-6" d="M-40.07,131.85l-36.6-63.3,65-37.5,36.6,63.3ZM-13.37,73l-12.2-21.1-26,15,19.7,34.1Zm13.1,22.9-5.6-9.7-13.9,21Z"/></g></svg>