<svg id="Слой_1" data-name="Слой 1" xmlns="http://www.w3.org/2000/svg" xmlns:xlink="http://www.w3.org/1999/xlink" viewBox="0 0 102 73"><defs><style>.cls-1{fill:none;}.cls-2{clip-path:url(#clip-path);}.cls-3{fill:#066047;}.cls-4{clip-path:url(#clip-path-2);}.cls-5{clip-path:url(#clip-path-3);}.cls-6{fill:#137590;}.cls-7{clip-path:url(#clip-path-4);}.cls-8{fill:#0b91b2;}.cls-9{isolation:isolate;}.cls-10{fill:#fff;}.cls-11{clip-path:url(#clip-path-7);}</style><clipPath id="clip-path"><rect class="cls-1" x="-117.07" y="-110.82" width="102" height="73.7"/></clipPath><clipPath id="clip-path-2"><rect class="cls-1" y="-110.82" width="102" height="73.7"/></clipPath><clipPath id="clip-path-3"><rect class="cls-1" x="123.66" y="-0.35" width="102" height="73.7"/></clipPath><clipPath id="clip-path-4"><rect class="cls-1" y="-0.35" width="102" height="73.7"/></clipPath><clipPath id="clip-path-7"><rect class="cls-1" x="-117.07" y="-0.35" width="102" height="73.7"/></clipPath></defs><g class="cls-2"><path class="cls-3" d="M-43.37,21.38-80-41.92l65-37.5,36.6,63.3Zm26.7-58.8-12.2-21.1-26,15,19.7,34.1Zm13.1,22.8-5.6-9.7-13.9,21Z"/></g><g class="cls-4"><path class="cls-3" d="M73.7,21.38,37.1-41.92l65-37.5,36.6,63.3Zm26.7-58.8L88.2-58.52l-26,15L81.9-9.42Zm13.1,22.8-5.6-9.7L94-3.32Z"/></g><g class="cls-5"><path class="cls-6" d="M87-18.75l63.3-36.6,37.5,65-63.3,36.6Zm36,39.9,9.7-5.6-21-13.9ZM145.66,8l21.1-12.2-15-26-34.1,19.7Z"/></g><g class="cls-7"><rect class="cls-8" y="-0.35" width="102" height="73.7"/></g><g class="cls-7"><path class="cls-6" d="M73.7,131.85,37.1,68.55l65-37.5,36.6,63.3ZM100.4,73,88.2,51.85l-26,15L81.9,101Zm13.1,22.9-5.6-9.7-13.9,21Z"/></g><g class="cls-7"><path class="cls-6" d="M-36.7-18.75l63.3-36.6,37.5,65L.8,46.25Zm36,39.9L9,15.55-12,1.65ZM22,8,43.1-4.25l-15-26L-6-10.55Z"/></g><g class="cls-9"><path class="cls-10" d="M20.9,73l-3-5.2,7.8-4.5.8,1.3,6.5-3.8-4.9-8.4-14.3,8.2-2.2-3.9L19,45.45l-10.4,6-2.2-3.9,22.1-12.8L30.4,38l-8.3,12.6,11.7-6.8L43.2,60Z"/><path class="cls-10" d="M46.2,58.35,31.6,33l26-15,14.6,25.3Zm10.7-23.5L52,26.45l-10.4,6,7.9,13.6ZM62.2,44,60,40.05l-5.5,8.4Z"/><path class="cls-10" d="M93.6,31,91,26.45,72.8,37l-12-20.8,7.8-4.5,9.8,16.9,10.4-6L79,5.65l7.8-4.5,9.8,16.9,2.6-1.5,2.2,3.9L98.8,22l2.6,4.5Z"/></g><g class="cls-11"><path class="cls-6" d="M-43.37,131.85-80,68.55l65-37.5,36.6,63.3ZM-16.67,73l-12.2-21.1-26,15,19.7,34.1Zm13.1,22.9-5.6-9.7-13.9,21Z"/></g></svg>