<svg id="Слой_1" data-name="Слой 1" xmlns="http://www.w3.org/2000/svg" xmlns:xlink="http://www.w3.org/1999/xlink" viewBox="0 0 102 73"><defs><style>.cls-1{fill:none;}.cls-2{clip-path:url(#clip-path);}.cls-3{fill:#137590;}.cls-4{clip-path:url(#clip-path-2);}.cls-5{fill:#0b91b2;}.cls-6{fill:#fff;}.cls-7{clip-path:url(#clip-path-6);}.cls-8{clip-path:url(#clip-path-7);}.cls-9{fill:#066047;}.cls-10{clip-path:url(#clip-path-8);}</style><clipPath id="clip-path"><rect class="cls-1" x="-122.02" y="-0.35" width="102" height="73.7"/></clipPath><clipPath id="clip-path-2"><rect class="cls-1" y="-0.35" width="102" height="73.7"/></clipPath><clipPath id="clip-path-6"><rect class="cls-1" x="120.37" y="-0.35" width="102" height="73.7"/></clipPath><clipPath id="clip-path-7"><rect class="cls-1" x="-122.02" y="-110.82" width="102" height="73.7"/></clipPath><clipPath id="clip-path-8"><rect class="cls-1" y="-110.82" width="102" height="73.7"/></clipPath></defs><g class="cls-2"><path class="cls-3" d="M-48.42,131.85l-36.5-63.4,65-37.5,36.6,63.3Zm26.7-58.8L-33.92,52l-26,15,19.7,34.1Zm13.2,22.8-5.6-9.7-13.9,21Z"/></g><g class="cls-4"><rect class="cls-5" y="-0.35" width="102" height="73.7"/></g><g class="cls-4"><path class="cls-6" d="M22.7,72.15l-3-5.2,7.8-4.5.8,1.3L34.8,60l-4.9-8.4-14.3,8.2-2.2-3.9,7.4-11.2-10.4,6-2.2-3.9L30.3,34l1.9,3.2-8.3,12.6L35.6,43,45,59.15Z"/><path class="cls-6" d="M48.1,57.55,33.5,32.25l26-15,14.6,25.3Zm10.7-23.5-4.9-8.4-10.4,6,7.9,13.6Zm5.2,9.1-2.2-3.9-5.5,8.4Z"/><path class="cls-6" d="M81.2,38.45l-3-5.2,10.2-15.4-5.2-9.1L65,19.25l-2.2-3.9,26-15L97,14.65,86.8,30.05,89,34Z"/></g><g class="cls-4"><path class="cls-3" d="M73.6,131.85,37,68.55l65-37.5,36.6,63.3Zm26.8-58.8L88.2,52l-26,15,19.7,34.1Zm13.1,22.8-5.6-9.7-13.9,21Z"/></g><g class="cls-4"><path class="cls-3" d="M-36.7-18.65l63.3-36.6,37.5,65L.8,46.35Zm36,39.8L9,15.55-12,1.65ZM22,8.05,43.1-4.15l-15-26L-6-10.45Z"/></g><g class="cls-7"><path class="cls-3" d="M83.67-18.65,147-55.25l37.5,65-63.3,36.6Zm36,39.8,9.7-5.6-21-13.9Zm22.7-13.1,21.1-12.2-15-26-34.1,19.7Z"/></g><g class="cls-8"><path class="cls-9" d="M-48.42,21.38-84.92-42l65-37.5,36.6,63.3Zm26.7-58.8-12.1-21.1-26,15,19.7,34.1Zm13.2,22.8-5.6-9.7L-28-3.32Z"/></g><g class="cls-10"><path class="cls-9" d="M73.6,21.38,37-41.92l65-37.5,36.6,63.3Zm26.7-58.8L88.2-58.52l-26,15L81.9-9.42Zm13.2,22.8-5.6-9.7L94-3.32Z"/></g></svg>