<svg id="Слой_1" data-name="Слой 1" xmlns="http://www.w3.org/2000/svg" xmlns:xlink="http://www.w3.org/1999/xlink" viewBox="0 0 102 73"><defs><style>.cls-1{fill:none;}.cls-2{clip-path:url(#clip-path);}.cls-3{fill:#137590;}.cls-4{clip-path:url(#clip-path-2);}.cls-5{fill:#0b91b2;}.cls-6{fill:#fff;}.cls-7{clip-path:url(#clip-path-6);}.cls-8{fill:#066047;}.cls-9{clip-path:url(#clip-path-7);}.cls-10{clip-path:url(#clip-path-8);}</style><clipPath id="clip-path"><rect class="cls-1" x="-120.37" y="-0.35" width="102" height="73.7"/></clipPath><clipPath id="clip-path-2"><rect class="cls-1" y="-0.35" width="102" height="73.7"/></clipPath><clipPath id="clip-path-6"><rect class="cls-1" x="-120.37" y="-110.82" width="102" height="73.7"/></clipPath><clipPath id="clip-path-7"><rect class="cls-1" y="-110.82" width="102" height="73.7"/></clipPath><clipPath id="clip-path-8"><rect class="cls-1" x="122.02" y="-0.35" width="102" height="73.7"/></clipPath></defs><g class="cls-2"><path class="cls-3" d="M-46.77,131.85l-36.6-63.3,65-37.5,36.6,63.3ZM-20,73.05-32.17,52l-26,15,19.7,34.1Zm13.1,22.8-5.6-9.7-13.9,21Z"/></g><g class="cls-4"><rect class="cls-5" y="-0.35" width="102" height="73.7"/></g><g class="cls-4"><path class="cls-6" d="M18.9,73.55l-3-5.2,7.8-4.5.8,1.3,6.5-3.8L26.1,53l-14.3,8.2-2.2-3.9L17,46.05l-10.4,6-2.2-3.9,22.1-12.8,1.9,3.2-8.3,12.6,11.7-6.8,9.4,16.2Z"/><path class="cls-6" d="M44.2,59,29.6,33.65l26-15L70.2,44Zm10.7-23.5L50,27.05l-10.4,6,7.9,13.6Zm5.3,9.1L58,40.65l-5.5,8.4Z"/><path class="cls-6" d="M73.5,42.05l-7.1-12.3,5.2-3-6.7.4-6-10.4L87.5.25l6,10.4-3.7,5.6,5.2-3,7.1,12.3Zm11.4-28.2-3-5.2-13,7.5,3,5.2,8.4-.5ZM92,26.15l-2.6-4.5-13,7.5,2.6,4.5Z"/></g><g class="cls-4"><path class="cls-3" d="M73.7,131.85,37.1,68.55l65-37.5,36.6,63.3Zm26.7-58.8L88.2,52l-26,15,19.7,34.1Zm13.1,22.8-5.6-9.7-13.9,21Z"/></g><g class="cls-4"><path class="cls-3" d="M-36.7-18.65l63.3-36.6,37.5,65L.8,46.35Zm36,39.8L9,15.55-12,1.65ZM22,8.05,43.1-4.15l-15-26L-6-10.45Z"/></g><g class="cls-7"><path class="cls-8" d="M-46.77,21.38l-36.6-63.3,65-37.5,36.6,63.3Zm26.7-58.8-12.1-21.1-26,15,19.7,34.1Zm13.2,22.8-5.6-9.7-13.9,21Z"/></g><g class="cls-9"><path class="cls-8" d="M73.7,21.38,37.1-41.92l65-37.5,36.6,63.3Zm26.7-58.8L88.2-58.52l-26,15L81.9-9.42Zm13.1,22.8-5.6-9.7L94-3.32Z"/></g><g class="cls-10"><path class="cls-3" d="M85.32-18.75l63.3-36.6,37.5,65-63.3,36.6Zm36,39.9,9.7-5.6L110,1.65ZM144,8l21.1-12.2-15-26L116-10.55Z"/></g></svg>