<svg id="Слой_1" data-name="Слой 1" xmlns="http://www.w3.org/2000/svg" xmlns:xlink="http://www.w3.org/1999/xlink" viewBox="0 0 102 73"><defs><style>.cls-1{fill:none;}.cls-2{clip-path:url(#clip-path);}.cls-3{fill:#137590;}.cls-4{clip-path:url(#clip-path-2);}.cls-5{fill:#066047;}.cls-6{clip-path:url(#clip-path-3);}.cls-7{clip-path:url(#clip-path-4);}.cls-8{clip-path:url(#clip-path-5);}.cls-9{fill:#0b91b2;}.cls-10{isolation:isolate;}.cls-11{fill:#fff;}</style><clipPath id="clip-path"><rect class="cls-1" x="-122.02" y="-0.35" width="102" height="73.7"/></clipPath><clipPath id="clip-path-2"><rect class="cls-1" y="-110.82" width="102" height="73.7"/></clipPath><clipPath id="clip-path-3"><rect class="cls-1" x="-122.02" y="-110.82" width="102" height="73.7"/></clipPath><clipPath id="clip-path-4"><rect class="cls-1" x="117.07" y="-0.35" width="102" height="73.7"/></clipPath><clipPath id="clip-path-5"><rect class="cls-1" y="-0.35" width="102" height="73.7"/></clipPath></defs><g class="cls-2"><path class="cls-3" d="M-48.32,131.85l-36.6-63.3,65-37.5,36.6,63.3Zm26.7-58.8L-33.82,52l-26,15,19.7,34.1Zm13.1,22.8-5.6-9.7-13.9,21Z"/></g><g class="cls-4"><path class="cls-5" d="M73.7,21.38,37.1-41.92l65-37.5,36.6,63.3Zm26.7-58.8L88.2-58.52l-26,15L81.9-9.42Zm13.1,22.8-5.6-9.7L94-3.32Z"/></g><g class="cls-6"><path class="cls-5" d="M-48.32,21.38l-36.6-63.3,65-37.5,36.6,63.3Zm26.7-58.8-12.2-21.1-26,15,19.7,34.1Zm13.1,22.8-5.6-9.7L-28-3.32Z"/></g><g class="cls-7"><path class="cls-3" d="M80.37-18.75l63.3-36.6,37.5,65-63.3,36.6Zm36,39.9,9.7-5.6-21-13.9ZM139.07,8l21.1-12.2-15-26-34.1,19.7Z"/></g><g class="cls-8"><rect class="cls-9" y="-0.35" width="102" height="73.7"/></g><g class="cls-8"><path class="cls-3" d="M73.7,131.85,37.1,68.55l65-37.5,36.6,63.3ZM100.4,73,88.2,51.85l-26,15L81.9,101Zm13.1,22.9-5.6-9.7-13.9,21Z"/></g><g class="cls-8"><path class="cls-3" d="M-36.7-18.75l63.3-36.6,37.5,65L.8,46.25Zm36,39.9L9,15.55-12,1.65ZM22,8,43.1-4.25l-15-26L-6-10.55Z"/></g><g class="cls-10"><path class="cls-11" d="M21.4,72.85l-3-5.2,7.8-4.5.8,1.3,6.5-3.8-4.9-8.4-14.3,8.2-2.2-3.9,7.4-11.2-10.4,6-2.2-3.9L29,34.65l1.9,3.2-8.3,12.6,11.7-6.8,9.4,16.2Z"/><path class="cls-11" d="M46.8,58.25,32.1,33l26-15,14.6,25.3Zm10.6-23.5-4.9-8.4-10.4,6L50,46Zm5.3,9.1L60.5,40,55,48.35Z"/><path class="cls-11" d="M76,41.35,61.4,16.05l26-15L102,26.35ZM86.7,18l-4.9-8.4-10.4,6,7.9,13.6Zm5.2,9-2.2-3.9-5.5,8.4Z"/></g></svg>