<svg id="Слой_1" data-name="Слой 1" xmlns="http://www.w3.org/2000/svg" xmlns:xlink="http://www.w3.org/1999/xlink" viewBox="0 0 102 73"><defs><style>.cls-1{fill:none;}.cls-2{clip-path:url(#clip-path);}.cls-3{fill:#066047;}.cls-4{clip-path:url(#clip-path-2);}.cls-5{clip-path:url(#clip-path-3);}.cls-6{fill:#137590;}.cls-7{clip-path:url(#clip-path-4);}.cls-8{fill:#0b91b2;}.cls-9{isolation:isolate;}.cls-10{fill:#fff;}.cls-11{clip-path:url(#clip-path-7);}</style><clipPath id="clip-path"><rect class="cls-1" y="-110.82" width="102" height="73.7"/></clipPath><clipPath id="clip-path-2"><rect class="cls-1" x="-120.37" y="-110.82" width="102" height="73.7"/></clipPath><clipPath id="clip-path-3"><rect class="cls-1" x="115.42" y="-0.35" width="102" height="73.7"/></clipPath><clipPath id="clip-path-4"><rect class="cls-1" y="-0.35" width="102" height="73.7"/></clipPath><clipPath id="clip-path-7"><rect class="cls-1" x="-120.37" y="-0.35" width="102" height="73.7"/></clipPath></defs><g class="cls-2"><path class="cls-3" d="M73.7,21.38,37.1-41.92l65-37.5,36.6,63.3Zm26.7-58.8L88.2-58.52l-26,15L81.9-9.42Zm13.1,22.8-5.6-9.7L94-3.32Z"/></g><g class="cls-4"><path class="cls-3" d="M-46.67,21.38l-36.6-63.3,65-37.5,36.6,63.3ZM-20-37.42l-12.2-21.1-26,15,19.7,34.1Zm13.1,22.8-5.6-9.7-13.9,21Z"/></g><g class="cls-5"><path class="cls-6" d="M78.72-18.75,142-55.35l37.5,65-63.3,36.6Zm36,39.9,9.7-5.6-21-13.9ZM137.42,8l21.1-12.2-15-26-34.1,19.7Z"/></g><g class="cls-7"><rect class="cls-8" y="-0.35" width="102" height="73.7"/></g><g class="cls-7"><path class="cls-6" d="M73.7,131.85,37.1,68.55l65-37.5,36.6,63.3ZM100.4,73,88.2,51.85l-26,15L81.9,101Zm13.1,22.9-5.6-9.7-13.9,21Z"/></g><g class="cls-7"><path class="cls-6" d="M-36.7-18.75l63.3-36.6,37.5,65L.8,46.25Zm36,39.9L9,15.55-12,1.65ZM22,8,43.1-4.25l-15-26L-6-10.55Z"/></g><g class="cls-9"><path class="cls-10" d="M22.5,72.15l-3-5.2,7.8-4.5.8,1.3L34.6,60l-4.9-8.4-14.3,8.2-2.2-3.9,7.4-11.2-10.4,6L8,46.75,30.1,34l1.9,3.2-8.3,12.6L35.4,43l9.4,16.2Z"/><path class="cls-10" d="M47.8,57.55,33.2,32.25l26-15,14.6,25.3Zm10.7-23.5-4.9-8.4-10.4,6,7.9,13.6Zm5.2,9.1-2.2-3.9L56,47.65Z"/><path class="cls-10" d="M77,40.65l-3-5.2L81.8,31l.8,1.3,7.8-4.5-5.2-9.1-15.6,9-7.1-12.3,20.8-12,2.2,3.9-13,7.5,2.6,4.5,15.6-9,9.8,16.9Z"/></g><g class="cls-11"><path class="cls-6" d="M-46.67,131.85l-36.6-63.3,65-37.5,36.6,63.3ZM-20,73l-12.2-21.1-26,15,19.7,34.1Zm13.1,22.9-5.6-9.7-13.9,21Z"/></g></svg>