<svg id="Слой_1" data-name="Слой 1" xmlns="http://www.w3.org/2000/svg" xmlns:xlink="http://www.w3.org/1999/xlink" viewBox="0 0 102 73"><defs><style>.cls-1{fill:none;}.cls-2{clip-path:url(#clip-path);}.cls-3{fill:#137590;}.cls-4{clip-path:url(#clip-path-2);}.cls-5{fill:#0b91b2;}.cls-6{fill:#fff;}.cls-7{clip-path:url(#clip-path-6);}.cls-8{clip-path:url(#clip-path-7);}.cls-9{fill:#066047;}.cls-10{clip-path:url(#clip-path-8);}</style><clipPath id="clip-path"><rect class="cls-1" x="-116.52" y="-0.35" width="102" height="73.7"/></clipPath><clipPath id="clip-path-2"><rect class="cls-1" y="-0.35" width="102" height="73.7"/></clipPath><clipPath id="clip-path-6"><rect class="cls-1" x="122.02" y="-0.35" width="102" height="73.7"/></clipPath><clipPath id="clip-path-7"><rect class="cls-1" x="-116.52" y="-110.82" width="102" height="73.7"/></clipPath><clipPath id="clip-path-8"><rect class="cls-1" y="-110.82" width="102" height="73.7"/></clipPath></defs><g class="cls-2"><path class="cls-3" d="M-42.82,131.85l-36.6-63.3,65-37.5,36.6,63.3Zm26.7-58.8L-28.32,52l-26,15,19.7,34.1ZM-3,95.85l-5.6-9.7-13.9,21Z"/></g><g class="cls-4"><rect class="cls-5" y="-0.35" width="102" height="73.7"/></g><g class="cls-4"><path class="cls-6" d="M22.1,72.55l-3-5.2,7.8-4.5.8,1.3,6.5-3.8L29.3,52,15,60.15l-2.2-3.9,7.4-11.2-10.4,6-2.2-3.9,22.1-12.8,1.9,3.2-8.5,12.7,11.7-6.8,9.4,16.2Z"/><path class="cls-6" d="M47.4,58,32.8,32.65l26-15L73.4,43Zm10.7-23.5-4.9-8.4-10.4,6,7.9,13.6Zm5.2,9.1-2.2-3.9-5.5,8.4Z"/><path class="cls-6" d="M76.6,41.05l-9.8-16.9,15.6-9-2.6-4.5-13,7.5-2.2-3.9,20.8-12,7.1,12.3-15.6,9,5.2,9.1,7.8-4.5-.8-1.3,7.8-4.5,3,5.2Z"/></g><g class="cls-4"><path class="cls-3" d="M73.6,131.85,37.1,68.45l65-37.5,36.6,63.3Zm26.7-58.8L88.1,52l-26,15,19.7,34.1Zm13.2,22.8-5.6-9.7-13.9,21Z"/></g><g class="cls-4"><path class="cls-3" d="M-36.7-18.65l63.3-36.6,37.5,65L.8,46.35Zm36,39.8L9,15.55-12,1.65ZM22,8.05,43.1-4.15l-15-26L-6-10.45Z"/></g><g class="cls-7"><path class="cls-3" d="M85.32-18.65l63.3-36.6,37.5,65-63.3,36.6Zm36,39.8,9.7-5.6L110,1.65ZM144,8.05l21.1-12.2-15-26L116-10.45Z"/></g><g class="cls-8"><path class="cls-9" d="M-42.82,21.38l-36.6-63.3,65-37.5,36.6,63.3Zm26.7-58.8-12.2-21.1-26,15,19.7,34.1ZM-3-14.62l-5.6-9.7-13.9,21Z"/></g><g class="cls-10"><path class="cls-9" d="M73.6,21.38,37.1-42l65-37.5,36.6,63.3Zm26.7-58.8L88.2-58.52l-26,15L81.9-9.42Zm13.2,22.8-5.6-9.7L94-3.32Z"/></g></svg>