<svg id="Слой_1" data-name="Слой 1" xmlns="http://www.w3.org/2000/svg" xmlns:xlink="http://www.w3.org/1999/xlink" viewBox="0 0 102 73"><defs><style>.cls-1{fill:none;}.cls-2{clip-path:url(#clip-path);}.cls-3{fill:#0b91b2;}.cls-4{fill:#fff;}.cls-5{fill:#137590;}.cls-6{clip-path:url(#clip-path-5);}.cls-7{clip-path:url(#clip-path-6);}.cls-8{fill:#066047;}</style><clipPath id="clip-path"><rect class="cls-1" y="-0.35" width="102" height="73.7"/></clipPath><clipPath id="clip-path-5"><rect class="cls-1" x="116.52" y="-0.35" width="102" height="73.7"/></clipPath><clipPath id="clip-path-6"><rect class="cls-1" y="-110.82" width="102" height="73.7"/></clipPath></defs><g class="cls-2"><rect class="cls-3" y="-0.35" width="102" height="73.7"/></g><g class="cls-2"><path class="cls-4" d="M28.4,69.05l-3-5.2,7.8-4.5.8,1.3,6.5-3.8-4.9-8.4-14.3,8.2-2.2-3.9,7.4-11.2-10.4,6-2.2-3.9L36,30.85l1.9,3.2-8.5,12.8,11.7-6.8,9.4,16.2Z"/><path class="cls-4" d="M53.7,54.45,39.1,29.15l26-15,14.6,25.3ZM64.4,31l-4.9-8.4-10.4,6L57,42.15Zm5.2,9.1-2.2-3.9-5.5,8.4Z"/><path class="cls-4" d="M89.4,33.85,77,12.45l-6.5,3.8-2.2-3.9,14.3-8.2,14.6,25.3Z"/></g><g class="cls-2"><path class="cls-5" d="M73.7,131.85,37.1,68.55l65-37.5,36.6,63.3Zm26.7-58.8L88.2,52l-26,15,19.7,34.1Zm13.1,22.8-5.6-9.7-13.9,21Z"/></g><g class="cls-2"><path class="cls-5" d="M-36.7-18.65l63.3-36.6,37.5,65L.8,46.35Zm36,39.8L9,15.55-12,1.65ZM22,8.05,43.1-4.15l-15-26L-6-10.45Z"/></g><g class="cls-6"><path class="cls-5" d="M79.82-18.65l63.3-36.6,37.5,65-63.3,36.6Zm36,39.8,9.7-5.6-21-13.9Zm22.7-13.1,21.1-12.2-15-26-34.1,19.7Z"/></g><g class="cls-7"><path class="cls-8" d="M73.7,21.38,37.1-41.92l65-37.5,36.6,63.3Zm26.7-58.8L88.2-58.52l-26,15L81.9-9.42Zm13.1,22.8-5.6-9.7L94-3.32Z"/></g></svg>