<svg id="Слой_1" data-name="Слой 1" xmlns="http://www.w3.org/2000/svg" xmlns:xlink="http://www.w3.org/1999/xlink" viewBox="0 0 102 73"><defs><style>.cls-1{fill:none;}.cls-2{clip-path:url(#clip-path);}.cls-3,.cls-7{isolation:isolate;}.cls-3{font-size:60px;fill:#9f173a;font-family:High-Marker-Flat, High Marker Flat;}.cls-4{clip-path:url(#clip-path-2);}.cls-5{fill:#0b91b2;}.cls-6{fill:#137590;}.cls-8{fill:#fff;}.cls-9{clip-path:url(#clip-path-5);}</style><clipPath id="clip-path"><rect class="cls-1" x="-113.8" y="-86.67" width="102" height="73.7"/></clipPath><clipPath id="clip-path-2"><rect class="cls-1" y="-0.35" width="102" height="73.7"/></clipPath><clipPath id="clip-path-5"><rect class="cls-1" x="11.54" y="-87.74" width="102" height="73.7"/></clipPath></defs><g class="cls-2"><text class="cls-3" transform="matrix(0.87, -0.5, 0.5, 0.87, -40.12, 45.54)">0</text></g><g class="cls-4"><rect class="cls-5" y="-0.35" width="102" height="73.7"/></g><g class="cls-4"><path class="cls-6" d="M73.7,131.85,37.1,68.55l65-37.5,36.6,63.3Zm26.7-58.8L88.2,52l-26,15,19.7,34.1Zm13.1,22.8-5.6-9.7-13.9,21Z"/></g><g class="cls-4"><path class="cls-6" d="M-36.7-18.65l63.3-36.6,37.5,65L.8,46.35Zm36,39.8L9,15.55-12,1.65ZM22,8.05,43.1-4.15l-15-26L-6-10.45Z"/></g><g class="cls-7"><path class="cls-8" d="M18.74,74.37l-3-5.2,7.8-4.5.75,1.3,6.49-3.75-4.87-8.44L11.62,62l-2.25-3.9,7.39-11.2-10.39,6L4.12,49,26.2,36.28l1.88,3.25-8.32,12.6,11.69-6.75,9.38,16.24Z"/><path class="cls-8" d="M44.08,59.74,29.45,34.41l26-15L70.06,44.74ZM54.76,36.25l-4.87-8.44-10.4,6,7.88,13.64ZM60,45.34l-2.25-3.89-5.54,8.39Z"/><path class="cls-8" d="M73.3,42.87,66.18,30.53l5.19-3-6.69.4-6-10.4L87.26,1l6,10.4L89.56,17l5.2-3,7.12,12.34ZM84.71,14.63l-3-5.2-13,7.5,3,5.2,8.37-.5ZM91.84,27l-2.63-4.55-13,7.5,2.63,4.55Z"/></g><g class="cls-9"><text class="cls-3" transform="matrix(0.87, -0.5, 0.5, 0.87, 85.22, 44.48)">0</text></g></svg>