<svg id="Слой_1" data-name="Слой 1" xmlns="http://www.w3.org/2000/svg" xmlns:xlink="http://www.w3.org/1999/xlink" viewBox="0 0 102 73"><defs><style>.cls-1{fill:none;}.cls-2{clip-path:url(#clip-path);}.cls-11,.cls-3{isolation:isolate;}.cls-3{font-size:60px;fill:#9f173a;font-family:High-Marker-Flat, High Marker Flat;}.cls-4{clip-path:url(#clip-path-2);}.cls-5{clip-path:url(#clip-path-3);}.cls-6{fill:#066047;}.cls-7{clip-path:url(#clip-path-4);}.cls-8{clip-path:url(#clip-path-5);}.cls-9{fill:#0b91b2;}.cls-10{fill:#137590;}.cls-12{fill:#fff;}</style><clipPath id="clip-path"><rect class="cls-1" x="-30.75" y="-86.67" width="102" height="73.7"/></clipPath><clipPath id="clip-path-2"><rect class="cls-1" x="-147.25" y="-86.67" width="102" height="73.7"/></clipPath><clipPath id="clip-path-3"><rect class="cls-1" x="50.35" y="81.53" width="102" height="73.7"/></clipPath><clipPath id="clip-path-4"><rect class="cls-1" x="-57.95" y="81.53" width="102" height="73.7"/></clipPath><clipPath id="clip-path-5"><rect class="cls-1" y="-0.35" width="102" height="73.7"/></clipPath></defs><g class="cls-2"><text class="cls-3" transform="matrix(0.87, -0.5, 0.5, 0.87, 42.92, 45.54)">0</text></g><g class="cls-4"><text class="cls-3" transform="matrix(0.87, -0.5, 0.5, 0.87, -73.62, 45.54)">0</text></g><g class="cls-5"><path class="cls-6" d="M13.65,63.23,77,26.63l37.5,65-63.3,36.6Zm36,39.8,9.7-5.6-21-13.9Zm22.7-13.1,21.1-12.2-15-26-34.1,19.7Z"/></g><g class="cls-7"><path class="cls-6" d="M-94.65,63.23l63.3-36.6,37.5,65-63.3,36.6Zm36,39.8,9.7-5.6-21-13.9Zm22.7-13.1,21.1-12.2-15-26-34.1,19.7Z"/></g><g class="cls-8"><rect class="cls-9" y="-0.35" width="102" height="73.7"/></g><g class="cls-8"><path class="cls-10" d="M73.7,131.85,37.1,68.55l65-37.5,36.6,63.3Zm26.7-58.8L88.2,52l-26,15,19.7,34.1Zm13.1,22.8-5.6-9.7-13.9,21Z"/></g><g class="cls-8"><path class="cls-10" d="M-36.7-18.65l63.3-36.6,37.5,65L.8,46.35Zm36,39.8L9,15.55-12,1.65ZM22,8.05,43.1-4.15l-15-26L-6-10.45Z"/></g><g class="cls-11"><path class="cls-12" d="M22.52,72.22l-3-5.19,7.79-4.5.75,1.3,6.5-3.75-4.88-8.45L15.39,59.88,13.14,56l7.39-11.2-10.39,6-2.25-3.9L30,34.14l1.87,3.25L23.53,50l11.7-6.75L44.6,59.47Z"/><path class="cls-12" d="M47.85,57.6,33.22,32.27l26-15L73.83,42.6ZM58.53,34.11l-4.87-8.44-10.39,6L51.14,45.3Zm5.25,9.09-2.25-3.9L56,47.7Z"/><path class="cls-12" d="M77.07,40.72l-3-5.19,7.8-4.5.75,1.3,7.79-4.5-5.25-9.1-15.59,9L62.45,15.39l20.78-12,2.25,3.9-13,7.5,2.63,4.55,15.59-9,9.75,16.88Z"/></g></svg>