<svg id="Слой_1" data-name="Слой 1" xmlns="http://www.w3.org/2000/svg" xmlns:xlink="http://www.w3.org/1999/xlink" viewBox="0 0 102 73"><defs><style>.cls-1{fill:none;}.cls-2{clip-path:url(#clip-path);}.cls-13,.cls-3{isolation:isolate;}.cls-3{font-size:60px;fill:#9f173a;font-family:High-Marker-Flat, High Marker Flat;}.cls-4{clip-path:url(#clip-path-2);}.cls-5{clip-path:url(#clip-path-3);}.cls-6{fill:#137590;}.cls-7{clip-path:url(#clip-path-4);}.cls-8{fill:#066047;}.cls-9{clip-path:url(#clip-path-5);}.cls-10{clip-path:url(#clip-path-6);}.cls-11{fill:#0b91b2;}.cls-12{clip-path:url(#clip-path-9);}.cls-14{fill:#fff;}</style><clipPath id="clip-path"><rect class="cls-1" x="-6.02" y="-86.67" width="102" height="73.7"/></clipPath><clipPath id="clip-path-2"><rect class="cls-1" x="-124.72" y="-86.67" width="102" height="73.7"/></clipPath><clipPath id="clip-path-3"><rect class="cls-1" x="-118.22" y="-0.87" width="102" height="73.7"/></clipPath><clipPath id="clip-path-4"><rect class="cls-1" x="107.68" y="81.53" width="102" height="73.7"/></clipPath><clipPath id="clip-path-5"><rect class="cls-1" x="-6.02" y="81.53" width="102" height="73.7"/></clipPath><clipPath id="clip-path-6"><rect class="cls-1" y="-0.35" width="102" height="73.7"/></clipPath><clipPath id="clip-path-9"><rect class="cls-1" x="108.82" y="-0.35" width="102" height="73.7"/></clipPath></defs><g class="cls-2"><text class="cls-3" transform="matrix(0.87, -0.5, 0.5, 0.87, 67.6, 45.54)">0</text></g><g class="cls-4"><text class="cls-3" transform="matrix(0.87, -0.5, 0.5, 0.87, -51.14, 45.54)">0</text></g><g class="cls-5"><path class="cls-6" d="M-44.52,131.33-81.12,68l65-37.5,36.6,63.3Zm26.7-58.8L-30,51.43l-26,15,19.7,34.1Zm13.1,22.8-5.6-9.7-13.9,21Z"/></g><g class="cls-7"><path class="cls-8" d="M71,63.23l63.3-36.6,37.5,65-63.3,36.6ZM107,103l9.7-5.6-21-13.9Zm22.7-13.1,21.1-12.2-15-26-34.1,19.7Z"/></g><g class="cls-9"><path class="cls-8" d="M-42.72,63.23l63.3-36.6,37.5,65-63.3,36.6Zm36,39.8L3,97.43l-21-13.9ZM16,89.93l21.1-12.2-15-26L-12,71.43Z"/></g><g class="cls-10"><rect class="cls-11" y="-0.35" width="102" height="73.7"/></g><g class="cls-10"><path class="cls-6" d="M73.7,131.85,37.1,68.55l65-37.5,36.6,63.3Zm26.7-58.8L88.2,52l-26,15,19.7,34.1Zm13.1,22.8-5.6-9.7-13.9,21Z"/></g><g class="cls-10"><path class="cls-6" d="M-36.7-18.65l63.3-36.6,37.5,65L.8,46.35Zm36,39.8L9,15.55-12,1.65ZM22,8.05,43.1-4.15l-15-26L-6-10.45Z"/></g><g class="cls-12"><path class="cls-6" d="M72.12-18.65l63.3-36.6,37.5,65-63.3,36.6Zm36,39.8,9.7-5.6-21-13.9Zm22.7-13.1,21.1-12.2-15-26-34.1,19.7Z"/></g><g class="cls-13"><path class="cls-14" d="M21.42,72.94l-3-5.2,7.79-4.5.75,1.3,6.5-3.75-4.88-8.44L14.29,60.6,12,56.7l7.39-11.19L9,51.51l-2.25-3.9L28.87,34.86l1.88,3.25L22.43,50.7,34.12,44,43.5,60.19Z"/><path class="cls-14" d="M46.75,58.32,32.12,33l26-15L72.73,43.32ZM57.43,34.83l-4.87-8.45-10.39,6L50,46Zm5.25,9.09L60.43,40l-5.54,8.4Z"/><path class="cls-14" d="M76,41.44,61.35,16.11l26-15L102,26.44ZM86.66,18,81.78,9.51l-10.39,6,7.88,13.64ZM91.91,27l-2.25-3.89-5.54,8.39Z"/></g></svg>