<svg id="Слой_1" data-name="Слой 1" xmlns="http://www.w3.org/2000/svg" xmlns:xlink="http://www.w3.org/1999/xlink" viewBox="0 0 102 73"><defs><style>.cls-1{fill:none;}.cls-2{clip-path:url(#clip-path);}.cls-11,.cls-3{isolation:isolate;}.cls-3{font-size:60px;fill:#9f173a;font-family:High-Marker-Flat, High Marker Flat;}.cls-4{clip-path:url(#clip-path-2);}.cls-5{clip-path:url(#clip-path-3);}.cls-6{fill:#066047;}.cls-7{clip-path:url(#clip-path-4);}.cls-8{fill:#0b91b2;}.cls-9{fill:#137590;}.cls-10{clip-path:url(#clip-path-7);}.cls-12{fill:#fff;}</style><clipPath id="clip-path"><rect class="cls-1" x="63.75" y="-86.67" width="102" height="73.7"/></clipPath><clipPath id="clip-path-2"><rect class="cls-1" x="-59.95" y="-86.67" width="102" height="73.7"/></clipPath><clipPath id="clip-path-3"><rect class="cls-1" x="15.75" y="81.53" width="102" height="73.7"/></clipPath><clipPath id="clip-path-4"><rect class="cls-1" y="-0.35" width="102" height="73.7"/></clipPath><clipPath id="clip-path-7"><rect class="cls-1" x="131.91" y="-0.35" width="102" height="73.7"/></clipPath></defs><g class="cls-2"><text class="cls-3" transform="matrix(0.87, -0.5, 0.5, 0.87, 137.38, 45.54)">0</text></g><g class="cls-4"><text class="cls-3" transform="matrix(0.87, -0.5, 0.5, 0.87, 13.7, 45.54)">0</text></g><g class="cls-5"><path class="cls-6" d="M-20.95,63.23l63.3-36.6,37.5,65-63.3,36.6Zm36,39.8,9.7-5.6-21-13.9Zm22.7-13.1,21.1-12.2-15-26L9.75,71.43Z"/></g><g class="cls-7"><rect class="cls-8" y="-0.35" width="102" height="73.7"/></g><g class="cls-7"><path class="cls-9" d="M73.7,131.85,37.1,68.55l65-37.5,36.6,63.3Zm26.7-58.8L88.2,52l-26,15,19.7,34.1Zm13.1,22.8-5.6-9.7-13.9,21Z"/></g><g class="cls-7"><path class="cls-9" d="M-36.7-18.65l63.3-36.6,37.5,65L.8,46.35Zm36,39.8L9,15.55-12,1.65ZM22,8.05,43.1-4.15l-15-26L-6-10.45Z"/></g><g class="cls-10"><path class="cls-9" d="M95.21-18.65l63.3-36.6,37.5,65-63.3,36.6Zm36,39.8,9.7-5.6-21-13.9Zm22.7-13.1L175-4.15l-15-26-34.1,19.7Z"/></g><g class="cls-11"><path class="cls-12" d="M23.78,71.83l-3-5.2,7.8-4.5.75,1.3,6.49-3.75L31,51.24,16.66,59.49l-2.25-3.9,7.39-11.2-10.39,6L9.16,46.5,31.24,33.75,33.12,37,24.8,49.59l11.69-6.75,9.38,16.24Z"/><path class="cls-12" d="M49.12,57.2,34.49,31.87l26-15L75.1,42.2ZM59.8,33.71l-4.87-8.44-10.4,6,7.88,13.64Zm5.25,9.09L62.8,38.91,57.26,47.3Z"/><path class="cls-12" d="M78.34,40.33,63.72,15,84.5,3l2.25,3.89-13,7.5,4.5,7.8,5.55-8.4,7.79-4.5,10.13,17.54Zm13.34-12.9L86.81,19l-5.55,8.39,2.63,4.55Z"/></g></svg>