<svg id="Слой_1" data-name="Слой 1" xmlns="http://www.w3.org/2000/svg" xmlns:xlink="http://www.w3.org/1999/xlink" viewBox="0 0 102 73"><defs><style>.cls-1{fill:none;}.cls-2{clip-path:url(#clip-path);}.cls-3{isolation:isolate;font-size:60px;fill:#9f173a;font-family:High-Marker-Flat, High Marker Flat;}.cls-4{clip-path:url(#clip-path-2);}.cls-5{clip-path:url(#clip-path-3);}.cls-6{fill:#137590;}.cls-7{clip-path:url(#clip-path-4);}.cls-8{fill:#0b91b2;}.cls-9{fill:#fff;}.cls-10{clip-path:url(#clip-path-8);}.cls-11{clip-path:url(#clip-path-9);}.cls-12{fill:#066047;}.cls-13{clip-path:url(#clip-path-10);}</style><clipPath id="clip-path"><rect class="cls-1" x="2.75" y="-83.99" width="102" height="73.7"/></clipPath><clipPath id="clip-path-2"><rect class="cls-1" x="-113.77" y="-83.99" width="102" height="73.7"/></clipPath><clipPath id="clip-path-3"><rect class="cls-1" x="-113.77" y="-0.35" width="102" height="73.7"/></clipPath><clipPath id="clip-path-4"><rect class="cls-1" y="-0.35" width="102" height="73.7"/></clipPath><clipPath id="clip-path-8"><rect class="cls-1" x="119.27" y="3.4" width="102" height="73.7"/></clipPath><clipPath id="clip-path-9"><rect class="cls-1" x="2.75" y="84.19" width="102" height="73.7"/></clipPath><clipPath id="clip-path-10"><rect class="cls-1" x="123.11" y="84.19" width="102" height="73.7"/></clipPath></defs><g class="cls-2"><text class="cls-3" transform="matrix(0.87, -0.5, 0.5, 0.87, 76.44, 48.19)">0</text></g><g class="cls-4"><text class="cls-3" transform="matrix(0.87, -0.5, 0.5, 0.87, -40.14, 48.19)">0</text></g><g class="cls-5"><path class="cls-6" d="M-40.07,131.85l-36.6-63.3,65-37.5,36.6,63.3Zm26.7-58.8L-25.57,52l-26,15,19.7,34.1Zm13.1,22.8-5.6-9.7-13.9,21Z"/></g><g class="cls-7"><rect class="cls-8" y="-0.35" width="102" height="73.7"/></g><g class="cls-7"><path class="cls-9" d="M22.1,72.55l-3-5.2,7.8-4.5.8,1.3,6.5-3.8L29.3,52,15,60.15l-2.2-3.9,7.4-11.2-10.4,6-2.2-3.9,22.1-12.8,1.9,3.2-8.5,12.7,11.7-6.8,9.4,16.2Z"/><path class="cls-9" d="M47.4,58,32.8,32.65l26-15L73.4,43Zm10.7-23.5-4.9-8.4-10.4,6,7.9,13.6Zm5.2,9.1-2.2-3.9-5.5,8.4Z"/><path class="cls-9" d="M76.6,41.05l-9.8-16.9,15.6-9-2.6-4.5-13,7.5-2.2-3.9,20.8-12,7.1,12.3-15.6,9,5.2,9.1,7.8-4.5-.8-1.3,7.8-4.5,3,5.2Z"/></g><g class="cls-7"><path class="cls-6" d="M73.6,131.85,37.1,68.45l65-37.5,36.6,63.3Zm26.7-58.8L88.1,52l-26,15,19.7,34.1Zm13.2,22.8-5.6-9.7-13.9,21Z"/></g><g class="cls-7"><path class="cls-6" d="M-36.7-18.65l63.3-36.6,37.5,65L.8,46.35Zm36,39.8L9,15.55-12,1.65ZM22,8.05,43.1-4.15l-15-26L-6-10.45Z"/></g><g class="cls-10"><path class="cls-6" d="M82.57-14.9l63.3-36.6,37.5,65-63.3,36.6Zm36,39.8,9.7-5.6-21-13.9Zm22.7-13.1L162.37-.4l-15-26L113.27-6.7Z"/></g><g class="cls-11"><path class="cls-12" d="M-33.95,65.89l63.3-36.6,37.5,65-63.3,36.6Zm36,39.8,9.7-5.6-21-13.9Zm22.7-13.1,21.1-12.2-15-26-34.1,19.7Z"/></g><g class="cls-13"><path class="cls-12" d="M86.41,65.89l63.3-36.6,37.5,65-63.3,36.5Zm36,39.8,9.7-5.6-21-13.9Zm22.7-13.1,21.1-12.2-15-26-34.1,19.7Z"/></g></svg>