<svg id="Слой_1" data-name="Слой 1" xmlns="http://www.w3.org/2000/svg" xmlns:xlink="http://www.w3.org/1999/xlink" viewBox="0 0 102 73"><defs><style>.cls-1{fill:none;}.cls-2{clip-path:url(#clip-path);}.cls-12,.cls-3{isolation:isolate;}.cls-3{font-size:60px;fill:#9f173a;font-family:High-Marker-Flat, High Marker Flat;}.cls-4{clip-path:url(#clip-path-2);}.cls-5{clip-path:url(#clip-path-3);}.cls-6{fill:#066047;}.cls-7{clip-path:url(#clip-path-4);}.cls-8{clip-path:url(#clip-path-5);}.cls-9{fill:#137590;}.cls-10{clip-path:url(#clip-path-6);}.cls-11{fill:#0b91b2;}.cls-13{fill:#fff;}</style><clipPath id="clip-path"><rect class="cls-1" x="-0.51" y="-86.67" width="102" height="73.7"/></clipPath><clipPath id="clip-path-2"><rect class="cls-1" x="-120.91" y="-83.87" width="102" height="73.7"/></clipPath><clipPath id="clip-path-3"><rect class="cls-1" x="88.79" y="81.53" width="102" height="73.7"/></clipPath><clipPath id="clip-path-4"><rect class="cls-1" x="-18.91" y="81.53" width="102" height="73.7"/></clipPath><clipPath id="clip-path-5"><rect class="cls-1" x="-123.66" y="-0.35" width="102" height="73.7"/></clipPath><clipPath id="clip-path-6"><rect class="cls-1" y="-0.35" width="102" height="73.7"/></clipPath></defs><g class="cls-2"><text class="cls-3" transform="matrix(0.87, -0.5, 0.5, 0.87, 73.13, 45.54)">0</text></g><g class="cls-4"><text class="cls-3" transform="matrix(0.87, -0.5, 0.5, 0.87, -47.26, 48.29)">0</text></g><g class="cls-5"><path class="cls-6" d="M52.09,63.23l63.3-36.6,37.5,65-63.3,36.6Zm36,39.8,9.7-5.6-21-13.9Zm22.7-13.1,21.1-12.2-15-26-34.1,19.7Z"/></g><g class="cls-7"><path class="cls-6" d="M-55.61,63.23l63.3-36.6,37.5,65-63.3,36.6Zm36,39.8,9.7-5.6-21-13.9Zm22.7-13.1,21.1-12.2-15-26-34.1,19.7Z"/></g><g class="cls-8"><path class="cls-9" d="M-50,131.85l-36.6-63.3,65-37.5L15,94.35Zm26.7-58.8L-35.46,52l-26,15,19.7,34.1Zm13.1,22.8-5.6-9.7-13.9,21Z"/></g><g class="cls-10"><rect class="cls-11" y="-0.35" width="102" height="73.7"/></g><g class="cls-10"><path class="cls-9" d="M73.7,131.85,37.1,68.55l65-37.5,36.6,63.3Zm26.7-58.8L88.2,52l-26,15,19.7,34.1Zm13.1,22.8-5.6-9.7-13.9,21Z"/></g><g class="cls-10"><path class="cls-9" d="M-36.7-18.65l63.3-36.6,37.5,65L.8,46.35Zm36,39.8L9,15.55-12,1.65ZM22,8.05,43.1-4.15l-15-26L-6-10.45Z"/></g><g class="cls-12"><path class="cls-13" d="M23.57,71.29l-3-5.2,7.79-4.5.75,1.3,6.5-3.75L30.73,50.7,16.45,59l-2.25-3.9,7.39-11.19-10.39,6L9,46,31,33.21l1.87,3.25L24.59,49.05,36.28,42.3l9.37,16.24Z"/><path class="cls-13" d="M48.9,56.67,34.28,31.33l26-15L74.88,41.67ZM59.59,33.18l-4.88-8.45-10.39,6,7.87,13.64Zm5.25,9.09-2.25-3.9L57,46.77Z"/><path class="cls-13" d="M78.13,39.79l-3-5.2,7.79-4.5.75,1.3,6.5-3.75L85.29,19.2,71,27.45l-2.25-3.9,7.4-11.19-10.4,6-2.25-3.9L85.59,1.71,87.46,5,79.15,17.55,90.84,10.8,100.21,27Z"/></g></svg>