<svg id="Слой_1" data-name="Слой 1" xmlns="http://www.w3.org/2000/svg" xmlns:xlink="http://www.w3.org/1999/xlink" viewBox="0 0 102 73"><defs><style>.cls-1{fill:none;}.cls-2{clip-path:url(#clip-path);}.cls-13,.cls-3{isolation:isolate;}.cls-3{font-size:60px;fill:#9f173a;font-family:High-Marker-Flat, High Marker Flat;}.cls-4{clip-path:url(#clip-path-2);}.cls-5{clip-path:url(#clip-path-3);}.cls-6{fill:#066047;}.cls-7{clip-path:url(#clip-path-4);}.cls-8{clip-path:url(#clip-path-5);}.cls-9{fill:#137590;}.cls-10{clip-path:url(#clip-path-6);}.cls-11{fill:#0b91b2;}.cls-12{clip-path:url(#clip-path-9);}.cls-14{fill:#fff;}</style><clipPath id="clip-path"><rect class="cls-1" x="2.76" y="-83.87" width="102" height="73.7"/></clipPath><clipPath id="clip-path-2"><rect class="cls-1" x="-114.84" y="-86.67" width="102" height="73.7"/></clipPath><clipPath id="clip-path-3"><rect class="cls-1" x="104.76" y="81.53" width="102" height="73.7"/></clipPath><clipPath id="clip-path-4"><rect class="cls-1" x="-1.14" y="81.53" width="102" height="73.7"/></clipPath><clipPath id="clip-path-5"><rect class="cls-1" x="-108.82" y="-0.35" width="102" height="73.7"/></clipPath><clipPath id="clip-path-6"><rect class="cls-1" y="-0.35" width="102" height="73.7"/></clipPath><clipPath id="clip-path-9"><rect class="cls-1" x="123.66" y="-0.35" width="102" height="73.7"/></clipPath></defs><g class="cls-2"><text class="cls-3" transform="matrix(0.87, -0.5, 0.5, 0.87, 76.41, 48.29)">0</text></g><g class="cls-4"><text class="cls-3" transform="matrix(0.87, -0.5, 0.5, 0.87, -41.23, 45.54)">0</text></g><g class="cls-5"><path class="cls-6" d="M68.06,63.23l63.3-36.6,37.5,65-63.3,36.6Zm36,39.8,9.7-5.6-21-13.9Zm22.7-13.1,21.1-12.2-15-26-34.1,19.7Z"/></g><g class="cls-7"><path class="cls-6" d="M-37.84,63.23l63.3-36.6,37.5,65-63.3,36.6Zm36,39.8,9.7-5.6-21-13.9Zm22.7-13.1L42,77.73l-15-26-34.1,19.7Z"/></g><g class="cls-8"><path class="cls-9" d="M-35.12,131.85l-36.6-63.3,65-37.5,36.6,63.3Zm26.7-58.8L-20.62,52l-26,15,19.7,34.1Zm13.1,22.8-5.6-9.7-13.9,21Z"/></g><g class="cls-10"><rect class="cls-11" y="-0.35" width="102" height="73.7"/></g><g class="cls-10"><path class="cls-9" d="M73.7,131.85,37.1,68.55l65-37.5,36.6,63.3Zm26.7-58.8L88.2,52l-26,15,19.7,34.1Zm13.1,22.8-5.6-9.7-13.9,21Z"/></g><g class="cls-10"><path class="cls-9" d="M-36.7-18.65l63.3-36.6,37.5,65L.8,46.35Zm36,39.8L9,15.55-12,1.65ZM22,8.05,43.1-4.15l-15-26L-6-10.45Z"/></g><g class="cls-12"><path class="cls-9" d="M87-18.65l63.3-36.6,37.5,65-63.3,36.6Zm36,39.8,9.7-5.6-21-13.9Zm22.7-13.1,21.1-12.2-15-26-34.1,19.7Z"/></g><g class="cls-13"><path class="cls-14" d="M20.87,73l-3-5.2,7.79-4.5.75,1.3,6.5-3.75L28,52.41,13.74,60.66l-2.25-3.9,7.39-11.19-10.39,6-2.25-3.9L28.33,34.92l1.87,3.25L21.88,50.76,33.58,44,43,60.25Z"/><path class="cls-14" d="M46.2,58.38,31.57,33l26-15L72.18,43.38ZM56.88,34.89,52,26.44l-10.39,6,7.87,13.64ZM62.13,44l-2.25-3.9-5.54,8.4Z"/><path class="cls-14" d="M93.61,31,91,26.45,72.8,37l-12-20.78,7.8-4.5,9.75,16.89,10.39-6L79,5.67l7.79-4.5,9.75,16.89,2.6-1.5,2.25,3.89L98.78,22l2.63,4.55Z"/></g></svg>