<svg id="Слой_1" data-name="Слой 1" xmlns="http://www.w3.org/2000/svg" xmlns:xlink="http://www.w3.org/1999/xlink" viewBox="0 0 102 73"><defs><style>.cls-1{fill:none;}.cls-2{clip-path:url(#clip-path);}.cls-3,.cls-9{isolation:isolate;}.cls-3{font-size:60px;fill:#9f173a;font-family:High-Marker-Flat, High Marker Flat;}.cls-4{clip-path:url(#clip-path-2);}.cls-5{clip-path:url(#clip-path-3);}.cls-6{fill:#137590;}.cls-7{clip-path:url(#clip-path-4);}.cls-8{fill:#0b91b2;}.cls-10{fill:#fff;}</style><clipPath id="clip-path"><rect class="cls-1" x="42.84" y="-86.67" width="102" height="73.7"/></clipPath><clipPath id="clip-path-2"><rect class="cls-1" x="-68.16" y="-86.67" width="102" height="73.7"/></clipPath><clipPath id="clip-path-3"><rect class="cls-1" x="-131.91" y="-0.35" width="102" height="73.7"/></clipPath><clipPath id="clip-path-4"><rect class="cls-1" y="-0.35" width="102" height="73.7"/></clipPath></defs><g class="cls-2"><text class="cls-3" transform="matrix(0.87, -0.5, 0.5, 0.87, 116.52, 45.54)">0</text></g><g class="cls-4"><text class="cls-3" transform="matrix(0.87, -0.5, 0.5, 0.87, 5.48, 45.54)">0</text></g><g class="cls-5"><path class="cls-6" d="M-58.21,131.85l-36.6-63.3,65-37.5,36.6,63.3Zm26.7-58.8L-43.71,52l-26,15,19.7,34.1Zm13.1,22.8-5.6-9.7-13.9,21Z"/></g><g class="cls-7"><rect class="cls-8" y="-0.35" width="102" height="73.7"/></g><g class="cls-7"><path class="cls-6" d="M73.7,131.85,37.1,68.55l65-37.5,36.6,63.3Zm26.7-58.8L88.2,52l-26,15,19.7,34.1Zm13.1,22.8-5.6-9.7-13.9,21Z"/></g><g class="cls-7"><path class="cls-6" d="M-36.7-18.65l63.3-36.6,37.5,65L.8,46.35Zm36,39.8L9,15.55-12,1.65ZM22,8.05,43.1-4.15l-15-26L-6-10.45Z"/></g><g class="cls-9"><path class="cls-10" d="M22.47,72.42l-3-5.2,7.8-4.5L28,64l6.49-3.75-4.87-8.44L15.35,60.08l-2.25-3.9L20.49,45,10.1,51l-2.25-3.9L29.93,34.33l1.87,3.25-8.31,12.6,11.69-6.75,9.37,16.24Z"/><path class="cls-10" d="M47.8,57.79,33.18,32.46l26-15L73.78,42.79ZM58.49,34.3l-4.88-8.44-10.39,6L51.1,45.5Zm5.25,9.09L61.49,39.5l-5.55,8.39Z"/><path class="cls-10" d="M80.93,38.67l-3-5.2L88.09,18.08,82.84,9,64.65,19.48l-2.25-3.9,26-15,8.25,14.29L86.47,30.27l2.25,3.9Z"/></g></svg>