<svg id="Слой_1" data-name="Слой 1" xmlns="http://www.w3.org/2000/svg" xmlns:xlink="http://www.w3.org/1999/xlink" viewBox="0 0 102 73"><defs><style>.cls-1{fill:none;}.cls-2{clip-path:url(#clip-path);}.cls-3{fill:#066047;}.cls-4{clip-path:url(#clip-path-2);}.cls-5{fill:#039769;}.cls-6{clip-path:url(#clip-path-5);}.cls-7{clip-path:url(#clip-path-6);}.cls-8{fill:#137590;}.cls-9{clip-path:url(#clip-path-7);}.cls-10{fill:#7f2986;}.cls-11{isolation:isolate;}.cls-12{fill:#fff;}</style><clipPath id="clip-path"><rect class="cls-1" x="112.12" y="-0.35" width="102" height="73.7"/></clipPath><clipPath id="clip-path-2"><rect class="cls-1" y="-0.35" width="102" height="73.7"/></clipPath><clipPath id="clip-path-5"><rect class="cls-1" x="-115.15" y="-0.35" width="102" height="73.7"/></clipPath><clipPath id="clip-path-6"><rect class="cls-1" x="20.02" y="110.12" width="102" height="73.7"/></clipPath><clipPath id="clip-path-7"><rect class="cls-1" x="-120.35" y="-105.88" width="102" height="73.7"/></clipPath></defs><g class="cls-2"><path class="cls-3" d="M75.42-18.75l63.3-36.6,37.5,65-63.3,36.6Zm36,39.9,9.7-5.6-21-13.9Zm22.7-13.1,21.1-12.2-15-26-34.1,19.7Z"/></g><g class="cls-4"><rect class="cls-5" y="-0.35" width="102" height="73.7"/></g><g class="cls-4"><path class="cls-3" d="M73.7,131.85,37.1,68.55l65-37.5,36.6,63.3Zm26.7-58.8L88.2,52l-26,15,19.7,34.1Zm13.1,22.8-5.6-9.7-13.9,21Z"/></g><g class="cls-4"><path class="cls-3" d="M-36.7-18.75l63.3-36.6,37.5,65L.8,46.25Zm36,39.9L9,15.55-12,1.65ZM22,8.05,43.1-4.15l-15-26L-6-10.45Z"/></g><g class="cls-6"><path class="cls-3" d="M-41.45,131.85-78,68.55l65-37.5,36.6,63.3Zm26.7-58.8L-26.95,52l-26,15,19.7,34.1Zm13.1,22.8-5.6-9.7-13.9,21Z"/></g><g class="cls-7"><path class="cls-8" d="M-16.68,91.72l63.3-36.6,37.5,65-63.3,36.6Zm36,39.9L29,126,8,112.12ZM42,118.52l21.1-12.2-15-26L14,100Z"/></g><g class="cls-9"><path class="cls-10" d="M-46.65,26.32-83.25-37l65-37.5,36.6,63.3Zm26.7-58.8-12.2-21.1-26,15,19.7,34.1Zm13.1,22.8-5.6-9.7-13.9,21Z"/></g><g class="cls-11"><path class="cls-12" d="M26.86,69.7,17.11,52.82l15.59-9-2.62-4.55-13,7.5-2.25-3.9,20.78-12,7.13,12.35-15.59,9,5.25,9.09,7.79-4.5-.75-1.3,7.8-4.5,3,5.19Z"/><path class="cls-12" d="M60,50.58,47.61,29.15,41.12,32.9,38.87,29l14.29-8.25L67.78,46.08Z"/><path class="cls-12" d="M89.22,33.7l-2.63-4.54L68.41,39.66l-12-20.79,7.79-4.5L74,31.26l10.39-6L74.59,8.37l7.8-4.5,9.75,16.89,2.59-1.5L97,23.16l-2.59,1.5L97,29.2Z"/></g></svg>