<svg id="Слой_1" data-name="Слой 1" xmlns="http://www.w3.org/2000/svg" xmlns:xlink="http://www.w3.org/1999/xlink" viewBox="0 0 102 73"><defs><style>.cls-1{fill:none;}.cls-2{clip-path:url(#clip-path);}.cls-3{fill:#066047;}.cls-4{clip-path:url(#clip-path-2);}.cls-5{fill:#039769;}.cls-6{clip-path:url(#clip-path-5);}.cls-7{isolation:isolate;}.cls-8{fill:#fff;}</style><clipPath id="clip-path"><rect class="cls-1" x="126.81" y="-0.35" width="102" height="73.7"/></clipPath><clipPath id="clip-path-2"><rect class="cls-1" y="-0.35" width="102" height="73.7"/></clipPath><clipPath id="clip-path-5"><rect class="cls-1" x="-116.24" y="-0.35" width="102" height="73.7"/></clipPath></defs><g class="cls-2"><path class="cls-3" d="M90.11-18.75l63.3-36.6,37.5,65-63.3,36.6Zm36,39.9,9.7-5.6-21-13.9Zm22.7-13.1,21.1-12.2-15-26-34.1,19.7Z"/></g><g class="cls-4"><rect class="cls-5" y="-0.35" width="102" height="73.7"/></g><g class="cls-4"><path class="cls-3" d="M73.7,131.85,37.1,68.55l65-37.5,36.6,63.3Zm26.7-58.8L88.2,52l-26,15,19.7,34.1Zm13.1,22.8-5.6-9.7-13.9,21Z"/></g><g class="cls-4"><path class="cls-3" d="M-36.7-18.75l63.3-36.6,37.5,65L.8,46.25Zm36,39.9L9,15.55-12,1.65ZM22,8.05,43.1-4.15l-15-26L-6-10.45Z"/></g><g class="cls-6"><path class="cls-3" d="M-42.54,131.85l-36.6-63.3,65-37.5,36.6,63.3Zm26.7-58.8L-28,52-54,67l19.7,34.1Zm13.1,22.8-5.6-9.7-13.9,21Z"/></g><g class="cls-7"><path class="cls-8" d="M24.53,71.12,14.78,54.24l15.59-9-2.63-4.55-13,7.5-2.25-3.9,20.79-12,7.12,12.34-15.59,9,5.25,9.1,7.8-4.5-.75-1.3,7.79-4.5,3,5.19Z"/><path class="cls-8" d="M51.16,55.75l-3-5.2L56,46.05l.75,1.3,6.5-3.75-4.88-8.44L44,43.41l-2.25-3.9,7.39-11.19-10.39,6-2.25-3.9L58.62,17.67l1.87,3.25L52.17,33.51l11.7-6.75L73.24,43Z"/><path class="cls-8" d="M76.49,41.12l-3-5.19,7.79-4.5.75,1.3,7.8-4.5-5.25-9.1L69,28.13,61.86,15.79l20.79-12,2.25,3.9-13,7.5,2.62,4.55,15.59-9,9.75,16.88Z"/></g></svg>