<svg id="Слой_1" data-name="Слой 1" xmlns="http://www.w3.org/2000/svg" xmlns:xlink="http://www.w3.org/1999/xlink" viewBox="0 0 102 73"><defs><style>.cls-1{fill:none;}.cls-2{clip-path:url(#clip-path);}.cls-3{fill:#066047;}.cls-4{clip-path:url(#clip-path-2);}.cls-5{fill:#039769;}.cls-6{clip-path:url(#clip-path-5);}.cls-7{clip-path:url(#clip-path-6);}.cls-8{fill:#137590;}.cls-9{clip-path:url(#clip-path-7);}.cls-10{clip-path:url(#clip-path-8);}.cls-11{fill:#7f2986;}.cls-12{clip-path:url(#clip-path-9);}.cls-13{isolation:isolate;}.cls-14{fill:#fff;}</style><clipPath id="clip-path"><rect class="cls-1" x="114.32" y="-0.35" width="102" height="73.7"/></clipPath><clipPath id="clip-path-2"><rect class="cls-1" y="-0.35" width="102" height="73.7"/></clipPath><clipPath id="clip-path-5"><rect class="cls-1" x="-108.82" y="-0.35" width="102" height="73.7"/></clipPath><clipPath id="clip-path-6"><rect class="cls-1" x="7.1" y="110.12" width="102" height="73.7"/></clipPath><clipPath id="clip-path-7"><rect class="cls-1" x="127.47" y="110.12" width="102" height="73.7"/></clipPath><clipPath id="clip-path-8"><rect class="cls-1" x="-114.92" y="-105.88" width="102" height="73.7"/></clipPath><clipPath id="clip-path-9"><rect class="cls-1" x="-6.82" y="-105.88" width="102" height="73.7"/></clipPath></defs><g class="cls-2"><path class="cls-3" d="M77.62-18.75l63.3-36.6,37.5,65-63.3,36.6Zm36,39.9,9.7-5.6-21-13.9Zm22.7-13.1,21.1-12.2-15-26-34.1,19.7Z"/></g><g class="cls-4"><rect class="cls-5" y="-0.35" width="102" height="73.7"/></g><g class="cls-4"><path class="cls-3" d="M73.7,131.85,37.1,68.55l65-37.5,36.6,63.3Zm26.7-58.8L88.2,52l-26,15,19.7,34.1Zm13.1,22.8-5.6-9.7-13.9,21Z"/></g><g class="cls-4"><path class="cls-3" d="M-36.7-18.75l63.3-36.6,37.5,65L.8,46.25Zm36,39.9L9,15.55-12,1.65ZM22,8.05,43.1-4.15l-15-26L-6-10.45Z"/></g><g class="cls-6"><path class="cls-3" d="M-35.12,131.85l-36.6-63.3,65-37.5,36.6,63.3Zm26.7-58.8L-20.62,52l-26,15,19.7,34.1Zm13.1,22.8-5.6-9.7-13.9,21Z"/></g><g class="cls-7"><path class="cls-8" d="M-29.6,91.72l63.3-36.6,37.5,65L7.9,156.72Zm36,39.9,9.7-5.6-21-13.9Zm22.7-13.1,21.1-12.2-15-26L1.1,100Z"/></g><g class="cls-9"><path class="cls-8" d="M90.77,91.72l63.3-36.6,37.5,65-63.3,36.6Zm36,39.9,9.7-5.6-21-13.9Zm22.7-13.1,21.1-12.2-15-26L121.47,100Z"/></g><g class="cls-10"><path class="cls-11" d="M-41.22,26.32-77.82-37l65-37.5,36.6,63.3Zm26.7-58.8-12.2-21.1-26,15L-33-4.48Zm13.1,22.8L-7-19.38l-13.9,21Z"/></g><g class="cls-12"><path class="cls-11" d="M66.88,26.32,30.28-37l65-37.5,36.6,63.3Zm26.7-58.8-12.2-21.1-26,15,19.7,34.1Zm13.1,22.8-5.6-9.7-13.9,21Z"/></g><g class="cls-13"><path class="cls-14" d="M27.23,69.7,17.48,52.82l15.59-9-2.63-4.55-13,7.5-2.25-3.9L36,30.87l7.12,12.35-15.58,9,5.25,9.09,7.79-4.5-.75-1.3L47.61,51l3,5.19Z"/><path class="cls-14" d="M60.36,50.58,48,29.15,41.49,32.9,39.24,29l14.29-8.25L68.15,46.08Z"/><path class="cls-14" d="M71.4,44.2,61.65,27.32l15.59-9-2.63-4.55-13,7.5-2.25-3.9,20.78-12,7.13,12.35-15.59,9,5.25,9.09,7.8-4.5L84,30l7.79-4.5,3,5.19Z"/></g></svg>