<svg id="Слой_1" data-name="Слой 1" xmlns="http://www.w3.org/2000/svg" xmlns:xlink="http://www.w3.org/1999/xlink" viewBox="0 0 102 73"><defs><style>.cls-1{fill:none;}.cls-2{clip-path:url(#clip-path);}.cls-3{fill:#3f6212;}.cls-4{clip-path:url(#clip-path-2);}.cls-5{fill:#e21d49;}.cls-6{fill:#9f173a;}.cls-7{clip-path:url(#clip-path-5);}.cls-8{fill:#7f2986;}.cls-9{isolation:isolate;}.cls-10{fill:#fff;}</style><clipPath id="clip-path"><rect class="cls-1" x="107.73" y="-0.35" width="102" height="73.7"/></clipPath><clipPath id="clip-path-2"><rect class="cls-1" y="-0.35" width="102" height="73.7"/></clipPath><clipPath id="clip-path-5"><rect class="cls-1" x="-111.57" y="-0.35" width="102" height="73.7"/></clipPath></defs><g class="cls-2"><path class="cls-3" d="M71-18.75l63.3-36.6,37.5,65-63.3,36.6Zm36,39.9,9.7-5.6-21-13.9Zm22.7-13.1,21.1-12.2-15-26-34.1,19.7Z"/></g><g class="cls-4"><rect class="cls-5" y="-0.35" width="102" height="73.7"/></g><g class="cls-4"><path class="cls-6" d="M73.7,131.85,37.1,68.55l65-37.5,36.6,63.3Zm26.7-58.8L88.2,52l-26,15,19.7,34.1Zm13.1,22.8-5.6-9.7-13.9,21Z"/></g><g class="cls-4"><path class="cls-6" d="M-36.7-18.75l63.3-36.6,37.5,65L.8,46.25Zm36,39.9L9,15.55-12,1.65ZM22,8.05,43.1-4.15l-15-26L-6-10.45Z"/></g><g class="cls-7"><path class="cls-8" d="M-37.87,131.85l-36.6-63.3,65-37.5,36.6,63.3Zm26.7-58.8L-23.37,52l-26,15,19.7,34.1Zm13.1,22.8-5.6-9.7-13.9,21Z"/></g><g class="cls-9"><path class="cls-10" d="M31.19,60.16l-5-8.67,6.25-3.61-8,.48-1-1.73,11.8-6.81,1.2,2.08-5.55,3.2L38,44.67l1.2,2.09-7.63,4.4,3.8,6.6Z"/><path class="cls-10" d="M46.11,51.55l-1.2-2.09,5.55-3.2-5.41-9.37-2.78,1.6,4,6.94-4.16,2.41-5.21-9L55,28.4l5.21,9L56,39.82l-4-6.94-2.78,1.61,5.41,9.36,5.56-3.2,1.2,2.08Z"/><path class="cls-10" d="M64.5,40.93,56.69,27.39l13.88-8L74.37,26,67.46,36.44l1.21,2.08Zm5.31-13.25-2.2-3.81-5.56,3.2,3.81,6.59Z"/></g></svg>