<svg id="Слой_1" data-name="Слой 1" xmlns="http://www.w3.org/2000/svg" xmlns:xlink="http://www.w3.org/1999/xlink" viewBox="0 0 102 73"><defs><style>.cls-1{fill:none;}.cls-2{clip-path:url(#clip-path);}.cls-3{fill:#65a30d;}.cls-4{fill:#3f6212;}.cls-5{clip-path:url(#clip-path-4);}.cls-6{fill:#9f173a;}.cls-7{fill:#fff;}</style><clipPath id="clip-path"><rect class="cls-1" y="-0.35" width="102" height="73.7"/></clipPath><clipPath id="clip-path-4"><rect class="cls-1" x="-107.73" y="-0.35" width="102" height="73.7"/></clipPath></defs><g class="cls-2"><rect class="cls-3" y="-0.35" width="102" height="73.7"/></g><g class="cls-2"><path class="cls-4" d="M73.7,131.85,37.1,68.55l65-37.5,36.6,63.3Zm26.7-58.8L88.2,52l-26,15,19.7,34.1Zm13.1,22.8-5.6-9.7-13.9,21Z"/></g><g class="cls-2"><path class="cls-4" d="M-36.7-18.75l63.3-36.6,37.5,65L.8,46.25Zm36,39.9L9,15.55-12,1.65ZM22,8.05,43.1-4.15l-15-26L-6-10.45Z"/></g><g class="cls-5"><path class="cls-6" d="M-34,131.85l-36.6-63.3,65-37.5L31,94.35Zm26.7-58.8L-19.53,52l-26,15,19.7,34.1Zm13.1,22.8-5.6-9.7-13.9,21Z"/></g><path class="cls-7" d="M25,62.17,17.71,49.5l3.9-2.26,4.88,8.45,5.2-3-4.88-8.45L30.71,42,38,54.66l-3.89,2.26-1.32-2.28-5.2,3,1.32,2.28Z"/><path class="cls-7" d="M41,53,39.82,51,45,48,40,39.25l-2.6,1.5,3.75,6.5-3.9,2.25-4.88-8.45,16.9-9.75,4.88,8.45L50.21,42l-3.75-6.5L43.86,37l5.06,8.77,5.2-3,1.13,1.95Z"/><path class="cls-7" d="M59.47,42.28l-1.12-2,5.19-3-5.06-8.77-2.6,1.5,3.75,6.5-3.9,2.25-4.88-8.45,16.9-9.76,4.88,8.45-3.9,2.25L65,24.8l-2.6,1.51,5.06,8.77,5.2-3,1.13,2Z"/><path class="cls-7" d="M76.69,32.34,69.38,19.67l13-7.51,3.57,6.18-6.47,9.8,1.12,1.95Zm5-12.4L79.6,16.36l-5.2,3L78,25.54Z"/></svg>