<svg id="Слой_1" data-name="Слой 1" xmlns="http://www.w3.org/2000/svg" xmlns:xlink="http://www.w3.org/1999/xlink" viewBox="0 0 102 73"><defs><style>.cls-1{fill:none;}.cls-2{clip-path:url(#clip-path);}.cls-3{fill:#9f173a;}.cls-4{clip-path:url(#clip-path-2);}.cls-5{fill:#8d4795;}.cls-6{fill:#7f2986;}.cls-7{isolation:isolate;}.cls-8{fill:#fff;}</style><clipPath id="clip-path"><rect class="cls-1" x="111.57" y="-0.35" width="102" height="73.7"/></clipPath><clipPath id="clip-path-2"><rect class="cls-1" y="-0.35" width="102" height="73.7"/></clipPath></defs><g class="cls-2"><path class="cls-3" d="M74.87-18.75l63.3-36.6,37.5,65-63.3,36.6Zm36,39.9,9.7-5.6-21-13.9Zm22.7-13.1,21.1-12.2-15-26-34.1,19.7Z"/></g><g class="cls-4"><rect class="cls-5" y="-0.35" width="102" height="73.7"/></g><g class="cls-4"><path class="cls-6" d="M73.7,131.85,37.1,68.55l65-37.5,36.6,63.3Zm26.7-58.8L88.2,52l-26,15,19.7,34.1Zm13.1,22.8-5.6-9.7-13.9,21Z"/></g><g class="cls-4"><path class="cls-6" d="M-36.7-18.75l63.3-36.6,37.5,65L.8,46.25Zm36,39.9L9,15.55-12,1.65ZM22,8.05,43.1-4.15l-15-26L-6-10.45Z"/></g><g class="cls-7"><path class="cls-8" d="M24.79,62.72l-1.52-2.63,3.95-2.28.38.66,3.95-2.28-2.47-4.28-2.81,4.25-3.95,2.28-4.93-8.55,10.52-6.08,1.14,2-6.58,3.79,2.28,4,2.81-4.25,4-2.28,5.12,8.88Z"/><path class="cls-8" d="M38.28,54.93,30.87,42.1l4.61-2.65,3.39-.21-.76-1.31,11.18-6.46L56.7,44.3l-4,2.28L46.48,35.72l-3.29,1.9,6.27,10.85-4,2.28-5.12-8.88-4.24.26,6.07,10.52Z"/><path class="cls-8" d="M59.66,42.59l-1.14-2,5.26-3L58.65,28.7,56,30.21l3.8,6.58-4,2.28-4.94-8.55L68,20.65,73,29.2,69,31.48l-3.8-6.58L62.6,26.42l5.13,8.88,5.26-3,1.14,2Z"/><path class="cls-8" d="M77.09,32.52,69.68,19.7l13.16-7.6,3.61,6.25L79.9,28.27l1.13,2Zm5-12.55L80,16.35l-5.26,3,3.61,6.25Z"/></g></svg>