<svg xmlns="http://www.w3.org/2000/svg" width="72.956" height="59.492" viewBox="0 0 72.956 59.492">
  <g id="Gruppe_1" data-name="Gruppe 1" transform="translate(-421.656 -863.054)">
    <path id="Pfad_1" data-name="Pfad 1" d="M438.856,969.112c-.067-.071-.1-.1-.133-.141a9.6,9.6,0,0,0-12.313-2.04,9.361,9.361,0,0,0-4.732,8.493c-.044,5.942-.012,11.885-.011,17.828,0,.107.012.214.019.333h6.184v-.5q0-7.974.006-15.949a10.869,10.869,0,0,1,.132-1.649,3.2,3.2,0,0,1,2.98-3.046,3.666,3.666,0,0,1,4.37,2.995,8.24,8.24,0,0,1,.185,1.788q.021,7.937.008,15.875v.487h6.634v-.482q0-8.288,0-16.575a8.6,8.6,0,0,1,.111-1.465,3.243,3.243,0,0,1,2.508-2.855,5.471,5.471,0,0,1,2.374-.053,2.816,2.816,0,0,1,2.379,2.223,9.346,9.346,0,0,1,.243,2.148c.019,5.537.01,11.075.01,16.612v.448h6.25v-.415q0-8.822,0-17.644a11.113,11.113,0,0,0-.056-1.139,9.735,9.735,0,0,0-13.248-8.181A8.94,8.94,0,0,0,438.856,969.112Z" transform="translate(0 -71.042)"/>
    <path id="Pfad_2" data-name="Pfad 2" d="M421.79,863.108v27.95h6.359V880.25c1.67,0,3.289-.006,4.908,0a11.6,11.6,0,0,1,1.468.082,2.79,2.79,0,0,1,2.6,2.37,6.229,6.229,0,0,1,.1,1.171c.009,2.259,0,4.517,0,6.776v.406h5.939a.375.375,0,0,0,.031-.091c0-2.922.054-5.845-.038-8.764a5.773,5.773,0,0,0-2.915-5.031c-.03-.018-.062-.033-.128-.068l.374-.252a5.277,5.277,0,0,0,2.271-2.94,9.749,9.749,0,0,0,.421-2.488c.053-2.675.022-5.352.021-8.028a2.37,2.37,0,0,0-.029-.27h-5.947c0,.559,0,1.086,0,1.614,0,1.964.022,3.929-.012,5.892a2.929,2.929,0,0,1-2.726,3.184,7.16,7.16,0,0,1-1.1.081c-1.62.009-3.241,0-4.861,0h-.4V863.108Z" transform="translate(-0.093 -0.037)"/>
    <path id="Pfad_3" data-name="Pfad 3" d="M525.667,863.212a15.88,15.88,0,0,0-4.875.062,10.723,10.723,0,0,0-8.262,6.01,13.14,13.14,0,0,0-1.273,5.849c-.012,5.17,0,10.339,0,15.508,0,.129.011.258.016.38h6.986v-.5q0-7.478,0-14.955a8.925,8.925,0,0,1,.053-1.14,5.037,5.037,0,0,1,3.572-4.469,6.635,6.635,0,0,1,2.616-.308c.385.027.769.069,1.167.106Z" transform="translate(-62.091)"/>
    <path id="Pfad_4" data-name="Pfad 4" d="M593.072,1033.342H574.59v7.216h18.482Z" transform="translate(-105.986 -118.013)"/>
    <path id="Pfad_5" data-name="Pfad 5" d="M581.241,869.817v-6.673h-6.667v6.673Z" transform="translate(-105.975 -0.062)"/>
    <path id="Pfad_6" data-name="Pfad 6" d="M619.737,869.817v-6.672h-6.668v6.672Z" transform="translate(-132.653 -0.063)"/>
    <path id="Pfad_7" data-name="Pfad 7" d="M581.543,909.88a16.5,16.5,0,0,0-27.62-2.977,17.752,17.752,0,0,0-3.381,15.8,16.725,16.725,0,0,0,16.734,12.929,16.115,16.115,0,0,0,11.976-5.683A18.219,18.219,0,0,0,581.543,909.88Zm-7.811,13.529a7.628,7.628,0,0,1-6.981,4.38,7.413,7.413,0,0,1-6.982-4.358,10.953,10.953,0,0,1,.385-11.039,7.335,7.335,0,0,1,6.635-3.817,7.415,7.415,0,0,1,6.146,3.232,10.247,10.247,0,0,1,1.993,5.981A11.125,11.125,0,0,1,573.732,923.409Z" transform="translate(-88.929 -26.118)"/>
  </g>
</svg>
