<svg xmlns="http://www.w3.org/2000/svg" width="642.433" height="429.28" viewBox="0 0 642.433 429.28">
  <defs>
    <style>
      .cls-1 {
        fill: #e1d7ff;
      }
    </style>
  </defs>
  <g id="Gruppe_93" data-name="Gruppe 93" transform="translate(4430.783 3422.595)">
    <g id="Gruppe_84" data-name="Gruppe 84" transform="matrix(0.966, 0.259, -0.259, 0.966, -3942.792, -3077.576)">
      <path id="Pfad_42" data-name="Pfad 42" class="cls-1" d="M23.594,0H0V6.335H23.594V16.7H29.93V0Z" transform="translate(24.73 6.893)"/>
      <path id="Pfad_42_-_Kontur" data-name="Pfad 42 - Kontur" d="M-.5-.5H30.43V17.2H23.094V6.835H-.5ZM29.43.5H.5V5.835H24.094V16.2H29.43Z" transform="translate(24.73 6.893)"/>
      <path id="Pfad_43" data-name="Pfad 43" class="cls-1" d="M33.873,27.575H9.535L0,0H43.408Z" transform="translate(0.698 0)"/>
      <path id="Pfad_43_-_Kontur" data-name="Pfad 43 - Kontur" d="M34.229,28.075H9.179L-.7-.5H44.11Zm-24.338-1H33.517L42.706.5H.7Z" transform="translate(0.698 0)"/>
      <rect id="Rechteck_102" data-name="Rechteck 102" class="cls-1" width="44.805" height="6.335" transform="translate(0 24.151)"/>
      <path id="Rechteck_102_-_Kontur" data-name="Rechteck 102 - Kontur" d="M-.5-.5H45.305V6.835H-.5ZM44.305.5H.5V5.835H44.305Z" transform="translate(0 24.151)"/>
      <path id="Pfad_48" data-name="Pfad 48" class="cls-1" d="M23.594,0H0V6.335H23.594V16.7H29.93V0Z" transform="translate(24.73 45.797)"/>
      <path id="Pfad_48_-_Kontur" data-name="Pfad 48 - Kontur" d="M-.5-.5H30.43V17.2H23.094V6.835H-.5ZM29.43.5H.5V5.835H24.094V16.2H29.43Z" transform="translate(24.73 45.797)"/>
      <path id="Pfad_49" data-name="Pfad 49" class="cls-1" d="M0,0,4.8,44.744h29.93L39.524,0Z" transform="translate(2.848 30.487)"/>
      <path id="Pfad_49_-_Kontur" data-name="Pfad 49 - Kontur" d="M-.556-.5H40.08l-4.9,45.744H4.348ZM38.967.5H.556l4.69,43.744H34.278Z" transform="translate(2.848 30.487)"/>
      <path id="Pfad_50" data-name="Pfad 50" class="cls-1" d="M4.149,38.7,0,0,27.366.042,23.222,38.7Z" transform="translate(8.924 30.487)"/>
      <path id="Pfad_50_-_Kontur" data-name="Pfad 50 - Kontur" d="M23.671,39.2H3.7L-.557-.5l28.479.044ZM4.6,38.2H22.772L26.81.541.557.5Z" transform="translate(8.924 30.487)"/>
    </g>
    <g id="Gruppe_85" data-name="Gruppe 85" transform="matrix(0.966, 0.259, -0.259, 0.966, -4172.941, -3138.209)">
      <rect id="Rechteck_80" data-name="Rechteck 80" class="cls-1" width="29.93" height="6.335" transform="translate(12.916 33.91)"/>
      <path id="Rechteck_80_-_Kontur" data-name="Rechteck 80 - Kontur" d="M-.5-.5H30.43V6.835H-.5ZM29.43.5H.5V5.835H29.43Z" transform="translate(12.916 33.91)"/>
      <rect id="Rechteck_81" data-name="Rechteck 81" class="cls-1" width="39.524" height="6.335" transform="translate(8.119 0)"/>
      <path id="Rechteck_81_-_Kontur" data-name="Rechteck 81 - Kontur" d="M-.5-.5H40.024V6.835H-.5ZM39.024.5H.5V5.835H39.024Z" transform="translate(8.119 0)"/>
      <path id="Pfad_29" data-name="Pfad 29" class="cls-1" d="M23.594,0H0V6.335H23.594V29.93H29.93V0Z" transform="translate(32.678 6.335)"/>
      <path id="Pfad_29_-_Kontur" data-name="Pfad 29 - Kontur" d="M-.5-.5H30.43V30.43H23.094V6.835H-.5ZM29.43.5H.5V5.835H24.094V29.43H29.43Z" transform="translate(32.678 6.335)"/>
      <path id="Pfad_30" data-name="Pfad 30" class="cls-1" d="M6.008,0h29.93l6.008,33.91H0Z" transform="translate(6.908 40.245)"/>
      <path id="Pfad_30_-_Kontur" data-name="Pfad 30 - Kontur" d="M5.589-.5H36.357l6.185,34.91H-.6Zm29.93,1H6.427L.6,33.41H41.35Z" transform="translate(6.908 40.245)"/>
      <path id="Pfad_31" data-name="Pfad 31" class="cls-1" d="M12.916,0H0L5,6.335h6.264Z" transform="translate(0 6.335)"/>
      <path id="Pfad_31_-_Kontur" data-name="Pfad 31 - Kontur" d="M-1.032-.5H13.563L11.655,6.835H4.762Zm13.3,1H1.032L5.247,5.835h5.635Z" transform="translate(0 6.335)"/>
      <path id="Pfad_32" data-name="Pfad 32" class="cls-1" d="M0,0,4.8,27.575h29.93L39.524,0Z" transform="translate(8.119 6.335)"/>
      <path id="Pfad_32_-_Kontur" data-name="Pfad 32 - Kontur" d="M-.594-.5H40.119L35.147,28.075H4.376ZM38.93.5H.594L5.218,27.075H34.306Z" transform="translate(8.119 6.335)"/>
      <path id="Pfad_33" data-name="Pfad 33" class="cls-1" d="M0,0,1.984,27.575H14.363L16.347,0Z" transform="translate(19.708 6.335)"/>
      <path id="Pfad_33_-_Kontur" data-name="Pfad 33 - Kontur" d="M-.537-.5H16.884L14.828,28.075H1.519ZM15.809.5H.537L2.449,27.075H13.9Z" transform="translate(19.708 6.335)"/>
    </g>
    <g id="Gruppe_86" data-name="Gruppe 86" transform="matrix(0.966, 0.259, -0.259, 0.966, -4352.396, -3198.717)">
      <rect id="Rechteck_85" data-name="Rechteck 85" class="cls-1" width="39.524" height="6.335" transform="translate(8.119 12.145)"/>
      <path id="Rechteck_85_-_Kontur" data-name="Rechteck 85 - Kontur" d="M-.5-.5H40.024V6.835H-.5ZM39.024.5H.5V5.835H39.024Z" transform="translate(8.119 12.145)"/>
      <path id="Pfad_36" data-name="Pfad 36" class="cls-1" d="M23.594,0H0V6.335H23.594V29.93H29.93V0Z" transform="translate(32.678 18.48)"/>
      <path id="Pfad_36_-_Kontur" data-name="Pfad 36 - Kontur" d="M-.5-.5H30.43V30.43H23.094V6.835H-.5ZM29.43.5H.5V5.835H24.094V29.43H29.43Z" transform="translate(32.678 18.48)"/>
      <path id="Pfad_37" data-name="Pfad 37" class="cls-1" d="M12.916,0H0L5,6.335h6.264Z" transform="translate(0 18.48)"/>
      <path id="Pfad_37_-_Kontur" data-name="Pfad 37 - Kontur" d="M-1.032-.5H13.563L11.655,6.835H4.763Zm13.3,1H1.032L5.247,5.835h5.635Z" transform="translate(0 18.48)"/>
      <rect id="Rechteck_86" data-name="Rechteck 86" class="cls-1" width="39.524" height="67.82" transform="translate(8.119 18.48)"/>
      <path id="Rechteck_86_-_Kontur" data-name="Rechteck 86 - Kontur" d="M-.5-.5H40.024V68.32H-.5ZM39.024.5H.5V67.32H39.024Z" transform="translate(8.119 18.48)"/>
      <rect id="Rechteck_88" data-name="Rechteck 88" class="cls-1" width="39.524" height="6.335" transform="translate(8.119 73.629)"/>
      <path id="Rechteck_88_-_Kontur" data-name="Rechteck 88 - Kontur" d="M-.5-.5H40.024V6.835H-.5ZM39.024.5H.5V5.835H39.024Z" transform="translate(8.119 73.629)"/>
      <rect id="Rechteck_92" data-name="Rechteck 92" class="cls-1" width="12.812" height="6.335" transform="translate(21.475 0)"/>
      <path id="Rechteck_92_-_Kontur" data-name="Rechteck 92 - Kontur" d="M-.5-.5H13.312V6.835H-.5ZM12.312.5H.5V5.835H12.312Z" transform="translate(21.475 0)"/>
      <path id="Linie_78" data-name="Linie 78" d="M.5,67.159h-1V0h1Z" transform="translate(27.881 6.47)"/>
    </g>
    <g id="Gruppe_87" data-name="Gruppe 87" transform="matrix(0.966, 0.259, -0.259, 0.966, -3857.146, -3366.303)">
      <rect id="Rechteck_87" data-name="Rechteck 87" class="cls-1" width="39.524" height="79.83" transform="translate(0 6.47)"/>
      <path id="Rechteck_87_-_Kontur" data-name="Rechteck 87 - Kontur" d="M-.5-.5H40.024V80.33H-.5ZM39.024.5H.5V79.33H39.024Z" transform="translate(0 6.47)"/>
      <rect id="Rechteck_89" data-name="Rechteck 89" class="cls-1" width="39.524" height="6.335" transform="translate(0 79.964)"/>
      <path id="Rechteck_89_-_Kontur" data-name="Rechteck 89 - Kontur" d="M-.5-.5H40.024V6.835H-.5ZM39.024.5H.5V5.835H39.024Z" transform="translate(0 79.964)"/>
      <rect id="Rechteck_90" data-name="Rechteck 90" class="cls-1" width="39.524" height="6.335" transform="translate(0 36.882)"/>
      <path id="Rechteck_90_-_Kontur" data-name="Rechteck 90 - Kontur" d="M-.5-.5H40.024V6.835H-.5ZM39.024.5H.5V5.835H39.024Z" transform="translate(0 36.882)"/>
      <rect id="Rechteck_91" data-name="Rechteck 91" class="cls-1" width="39.524" height="6.335" transform="translate(0 6.47)"/>
      <path id="Rechteck_91_-_Kontur" data-name="Rechteck 91 - Kontur" d="M-.5-.5H40.024V6.835H-.5ZM39.024.5H.5V5.835H39.024Z" transform="translate(0 6.47)"/>
      <rect id="Rechteck_93" data-name="Rechteck 93" class="cls-1" width="12.812" height="6.335" transform="translate(13.356 0)"/>
      <path id="Rechteck_93_-_Kontur" data-name="Rechteck 93 - Kontur" d="M-.5-.5H13.312V6.835H-.5ZM12.312.5H.5V5.835H12.312Z" transform="translate(13.356 0)"/>
      <rect id="Rechteck_94" data-name="Rechteck 94" class="cls-1" width="12.812" height="12.812" transform="translate(13.356 43.217)"/>
      <path id="Rechteck_94_-_Kontur" data-name="Rechteck 94 - Kontur" d="M-.5-.5H13.312V13.312H-.5ZM12.312.5H.5V12.312H12.312Z" transform="translate(13.356 43.217)"/>
      <g id="Gruppe_53" data-name="Gruppe 53" transform="translate(8.269 63.928)">
        <path id="Pfad_38" data-name="Pfad 38" class="cls-1" d="M0,0,2.79,16.036H20.2L22.986,0Z"/>
        <path id="Pfad_38_-_Kontur" data-name="Pfad 38 - Kontur" d="M-.594-.5H23.58L20.616,16.536H2.369ZM22.391.5H.594L3.21,15.536H19.775Z"/>
        <path id="Pfad_39" data-name="Pfad 39" class="cls-1" d="M2.352,13.519,0,0H17.875L15.523,13.519Z" transform="translate(2.555 0)"/>
        <path id="Pfad_39_-_Kontur" data-name="Pfad 39 - Kontur" d="M15.944,14.019H1.931L-.594-.5H18.469Zm-13.172-1H15.1L17.28.5H.594Z" transform="translate(2.555 0)"/>
      </g>
      <ellipse id="Ellipse_7" data-name="Ellipse 7" class="cls-1" cx="7.62" cy="7.62" rx="7.62" ry="7.62" transform="translate(12.141 17.236)"/>
      <path id="Ellipse_7_-_Kontur" data-name="Ellipse 7 - Kontur" d="M7.62-.5A8.12,8.12,0,1,1-.5,7.62,8.13,8.13,0,0,1,7.62-.5Zm0,15.241A7.12,7.12,0,1,0,.5,7.62,7.128,7.128,0,0,0,7.62,14.741Z" transform="translate(12.141 17.236)"/>
    </g>
    <g id="Gruppe_88" data-name="Gruppe 88" transform="matrix(0.966, 0.259, -0.259, 0.966, -4222.138, -3313.929)">
      <rect id="Rechteck_95" data-name="Rechteck 95" class="cls-1" width="39.524" height="79.83" transform="translate(0 6.47)"/>
      <path id="Rechteck_95_-_Kontur" data-name="Rechteck 95 - Kontur" d="M-.5-.5H40.024V80.33H-.5ZM39.024.5H.5V79.33H39.024Z" transform="translate(0 6.47)"/>
      <rect id="Rechteck_96" data-name="Rechteck 96" class="cls-1" width="39.524" height="6.335" transform="translate(0 79.964)"/>
      <path id="Rechteck_96_-_Kontur" data-name="Rechteck 96 - Kontur" d="M-.5-.5H40.024V6.835H-.5ZM39.024.5H.5V5.835H39.024Z" transform="translate(0 79.964)"/>
      <rect id="Rechteck_97" data-name="Rechteck 97" class="cls-1" width="39.524" height="6.335" transform="translate(0 36.882)"/>
      <path id="Rechteck_97_-_Kontur" data-name="Rechteck 97 - Kontur" d="M-.5-.5H40.024V6.835H-.5ZM39.024.5H.5V5.835H39.024Z" transform="translate(0 36.882)"/>
      <rect id="Rechteck_98" data-name="Rechteck 98" class="cls-1" width="12.812" height="6.335" transform="translate(13.356 0)"/>
      <path id="Rechteck_98_-_Kontur" data-name="Rechteck 98 - Kontur" d="M-.5-.5H13.312V6.835H-.5ZM12.312.5H.5V5.835H12.312Z" transform="translate(13.356 0)"/>
      <rect id="Rechteck_99" data-name="Rechteck 99" class="cls-1" width="12.812" height="12.812" transform="translate(13.356 43.217)"/>
      <path id="Rechteck_99_-_Kontur" data-name="Rechteck 99 - Kontur" d="M-.5-.5H13.312V13.312H-.5ZM12.312.5H.5V12.312H12.312Z" transform="translate(13.356 43.217)"/>
      <g id="Gruppe_54" data-name="Gruppe 54" transform="translate(8.269 63.928)">
        <path id="Pfad_40" data-name="Pfad 40" class="cls-1" d="M0,0,2.79,16.036H20.2L22.986,0Z"/>
        <path id="Pfad_40_-_Kontur" data-name="Pfad 40 - Kontur" d="M-.594-.5H23.58L20.617,16.536H2.369ZM22.391.5H.594L3.21,15.536H19.776Z"/>
        <path id="Pfad_41" data-name="Pfad 41" class="cls-1" d="M2.352,13.519,0,0H17.875L15.523,13.519Z" transform="translate(2.555 0)"/>
        <path id="Pfad_41_-_Kontur" data-name="Pfad 41 - Kontur" d="M15.944,14.019H1.931L-.595-.5H18.469Zm-13.172-1H15.1L17.281.5H.594Z" transform="translate(2.555 0)"/>
      </g>
      <rect id="Rechteck_109" data-name="Rechteck 109" class="cls-1" width="31.269" height="6.335" transform="translate(13.356 51.268)"/>
      <path id="Rechteck_109_-_Kontur" data-name="Rechteck 109 - Kontur" d="M-.5-.5H31.769V6.835H-.5ZM30.769.5H.5V5.835H30.769Z" transform="translate(13.356 51.268)"/>
    </g>
    <g id="Gruppe_89" data-name="Gruppe 89" transform="matrix(0.966, 0.259, -0.259, 0.966, -4050.411, -3255.492)">
      <path id="Pfad_24" data-name="Pfad 24" class="cls-1" d="M23.594,0H0V6.335H23.594V16.7H29.93V0Z" transform="translate(64.762 8.604)"/>
      <path id="Pfad_24_-_Kontur" data-name="Pfad 24 - Kontur" d="M-.5-.5H30.43V17.2H23.094V6.835H-.5ZM29.43.5H.5V5.835H24.094V16.2H29.43Z" transform="translate(64.762 8.604)"/>
      <path id="Pfad_26" data-name="Pfad 26" class="cls-1" d="M23.594,0H0V6.335H23.594V16.7H29.93V0Z" transform="translate(64.762 44.722)"/>
      <path id="Pfad_26_-_Kontur" data-name="Pfad 26 - Kontur" d="M-.5-.5H30.43V17.2H23.094V6.835H-.5ZM29.43.5H.5V5.835H24.094V16.2H29.43Z" transform="translate(64.762 44.722)"/>
      <rect id="Rechteck_82" data-name="Rechteck 82" class="cls-1" width="43.906" height="6.335" transform="translate(27.687 33.91)"/>
      <path id="Rechteck_82_-_Kontur" data-name="Rechteck 82 - Kontur" d="M-.5-.5H44.406V6.835H-.5ZM43.406.5H.5V5.835H43.406Z" transform="translate(27.687 33.91)"/>
      <rect id="Rechteck_83" data-name="Rechteck 83" class="cls-1" width="71.893" height="6.335" transform="translate(0 0)"/>
      <path id="Rechteck_83_-_Kontur" data-name="Rechteck 83 - Kontur" d="M-.5-.5H72.393V6.835H-.5ZM71.393.5H.5V5.835H71.393Z" transform="translate(0 0)"/>
      <rect id="Rechteck_84" data-name="Rechteck 84" class="cls-1" width="18.343" height="46.581" transform="translate(10.591 27.574)"/>
      <path id="Rechteck_84_-_Kontur" data-name="Rechteck 84 - Kontur" d="M-.5-.5H18.843V47.081H-.5ZM17.843.5H.5V46.081H17.843Z" transform="translate(10.591 27.574)"/>
      <path id="Pfad_34" data-name="Pfad 34" class="cls-1" d="M0,0,4.8,21.239h29.93L39.524,0Z" transform="translate(0 6.335)"/>
      <path id="Pfad_34_-_Kontur" data-name="Pfad 34 - Kontur" d="M-.626-.5H40.149L35.127,21.739H4.4ZM38.9.5H.625L5.2,20.739h29.13Z" transform="translate(0 6.335)"/>
      <path id="Pfad_35" data-name="Pfad 35" class="cls-1" d="M33.873,27.575H9.535L0,0H43.408Z" transform="translate(43.058 6.335)"/>
      <path id="Pfad_35_-_Kontur" data-name="Pfad 35 - Kontur" d="M34.229,28.075H9.179L-.7-.5H44.11Zm-24.338-1H33.517L42.706.5H.7Z" transform="translate(43.058 6.335)"/>
      <rect id="Rechteck_100" data-name="Rechteck 100" class="cls-1" width="94.692" height="6.335" transform="translate(0 67.82)"/>
      <path id="Rechteck_100_-_Kontur" data-name="Rechteck 100 - Kontur" d="M-.5-.5H95.192V6.835H-.5ZM94.192.5H.5V5.835H94.192Z" transform="translate(0 67.82)"/>
      <rect id="Rechteck_101" data-name="Rechteck 101" class="cls-1" width="28.71" height="6.335" transform="translate(50.408 27.574)"/>
      <path id="Rechteck_101_-_Kontur" data-name="Rechteck 101 - Kontur" d="M-.5-.5H29.21V6.835H-.5ZM28.21.5H.5V5.835H28.21Z" transform="translate(50.408 27.574)"/>
      <path id="Pfad_44" data-name="Pfad 44" class="cls-1" d="M12.916,0H0L5,6.335h6.264Z" transform="translate(37.421 44.509)"/>
      <path id="Pfad_44_-_Kontur" data-name="Pfad 44 - Kontur" d="M-1.032-.5H13.562L11.656,6.835H4.762Zm13.3,1H1.032L5.247,5.835h5.635Z" transform="translate(37.421 44.509)"/>
      <rect id="Rechteck_103" data-name="Rechteck 103" class="cls-1" width="39.524" height="27.575" transform="translate(44.999 40.245)"/>
      <path id="Rechteck_103_-_Kontur" data-name="Rechteck 103 - Kontur" d="M-.5-.5H40.024V28.075H-.5ZM39.024.5H.5V27.075H39.024Z" transform="translate(44.999 40.245)"/>
    </g>
    <g id="Gruppe_90" data-name="Gruppe 90" transform="matrix(0.966, 0.259, -0.259, 0.966, -3835.046, -3166.727)">
      <path id="Pfad_25" data-name="Pfad 25" class="cls-1" d="M23.595,0H0V6.335H23.595V16.7H29.93V0Z" transform="translate(21.882 15.31)"/>
      <path id="Pfad_25_-_Kontur" data-name="Pfad 25 - Kontur" d="M-.5-.5H30.43V17.2H23.095V6.835H-.5ZM29.43.5H.5V5.835H24.095V16.2H29.43Z" transform="translate(21.882 15.31)"/>
      <path id="Pfad_46" data-name="Pfad 46" class="cls-1" d="M0,0,4.8,44.744h29.93L39.524,0Z"/>
      <path id="Pfad_46_-_Kontur" data-name="Pfad 46 - Kontur" d="M-.557-.5H40.08l-4.9,45.744H4.348ZM38.967.5H.556l4.69,43.744H34.278Z"/>
      <path id="Pfad_47" data-name="Pfad 47" class="cls-1" d="M4.149,38.7,0,0,27.366.042,23.222,38.7Z" transform="translate(6.077 0)"/>
      <path id="Pfad_47_-_Kontur" data-name="Pfad 47 - Kontur" d="M23.671,39.2H3.7L-.557-.5l28.479.044ZM4.6,38.2H22.772L26.81.541.557.5Z" transform="translate(6.077 0)"/>
    </g>
    <g id="Gruppe_91" data-name="Gruppe 91" transform="matrix(0.966, 0.259, -0.259, 0.966, -4416.497, -3353.584)">
      <path id="Pfad_27" data-name="Pfad 27" class="cls-1" d="M23.594,0H0V6.335H23.594V16.7H29.93V0Z" transform="translate(31.256 44.722)"/>
      <path id="Pfad_27_-_Kontur" data-name="Pfad 27 - Kontur" d="M-.5-.5H30.43V17.2H23.094V6.835H-.5ZM29.43.5H.5V5.835H24.094V16.2H29.43Z" transform="translate(31.256 44.722)"/>
      <path id="Pfad_28" data-name="Pfad 28" class="cls-1" d="M23.594,0H0V6.335H23.594V16.7H29.93V0Z" transform="translate(31.256 8.604)"/>
      <path id="Pfad_28_-_Kontur" data-name="Pfad 28 - Kontur" d="M-.5-.5H30.43V17.2H23.094V6.835H-.5ZM29.43.5H.5V5.835H24.094V16.2H29.43Z" transform="translate(31.256 8.604)"/>
      <path id="Pfad_45" data-name="Pfad 45" class="cls-1" d="M12.916,0H0L5,6.335h6.264Z" transform="translate(0 44.509)"/>
      <path id="Pfad_45_-_Kontur" data-name="Pfad 45 - Kontur" d="M-1.032-.5H13.562L11.655,6.835H4.762Zm13.3,1H1.032L5.247,5.835h5.635Z" transform="translate(0 44.509)"/>
      <rect id="Rechteck_104" data-name="Rechteck 104" class="cls-1" width="39.524" height="74.155" transform="translate(8.602 0)"/>
      <path id="Rechteck_104_-_Kontur" data-name="Rechteck 104 - Kontur" d="M-.5-.5H40.024V74.655H-.5ZM39.024.5H.5V73.655H39.024Z" transform="translate(8.602 0)"/>
      <rect id="Rechteck_105" data-name="Rechteck 105" class="cls-1" width="39.524" height="6.335" transform="translate(8.602 30.742)"/>
      <path id="Rechteck_105_-_Kontur" data-name="Rechteck 105 - Kontur" d="M-.5-.5H40.024V6.835H-.5ZM39.024.5H.5V5.835H39.024Z" transform="translate(8.602 30.742)"/>
    </g>
    <g id="Gruppe_92" data-name="Gruppe 92" transform="matrix(0.966, 0.259, -0.259, 0.966, -4091.286, -3423.631)">
      <rect id="Rechteck_211" data-name="Rechteck 211" class="cls-1" width="26.95" height="27.713" transform="translate(6.077 53.706)"/>
      <path id="Pfad_51" data-name="Pfad 51" class="cls-1" d="M14.24,0H0V6.335H14.24V16.7h6.335V0Z" transform="translate(31.917 61.79)"/>
      <path id="Pfad_51_-_Kontur" data-name="Pfad 51 - Kontur" d="M-.5-.5H21.075V17.2H13.74V6.835H-.5ZM20.075.5H.5V5.835H14.74V16.2h5.335Z" transform="translate(31.917 61.79)"/>
      <rect id="Rechteck_106" data-name="Rechteck 106" class="cls-1" width="39.524" height="6.335" transform="translate(0 50.018)"/>
      <path id="Rechteck_106_-_Kontur" data-name="Rechteck 106 - Kontur" d="M-.5-.5H40.024V6.835H-.5ZM39.024.5H.5V5.835H39.024Z" transform="translate(0 50.018)"/>
      <rect id="Rechteck_108" data-name="Rechteck 108" class="cls-1" width="26.951" height="34.247" transform="translate(6.076 15.772)"/>
      <path id="Rechteck_108_-_Kontur" data-name="Rechteck 108 - Kontur" d="M-.5-.5H27.451V34.747H-.5ZM26.451.5H.5V33.747H26.451Z" transform="translate(6.076 15.772)"/>
      <path id="Linie_79" data-name="Linie 79" d="M27.366.5H0v-1H27.366Z" transform="translate(5.869 0)"/>
      <path id="Pfad_52" data-name="Pfad 52" class="cls-1" d="M30.244,0,27.7,23.762H8.624L6.076,0H0L3.2,29.8h29.93L36.32,0Z" transform="translate(1.602 56.354)"/>
      <path id="Pfad_52_-_Kontur" data-name="Pfad 52 - Kontur" d="M-.556-.5H6.526L9.073,23.262H27.247L29.794-.5h7.082l-3.3,30.8H2.746ZM5.627.5H.556L3.644,29.3H32.676L35.764.5H30.693L28.146,24.262H8.175Z" transform="translate(1.602 56.354)"/>
      <rect id="Rechteck_107" data-name="Rechteck 107" class="cls-1" width="14.139" height="44.562" transform="translate(12.483 0)"/>
      <path id="Rechteck_107_-_Kontur" data-name="Rechteck 107 - Kontur" d="M-.5-.5H14.639V45.062H-.5ZM13.639.5H.5V44.062H13.639Z" transform="translate(12.483 0)"/>
    </g>
  </g>
</svg>
