<svg xmlns="http://www.w3.org/2000/svg" width="238.13" height="244.29" viewBox="0 0 238.13 244.29">
  <g>
    <rect width="238.13" height="244.29" style="fill: none"/>
    <g>
      <polygon points="192.52 72.08 187.2 72.08 182.85 84.66 192.52 84.66 192.52 105.25 205.1 105.25 205.1 84.66 205.1 72.08 192.52 72.08" style="fill: #e1d7ff"/>
      <polygon points="192.52 143.81 184.91 143.81 184.91 156.39 192.52 156.39 192.52 176.98 205.1 176.98 205.1 156.39 205.1 143.81 192.52 143.81" style="fill: #e1d7ff"/>
      <rect x="74.5" y="122.34" width="84.73" height="12.58" style="fill: #e1d7ff"/>
      <rect x="17.03" y="54.99" width="142.79" height="12.58" style="fill: #e1d7ff"/>
      <rect x="38.06" y="109.75" width="36.43" height="79.93" style="fill: #e1d7ff"/>
      <polygon points="17.03 67.57 26.56 109.75 86 109.75 95.53 67.57 17.03 67.57" style="fill: #e1d7ff"/>
      <polygon points="174.17 109.75 117.14 109.75 102.55 67.57 188.76 67.57 174.17 109.75" style="fill: #e1d7ff"/>
      <rect x="17.03" y="189.69" width="188.07" height="12.58" style="fill: #e1d7ff"/>
      <rect x="117.15" y="109.75" width="57.02" height="12.58" style="fill: #e1d7ff"/>
      <polygon points="106.41 143.39 91.35 143.39 101.29 155.97 106.41 155.97 106.41 143.39" style="fill: #e1d7ff"/>
      <rect x="106.4" y="134.92" width="78.5" height="54.77" style="fill: #e1d7ff"/>
      <polygon points="200.52 63.08 195.2 63.08 190.85 75.66 200.52 75.66 200.52 96.25 213.1 96.25 213.1 75.66 213.1 63.08 200.52 63.08" style="fill: none;stroke: #000;stroke-miterlimit: 10"/>
      <polygon points="200.52 134.81 192.91 134.81 192.91 147.39 200.52 147.39 200.52 167.98 213.1 167.98 213.1 147.39 213.1 134.81 200.52 134.81" style="fill: none;stroke: #000;stroke-miterlimit: 10"/>
      <rect x="82.5" y="113.34" width="84.73" height="12.58" style="fill: none;stroke: #000;stroke-miterlimit: 10"/>
      <rect x="25.03" y="45.99" width="142.79" height="12.58" style="fill: none;stroke: #000;stroke-miterlimit: 10"/>
      <rect x="46.06" y="100.75" width="36.43" height="79.93" style="fill: none;stroke: #000;stroke-miterlimit: 10"/>
      <polygon points="25.03 58.57 34.56 100.75 94 100.75 103.53 58.57 25.03 58.57" style="fill: none;stroke: #000;stroke-miterlimit: 10"/>
      <polygon points="182.17 100.75 125.14 100.75 110.55 58.57 196.76 58.57 182.17 100.75" style="fill: none;stroke: #000;stroke-miterlimit: 10"/>
      <rect x="25.03" y="180.69" width="188.07" height="12.58" style="fill: none;stroke: #000;stroke-miterlimit: 10"/>
      <rect x="125.15" y="100.75" width="57.02" height="12.58" style="fill: none;stroke: #000;stroke-miterlimit: 10"/>
      <polygon points="114.41 134.39 99.35 134.39 109.29 146.97 114.41 146.97 114.41 134.39" style="fill: none;stroke: #000;stroke-miterlimit: 10"/>
      <rect x="114.4" y="125.92" width="78.5" height="54.77" style="fill: none;stroke: #000;stroke-miterlimit: 10"/>
    </g>
  </g>
</svg>
