<?xml version="1.0" encoding="utf-8"?>
<!-- Generator: Adobe Illustrator 26.0.2, SVG Export Plug-In . SVG Version: 6.00 Build 0)  -->
<svg version="1.1" id="Layer_1" xmlns="http://www.w3.org/2000/svg" xmlns:xlink="http://www.w3.org/1999/xlink" x="0px" y="0px"
	 viewBox="0 0 200 200" style="enable-background:new 0 0 200 200;" xml:space="preserve">
<path d="M146.8,109.8c-2.8-0.6-5.5,1-6.4,3.7c-2,5.9-5.4,11.3-9.9,15.8c-16.1,16.1-42.4,16.1-58.6,0c-17-17-16.1-45.1,2.6-60.9
	c7-6,16-9.4,25.2-9.7c11.1-0.4,21.7,3.6,29.8,11.1l-7.4,7.4c-1.7,1.7-0.5,4.5,1.9,4.5h22.8c1.4,0,2.6-1.2,2.6-2.6V56.2
	c0-2.3-2.8-3.5-4.5-1.9l-7.7,7.7C127,52.2,113.4,47.1,99,47.7c-11.5,0.5-22.5,4.7-31.3,12.1c-23.9,20-25,55.8-3.5,77.3
	c10.2,10.2,23.6,15.3,37.1,15.3c13.4,0,26.8-5.1,37.1-15.3c5.7-5.7,9.9-12.5,12.5-20C151.9,113.9,150,110.5,146.8,109.8z"/>
</svg>
