<svg xmlns="http://www.w3.org/2000/svg" width="49.28" height="73.36" viewBox="0 0 49.28 73.36">
  <defs>
    <style>
      .a, .b {
        fill: none;
        stroke: #000;
      }

      .b {
        stroke-miterlimit: 10;
      }
    </style>
  </defs>
  <g>
    <polyline class="a" points="15.15 32.98 18.64 26.9 18.64 6.75 14.1 6.75 14.1 0.5 24.33 0.5 24.95 0.5 35.18 0.5 35.18 6.75 30.64 6.75 30.64 26.9 34.12 32.98"/>
    <polyline class="a" points="36.97 37.95 48.78 58.59 48.78 72.86 24.95 72.86 24.33 72.86 0.5 72.86 0.5 58.59 12.31 37.95"/>
    <g>
      <polygon points="24.64 42.47 30.42 36.68 24.22 36.68 18.86 36.68 24.64 42.47"/>
      <polygon points="33.51 41.41 28.55 46.38 41.2 59.03 37.29 62.94 24.64 50.28 11.98 62.94 8.07 59.03 20.73 46.38 15.24 40.89 4.86 58.59 4.86 68.89 24.22 68.89 43.59 68.89 43.59 58.59 33.51 41.41"/>
    </g>
    <polygon class="b" points="41.2 33.72 37.29 29.81 24.64 42.47 11.98 29.81 8.07 33.72 20.73 46.38 8.07 59.03 11.98 62.94 24.64 50.28 37.29 62.94 41.2 59.03 28.55 46.38 41.2 33.72"/>
  </g>
</svg>
