<svg xmlns="http://www.w3.org/2000/svg" width="94.87" height="45.73" viewBox="0 0 94.87 45.73">
  <defs>
    <style>
      .a, .b {
        stroke: #000;
        stroke-miterlimit: 10;
      }

      .b {
        fill: none;
      }
    </style>
  </defs>
  <g>
    <path class="a" d="M77.7,2l-3.5,3.5L84.66,15.93H72.3a11.47,11.47,0,0,0,.32-2.63c0-8-4.92-12.8-13.14-12.8C54.68.5,50.17,4.28,48,6.41,45.83,4.28,41.32.5,36.52.5,28.31.5,23.39,5.28,23.39,13.3c0,6.57,6,12.06,6.26,12.25l.56.54H65.82l.5-.48a23.91,23.91,0,0,0,3.85-4.72H84.66L74.2,31.36l3.5,3.51L94.16,18.41Z"/>
    <polygon class="a" points="48 43.29 60.69 31.05 35.34 31.05 48 43.29"/>
    <polygon class="b" points="30.21 26.09 10.2 26.09 20.67 15.62 17.16 12.11 0.71 28.57 17.16 45.03 20.67 41.52 10.2 31.05 35.34 31.05 60.69 31.05 65.82 26.09 30.21 26.09"/>
  </g>
</svg>
