<svg xmlns="http://www.w3.org/2000/svg" width="23.99" height="24" viewBox="0 0 23.99 24"><g id="Ebene_2" data-name="Ebene 2"><g id="Ebene_1-2" data-name="Ebene 1"><g id="Bildmaterial_14" data-name="Bildmaterial 14"><path d="M22.67,0H1.32A1.32,1.32,0,0,0,0,1.32V22.67A1.32,1.32,0,0,0,1.32,24h11.5V14.7H9.7V11.08h3.12V8.41c0-3.1,1.9-4.75,4.66-4.75a25.93,25.93,0,0,1,2.79.14V7h-1.9c-1.5,0-1.79.72-1.79,1.77v2.31h3.58l-.47,3.62H16.56V24h6.11A1.32,1.32,0,0,0,24,22.68V1.32A1.32,1.32,0,0,0,22.67,0" fill="#fff"/></g></g></g></svg>