<svg id="Ebene_2" data-name="Ebene 2" xmlns="http://www.w3.org/2000/svg" width="31.243" height="31.243" viewBox="0 0 31.243 31.243">
  <g id="Ebene_1" data-name="Ebene 1">
    <g id="Bildmaterial_13" data-name="Bildmaterial 13">
      <path id="Pfad_98" data-name="Pfad 98" d="M15.622,0c-4.244,0-4.778,0-6.444.1a11.235,11.235,0,0,0-3.8.716A7.433,7.433,0,0,0,2.6,2.6,7.433,7.433,0,0,0,.82,5.376,11.235,11.235,0,0,0,.1,9.178C0,10.857,0,11.391,0,15.622s0,4.765.1,6.431a11.443,11.443,0,0,0,.729,3.788,7.668,7.668,0,0,0,1.77,2.8,7.811,7.811,0,0,0,2.773,1.8,11.443,11.443,0,0,0,3.788.729c1.705.078,2.226.078,6.457.078s4.778,0,6.444-.1a11.508,11.508,0,0,0,3.788-.729,7.941,7.941,0,0,0,4.556-4.556,11.508,11.508,0,0,0,.729-3.723c.1-1.744.1-2.265.1-6.509s0-4.765-.1-6.431A11.508,11.508,0,0,0,30.41,5.4,7.629,7.629,0,0,0,25.854.82,11.5,11.5,0,0,0,22.131.1C20.386,0,19.865,0,15.622,0m0,2.812c4.179,0,4.673,0,6.314.078a8.878,8.878,0,0,1,2.9.534A4.687,4.687,0,0,1,26.622,4.6a4.634,4.634,0,0,1,1.172,1.8,8.735,8.735,0,0,1,.534,2.89c.065,1.64.078,2.135.078,6.314s0,4.66-.078,6.3a8.813,8.813,0,0,1-.534,2.9,5.207,5.207,0,0,1-2.968,2.968,8.878,8.878,0,0,1-2.9.534,54.675,54.675,0,0,1-6.3.156c-4.179,0-4.66,0-6.3-.091a8.54,8.54,0,0,1-2.9-.521,4.843,4.843,0,0,1-1.783-1.172,4.726,4.726,0,0,1-1.172-1.8,8.735,8.735,0,0,1-.534-2.89c-.065-1.64-.078-2.135-.078-6.314s0-4.66.078-6.3A8.813,8.813,0,0,1,3.45,6.509a4.83,4.83,0,0,1,1.172-1.8A4.8,4.8,0,0,1,6.4,3.515a8.878,8.878,0,0,1,2.9-.534c1.64-.078,2.135-.091,6.3-.091" fill="#fff"/>
      <path id="Pfad_99" data-name="Pfad 99" d="M13.862,19.066a5.207,5.207,0,1,1,5.207-5.207,5.207,5.207,0,0,1-5.207,5.207m0-13.226a8.006,8.006,0,1,0,5.666,2.35,8.019,8.019,0,0,0-5.666-2.35" transform="translate(1.759 1.763)" fill="#fff"/>
      <path id="Pfad_100" data-name="Pfad 100" d="M20.719,6.035A1.875,1.875,0,1,1,18.845,4.16a1.875,1.875,0,0,1,1.875,1.875" transform="translate(5.122 1.255)" fill="#fff"/>
    </g>
  </g>
</svg>
