<?xml version="1.0" encoding="UTF-8"?>
<svg id="a" data-name="Ebene 1" xmlns="http://www.w3.org/2000/svg" xmlns:xlink="http://www.w3.org/1999/xlink" viewBox="0 0 37.6 37.93">
  <defs>
    <style>
      .c {
        fill: none;
      }

      .d {
        fill: #e1ffd7;
      }

      .d, .e {
        stroke: #000;
        stroke-miterlimit: 10;
      }

      .e {
        fill: #ded4ff;
      }

      .f {
        clip-path: url(#b);
      }
    </style>
    <clipPath id="b">
      <path d="M18.89,35.88h0c8.36,.05,15.52-6.05,16.94-14.22-3.02-.24-5.4-2.77-5.4-5.84,0-.06,0-.12,0-.17-2.68-.08-4.95-1.99-5.52-4.57-.4,.09-.8,.13-1.21,.13-3.23,0-5.85-2.63-5.85-5.86,0-.14,0-.29,.02-.43-1.62-.19-3.03-1.27-3.65-2.78C6.81,4.23,1.68,10.97,1.69,18.71c0,4.59,1.79,8.91,5.04,12.15,3.25,3.24,7.56,5.03,12.15,5.03h.01Z" style="fill: none;"/>
    </clipPath>
  </defs>
  <path d="M18.89,36.38c-9.77,0-17.7-7.91-17.7-17.68,0-8.1,5.5-15.18,13.35-17.16,.48,1.7,2.02,2.88,3.79,2.91h.11c-.06,.3-.09,.6-.09,.9,0,2.96,2.39,5.35,5.35,5.36,.55,0,1.09-.09,1.61-.26,.33,2.68,2.6,4.69,5.3,4.7h.37c-.03,.22-.05,.45-.05,.67,0,2.96,2.4,5.36,5.36,5.36h.12c-1.22,8.73-8.7,15.22-17.52,15.2Z" style="fill: #ded4ff; stroke: #000; stroke-miterlimit: 10;"/>
  <path d="M15.32,26.78c-2.45,0-4.43-1.98-4.43-4.43s1.98-4.43,4.43-4.43c2.45,0,4.43,1.98,4.43,4.43h0c0,2.45-1.98,4.43-4.43,4.43Z" style="fill: #e1ffd7; stroke: #000; stroke-miterlimit: 10;"/>
  <path d="M13.07,11.66c-1.42-.03-2.56-1.2-2.53-2.63,.03-1.42,1.2-2.56,2.63-2.53,1.4,.03,2.53,1.17,2.53,2.58,0,1.43-1.17,2.59-2.6,2.58h-.03Z" style="fill: #e1ffd7; stroke: #000; stroke-miterlimit: 10;"/>
  <path d="M27.09,27.01c-1.44,0-2.61-1.17-2.61-2.61s1.17-2.61,2.61-2.61,2.61,1.17,2.61,2.61-1.17,2.61-2.61,2.61h0Z" style="fill: #e1ffd7; stroke: #000; stroke-miterlimit: 10;"/>
  <g style="clip-path: url(#b);">
    <g>
      <path d="M4.31,19.46c-2.45,.02-4.45-1.94-4.47-4.39-.02-2.45,1.94-4.45,4.39-4.47,2.45-.02,4.45,1.94,4.47,4.39v.04c0,2.43-1.96,4.41-4.39,4.43Z" style="fill: #e1ffd7; stroke: #000; stroke-miterlimit: 10;"/>
      <circle cx="17.17" cy="35.41" r="2.95" style="fill: #e1ffd7; stroke: #000; stroke-miterlimit: 10;"/>
    </g>
  </g>
</svg>