<?xml version="1.0" encoding="UTF-8"?>
<svg id="a" data-name="Ebene 1" xmlns="http://www.w3.org/2000/svg" viewBox="0 0 238.13 244.29">
  <rect width="238.13" height="244.29" style="fill: none;"/>
  <g>
    <polygon points="171.36 159.31 153.84 159.31 152.44 171.89 171.36 171.89 171.36 192.48 183.94 192.48 183.94 171.89 183.94 159.31 171.36 159.31" style="fill: #e1d7ff;"/>
    <rect x="79.68" y="135.93" width="78.5" height="12.58" style="fill: #e1d7ff;"/>
    <rect x="91.75" y="67.91" width="53.53" height="68.02" style="fill: #e1d7ff;"/>
    <g>
      <polygon points="155 148.51 148.66 207.7 89.21 207.7 82.86 148.51 94.93 148.51 99.99 195.7 137.87 195.7 142.93 148.51 155 148.51" style="fill: #e1d7ff;"/>
      <polygon points="142.93 148.51 137.87 195.7 99.99 195.7 94.93 148.51 82.86 148.51 89.21 207.7 148.66 207.7 155 148.51 142.93 148.51" style="fill: #e1d7ff;"/>
    </g>
    <rect x="104.47" y="36.58" width="28.08" height="80.14" style="fill: #e1d7ff;"/>
    <polygon points="142.93 148.51 137.87 195.7 99.99 195.7 94.93 148.51 142.93 148.51" style="fill: #e1d7ff;"/>
    <line x1="90.59" y1="36.58" x2="144.95" y2="36.58" style="fill: none; stroke: #000; stroke-miterlimit: 10;"/>
    <polygon points="170.61 159.31 153.1 159.31 151.69 171.89 170.61 171.89 170.61 192.48 183.19 192.48 183.19 171.89 183.19 159.31 170.61 159.31" style="fill: none; stroke: #000; stroke-miterlimit: 10;"/>
    <rect x="78.94" y="135.93" width="78.5" height="12.58" style="fill: none; stroke: #000; stroke-miterlimit: 10;"/>
    <rect x="91.01" y="67.91" width="53.53" height="68.02" style="fill: none; stroke: #000; stroke-miterlimit: 10;"/>
    <polygon points="154.25 148.51 147.91 207.7 88.46 207.7 82.11 148.51 94.18 148.51 99.24 195.7 137.12 195.7 142.18 148.51 154.25 148.51" style="fill: none; stroke: #000; stroke-miterlimit: 10;"/>
    <rect x="103.73" y="36.58" width="28.08" height="80.14" style="fill: none; stroke: #000; stroke-miterlimit: 10;"/>
    <line x1="137.71" y1="67.91" x2="100.25" y2="67.91" style="fill: none; stroke: #000; stroke-miterlimit: 10;"/>
  </g>
</svg>