<?xml version="1.0" encoding="UTF-8"?>
<svg id="a" data-name="Ebene 1" xmlns="http://www.w3.org/2000/svg" viewBox="0 0 238.13 244.29">
  <rect width="238.13" height="244.29" style="fill: none;"/>
  <g>
    <rect x="77.02" y="60.63" width="78.5" height="12.58" style="fill: #e1d7ff;"/>
    <polygon points="172.66 73.21 155.52 73.21 155.52 85.8 172.66 85.8 172.66 132.66 185.24 132.66 185.24 85.8 185.24 73.21 172.66 73.21" style="fill: #e1d7ff;"/>
    <polygon points="77.02 73.21 60.89 73.21 70.83 85.8 77.02 85.8 77.02 73.21" style="fill: #e1d7ff;"/>
    <rect x="77.02" y="73.21" width="78.5" height="134.7" style="fill: #e1d7ff;"/>
    <rect x="103.54" y="36.51" width="25.45" height="12.58" style="fill: #e1d7ff;"/>
    <rect x="77.02" y="60.5" width="78.5" height="12.58" style="fill: none; stroke: #000; stroke-miterlimit: 10;"/>
    <polygon points="172.66 73.08 155.52 73.08 155.52 85.66 172.66 85.66 172.66 132.52 185.24 132.52 185.24 85.66 185.24 73.08 172.66 73.08" style="fill: none; stroke: #000; stroke-miterlimit: 10;"/>
    <polygon points="77.02 73.08 60.89 73.08 70.83 85.66 77.02 85.66 77.02 73.08" style="fill: none; stroke: #000; stroke-miterlimit: 10;"/>
    <rect x="77.02" y="73.08" width="78.5" height="134.7" style="fill: none; stroke: #000; stroke-miterlimit: 10;"/>
    <rect x="77.02" y="182.61" width="78.5" height="12.58" style="fill: none; stroke: #000; stroke-miterlimit: 10;"/>
    <rect x="103.54" y="36.37" width="25.45" height="12.58" style="fill: none; stroke: #000; stroke-miterlimit: 10;"/>
    <line x1="116.27" y1="49.23" x2="116.27" y2="182.61" style="fill: none; stroke: #000; stroke-miterlimit: 10;"/>
  </g>
</svg>