<?xml version="1.0" encoding="UTF-8"?>
<svg id="a" data-name="Ebene 1" xmlns="http://www.w3.org/2000/svg" viewBox="0 0 238.13 244.29">
  <rect width="238.13" height="244.29" style="fill: none;"/>
  <g>
    <polyline points="160.07 71.98 164.81 58.28 78.59 58.28 95.18 106.25 148.22 106.25 155.72 84.56" style="fill: #e1d7ff;"/>
    <polyline points="95.18 106.25 77.21 106.25 77.21 118.84 82.86 118.84 94.93 118.84 161.36 118.84 166.19 118.84 166.19 106.25 148.22 106.25" style="fill: #e1d7ff;"/>
    <g>
      <polygon points="161.36 118.83 158.1 149.24 156.75 161.82 151.84 207.7 92.39 207.7 82.86 118.83 94.93 118.83 103.17 195.7 141.05 195.7 149.29 118.91 94.93 118.83 161.36 118.83" style="fill: #e1d7ff;"/>
      <polygon points="149.29 118.91 141.05 195.7 103.17 195.7 94.93 118.83 149.29 118.91" style="fill: #e1d7ff;"/>
    </g>
    <polygon points="173.18 71.98 160.07 71.98 155.72 84.56 173.18 84.56 173.18 105.15 185.77 105.15 185.77 84.56 185.77 71.98 173.18 71.98" style="fill: #e1d7ff;"/>
    <polygon points="173.18 161.83 173.18 182.42 185.77 182.42 185.77 161.83 185.77 149.24 173.18 149.24 158.1 149.24 156.75 161.83 173.18 161.83" style="fill: #e1d7ff;"/>
    <polyline points="160.07 71.98 164.81 58.28 78.59 58.28 95.18 106.25 148.22 106.25 155.72 84.56" style="fill: none; stroke: #000; stroke-miterlimit: 10;"/>
    <polyline points="95.18 106.25 77.21 106.25 77.21 118.84 82.86 118.84 94.93 118.84 161.36 118.84 166.19 118.84 166.19 106.25 148.22 106.25" style="fill: none; stroke: #000; stroke-miterlimit: 10;"/>
    <line x1="148.22" y1="106.25" x2="95.18" y2="106.25" style="fill: none; stroke: #000; stroke-miterlimit: 10;"/>
    <g>
      <polyline points="94.93 118.83 82.86 118.83 92.39 207.7 151.84 207.7 156.75 161.82" style="fill: none; stroke: #000; stroke-miterlimit: 10;"/>
      <polygon points="94.93 118.83 149.29 118.91 141.05 195.7 103.17 195.7 94.93 118.83" style="fill: none; stroke: #000; stroke-miterlimit: 10;"/>
      <polyline points="158.1 149.24 161.36 118.83 94.93 118.83" style="fill: none; stroke: #000; stroke-miterlimit: 10;"/>
    </g>
    <polygon points="173.18 71.98 160.07 71.98 155.72 84.56 173.18 84.56 173.18 105.15 185.77 105.15 185.77 84.56 185.77 71.98 173.18 71.98" style="fill: none; stroke: #000; stroke-miterlimit: 10;"/>
    <polygon points="173.18 161.83 173.18 182.42 185.77 182.42 185.77 161.83 185.77 149.24 173.18 149.24 158.1 149.24 156.75 161.83 173.18 161.83" style="fill: none; stroke: #000; stroke-miterlimit: 10;"/>
  </g>
</svg>