<?xml version="1.0" encoding="UTF-8"?>
<svg id="a" data-name="Ebene 1" xmlns="http://www.w3.org/2000/svg" width="757" height="502.95" viewBox="0 0 757 502.95">
  <g>
    <polygon points="127.33 352.51 127.04 353.27 129.57 346.51 122.68 344.74 106.83 340.66 131.39 346.98 133.24 339.79 88.41 328.26 86.56 335.44 88.37 335.91 83.3 370.64 117.25 379.38 124.71 359.49 135.48 362.27 132.45 374.02 139.64 375.87 142.66 364.12 144.51 356.93 137.33 355.08 127.33 352.51" style="fill: #e1d7ff;"/>
    <polygon points="135.87 299.05 128.6 297.18 133.21 279.29 117.17 275.16 112.57 293.05 105.3 291.18 95.31 330.03 125.88 337.9 135.87 299.05" style="fill: #e1d7ff;"/>
    <polygon points="284.21 167.02 276.59 165.06 274.88 171.68 279.1 155.3 234.27 143.76 225.29 178.63 225.29 178.63 223.44 185.81 219.53 201.03 221.27 194.24 211.51 191.73 215.34 200.38 219.42 201.43 212.62 227.87 257.45 239.41 264.19 213.21 271.82 215.17 268.79 226.93 275.98 228.78 279.01 217.03 280.86 209.84 273.67 207.99 266.04 206.03 264.65 211.42 268.27 197.35 268.27 197.35 270.12 190.17 270.12 190.17 274.74 172.24 282.36 174.2 279.34 185.96 286.53 187.81 289.55 176.06 291.4 168.87 284.21 167.02" style="fill: #e1d7ff;"/>
    <rect x="407.41" y="10.32" width="7.42" height="46.29" transform="translate(276.23 423.26) rotate(-75.57)" style="fill: #e1d7ff;"/>
    <polygon points="416.17 106.69 430.76 50.02 440.54 52.54 433.66 79.3 440.84 81.15 447.73 54.39 449.58 47.2 442.39 45.35 432.61 42.83 387.78 31.29 378.56 28.92 382.39 37.57 385.93 38.48 371.68 93.84 371.68 93.84 369.83 101.03 369.83 101.03 367.98 108.22 412.81 119.76 414.66 112.57 414.66 112.57 416.17 106.69" style="fill: #e1d7ff;"/>
    <rect x="410.95" y="12.19" width="7.42" height="15.01" transform="translate(292.23 416.35) rotate(-75.57)" style="fill: #e1d7ff;"/>
    <polygon points="83.48 151.76 90.37 125 92.22 117.81 85.03 115.96 75.25 113.44 77.1 106.26 32.26 94.72 30.42 101.9 21.2 99.53 25.03 108.18 29.81 109.41 27.8 134.58 25.95 141.77 9.24 178.48 56.82 190.72 59.9 150.51 61.75 143.32 72.15 120.31 83.18 123.15 76.29 149.91 83.48 151.76" style="fill: #e1d7ff;"/>
    <polygon points="538.44 240.14 539.99 237.79 523.47 233.54 525.32 226.35 443.77 205.36 441.92 212.55 441.16 238.04 447.73 239.73 435.98 285.37 456.79 290.73 468.54 245.08 475.11 246.77 486.75 224.09 503.47 228.39 490.76 225.12 492.89 251.35 525.46 259.73 538.29 240.37 534.11 246.68 539.63 248.1 536.6 259.86 543.79 261.71 546.81 249.95 548.66 242.77 541.48 240.92 538.44 240.14" style="fill: #e1d7ff;"/>
    <polygon points="526.59 280.76 524.74 287.95 529.09 289.07 526.06 300.82 533.24 302.67 536.27 290.91 538.12 283.73 530.94 281.88 526.59 280.76" style="fill: #e1d7ff;"/>
    <rect x="486.25" y="237.11" width="7.42" height="49.97" transform="translate(114.01 671.26) rotate(-75.57)" style="fill: #e1d7ff;"/>
    <rect x="504.55" y="242.32" width="7.42" height="33.62" transform="translate(130.61 686.76) rotate(-75.57)" style="fill: #e1d7ff;"/>
    <polygon points="527.89 275.68 483.06 264.15 481.82 268.98 473.22 266.77 477.05 275.42 479.97 276.17 475.01 295.42 488.02 298.77 423.97 282.29 422.12 289.47 529.53 317.12 531.38 309.93 519.84 306.96 527.89 275.68" style="fill: #e1d7ff;"/>
    <polygon points="676.74 148.31 682.52 149.8 684.37 142.61 678.59 141.13 678.59 141.13 691.67 90.31 676.52 86.41 678.41 79.07 663.88 75.33 661.99 82.67 646.84 78.77 637.96 113.27 637.96 113.27 637.17 116.33 625.38 162.13 625.38 162.13 623.94 167.73 623.53 169.32 668.36 180.86 668.36 180.86 668.36 180.86 670.21 173.67 670.21 173.67 676.74 148.31 676.74 148.31" style="fill: #e1d7ff;"/>
    <polygon points="735.04 342 726.42 339.78 732.75 322.9 694.82 313.13 694.81 313.13 694.81 313.13 687.92 311.36 680.3 363.51 714.25 372.24 723.8 346.77 733.19 349.19 730.16 360.94 737.34 362.79 740.37 351.04 742.22 343.85 735.04 342" style="fill: #e1d7ff;"/>
    <polygon points="618.04 420.3 622.76 413.18 573.52 400.5 575.95 430.34 565.68 427.69 563.83 434.88 567.06 435.71 559.44 487.86 593.39 496.6 602.94 471.12 612.32 473.54 609.3 485.3 616.49 487.15 619.51 475.39 621.36 468.2 614.17 466.35 605.56 464.14 611.89 447.25 614.65 447.96 616.5 440.77 606.24 438.13 613.71 426.84 623.68 429.41 620.65 441.17 627.84 443.02 630.87 431.26 632.72 424.08 625.53 422.22 618.04 420.3" style="fill: #e1d7ff;"/>
    <polygon points="359.28 349.23 348.31 346.41 314.45 337.69 314.45 337.69 314.45 337.69 291.14 428.24 325 436.95 335.98 439.78 337.83 432.59 337.82 432.59 348.55 390.91 348.56 390.91 350.41 383.72 350.4 383.72 357.43 356.41 357.43 356.42 359.28 349.23 359.28 349.23 359.28 349.23" style="fill: #e1d7ff;"/>
    <rect x="334.12" y="332.21" width="7.42" height="15.01" transform="translate(-75.37 582.2) rotate(-75.57)" style="fill: #e1d7ff;"/>
  </g>
  <rect x="46.56" y="254.67" width="144.06" height="140.43" transform="translate(-225.61 358.75) rotate(-75.57)" style="fill: none;"/>
  <line x1="115.56" y1="269.27" x2="146.61" y2="277.26" style="fill: none; stroke: #000; stroke-miterlimit: 10;"/>
  <polygon points="143.22 351.12 133.22 348.54 130.57 355.52 141.37 358.3 138.34 370.06 145.53 371.91 148.55 360.15 150.4 352.97 143.22 351.12" style="fill: none; stroke: #000; stroke-miterlimit: 10;"/>
  <rect x="112.09" y="310.51" width="7.42" height="46.29" transform="translate(-236.19 362.63) rotate(-75.57)" style="fill: none; stroke: #000; stroke-miterlimit: 10;"/>
  <rect x="101.43" y="294.79" width="40.11" height="31.57" transform="translate(-209.57 350.81) rotate(-75.57)" style="fill: none; stroke: #000; stroke-miterlimit: 10;"/>
  <polygon points="135.46 342.55 123.14 375.42 89.19 366.68 94.27 331.94 101.16 333.72 97.11 361.41 118.74 366.98 128.57 340.77 135.46 342.55" style="fill: none; stroke: #000; stroke-miterlimit: 10;"/>
  <rect x="101.56" y="287.87" width="47.26" height="16.56" transform="translate(-192.81 343.57) rotate(-75.57)" style="fill: none; stroke: #000; stroke-miterlimit: 10;"/>
  <line x1="137.87" y1="294.08" x2="116.47" y2="288.58" style="fill: none; stroke: #000; stroke-miterlimit: 10;"/>
  <rect x="179.3" y="120.04" width="144.06" height="140.43" transform="translate(4.43 386.23) rotate(-75.57)" style="fill: none;"/>
  <polygon points="279.56 204.03 271.93 202.06 270.08 209.25 277.71 211.21 274.68 222.97 281.87 224.82 284.9 213.06 286.75 205.88 279.56 204.03" style="fill: none; stroke: #000; stroke-miterlimit: 10;"/>
  <polygon points="290.1 163.06 282.48 161.09 280.63 168.28 288.25 170.24 285.23 182 292.42 183.85 295.44 172.09 297.29 164.91 290.1 163.06" style="fill: none; stroke: #000; stroke-miterlimit: 10;"/>
  <polygon points="227.17 190.28 217.41 187.77 221.23 196.42 225.32 197.47 227.17 190.28" style="fill: none; stroke: #000; stroke-miterlimit: 10;"/>
  <rect x="208.33" y="164.47" width="86.85" height="46.29" transform="translate(7.3 384.66) rotate(-75.57)" style="fill: none; stroke: #000; stroke-miterlimit: 10;"/>
  <rect x="248.97" y="160.88" width="7.42" height="46.29" transform="translate(11.47 382.86) rotate(-75.57)" style="fill: none; stroke: #000; stroke-miterlimit: 10;"/>
  <rect x="337.79" y="-6.15" width="144.06" height="140.43" transform="translate(245.62 444.97) rotate(-75.57)" style="fill: none;"/>
  <rect x="413.3" y="6.36" width="7.42" height="46.29" transform="translate(284.49 425.99) rotate(-75.57)" style="fill: none; stroke: #000; stroke-miterlimit: 10;"/>
  <polygon points="448.29 41.39 438.5 38.87 436.65 46.05 446.44 48.57 439.55 75.33 446.73 77.18 453.62 50.42 455.47 43.24 448.29 41.39" style="fill: none; stroke: #000; stroke-miterlimit: 10;"/>
  <polygon points="393.67 27.33 384.46 24.96 388.28 33.6 391.82 34.51 393.67 27.33" style="fill: none; stroke: #000; stroke-miterlimit: 10;"/>
  <rect x="366.47" y="48.42" width="79.43" height="46.29" transform="translate(235.63 447.09) rotate(-75.57)" style="fill: none; stroke: #000; stroke-miterlimit: 10;"/>
  <rect x="395.35" y="76.1" width="7.42" height="46.29" transform="translate(203.48 460.97) rotate(-75.57)" style="fill: none; stroke: #000; stroke-miterlimit: 10;"/>
  <rect x="416.84" y="8.22" width="7.42" height="15.01" transform="translate(300.49 419.08) rotate(-75.57)" style="fill: none; stroke: #000; stroke-miterlimit: 10;"/>
  <line x1="419.59" y1="19.47" x2="399.98" y2="95.65" style="fill: none; stroke: #000; stroke-miterlimit: 10;"/>
  <rect x="-21.35" y="71.35" width="144.06" height="140.43" transform="translate(-99.05 155.36) rotate(-75.57)" style="fill: none;"/>
  <line x1="65.8" y1="146.54" x2="67.64" y2="139.36" style="fill: none; stroke: #000; stroke-miterlimit: 10;"/>
  <line x1="33.69" y1="130.62" x2="31.84" y2="137.8" style="fill: none; stroke: #000; stroke-miterlimit: 10;"/>
  <polyline points="81.14 109.48 82.99 102.3 38.16 90.76 36.31 97.94" style="fill: none; stroke: #000; stroke-miterlimit: 10;"/>
  <polyline points="49.45 101.32 64.16 105.11 67.99 106.1" style="fill: none; stroke: #000; stroke-miterlimit: 10;"/>
  <polyline points="78.04 116.34 89.07 119.18 82.18 145.95 89.37 147.8 96.26 121.03 98.11 113.85 90.92 112 81.14 109.48" style="fill: none; stroke: #000; stroke-miterlimit: 10;"/>
  <polygon points="31.84 137.8 15.13 174.51 62.71 186.76 65.8 146.54 31.84 137.8" style="fill: none; stroke: #000; stroke-miterlimit: 10;"/>
  <polyline points="36.31 97.94 27.1 95.57 30.92 104.22 35.7 105.45" style="fill: none; stroke: #000; stroke-miterlimit: 10;"/>
  <polyline points="43.65 133.18 33.69 130.62 35.7 105.45 36.31 97.94 49.45 101.32 43.65 133.18" style="fill: none; stroke: #000; stroke-miterlimit: 10;"/>
  <polyline points="78.04 116.34 81.14 109.48 67.99 106.1 65.62 113.15 57.69 136.8 67.64 139.36 78.04 116.34" style="fill: none; stroke: #000; stroke-miterlimit: 10;"/>
  <polyline points="57.69 136.8 50.67 134.99 43.65 133.18" style="fill: none; stroke: #000; stroke-miterlimit: 10;"/>
  <rect x="420.14" y="188.5" width="144.06" height="140.43" transform="translate(118.95 670.86) rotate(-75.57)" style="fill: none;"/>
  <polygon points="547.37 236.95 544.33 236.17 540 242.72 545.52 244.14 542.5 255.9 549.68 257.75 552.71 245.99 554.56 238.8 547.37 236.95" style="fill: none; stroke: #000; stroke-miterlimit: 10;"/>
  <polygon points="536.83 277.92 532.48 276.8 530.63 283.98 534.98 285.1 531.95 296.86 539.14 298.71 542.16 286.95 544.01 279.77 536.83 277.92" style="fill: none; stroke: #000; stroke-miterlimit: 10;"/>
  <rect x="492.14" y="233.15" width="7.42" height="49.97" transform="translate(122.27 673.99) rotate(-75.57)" style="fill: none; stroke: #000; stroke-miterlimit: 10;"/>
  <rect x="485.8" y="173.38" width="7.42" height="84.2" transform="translate(158.81 635.83) rotate(-75.57)" style="fill: none; stroke: #000; stroke-miterlimit: 10;"/>
  <rect x="434.58" y="250.52" width="47.13" height="21.48" transform="translate(90.93 639.83) rotate(-75.57)" style="fill: none; stroke: #000; stroke-miterlimit: 10;"/>
  <polygon points="447.81 208.58 447.06 234.07 481 242.81 492.64 220.12 447.81 208.58" style="fill: none; stroke: #000; stroke-miterlimit: 10;"/>
  <polygon points="531.35 255.77 498.79 247.39 496.65 221.15 545.89 233.83 531.35 255.77" style="fill: none; stroke: #000; stroke-miterlimit: 10;"/>
  <rect x="478.93" y="240.29" width="7.42" height="110.91" transform="translate(75.93 689.43) rotate(-75.57)" style="fill: none; stroke: #000; stroke-miterlimit: 10;"/>
  <rect x="510.44" y="238.36" width="7.42" height="33.62" transform="translate(138.87 689.49) rotate(-75.57)" style="fill: none; stroke: #000; stroke-miterlimit: 10;"/>
  <polygon points="487.71 265.02 479.11 262.81 482.94 271.45 485.86 272.2 487.71 265.02" style="fill: none; stroke: #000; stroke-miterlimit: 10;"/>
  <rect x="491.19" y="258.44" width="32.3" height="46.29" transform="translate(108.18 702.73) rotate(-75.57)" style="fill: none; stroke: #000; stroke-miterlimit: 10;"/>
  <rect x="592.35" y="54.7" width="144.06" height="140.43" transform="translate(377.81 737.19) rotate(-75.57)" style="fill: none;"/>
  <polyline points="682.63 144.35 674.25 176.9 629.42 165.36 652.73 74.81 697.56 86.35 684.48 137.16" style="fill: none; stroke: #000; stroke-miterlimit: 10;"/>
  <rect x="649.05" y="144.39" width="7.42" height="46.29" transform="translate(327.81 757.93) rotate(-75.57)" style="fill: none; stroke: #000; stroke-miterlimit: 10;"/>
  <rect x="661.63" y="95.52" width="7.42" height="46.29" transform="translate(384.58 733.42) rotate(-75.57)" style="fill: none; stroke: #000; stroke-miterlimit: 10;"/>
  <rect x="672.3" y="69.4" width="7.58" height="15.01" transform="translate(433.09 712.49) rotate(-75.57)" style="fill: none; stroke: #000; stroke-miterlimit: 10;"/>
  <rect x="658.53" y="119.32" width="9.43" height="15.01" transform="translate(375.1 737.52) rotate(-75.57)" style="fill: none; stroke: #000; stroke-miterlimit: 10;"/>
  <polygon points="645.33 142.39 643.81 161.4 663.56 166.48 671.41 149.11 645.33 142.39" style="fill: none; stroke: #000; stroke-miterlimit: 10;"/>
  <polygon points="646.95 159.16 648.23 143.14 668.51 148.36 661.89 163.01 646.95 159.16" style="fill: none; stroke: #000; stroke-miterlimit: 10;"/>
  <rect x="667.9" y="119.37" width="7.42" height="36.62" transform="translate(370.87 753.77) rotate(-75.57)" style="fill: none; stroke: #000; stroke-miterlimit: 10;"/>
  <rect x="634.12" y="268.39" width="144.06" height="140.43" transform="translate(202.21 938.06) rotate(-75.57)" style="fill: none;"/>
  <polygon points="740.93 338.03 732.28 335.81 729.69 342.81 739.08 345.22 736.05 356.98 743.24 358.83 746.26 347.07 748.11 339.88 740.93 338.03" style="fill: none; stroke: #000; stroke-miterlimit: 10;"/>
  <polygon points="693.81 307.39 686.19 359.54 720.14 368.28 738.64 318.93 693.81 307.39" style="fill: none; stroke: #000; stroke-miterlimit: 10;"/>
  <polygon points="694.11 354.27 700.7 309.17 731.73 317.2 715.74 359.84 694.11 354.27" style="fill: none; stroke: #000; stroke-miterlimit: 10;"/>
  <rect x="519.83" y="373.72" width="144.06" height="140.43" transform="translate(14.42 906.46) rotate(-75.57)" style="fill: none;"/>
  <polyline points="623.93 416.33 628.65 409.21 579.41 396.54 581.84 426.37 612.13 434.17 619.6 422.88" style="fill: none; stroke: #000; stroke-miterlimit: 10;"/>
  <polyline points="581.84 426.37 571.57 423.73 569.72 430.91 572.95 431.75 579.85 433.52 617.78 443.28 620.54 443.99 622.39 436.81 612.13 434.17" style="fill: none; stroke: #000; stroke-miterlimit: 10;"/>
  <line x1="612.13" y1="434.17" x2="581.84" y2="426.37" style="fill: none; stroke: #000; stroke-miterlimit: 10;"/>
  <polyline points="579.85 433.52 572.95 431.75 565.33 483.9 599.28 492.64 608.83 467.16" style="fill: none; stroke: #000; stroke-miterlimit: 10;"/>
  <polygon points="579.85 433.52 610.88 441.56 594.89 484.2 573.25 478.63 579.85 433.52" style="fill: none; stroke: #000; stroke-miterlimit: 10;"/>
  <polyline points="611.45 460.17 617.78 443.28 579.85 433.52" style="fill: none; stroke: #000; stroke-miterlimit: 10;"/>
  <polygon points="631.42 418.26 623.93 416.33 619.6 422.88 629.57 425.45 626.55 437.2 633.74 439.05 636.76 427.3 638.61 420.11 631.42 418.26" style="fill: none; stroke: #000; stroke-miterlimit: 10;"/>
  <polygon points="618.21 469.57 615.19 481.33 622.38 483.18 625.4 471.42 627.25 464.24 620.06 462.39 611.45 460.17 608.83 467.16 618.21 469.57" style="fill: none; stroke: #000; stroke-miterlimit: 10;"/>
  <rect x="257.07" y="312.87" width="144.06" height="140.43" transform="translate(-123.92 606.31) rotate(-75.57)" style="fill: none;"/>
  <rect x="284.35" y="361.62" width="93.5" height="46.29" transform="translate(-124.05 609.51) rotate(-75.57)" style="fill: none; stroke: #000; stroke-miterlimit: 10;"/>
  <rect x="316.67" y="403.31" width="7.42" height="46.29" transform="translate(-172.47 630.42) rotate(-75.57)" style="fill: none; stroke: #000; stroke-miterlimit: 10;"/>
  <rect x="329.25" y="354.44" width="7.42" height="46.29" transform="translate(-115.7 605.91) rotate(-75.57)" style="fill: none; stroke: #000; stroke-miterlimit: 10;"/>
  <rect x="338.13" y="319.94" width="7.42" height="46.29" transform="translate(-75.63 588.62) rotate(-75.57)" style="fill: none; stroke: #000; stroke-miterlimit: 10;"/>
  <rect x="340.01" y="328.25" width="7.42" height="15.01" transform="translate(-67.11 584.93) rotate(-75.57)" style="fill: none; stroke: #000; stroke-miterlimit: 10;"/>
  <rect x="322.65" y="380.94" width="15.01" height="15.01" transform="translate(-128.32 611.36) rotate(-75.57)" style="fill: none; stroke: #000; stroke-miterlimit: 10;"/>
  <polygon points="312.95 401.31 311.43 420.32 331.17 425.4 339.02 408.02 312.95 401.31" style="fill: none; stroke: #000; stroke-miterlimit: 10;"/>
  <polygon points="314.56 418.08 315.84 402.06 336.12 407.28 329.51 421.93 314.56 418.08" style="fill: none; stroke: #000; stroke-miterlimit: 10;"/>
  <circle cx="337.39" cy="360.35" r="8.93" style="fill: none; stroke: #000; stroke-miterlimit: 10;"/>
</svg>