<?xml version="1.0" encoding="utf-8"?>
<!-- Generator: Adobe Illustrator 26.0.1, SVG Export Plug-In . SVG Version: 6.00 Build 0)  -->
<svg version="1.1" id="Слой_1" xmlns="http://www.w3.org/2000/svg" xmlns:xlink="http://www.w3.org/1999/xlink" x="0px" y="0px"
	 viewBox="0 0 588.7 780.6" style="enable-background:new 0 0 588.7 780.6;" xml:space="preserve">
<style type="text/css">
	.st0{opacity:0.3;}
	.st1{fill:#FFFFFF;fill-opacity:0;}
	.st2{opacity:2.439024e-02;fill:#F6F6F7;enable-background:new    ;}
	.st3{opacity:4.878049e-02;fill:#EDECEE;enable-background:new    ;}
	.st4{opacity:7.317073e-02;fill:#E4E3E5;enable-background:new    ;}
	.st5{opacity:9.756097e-02;fill:#DCDADD;enable-background:new    ;}
	.st6{opacity:0.122;fill:#D3D1D4;enable-background:new    ;}
	.st7{opacity:0.1463;fill:#CBC9CC;enable-background:new    ;}
	.st8{opacity:0.1707;fill:#C3C1C4;enable-background:new    ;}
	.st9{opacity:0.1951;fill:#BBB9BD;enable-background:new    ;}
	.st10{opacity:0.2195;fill:#B3B1B5;enable-background:new    ;}
	.st11{opacity:0.2439;fill:#ACA9AD;enable-background:new    ;}
	.st12{opacity:0.2683;fill:#A4A1A6;enable-background:new    ;}
	.st13{opacity:0.2927;fill:#9D9A9F;enable-background:new    ;}
	.st14{opacity:0.3171;fill:#969398;enable-background:new    ;}
	.st15{opacity:0.3415;fill:#8E8B91;enable-background:new    ;}
	.st16{opacity:0.3659;fill:#87848A;enable-background:new    ;}
	.st17{opacity:0.3902;fill:#817E83;enable-background:new    ;}
	.st18{opacity:0.4146;fill:#7A777D;enable-background:new    ;}
	.st19{opacity:0.439;fill:#737176;enable-background:new    ;}
	.st20{opacity:0.4634;fill:#6D6A70;enable-background:new    ;}
	.st21{opacity:0.4878;fill:#67646A;enable-background:new    ;}
	.st22{opacity:0.5122;fill:#615E64;enable-background:new    ;}
	.st23{opacity:0.5366;fill:#5B585E;enable-background:new    ;}
	.st24{opacity:0.561;fill:#555359;enable-background:new    ;}
	.st25{opacity:0.5854;fill:#504D53;enable-background:new    ;}
	.st26{opacity:0.6098;fill:#4A484E;enable-background:new    ;}
	.st27{opacity:0.6341;fill:#454349;enable-background:new    ;}
	.st28{opacity:0.6585;fill:#3F3E43;enable-background:new    ;}
	.st29{opacity:0.6829;fill:#3A393E;enable-background:new    ;}
	.st30{opacity:0.7073;fill:#353439;enable-background:new    ;}
	.st31{opacity:0.7317;fill:#302F35;enable-background:new    ;}
	.st32{opacity:0.7561;fill:#2B2B30;enable-background:new    ;}
	.st33{opacity:0.7805;fill:#26262C;enable-background:new    ;}
	.st34{opacity:0.8049;fill:#222227;enable-background:new    ;}
	.st35{opacity:0.8293;fill:#1E1E23;enable-background:new    ;}
	.st36{opacity:0.8537;fill:#191A1E;enable-background:new    ;}
	.st37{opacity:0.878;fill:#15151A;enable-background:new    ;}
	.st38{opacity:0.9024;fill:#101115;enable-background:new    ;}
	.st39{opacity:0.9268;fill:#0C0D10;enable-background:new    ;}
	.st40{opacity:0.9512;fill:#07080B;enable-background:new    ;}
	.st41{opacity:0.9756;fill:#040506;enable-background:new    ;}
	.st42{fill:#020203;}
	.st43{fill:#5A5959;}
	.st44{fill:#CBCCD2;}
	.st45{fill:#F5F5F5;}
	.st46{fill:url(#SVGID_1_);}
	.st47{fill:url(#SVGID_00000112628224404342490610000014354632952353454496_);}
	.st48{fill:#FFFFFF;}
	.st49{enable-background:new    ;}
</style>
<g>
	<g class="st0">
		<path class="st1" d="M496.3,747c0,0,93.2-45.4,57.9-86.1c-47-54.3-480,32.9-480,32.9L52.1,744L496.3,747z"/>
		<path class="st2" d="M496.1,746.9c0,0,90.4-45.4,56-85.1c-45.8-53-477.7,32.1-477.7,32.1L52.2,744L496.1,746.9z"/>
		<path class="st3" d="M495.9,746.8c0,0,87.6-45.3,54.1-84.1C505.3,611.1,74.6,694,74.6,694l-22.2,49.9L495.9,746.8z"/>
		<path class="st4" d="M495.7,746.6c0,0,84.9-45.3,52.2-83c-43.5-50.3-473.1,30.5-473.1,30.5l-22.2,49.7L495.7,746.6z"/>
		<path class="st5" d="M495.5,746.5c0,0,82.1-45.2,50.3-82C503.4,615.6,75,694.2,75,694.2l-22.2,49.5L495.5,746.5z"/>
		<path class="st6" d="M495.3,746.4c0,0,79.4-45.2,48.4-80.9c-41.2-47.7-468.5,28.9-468.5,28.9L53,743.7L495.3,746.4z"/>
		<path class="st7" d="M495.1,746.3c0,0,76.6-45.1,46.5-79.9c-40.1-46.4-466.2,28-466.2,28l-22.3,49.2L495.1,746.3z"/>
		<path class="st8" d="M494.8,746.2c0,0,73.8-45.1,44.6-78.9c-39-45-463.9,27.3-463.9,27.3l-22.3,49L494.8,746.2z"/>
		<path class="st9" d="M494.6,746c0,0,71.1-45.1,42.7-77.8c-37.8-43.7-461.6,26.5-461.6,26.5l-22.3,48.8L494.6,746z"/>
		<path class="st10" d="M494.4,745.9c0,0,68.3-45,40.8-76.8c-36.7-42.4-459.3,25.7-459.3,25.7l-22.3,48.6L494.4,745.9z"/>
		<path class="st11" d="M494.2,745.8c0,0,65.5-45,38.9-75.8c-35.5-41-457,24.9-457,24.9l-22.3,48.4L494.2,745.8z"/>
		<path class="st12" d="M494,745.7c0,0,62.8-44.9,37-74.7c-34.3-39.8-454.7,24-454.7,24L54,743.2L494,745.7z"/>
		<path class="st13" d="M493.8,745.6c0,0,60-44.9,35.1-73.7c-33.2-38.4-452.5,23.3-452.5,23.3l-22.3,48.1L493.8,745.6z"/>
		<path class="st14" d="M493.6,745.4c0,0,57.3-44.8,33.2-72.6c-32.1-37.1-450.2,22.5-450.2,22.5l-22.3,47.9L493.6,745.4z"/>
		<path class="st15" d="M493.4,745.3c0,0,54.5-44.8,31.3-71.6C493.8,638,76.8,695.4,76.8,695.4l-22.4,47.7L493.4,745.3z"/>
		<path class="st16" d="M493.2,745.2c0,0,51.7-44.7,29.4-70.6C492.8,640.2,77,695.5,77,695.5L54.6,743L493.2,745.2z"/>
		<path class="st17" d="M493,745.1c0,0,49-44.7,27.5-69.5c-28.6-33.1-443.3,20.1-443.3,20.1L54.8,743L493,745.1z"/>
		<path class="st18" d="M492.8,744.9c0,0,46.2-44.7,25.6-68.5c-27.5-31.8-441,19.2-441,19.2L55,742.9L492.8,744.9z"/>
		<path class="st19" d="M492.6,744.8c0,0,43.4-44.6,23.7-67.5c-26.4-30.5-438.7,18.4-438.7,18.4l-22.4,47L492.6,744.8z"/>
		<path class="st20" d="M492.4,744.7c0,0,40.7-44.6,21.8-66.4C489,649.2,77.8,695.9,77.8,695.9l-22.4,46.8L492.4,744.7z"/>
		<path class="st21" d="M492.2,744.6c0,0,37.9-44.5,19.9-65.4C488,651.4,77.9,696.1,77.9,696.1l-22.4,46.6L492.2,744.6z"/>
		<path class="st22" d="M491.9,744.5c0,0,35.2-44.5,18-64.3c-22.9-26.5-431.8,16-431.8,16l-22.5,46.4L491.9,744.5z"/>
		<path class="st23" d="M491.7,744.3c0,0,32.4-44.4,16.1-63.3C486,655.9,78.3,696.3,78.3,696.3l-22.5,46.2L491.7,744.3z"/>
		<path class="st24" d="M491.5,744.2c0,0,29.6-44.4,14.2-62.3c-20.6-23.8-427.3,14.4-427.3,14.4L56,742.5L491.5,744.2z"/>
		<path class="st25" d="M491.3,744.1c0,0,26.9-44.3,12.3-61.2c-19.5-22.5-425,13.6-425,13.6l-22.5,45.9L491.3,744.1z"/>
		<path class="st26" d="M491.1,744c0,0,24.1-44.3,10.4-60.2c-18.3-21.2-422.7,12.8-422.7,12.8l-22.5,45.7L491.1,744z"/>
		<path class="st27" d="M490.9,743.9c0,0,21.3-44.3,8.5-59.1c-17.2-19.9-420.4,12-420.4,12l-22.5,45.5L490.9,743.9z"/>
		<path class="st28" d="M490.7,743.7c0,0,18.6-44.2,6.6-58.1c-16-18.5-418.1,11.2-418.1,11.2l-22.5,45.3L490.7,743.7z"/>
		<path class="st29" d="M490.5,743.6c0,0,15.8-44.2,4.6-57.1C480.3,669.3,79.4,697,79.4,697l-22.5,45.2L490.5,743.6z"/>
		<path class="st30" d="M490.3,743.5c0,0,13.1-44.1,2.7-56c-13.7-15.9-413.5,9.6-413.5,9.6l-22.6,45L490.3,743.5z"/>
		<path class="st31" d="M490.1,743.4c0,0,10.3-44.1,0.8-55c-12.6-14.6-411.2,8.8-411.2,8.8L57.1,742L490.1,743.4z"/>
		<path class="st32" d="M489.9,743.3c0,0,7.5-44-1.1-54c-11.5-13.2-408.9,8-408.9,8l-22.6,44.6L489.9,743.3z"/>
		<path class="st33" d="M489.7,743.1c0,0,4.8-44-3-52.9c-10.3-11.9-406.6,7.2-406.6,7.2l-22.6,44.4L489.7,743.1z"/>
		<path class="st34" d="M489.5,743c0,0,2-43.9-4.9-51.9c-9.2-10.6-404.3,6.4-404.3,6.4l-22.6,44.3L489.5,743z"/>
		<path class="st35" d="M489.3,742.9c0,0-0.8-43.9-6.8-50.8c-8-9.3-402,5.6-402,5.6l-22.6,44.1L489.3,742.9z"/>
		<path class="st36" d="M489.1,742.8c0,0-3.5-43.9-8.7-49.8c-6.9-7.9-399.8,4.8-399.8,4.8L58,741.7L489.1,742.8z"/>
		<path class="st37" d="M488.8,742.7c0,0-6.3-43.8-10.6-48.8c-5.7-6.6-397.5,4-397.5,4l-22.6,43.7L488.8,742.7z"/>
		<path class="st38" d="M488.6,742.5c0,0-9-43.8-12.5-47.7C471.6,689.5,81,698,81,698l-22.7,43.5L488.6,742.5z"/>
		<path class="st39" d="M488.4,742.4c0,0-11.8-43.7-14.4-46.7c-3.4-4-392.9,2.4-392.9,2.4l-22.7,43.3L488.4,742.4z"/>
		<path class="st40" d="M488.2,742.3c0,0-14.6-43.7-16.3-45.7c-2.3-2.6-390.6,1.6-390.6,1.6l-22.7,43.2L488.2,742.3z"/>
		<path class="st41" d="M488,742.2c0,0-17.3-43.6-18.2-44.6c-1.1-1.3-388.3,0.8-388.3,0.8l-22.7,43L488,742.2z"/>
		<polygon class="st42" points="487.8,742 467.7,698.5 81.7,698.5 59,741.3 		"/>
	</g>
	<polygon class="st43" points="493.1,126 490.9,120.6 463.7,102.2 76.4,102.2 54.6,123.8 54.6,137.1 493.1,137.1 	"/>
	<g>
		<polygon class="st44" points="83.2,116.7 97.5,105.3 98.6,107.6 83.9,119.9 		"/>
		<polygon class="st45" points="52,122.7 83.2,116.7 83.9,119.9 52.7,125.8 		"/>
		
			<linearGradient id="SVGID_1_" gradientUnits="userSpaceOnUse" x1="103.4443" y1="-679.6046" x2="67.8189" y2="-613.0519" gradientTransform="matrix(1 0 0 1 0 740)">
			<stop  offset="0" style="stop-color:#5A5959"/>
			<stop  offset="0.1601" style="stop-color:#5D5C5C"/>
			<stop  offset="0.3203" style="stop-color:#676666"/>
			<stop  offset="0.4807" style="stop-color:#797877"/>
			<stop  offset="0.6402" style="stop-color:#939291"/>
			<stop  offset="0.7406" style="stop-color:#A9A9A7"/>
			<stop  offset="0.817" style="stop-color:#B8B7B6"/>
			<stop  offset="0.9647" style="stop-color:#E0DFDE"/>
			<stop  offset="1" style="stop-color:#EAEAEA"/>
		</linearGradient>
		<polygon class="st46" points="52,122.7 66.8,106.7 97.5,105.3 83.2,116.7 		"/>
	</g>
	<g>
		<polygon class="st44" points="460.9,117.4 445.4,107.7 444.6,110.2 460.6,120.6 		"/>
		<polygon class="st45" points="492.6,119.9 460.9,117.4 460.6,120.6 492.2,123.1 		"/>
		
			<linearGradient id="SVGID_00000052784489765080817660000005284457894659566467_" gradientUnits="userSpaceOnUse" x1="445.4" y1="-627.25" x2="492.6" y2="-627.25" gradientTransform="matrix(1 0 0 1 0 740)">
			<stop  offset="0" style="stop-color:#5A5959"/>
			<stop  offset="0.1601" style="stop-color:#5D5C5C"/>
			<stop  offset="0.3203" style="stop-color:#676666"/>
			<stop  offset="0.4807" style="stop-color:#797877"/>
			<stop  offset="0.6402" style="stop-color:#939291"/>
			<stop  offset="0.7406" style="stop-color:#A9A9A7"/>
			<stop  offset="0.817" style="stop-color:#B8B7B6"/>
			<stop  offset="0.9647" style="stop-color:#E0DFDE"/>
			<stop  offset="1" style="stop-color:#EAEAEA"/>
		</linearGradient>
		<polygon style="fill:url(#SVGID_00000052784489765080817660000005284457894659566467_);" points="492.6,119.9 476.1,105.6 
			445.4,107.7 460.9,117.4 		"/>
	</g>
	
		<image style="overflow:visible;enable-background:new    ;" width="1825" height="204" xlink:href="369A15A5.png"  transform="matrix(0.2318 0 0 0.2318 62.9547 67.1092)">
	</image>
	<polygon class="st45" points="457.4,114.3 457.4,117.8 492.8,115.7 492.8,112.3 	"/>
	<polygon class="st44" points="457.4,114.3 453,108.9 453,112.3 457.4,117.8 	"/>
	<polygon class="st45" points="56.1,109.1 56.1,112.1 91.7,114.5 91.6,111 	"/>
	<polygon class="st44" points="91.6,111 91.7,114.5 94.4,112 94.4,108.9 	"/>
	
		<image style="overflow:visible;enable-background:new    ;" width="1525" height="71" xlink:href="369A15AB.png"  transform="matrix(0.2197 0 0 0.2197 105.3448 108.8692)">
	</image>
	
		<image style="overflow:visible;enable-background:new    ;" width="1850" height="2604" xlink:href="369A15AC.png"  transform="matrix(0.2395 0 0 0.2395 51.84 119.7448)">
	</image>
</g>
<g>
	<path class="st42" d="M83.6,489.7c0,1-0.8,1.9-1.8,1.9h-0.1c-1,0-1.9-0.8-1.9-1.9s0.8-1.9,1.9-1.9
		C82.7,487.8,83.6,488.6,83.6,489.7z"/>
	<path class="st48" d="M159,274.9c3.8,3.4,7.2,6.8,11.9,11.1c-2,1.4-3.9,2.9-5.5,4.7c-3.8,3.8-8.1,7.7-11.9,11.9
		c-2.4,1.7-3,5.1-1.3,7.5c0.3,0.4,0.6,0.7,0.9,1c5.5,6,11.5,11.5,17,17c2.3,2.5,6.3,2.6,8.7,0.2c0.1-0.1,0.1-0.1,0.2-0.2l12.8-12.8
		c1.2-1.2,2.5-2.4,3.8-3.4l3,3l13.6,13.6c1.6,2.3,4.8,3,7.1,1.4c0.5-0.4,1-0.8,1.4-1.4c6-5.5,11.5-11.5,17-17.4
		c2.3-2.1,2.6-5.7,0.5-8c-0.1-0.2-0.3-0.3-0.5-0.5c-1-1.2-2.2-2.4-3.4-3.4c-4.3-4.3-8.5-8.5-13.2-12.8c1.3-1.7,2.6-2.6,3.4-3.8
		l12.8-12.8c2.5-1.8,3-5.3,1.1-7.8c-0.3-0.4-0.7-0.8-1.1-1.1l-16.6-16.6c-2.1-2.6-5.8-3-8.4-0.9c-0.3,0.3-0.7,0.6-0.9,0.9
		c-4.7,4.7-9.4,8.9-13.6,13.6c-0.9,0.9-1.7,1.3-2.6,2.1c-1-1.1-2.2-2.1-3.4-3l-13.2-13c-1.7-2.4-5.1-3-7.5-1.3
		c-0.4,0.3-0.7,0.6-1,0.9l-17.9,17.9c-2.1,1.8-2.3,5-0.5,7.1c0.2,0.2,0.3,0.4,0.5,0.5C154.7,271,156.8,272.7,159,274.9z"/>
	<path class="st48" d="M167.5,381.2c4.7,7.2,9.4,14.5,14.5,21.7c3.8,5.5,6,6,11.5,2.6c42.1-25.5,86.3-29.3,132.2-12.3
		c8.9,3.4,17,8.5,25.5,12.8c3.8,2.1,6.8,2.1,8.9-0.9c6-8.5,11.5-17,17-25.5c1.7-2.3,1.2-5.6-1.1-7.3c-0.2-0.1-0.4-0.3-0.6-0.4
		c-1-0.9-2.2-1.6-3.4-2.1c-29.4-18.6-63.4-28.5-98.2-28.5C237,340.7,200.9,351,170,371C164.9,373.5,164.5,376.5,167.5,381.2z"/>
	<path class="st48" d="M318.8,282.5c1.2,1.2,2.4,2.5,3.4,3.8c-5.5,5.5-11.1,10.6-16.2,15.7c-2.7,1.9-3.4,5.6-1.5,8.3
		c0.4,0.6,0.9,1.1,1.5,1.5l12.8,12.8c7.2,7.7,8.5,7.7,15.7,0l13.2-13.2c1.4,1.2,2.7,2.4,3.8,3.8l12.8,12.8c3,2.6,6,3,8.5,0.4
		l17.9-17.9c2.1-1.9,2.3-5.3,0.3-7.4c-0.2-0.3-0.5-0.5-0.8-0.7l-4.9-5.1c-3.8-3.8-7.7-7.2-11.9-11.1c1-1.2,2.2-2.4,3.4-3.4
		l13.2-13.2c2.6-2,3-5.7,1.1-8.2c-0.2-0.2-0.4-0.5-0.6-0.7c-5.5-6-11.5-11.5-17-17.4c-1.6-2.3-4.8-3-7.1-1.4c-0.5,0.4-1,0.8-1.4,1.4
		c-4.3,3.8-8.1,8.1-12.3,11.9c-1.5,1.3-2.9,2.7-4.3,4.3l-3-3L331.8,243c-1.6-2.3-4.8-3-7.1-1.4c-0.5,0.4-1,0.8-1.4,1.4
		c-6,5.5-11.5,11.5-17.4,17c-3,3-2.6,5.5,0.4,8.5C310.1,273.5,314.3,278.1,318.8,282.5z"/>
	<path class="st48" d="M159,275.3c3.8,3.4,7.2,6.8,11.9,11.1c-2,1.4-3.9,2.9-5.5,4.7c-3.8,3.8-8.1,7.7-11.9,11.9
		c-2.4,1.7-3,5.1-1.3,7.5c0.3,0.4,0.6,0.7,0.9,1c5.5,6,11.5,11.5,17,17c2.3,2.5,6.3,2.6,8.7,0.2c0.1-0.1,0.1-0.1,0.2-0.2l12.8-12.8
		c1.2-1.2,2.5-2.4,3.8-3.4l3,3l13.6,13.6c1.6,2.3,4.8,3,7.1,1.4c0.5-0.4,1-0.8,1.4-1.4c6-5.5,11.5-11.5,17-17.4
		c2.3-2.1,2.6-5.7,0.5-8c-0.1-0.2-0.3-0.3-0.5-0.5c-1-1.2-2.2-2.4-3.4-3.4c-4.3-4.3-8.5-8.5-13.2-12.8c1.3-1.7,2.6-2.6,3.4-3.8
		l12.8-12.8c2.5-1.8,3-5.3,1.1-7.8c-0.3-0.4-0.7-0.8-1.1-1.1l-16.6-16.6c-2.1-2.6-5.8-3-8.4-0.9c-0.3,0.3-0.7,0.6-0.9,0.9
		c-4.7,4.7-9.4,8.9-13.6,13.6c-0.9,0.9-1.7,1.3-2.6,2.1c-1-1.1-2.2-2.1-3.4-3l-13.2-13.2c-1.7-2.4-5.1-3-7.5-1.3
		c-0.4,0.3-0.7,0.6-1,0.9l-17.9,17.9c-2.1,1.8-2.3,5-0.5,7.1c0.2,0.2,0.3,0.4,0.5,0.5C154.7,271.5,156.8,273.8,159,275.3z"/>
	<path class="st48" d="M167.5,381.6c4.7,7.2,9.4,14.5,14.5,21.7c3.8,5.5,6,6,11.5,2.6c42.1-25.5,86.3-29.3,132.2-12.3
		c8.9,3.4,17,8.5,25.5,12.8c3.8,2.1,6.8,2.1,8.9-0.9c6-8.5,11.5-17,17-25.5c1.7-2.3,1.2-5.6-1.1-7.3c-0.2-0.1-0.4-0.3-0.6-0.4
		c-1-0.9-2.2-1.6-3.4-2.1c-29.4-18.6-63.5-28.4-98.2-28.3c-36.8-0.5-72.9,9.8-103.8,29.8C164.9,374.4,164.5,376.9,167.5,381.6z"/>
	<path class="st48" d="M318.8,283c1.2,1.2,2.4,2.5,3.4,3.8c-5.5,5.5-11.1,10.6-16.2,15.7c-2.7,1.9-3.4,5.6-1.5,8.3
		c0.4,0.6,0.9,1.1,1.5,1.5l12.8,12.8c7.2,7.7,8.5,7.7,15.7,0l13.2-13.2c1.4,1.2,2.7,2.4,3.8,3.8l12.8,12.8c3,2.6,6,3,8.5,0.4
		l17.9-17.9c2.1-1.9,2.3-5.3,0.3-7.4c-0.2-0.3-0.5-0.5-0.8-0.7l-4.9-5.1c-3.8-3.8-7.7-7.2-11.9-11.1c1-1.2,2.2-2.4,3.4-3.4
		l13.2-13.2c2.6-2,3-5.7,1.1-8.2c-0.2-0.2-0.4-0.5-0.6-0.7c-5.5-6-11.5-11.5-17-17.4c-1.6-2.3-4.8-3-7.1-1.4c-0.5,0.4-1,0.8-1.4,1.4
		c-4.3,3.8-8.1,8.1-12.3,11.9c-1.5,1.3-2.9,2.7-4.3,4.3l-3-3l-13.6-13.6c-1.6-2.3-4.8-3-7.1-1.4c-0.5,0.4-1,0.8-1.4,1.4
		c-6,5.5-11.5,11.5-17.4,17c-3,3-2.6,5.5,0.4,8.5C310,274,314.2,278.7,318.8,283z"/>
	<path class="st48" d="M159,275.7c3.8,3.4,7.2,6.8,11.9,11.1c-2,1.4-3.9,2.9-5.5,4.7c-3.8,3.8-8.1,7.7-11.9,11.9
		c-2.4,1.7-3,5.1-1.3,7.5c0.3,0.4,0.6,0.7,0.9,1c5.5,6,11.5,11.5,17,17c2.3,2.5,6.3,2.6,8.7,0.2c0.1-0.1,0.1-0.1,0.2-0.2l12.8-12.8
		c1.2-1.2,2.5-2.4,3.8-3.4l3,3l13.6,13.6c1.6,2.3,4.8,3,7.1,1.4c0.5-0.4,1-0.8,1.4-1.4c6-5.5,11.5-11.5,17-17.4
		c2.3-2.1,2.6-5.7,0.5-8c-0.1-0.2-0.3-0.3-0.5-0.5c-1-1.2-2.2-2.4-3.4-3.4c-4.3-4.3-8.5-8.5-13.2-12.8c1.3-1.7,2.6-2.6,3.4-3.8
		l12.8-12.8c2.5-1.8,3-5.3,1.1-7.8c-0.3-0.4-0.7-0.8-1.1-1.1l-16.6-16.6c-2.1-2.6-5.8-3-8.4-0.9c-0.3,0.3-0.7,0.6-0.9,0.9
		c-4.7,4.7-9.4,8.9-13.6,13.6c-0.9,0.9-1.7,1.3-2.6,2.1c-1-1.1-2.2-2.1-3.4-3l-13.2-13.2c-1.7-2.4-5.1-3-7.5-1.3
		c-0.4,0.3-0.7,0.6-1,0.9l-17.9,17.9c-2.1,1.8-2.3,5-0.5,7.1c0.2,0.2,0.3,0.4,0.5,0.5C154.7,271.9,156.8,274,159,275.7z"/>
	<path class="st48" d="M167.5,382.4c4.7,7.2,9.4,14.5,14.5,21.7c3.8,5.5,6,6,11.5,2.6c42.1-25.5,86.3-29.3,132.2-12.3
		c8.9,3.4,17,8.5,25.5,12.8c3.8,2.1,6.8,2.1,8.9-0.9c6-8.5,11.5-17,17-25.5c1.7-2.3,1.2-5.6-1.1-7.3c-0.2-0.1-0.4-0.3-0.6-0.4
		c-1-0.9-2.2-1.6-3.4-2.1c-29.4-18.6-63.4-28.5-98.2-28.5c-36.8-0.5-72.9,9.8-103.8,29.8C164.9,374.8,164.5,377.3,167.5,382.4z"/>
	<path class="st48" d="M318.8,283.8c1.2,1.2,2.4,2.5,3.4,3.8c-5.5,5.5-11.1,10.6-16.2,15.7c-2.7,1.9-3.4,5.6-1.5,8.3
		c0.4,0.6,0.9,1.1,1.5,1.5l12.8,12.8c7.2,7.7,8.5,7.7,15.7,0l13.2-13.2c1.4,1.2,2.7,2.4,3.8,3.8l12.8,12.8c3,2.6,6,3,8.5,0.4
		l17.9-17.9c2.1-1.9,2.3-5.3,0.3-7.4c-0.2-0.3-0.5-0.5-0.8-0.7l-4.9-5.1c-3.8-3.8-7.7-7.2-11.9-11.1c1-1.2,2.2-2.4,3.4-3.4
		l13.2-13.2c2.6-2,3-5.7,1.1-8.2c-0.2-0.2-0.4-0.5-0.6-0.7c-5.5-6-11.5-11.5-17-17.4c-1.6-2.3-4.8-3-7.1-1.4c-0.5,0.4-1,0.8-1.4,1.4
		c-4.3,3.8-8.1,8.1-12.3,11.9c-1.5,1.3-2.9,2.7-4.3,4.3l-3-3l-13.6-13.6c-1.6-2.3-4.8-3-7.1-1.4c-0.5,0.4-1,0.8-1.4,1.4
		c-6,5.5-11.5,11.5-17.4,17c-3,3-2.6,5.5,0.4,8.5C309.9,274.9,314.6,279.1,318.8,283.8z"/>
	<path class="st42" d="M159,274.9c3.8,3.4,7.2,6.8,11.9,11.1c-2,1.4-3.9,2.9-5.5,4.7c-3.8,3.8-8.1,7.7-11.9,11.9
		c-2.4,1.7-3,5.1-1.3,7.5c0.3,0.4,0.6,0.7,0.9,1c5.5,6,11.5,11.5,17,17c2.3,2.5,6.3,2.6,8.7,0.2c0.1-0.1,0.1-0.1,0.2-0.2l12.8-12.8
		c1.2-1.2,2.5-2.4,3.8-3.4l3,3l13.6,13.6c1.6,2.3,4.8,3,7.1,1.4c0.5-0.4,1-0.8,1.4-1.4c6-5.5,11.5-11.5,17-17.4
		c2.3-2.1,2.6-5.7,0.5-8c-0.1-0.2-0.3-0.3-0.5-0.5c-1-1.2-2.2-2.4-3.4-3.4c-4.3-4.3-8.5-8.5-13.2-12.8c1.3-1.7,2.6-2.6,3.4-3.8
		l12.8-12.8c2.5-1.8,3-5.3,1.1-7.8c-0.3-0.4-0.7-0.8-1.1-1.1l-16.6-16.6c-2.1-2.6-5.8-3-8.4-0.9c-0.3,0.3-0.7,0.6-0.9,0.9
		c-4.7,4.7-9.4,8.9-13.6,13.6c-0.9,0.9-1.7,1.3-2.6,2.1c-1-1.1-2.2-2.1-3.4-3l-13.2-13c-1.7-2.4-5.1-3-7.5-1.3
		c-0.4,0.3-0.7,0.6-1,0.9l-17.9,17.9c-2.1,1.8-2.3,5-0.5,7.1c0.2,0.2,0.3,0.4,0.5,0.5C154.7,271,156.8,272.7,159,274.9z"/>
	<path class="st42" d="M167.5,381.2c4.7,7.2,9.4,14.5,14.5,21.7c3.8,5.5,6,6,11.5,2.6c42.1-25.5,86.3-29.3,132.2-12.3
		c8.9,3.4,17,8.5,25.5,12.8c3.8,2.1,6.8,2.1,8.9-0.9c6-8.5,11.5-17,17-25.5c1.7-2.3,1.2-5.6-1.1-7.3c-0.2-0.1-0.4-0.3-0.6-0.4
		c-1-0.9-2.2-1.6-3.4-2.1c-29.4-18.6-63.4-28.5-98.2-28.5C237,340.7,200.9,351,170,371C164.9,373.5,164.5,376.5,167.5,381.2z"/>
	<path class="st42" d="M318.8,282.5c1.2,1.2,2.4,2.5,3.4,3.8c-5.5,5.5-11.1,10.6-16.2,15.7c-2.7,1.9-3.4,5.6-1.5,8.3
		c0.4,0.6,0.9,1.1,1.5,1.5l12.8,12.8c7.2,7.7,8.5,7.7,15.7,0l13.2-13.2c1.4,1.2,2.7,2.4,3.8,3.8l12.8,12.8c3,2.6,6,3,8.5,0.4
		l17.9-17.9c2.1-1.9,2.3-5.3,0.3-7.4c-0.2-0.3-0.5-0.5-0.8-0.7l-4.9-5.1c-3.8-3.8-7.7-7.2-11.9-11.1c1-1.2,2.2-2.4,3.4-3.4
		l13.2-13.2c2.6-2,3-5.7,1.1-8.2c-0.2-0.2-0.4-0.5-0.6-0.7c-5.5-6-11.5-11.5-17-17.4c-1.6-2.3-4.8-3-7.1-1.4c-0.5,0.4-1,0.8-1.4,1.4
		c-4.3,3.8-8.1,8.1-12.3,11.9c-1.5,1.3-2.9,2.7-4.3,4.3l-3-3L331.8,243c-1.6-2.3-4.8-3-7.1-1.4c-0.5,0.4-1,0.8-1.4,1.4
		c-6,5.5-11.5,11.5-17.4,17c-3,3-2.6,5.5,0.4,8.5C310.1,273.5,314.3,278.1,318.8,282.5z"/>
	<path class="st48" d="M364.1,379l-10.2,15.3c-54.9-29.8-109.3-29.8-164.6,0l-5.1-7.7c-1.7-2.6-3.4-5.1-5.1-8.1
		c24.5-15.1,52.4-23.9,81.2-25.5C304.6,350.3,342.4,364.2,364.1,379z"/>
	<path class="st48" d="M378.4,265.9c-4.7,4.7-9.8,9.4-14.5,14s-5.1,7.2,0,12.3c5.1,5.1,9.8,9.4,14.9,14.5c-3.4,3.4-6.8,6.4-10.2,9.4
		c-4.3-3.8-8.5-8.5-13.2-12.8c-6.8-6.8-8.1-6.8-14.9,0l-13.2,13.2c-3-3.4-6-6.4-9.4-9.8c2.6-2.6,5.5-6,8.9-8.9
		c2.1-2.1,4.7-4.3,6.8-6.8c2.7-2.1,3.2-6,1.1-8.7c-0.3-0.4-0.7-0.8-1.1-1.1c-5.1-5.1-10.6-10.2-15.7-15.7c3.4-3,6.4-6,10.2-8.9
		l2.1,2.1l12.3,12.3c4.3,4.3,6.8,4.3,11.1,0l12.8-12.8l2.6-2.6C372,259.1,375,262.5,378.4,265.9z"/>
	<path class="st48" d="M225.7,265.9c-4.7,4.7-9.8,9.4-14.5,14c-4.7,4.7-5.1,7.2,0,12.3c5.1,5.1,9.8,9.4,14.9,14.5
		c-3.4,3.4-6.8,6.4-10.2,9.4c-4.3-3.8-8.5-8.5-13.2-12.8c-6.8-6.8-8.1-6.8-14.9,0l-13.2,13.2c-3-3.4-6-6.4-9.4-9.8
		c2.6-2.6,5.5-6,8.9-8.9c2.1-2.1,4.7-4.3,6.8-6.8c2.7-2.1,3.2-6,1.1-8.7c-0.3-0.4-0.7-0.8-1.1-1.1c-5.1-5.1-10.6-10.2-15.7-15.7
		c3.4-3,6.4-6,10.2-8.9l2.1,2.1L190,271c4.3,4.3,6.8,4.3,11.1,0l12.8-12.8l2.6-2.6C219.6,259.1,222.3,262.5,225.7,265.9z"/>
	<path class="st42" d="M184.3,504.3v-14.8h-59.9v-68.4H150l0.2,55.7h34.2l-0.1-55.7H210l0.1,55.7h8.5l-0.1,12.8h-8.6v14.8
		L184.3,504.3z"/>
	<path class="st42" d="M229.4,504.4l-0.2-83.4h85.6v83.3L229.4,504.4z M289.1,461.5l-0.1-27.7h-34.3l0.1,44.8L289.1,461.5z
		 M289.2,491.5l0.1-12.8l-25.6,12.9L289.2,491.5z"/>
	<path class="st42" d="M385.4,504.3v-14.8h-59.9V421h25.7l0.1,55.7h34.2l-0.1-55.7h25.7l0.1,55.7h8.5l-0.1,12.8h-8.5v14.8H385.4z"/>
</g>
<g class="st49">
	<path class="st42" d="M123.8,632.5V604h24.9v14h4.4v14.6L123.8,632.5L123.8,632.5z M139.8,620v-11.7h-7.3v15.4L139.8,620z
		 M144.2,628.1v-4.4l-8.8,4.4H144.2z"/>
	<path class="st42" d="M156.6,632.5V604H183v28.5H156.6z M174.2,628.1v-19.7h-8.8v19.7H174.2z"/>
	<path class="st42" d="M186.6,632.5V604h20.5l8.8,4.4v24.1h-8.8v-5.1h-11.7v5.1H186.6z M207.1,623v-12.4l-4.4-2.2h-7.3V623H207.1
		L207.1,623z"/>
	<path class="st42" d="M219.5,632.5V604h29.2v14l-10.2,5.1h10.2v9.5H240v-5.1h-11.7v5.1L219.5,632.5L219.5,632.5z M240,616.4v-8
		h-11.7v13.9L240,616.4z"/>
	<path class="st42" d="M252.4,632.5V604h20.5l8.8,4.4v24.1H252.4z M272.9,628.1v-17.5l-4.4-2.2h-7.3v19.7H272.9z"/>
	<path class="st42" d="M285.3,632.5V604h29.2v4.4H294v15.4l11.7-5.8h8.8v14.6h-29.2V632.5z M305.8,628.1v-4.4l-8.8,4.4H305.8z"/>
	<path class="st42" d="M318.2,632.5V604h20.5l8.8,4.4v24.1h-8.8v-5.1H327v5.1H318.2z M338.7,623v-12.4l-4.4-2.2H327V623H338.7
		L338.7,623z"/>
	<path class="st42" d="M351.1,632.5V604h10.2l5.8,2.9V604H392v28.5h-8.8v-24.1H376v24.1h-8.8v-19.7l-7.3-3.7v23.4H351.1z M359.9,601
		v-0.7l1.5,0.7H359.9z"/>
	<path class="st42" d="M395.7,632.5v-18.3h13.2l-13.2-6.6V604h24.9v4.4h-11.7l11.7,5.8v4.4h-16.1v9.5h7.3v-1.4h8.8v5.8H395.7
		L395.7,632.5L395.7,632.5z"/>
</g>
<g>
	<path d="M124.6,579.9v-69.7h71.5v14.3h-21.5v-3.6H146v48.3h50.1v10.7H124.6z"/>
	<path d="M205,579.9v-69.7h64.4v69.7H205z M247.9,569.2v-48.3h-21.5v48.3H247.9z"/>
	<path d="M278.3,579.9v-69.7h50.1l21.5,10.7v59H278.3z M328.4,569.2v-42.9l-10.7-5.4h-17.9v48.3L328.4,569.2L328.4,569.2z"/>
	<path d="M358.8,579.9v-44.7H391l-32.2-16.1v-8.9h60.8v10.7H391l28.6,14.3v10.7h-39.3v23.2h17.9v-3.6h21.5v14.3L358.8,579.9
		L358.8,579.9z"/>
</g>
</svg>
