<?xml version="1.0" encoding="utf-8"?>
<!-- Generator: Adobe Illustrator 26.0.1, SVG Export Plug-In . SVG Version: 6.00 Build 0)  -->
<svg version="1.1" id="Слой_1" xmlns="http://www.w3.org/2000/svg" xmlns:xlink="http://www.w3.org/1999/xlink" x="0px" y="0px"
	 viewBox="0 0 102 73" style="enable-background:new 0 0 102 73;" xml:space="preserve">
<style type="text/css">
	.st0{fill:none;}
	.st1{fill:none;stroke:#000000;stroke-miterlimit:10;}
	.st2{fill:#E21D49;}
	.st3{fill:#CA8B0C;}
	.st4{fill:#039769;}
</style>
<g>
	<g>
		<g>
			<path d="M209.7-501.2c33.1,0,66.3,0,99.4,0c2.9,0,2.6-0.2,2.6,2.5c0,45.7,0,91.3,0,137c0,6.6-4.2,10.7-11.1,10.7
				c-53.2,0-106.4,0-159.6,0c-7.4,0-14.8-0.1-22.2,0.1c-6.5,0.2-11.2-4.7-11.2-10.8c0.1-45.8,0.1-91.5,0.1-137.3
				c0-2.1,0-2.1,2.2-2.1C143.2-501.2,176.5-501.2,209.7-501.2z"/>
			<path d="M108.2-504.3c0-2.5,0-4.9,0-7.2c0-0.8,0-1.7,0-2.5c0-2.4,1.8-4.2,4.2-4.2c5.7,0,11.4,0,17.1,0c19,0,37.9,0,56.9,0
				c1.9,0,3.4,0.9,4.1,2.6c0.2,0.5,0.3,1.1,0.3,1.6c0,3,0,6.1,0,9.1c0,0.7,0,0.7-0.7,0.7c-9.2,0-18.4,0-27.6,0
				c-11.6,0-23.2,0-34.8,0c-6.2,0-12.4,0-18.6,0C108.8-504.3,108.5-504.3,108.2-504.3z M126-515c-3,0-6.1,0-9.1,0
				c-1.7,0-3.1,1-3.6,2.5c-0.8,2.5,0.9,5,3.8,4.9c5.8,0,11.6,0,17.5,0c0.3,0,0.7,0,1-0.1c1.3-0.2,2.3-0.9,2.8-2.1
				c1.1-2.4-0.7-5.2-3.3-5.2C132.1-515.1,129.1-515,126-515z M149-511.3c0-2.1-1.7-3.7-3.7-3.7s-3.7,1.7-3.7,3.7
				c0,2.1,1.6,3.7,3.7,3.7C147.3-507.7,149-509.3,149-511.3z M152.6-511.3c0,2.1,1.7,3.7,3.7,3.7s3.6-1.7,3.6-3.7
				c0-2-1.6-3.7-3.7-3.7C154.2-515,152.6-513.4,152.6-511.3z M170.9-511.3c0-2-1.6-3.7-3.7-3.7c-2,0-3.7,1.6-3.7,3.7
				c0,2,1.7,3.7,3.7,3.7C169.3-507.7,170.9-509.3,170.9-511.3z"/>
			<path d="M126-509.6c-2.9,0-5.8,0-8.7,0c-0.3,0-0.6,0-0.8-0.1c-0.9-0.2-1.4-0.9-1.3-1.8c0.1-0.8,0.7-1.5,1.6-1.6
				c0.2,0,0.3,0,0.5,0c5.9,0,11.8,0,17.7,0c1.4,0,2.3,1.1,1.9,2.3c-0.3,0.8-0.9,1.2-1.9,1.2c-2.6,0-5.2,0-7.8,0
				C126.7-509.6,126.4-509.6,126-509.6z"/>
			<path d="M147-511.4c0,1-0.8,1.8-1.7,1.8c-1,0-1.7-0.8-1.7-1.8c0-0.9,0.8-1.7,1.7-1.7S147-512.3,147-511.4z"/>
			<path d="M154.5-511.3c0-1,0.8-1.8,1.7-1.8c1,0,1.7,0.8,1.7,1.7c0,0.9-0.7,1.7-1.7,1.7C155.3-509.6,154.5-510.4,154.5-511.3z"/>
			<path d="M168.9-511.4c0,1-0.7,1.7-1.7,1.7c-0.9,0-1.7-0.8-1.7-1.8c0-1,0.8-1.7,1.8-1.7C168.2-513.1,169-512.3,168.9-511.4z"/>
			<g>
				<text transform="matrix(1 0 0 1 119.5847 -479.1528)" style="fill:#FFFFFF; font-family:'SPACEARMOR'; font-size:16px;">/home</text>
			</g>
		</g>
		<rect x="119.2" y="-468.7" class="st0" width="173.7" height="105"/>
		<text transform="matrix(1 0 0 1 119.2723 -457.4998)" style="fill:#FFFFFF; font-family:'SpaceMono-Regular'; font-size:16px;">A storefront with </text>
		<text transform="matrix(1 0 0 1 119.2723 -438.2998)" style="fill:#FFFFFF; font-family:'SpaceMono-Regular'; font-size:16px;">popular products, </text>
		<text transform="matrix(1 0 0 1 119.2723 -419.0999)" style="fill:#FFFFFF; font-family:'SpaceMono-Regular'; font-size:16px;">categories, and </text>
		<text transform="matrix(1 0 0 1 119.2723 -399.8997)" style="fill:#FFFFFF; font-family:'SpaceMono-Regular'; font-size:16px;">promotions.</text>
	</g>
	<rect x="102" y="-523.9" class="st1" width="215.4" height="178.6"/>
</g>
<g>
	<g>
		<g>
			<path d="M435,622.9c33.1,0,66.3,0,99.4,0c2.9,0,2.6-0.2,2.6,2.5c0,45.7,0,91.3,0,137c0,6.6-4.2,10.7-11.1,10.7
				c-53.2,0-106.4,0-159.6,0c-7.4,0-14.8-0.1-22.2,0.1c-6.5,0.2-11.2-4.7-11.2-10.8c0.1-45.8,0.1-91.5,0.1-137.3
				c0-2.1,0-2.1,2.2-2.1C368.4,622.9,401.7,622.9,435,622.9z"/>
			<path d="M333.5,619.8c0-2.5,0-4.9,0-7.2c0-0.8,0-1.7,0-2.5c0-2.4,1.8-4.2,4.2-4.2c5.7,0,11.4,0,17.1,0c19,0,37.9,0,56.9,0
				c1.9,0,3.4,0.9,4.1,2.6c0.2,0.5,0.3,1.1,0.3,1.6c0,3,0,6.1,0,9.1c0,0.7,0,0.7-0.7,0.7c-9.2,0-18.4,0-27.6,0
				c-11.6,0-23.2,0-34.8,0c-6.2,0-12.4,0-18.6,0C334.1,619.8,333.8,619.8,333.5,619.8z M351.3,609.1c-3,0-6.1,0-9.1,0
				c-1.7,0-3.1,1-3.6,2.5c-0.8,2.5,0.9,5,3.8,4.9c5.8,0,11.6,0,17.5,0c0.3,0,0.7,0,1-0.1c1.3-0.2,2.3-0.9,2.8-2.1
				c1.1-2.4-0.7-5.2-3.3-5.2C357.4,609.1,354.3,609.1,351.3,609.1z M374.2,612.8c0-2.1-1.7-3.7-3.7-3.7s-3.7,1.7-3.7,3.7
				c0,2.1,1.7,3.7,3.7,3.7C372.6,616.5,374.2,614.8,374.2,612.8z M377.8,612.8c0,2.1,1.7,3.7,3.7,3.7s3.6-1.7,3.6-3.7
				s-1.6-3.7-3.7-3.7C379.5,609.1,377.8,610.8,377.8,612.8z M396.2,612.8c0-2-1.6-3.7-3.7-3.7c-2,0-3.7,1.6-3.7,3.7
				c0,2,1.7,3.7,3.7,3.7S396.2,614.9,396.2,612.8z"/>
			<path d="M351.2,614.6c-2.9,0-5.8,0-8.7,0c-0.3,0-0.6,0-0.8-0.1c-0.9-0.2-1.4-0.9-1.3-1.8c0.1-0.8,0.7-1.5,1.6-1.6
				c0.2,0,0.3,0,0.5,0c5.9,0,11.8,0,17.7,0c1.4,0,2.3,1.1,1.9,2.3c-0.3,0.8-0.9,1.2-1.9,1.2c-2.6,0-5.2,0-7.8,0
				C352,614.6,351.6,614.6,351.2,614.6z"/>
			<path d="M372.3,612.8c0,1-0.8,1.8-1.7,1.8c-1,0-1.7-0.8-1.7-1.8c0-0.9,0.8-1.7,1.7-1.7C371.5,611.1,372.3,611.8,372.3,612.8z"/>
			<path d="M379.8,612.8c0-1,0.8-1.8,1.7-1.8c1,0,1.7,0.8,1.7,1.7c0,0.9-0.7,1.7-1.7,1.7C380.6,614.6,379.8,613.8,379.8,612.8z"/>
			<path d="M394.2,612.8c0,1-0.7,1.7-1.7,1.7c-0.9,0-1.7-0.8-1.7-1.8s0.8-1.7,1.8-1.7C393.5,611.1,394.2,611.8,394.2,612.8z"/>
			<g>
				<text transform="matrix(1 0 0 1 344.8481 644.9927)" style="fill:#FFFFFF; font-family:'SPACEARMOR'; font-size:15px;">/user/login</text>
			</g>
		</g>
		<rect x="344.5" y="655.4" class="st0" width="173.7" height="105"/>
		<text transform="matrix(1 0 0 1 344.5359 666.6455)" style="fill:#FFFFFF; font-family:'SpaceMono-Regular'; font-size:16px;">Login form for </text>
		<text transform="matrix(1 0 0 1 344.5359 685.8455)" style="fill:#FFFFFF; font-family:'SpaceMono-Regular'; font-size:16px;">personal account.</text>
	</g>
	<rect x="327.2" y="600.2" class="st1" width="215.4" height="178.6"/>
</g>
<g>
	<g>
		<g>
			<path d="M435-492.3c33.1,0,66.3,0,99.4,0c2.9,0,2.6-0.2,2.6,2.5c0,45.7,0,91.3,0,137c0,6.6-4.2,10.7-11.1,10.7
				c-53.2,0-106.4,0-159.6,0c-7.4,0-14.8-0.1-22.2,0.1c-6.5,0.2-11.2-4.7-11.2-10.8c0.1-45.8,0.1-91.5,0.1-137.3
				c0-2.1,0-2.1,2.2-2.1C368.4-492.3,401.7-492.3,435-492.3z"/>
			<path d="M333.5-495.4c0-2.5,0-4.9,0-7.2c0-0.8,0-1.7,0-2.5c0-2.4,1.8-4.2,4.2-4.2c5.7,0,11.4,0,17.1,0c19,0,37.9,0,56.9,0
				c1.9,0,3.4,0.9,4.1,2.6c0.2,0.5,0.3,1.1,0.3,1.6c0,3,0,6.1,0,9.1c0,0.7,0,0.7-0.7,0.7c-9.2,0-18.4,0-27.6,0
				c-11.6,0-23.2,0-34.8,0c-6.2,0-12.4,0-18.6,0C334.1-495.4,333.8-495.4,333.5-495.4z M351.3-506.1c-3,0-6.1,0-9.1,0
				c-1.7,0-3.1,1-3.6,2.5c-0.8,2.5,0.9,5,3.8,4.9c5.8,0,11.6,0,17.5,0c0.3,0,0.7,0,1-0.1c1.3-0.2,2.3-0.9,2.8-2.1
				c1.1-2.4-0.7-5.2-3.3-5.2C357.4-506.1,354.3-506.1,351.3-506.1z M374.2-502.4c0-2.1-1.7-3.7-3.7-3.7s-3.7,1.7-3.7,3.7
				c0,2.1,1.7,3.7,3.7,3.7C372.6-498.7,374.2-500.4,374.2-502.4z M377.8-502.4c0,2.1,1.7,3.7,3.7,3.7s3.6-1.7,3.6-3.7
				s-1.6-3.7-3.7-3.7C379.5-506.1,377.8-504.4,377.8-502.4z M396.2-502.4c0-2-1.6-3.7-3.7-3.7c-2,0-3.7,1.6-3.7,3.7
				c0,2,1.7,3.7,3.7,3.7S396.2-500.3,396.2-502.4z"/>
			<path d="M351.2-500.7c-2.9,0-5.8,0-8.7,0c-0.3,0-0.6,0-0.8-0.1c-0.9-0.2-1.4-0.9-1.3-1.8c0.1-0.8,0.7-1.5,1.6-1.6
				c0.2,0,0.3,0,0.5,0c5.9,0,11.8,0,17.7,0c1.4,0,2.3,1.1,1.9,2.3c-0.3,0.8-0.9,1.2-1.9,1.2c-2.6,0-5.2,0-7.8,0
				C352-500.7,351.6-500.7,351.2-500.7z"/>
			<path d="M372.3-502.4c0,1-0.8,1.8-1.7,1.8c-1,0-1.7-0.8-1.7-1.8c0-0.9,0.8-1.7,1.7-1.7C371.5-504.2,372.3-503.4,372.3-502.4z"/>
			<path d="M379.8-502.4c0-1,0.8-1.8,1.7-1.8c1,0,1.7,0.8,1.7,1.7s-0.7,1.7-1.7,1.7C380.6-500.6,379.8-501.4,379.8-502.4z"/>
			<path d="M394.2-502.4c0,1-0.7,1.7-1.7,1.7c-0.9,0-1.7-0.8-1.7-1.8s0.8-1.7,1.8-1.7C393.5-504.1,394.2-503.4,394.2-502.4z"/>
			<g>
				<text transform="matrix(1 0 0 1 344.8481 -470.2231)" style="fill:#FFFFFF; font-family:'SPACEARMOR'; font-size:16px;">/register</text>
			</g>
		</g>
		<rect x="344.5" y="-459.8" class="st0" width="173.7" height="105"/>
		<text transform="matrix(1 0 0 1 344.5359 -448.5701)" style="fill:#FFFFFF; font-family:'SpaceMono-Regular'; font-size:16px;">Form for creating </text>
		<text transform="matrix(1 0 0 1 344.5359 -429.3701)" style="fill:#FFFFFF; font-family:'SpaceMono-Regular'; font-size:16px;">a new account.</text>
	</g>
	<rect x="327.2" y="-515" class="st1" width="215.4" height="178.6"/>
</g>
<g>
	<g>
		<g>
			<path d="M431.4,990.4c33.1,0,66.3,0,99.4,0c2.9,0,2.6-0.2,2.6,2.5c0,45.7,0,91.3,0,137c0,6.6-4.2,10.7-11.1,10.7
				c-53.2,0-106.4,0-159.6,0c-7.4,0-14.8-0.1-22.2,0.1c-6.5,0.2-11.2-4.7-11.2-10.8c0.1-45.8,0.1-91.5,0.1-137.3
				c0-2.1,0-2.1,2.2-2.1C364.8,990.4,398.1,990.4,431.4,990.4z"/>
			<path d="M329.9,987.3c0-2.5,0-4.9,0-7.2c0-0.8,0-1.7,0-2.5c0-2.4,1.8-4.2,4.2-4.2c5.7,0,11.4,0,17.1,0c19,0,37.9,0,56.9,0
				c1.9,0,3.4,0.9,4.1,2.6c0.2,0.5,0.3,1.1,0.3,1.6c0,3,0,6.1,0,9.1c0,0.7,0,0.7-0.7,0.7c-9.2,0-18.4,0-27.6,0
				c-11.6,0-23.2,0-34.8,0c-6.2,0-12.4,0-18.6,0C330.5,987.3,330.2,987.3,329.9,987.3z M347.7,976.6c-3,0-6.1,0-9.1,0
				c-1.7,0-3.1,1-3.6,2.5c-0.8,2.5,0.9,5,3.8,4.9c5.8,0,11.6,0,17.5,0c0.3,0,0.7,0,1-0.1c1.3-0.2,2.3-0.9,2.8-2.1
				c1.1-2.4-0.7-5.2-3.3-5.2C353.8,976.6,350.7,976.6,347.7,976.6z M370.6,980.3c0-2.1-1.7-3.7-3.7-3.7s-3.7,1.7-3.7,3.7
				c0,2.1,1.7,3.7,3.7,3.7C369,984,370.6,982.3,370.6,980.3z M374.2,980.3c0,2.1,1.7,3.7,3.7,3.7s3.6-1.7,3.6-3.7s-1.6-3.7-3.7-3.7
				C375.9,976.6,374.2,978.3,374.2,980.3z M392.6,980.3c0-2-1.6-3.7-3.7-3.7c-2,0-3.7,1.6-3.7,3.7c0,2,1.7,3.7,3.7,3.7
				C390.9,984,392.6,982.4,392.6,980.3z"/>
			<path d="M347.6,982.1c-2.9,0-5.8,0-8.7,0c-0.3,0-0.6,0-0.8-0.1c-0.9-0.2-1.4-0.9-1.3-1.8c0.1-0.8,0.7-1.5,1.6-1.6
				c0.2,0,0.3,0,0.5,0c5.9,0,11.8,0,17.7,0c1.4,0,2.3,1.1,1.9,2.3c-0.3,0.8-0.9,1.2-1.9,1.2c-2.6,0-5.2,0-7.8,0
				C348.4,982.1,348,982.1,347.6,982.1z"/>
			<path d="M368.7,980.3c0,1-0.8,1.8-1.7,1.8c-1,0-1.7-0.8-1.7-1.8c0-0.9,0.8-1.7,1.7-1.7S368.7,979.3,368.7,980.3z"/>
			<path d="M376.2,980.3c0-1,0.8-1.8,1.7-1.8c1,0,1.7,0.8,1.7,1.7c0,0.9-0.7,1.7-1.7,1.7C377,982.1,376.2,981.3,376.2,980.3z"/>
			<path d="M390.6,980.3c0,1-0.7,1.7-1.7,1.7c-0.9,0-1.7-0.8-1.7-1.8s0.8-1.7,1.8-1.7C389.9,978.6,390.6,979.3,390.6,980.3z"/>
			<g>
				<text transform="matrix(1 0 0 1 341.2556 1012.4875)" style="fill:#FFFFFF; font-family:'SPACEARMOR'; font-size:16px;">/checkout</text>
			</g>
		</g>
		<rect x="340.9" y="1022.9" class="st0" width="173.7" height="105"/>
		<text transform="matrix(1 0 0 1 340.9434 1034.1404)" style="fill:#FFFFFF; font-family:'SpaceMono-Regular'; font-size:16px;">The process of </text>
		<text transform="matrix(1 0 0 1 340.9434 1053.3403)" style="fill:#FFFFFF; font-family:'SpaceMono-Regular'; font-size:16px;">placing an order, </text>
		<text transform="matrix(1 0 0 1 340.9434 1072.5404)" style="fill:#FFFFFF; font-family:'SpaceMono-Regular'; font-size:16px;">entering an </text>
		<text transform="matrix(1 0 0 1 340.9434 1091.7404)" style="fill:#FFFFFF; font-family:'SpaceMono-Regular'; font-size:16px;">address, choosing </text>
		<text transform="matrix(1 0 0 1 340.9434 1110.9404)" style="fill:#FFFFFF; font-family:'SpaceMono-Regular'; font-size:16px;">a payment method.</text>
	</g>
	<rect x="323.6" y="967.7" class="st1" width="215.4" height="178.6"/>
</g>
<g>
	<g>
		<g>
			<path d="M435.6-129.1c33.1,0,66.3,0,99.4,0c2.9,0,2.6-0.2,2.6,2.5c0,45.7,0,91.3,0,137c0,6.6-4.2,10.7-11.1,10.7
				c-53.2,0-106.4,0-159.6,0c-7.4,0-14.8-0.1-22.2,0.1c-6.5,0.2-11.2-4.7-11.2-10.8c0.1-45.8,0.1-91.5,0.1-137.3
				c0-2.1,0-2.1,2.2-2.1C369-129.1,402.3-129.1,435.6-129.1z"/>
			<path d="M334-132.3c0-2.5,0-4.9,0-7.2c0-0.8,0-1.7,0-2.5c0-2.4,1.8-4.2,4.2-4.2c5.7,0,11.4,0,17.1,0c19,0,37.9,0,56.9,0
				c1.9,0,3.4,0.9,4.1,2.6c0.2,0.5,0.3,1.1,0.3,1.6c0,3,0,6.1,0,9.1c0,0.7,0,0.7-0.7,0.7c-9.2,0-18.4,0-27.6,0
				c-11.6,0-23.2,0-34.8,0c-6.2,0-12.4,0-18.6,0C334.6-132.3,334.3-132.3,334-132.3z M351.8-143c-3,0-6.1,0-9.1,0
				c-1.7,0-3.1,1-3.6,2.5c-0.8,2.5,0.9,5,3.8,4.9c5.8,0,11.6,0,17.5,0c0.3,0,0.7,0,1-0.1c1.3-0.2,2.3-0.9,2.8-2.1
				c1.1-2.4-0.7-5.2-3.3-5.2C357.9-143,354.9-143,351.8-143z M374.8-139.3c0-2.1-1.7-3.7-3.7-3.7s-3.7,1.7-3.7,3.7
				c0,2.1,1.7,3.7,3.7,3.7S374.8-137.2,374.8-139.3z M378.4-139.3c0,2.1,1.7,3.7,3.7,3.7s3.6-1.7,3.6-3.7s-1.6-3.7-3.7-3.7
				C380-143,378.4-141.3,378.4-139.3z M396.7-139.3c0-2-1.6-3.7-3.7-3.7c-2,0-3.7,1.6-3.7,3.7c0,2,1.7,3.7,3.7,3.7
				C395.1-135.6,396.7-137.2,396.7-139.3z"/>
			<path d="M351.8-137.5c-2.9,0-5.8,0-8.7,0c-0.3,0-0.6,0-0.8-0.1c-0.9-0.2-1.4-0.9-1.3-1.8c0.1-0.8,0.7-1.5,1.6-1.6
				c0.2,0,0.3,0,0.5,0c5.9,0,11.8,0,17.7,0c1.4,0,2.3,1.1,1.9,2.3c-0.3,0.8-0.9,1.2-1.9,1.2c-2.6,0-5.2,0-7.8,0
				C352.6-137.5,352.2-137.5,351.8-137.5z"/>
			<path d="M372.8-139.3c0,1-0.8,1.8-1.7,1.8c-1,0-1.7-0.8-1.7-1.8c0-0.9,0.8-1.7,1.7-1.7C372-141,372.8-140.3,372.8-139.3z"/>
			<path d="M380.3-139.2c0-1,0.8-1.8,1.7-1.8c1,0,1.7,0.8,1.7,1.7s-0.7,1.7-1.7,1.7C381.1-137.5,380.3-138.3,380.3-139.2z"/>
			<path d="M394.8-139.3c0,1-0.7,1.7-1.7,1.7c-0.9,0-1.7-0.8-1.7-1.8s0.8-1.7,1.8-1.7C394-141,394.8-140.2,394.8-139.3z"/>
			<g>
				<text transform="matrix(1 0 0 1 345.3971 -107.0835)" style="fill:#FFFFFF; font-family:'SPACEARMOR'; font-size:16px;">/category</text>
			</g>
		</g>
		<rect x="345.1" y="-96.6" class="st0" width="173.7" height="105"/>
		<text transform="matrix(1 0 0 1 345.0848 -85.4307)" style="fill:#FFFFFF; font-family:'SpaceMono-Regular'; font-size:16px;">List of products </text>
		<text transform="matrix(1 0 0 1 345.0848 -66.2307)" style="fill:#FFFFFF; font-family:'SpaceMono-Regular'; font-size:16px;">in all </text>
		<text transform="matrix(1 0 0 1 345.0848 -47.0308)" style="fill:#FFFFFF; font-family:'SpaceMono-Regular'; font-size:16px;">categories.</text>
	</g>
	<rect x="327.8" y="-151.9" class="st1" width="215.4" height="178.6"/>
</g>
<g>
	<g>
		<g>
			<path d="M436.3,1353.2c33.1,0,66.3,0,99.4,0c2.9,0,2.6-0.2,2.6,2.5c0,45.7,0,91.3,0,137c0,6.6-4.2,10.7-11.1,10.7
				c-53.2,0-106.4,0-159.6,0c-7.4,0-14.8-0.1-22.2,0.1c-6.5,0.2-11.2-4.7-11.2-10.8c0.1-45.8,0.1-91.5,0.1-137.3
				c0-2.1,0-2.1,2.2-2.1C369.7,1353.1,403,1353.1,436.3,1353.2z"/>
			<path d="M334.7,1350c0-2.5,0-4.9,0-7.2c0-0.8,0-1.7,0-2.5c0-2.4,1.8-4.2,4.2-4.2c5.7,0,11.4,0,17.1,0c19,0,37.9,0,56.9,0
				c1.9,0,3.4,0.9,4.1,2.6c0.2,0.5,0.3,1.1,0.3,1.6c0,3,0,6.1,0,9.1c0,0.7,0,0.7-0.7,0.7c-9.2,0-18.4,0-27.6,0
				c-11.6,0-23.2,0-34.8,0c-6.2,0-12.4,0-18.6,0C335.3,1350,335,1350,334.7,1350z M352.5,1339.3c-3,0-6.1,0-9.1,0
				c-1.7,0-3.1,1-3.6,2.5c-0.8,2.5,0.9,5,3.8,4.9c5.8,0,11.6,0,17.5,0c0.3,0,0.7,0,1-0.1c1.3-0.2,2.3-0.9,2.8-2.1
				c1.1-2.4-0.7-5.2-3.3-5.2C358.6,1339.3,355.6,1339.3,352.5,1339.3z M375.5,1343c0-2.1-1.7-3.7-3.7-3.7s-3.7,1.7-3.7,3.7
				c0,2.1,1.6,3.7,3.7,3.7C373.8,1346.7,375.5,1345.1,375.5,1343z M379.1,1343c0,2.1,1.7,3.7,3.7,3.7s3.6-1.7,3.6-3.7
				s-1.6-3.7-3.7-3.7C380.7,1339.3,379.1,1341,379.1,1343z M397.4,1343c0-2-1.6-3.7-3.7-3.7c-2,0-3.7,1.6-3.7,3.7
				c0,2,1.7,3.7,3.7,3.7C395.8,1346.7,397.4,1345.1,397.4,1343z"/>
			<path d="M352.5,1344.8c-2.9,0-5.8,0-8.7,0c-0.3,0-0.6,0-0.8-0.1c-0.9-0.2-1.4-0.9-1.3-1.8c0.1-0.8,0.7-1.5,1.6-1.6
				c0.2,0,0.3,0,0.5,0c5.9,0,11.8,0,17.7,0c1.4,0,2.3,1.1,1.9,2.3c-0.3,0.8-0.9,1.2-1.9,1.2c-2.6,0-5.2,0-7.8,0
				C353.3,1344.8,352.9,1344.8,352.5,1344.8z"/>
			<path d="M373.5,1343c0,1-0.8,1.8-1.7,1.8c-1,0-1.7-0.8-1.7-1.8c0-0.9,0.8-1.7,1.7-1.7S373.5,1342,373.5,1343z"/>
			<path d="M381,1343.1c0-1,0.8-1.8,1.7-1.8c1,0,1.7,0.8,1.7,1.7c0,0.9-0.7,1.7-1.7,1.7C381.8,1344.8,381,1344,381,1343.1z"/>
			<path d="M395.5,1343c0,1-0.7,1.7-1.7,1.7c-0.9,0-1.7-0.8-1.7-1.8s0.8-1.7,1.8-1.7C394.7,1341.3,395.5,1342.1,395.5,1343z"/>
			<g>
				<text transform="matrix(1 0 0 1 346.0897 1375.2128)" style="fill:#FFFFFF; font-family:'SPACEARMOR'; font-size:12px;">/product/</text>
			</g>
		</g>
		<rect x="345.7" y="1385.7" class="st0" width="173.7" height="105"/>
		<text transform="matrix(1 0 0 1 345.7773 1396.8657)" style="fill:#FFFFFF; font-family:'SpaceMono-Regular'; font-size:16px;">Detailed </text>
		<text transform="matrix(1 0 0 1 345.7773 1416.0657)" style="fill:#FFFFFF; font-family:'SpaceMono-Regular'; font-size:16px;">information about </text>
		<text transform="matrix(1 0 0 1 345.7773 1435.2657)" style="fill:#FFFFFF; font-family:'SpaceMono-Regular'; font-size:16px;">a single product, </text>
		<text transform="matrix(1 0 0 1 345.7773 1454.4657)" style="fill:#FFFFFF; font-family:'SpaceMono-Regular'; font-size:16px;">reviews.</text>
	</g>
	<rect x="328.5" y="1330.4" class="st1" width="215.4" height="178.6"/>
</g>
<g>
	<g>
		<g>
			<path d="M429,1712.3c33.1,0,66.3,0,99.4,0c2.9,0,2.6-0.2,2.6,2.5c0,45.7,0,91.3,0,137c0,6.6-4.2,10.7-11.1,10.7
				c-53.2,0-106.4,0-159.6,0c-7.4,0-14.8-0.1-22.2,0.1c-6.5,0.2-11.2-4.7-11.2-10.8c0.1-45.8,0.1-91.5,0.1-137.3
				c0-2.1,0-2.1,2.2-2.1C362.5,1712.3,395.7,1712.3,429,1712.3z"/>
			<path d="M327.5,1709.1c0-2.5,0-4.9,0-7.2c0-0.8,0-1.7,0-2.5c0-2.4,1.8-4.2,4.2-4.2c5.7,0,11.4,0,17.1,0c19,0,37.9,0,56.9,0
				c1.9,0,3.4,0.9,4.1,2.6c0.2,0.5,0.3,1.1,0.3,1.6c0,3,0,6.1,0,9.1c0,0.7,0,0.7-0.7,0.7c-9.2,0-18.4,0-27.6,0
				c-11.6,0-23.2,0-34.8,0c-6.2,0-12.4,0-18.6,0C328.1,1709.1,327.8,1709.1,327.5,1709.1z M345.3,1698.5c-3,0-6.1,0-9.1,0
				c-1.7,0-3.1,1-3.6,2.5c-0.8,2.5,0.9,5,3.8,4.9c5.8,0,11.6,0,17.5,0c0.3,0,0.7,0,1-0.1c1.3-0.2,2.3-0.9,2.8-2.1
				c1.1-2.4-0.7-5.2-3.3-5.2C351.4,1698.4,348.4,1698.5,345.3,1698.5z M368.2,1702.1c0-2.1-1.7-3.7-3.7-3.7s-3.7,1.7-3.7,3.7
				c0,2.1,1.6,3.7,3.7,3.7S368.2,1704.2,368.2,1702.1z M371.9,1702.2c0,2.1,1.7,3.7,3.7,3.7s3.6-1.7,3.6-3.7s-1.6-3.7-3.7-3.7
				C373.5,1698.4,371.9,1700.1,371.9,1702.2z M390.2,1702.2c0-2-1.6-3.7-3.7-3.7c-2,0-3.7,1.6-3.7,3.7c0,2,1.7,3.7,3.7,3.7
				C388.6,1705.8,390.2,1704.2,390.2,1702.2z"/>
			<path d="M345.3,1703.9c-2.9,0-5.8,0-8.7,0c-0.3,0-0.6,0-0.8-0.1c-0.9-0.2-1.4-0.9-1.3-1.8c0.1-0.8,0.7-1.5,1.6-1.6
				c0.2,0,0.3,0,0.5,0c5.9,0,11.8,0,17.7,0c1.4,0,2.3,1.1,1.9,2.3c-0.3,0.8-0.9,1.2-1.9,1.2c-2.6,0-5.2,0-7.8,0
				C346,1703.9,345.6,1703.9,345.3,1703.9z"/>
			<path d="M366.3,1702.1c0,1-0.8,1.8-1.7,1.8c-1,0-1.7-0.8-1.7-1.8c0-0.9,0.8-1.7,1.7-1.7C365.5,1700.4,366.3,1701.2,366.3,1702.1z
				"/>
			<path d="M373.8,1702.2c0-1,0.8-1.8,1.7-1.8c1,0,1.7,0.8,1.7,1.7s-0.7,1.7-1.7,1.7C374.6,1703.9,373.8,1703.1,373.8,1702.2z"/>
			<path d="M388.2,1702.1c0,1-0.7,1.7-1.7,1.7c-0.9,0-1.7-0.8-1.7-1.8s0.8-1.7,1.8-1.7C387.5,1700.4,388.2,1701.2,388.2,1702.1z"/>
			<g>
				<text transform="matrix(1 0 0 1 338.8761 1734.3408)" style="fill:#FFFFFF; font-family:'SPACEARMOR'; font-size:10px;">/search?=</text>
				<text transform="matrix(1 0 0 1 441.4761 1734.3408)" style="fill:#8E4795; font-family:'SPACEARMOR'; font-size:10px;">{query}</text>
			</g>
		</g>
		<rect x="338.5" y="1744.8" class="st0" width="173.7" height="105"/>
		<text transform="matrix(1 0 0 1 338.5637 1755.9937)" style="fill:#FFFFFF; font-family:'SpaceMono-Regular'; font-size:16px;">Search results by </text>
		<text transform="matrix(1 0 0 1 338.5637 1775.1937)" style="fill:#FFFFFF; font-family:'SpaceMono-Regular'; font-size:16px;">keywords.</text>
	</g>
	<rect x="321.2" y="1689.5" class="st1" width="215.4" height="178.6"/>
</g>
<g>
	<g>
		<g>
			<path d="M427.4,250.6c33.1,0,66.3,0,99.4,0c2.9,0,2.6-0.2,2.6,2.5c0,45.7,0,91.3,0,137c0,6.6-4.2,10.7-11.1,10.7
				c-53.2,0-106.4,0-159.6,0c-7.4,0-14.8-0.1-22.2,0.1c-6.5,0.2-11.2-4.7-11.2-10.8c0.1-45.8,0.1-91.5,0.1-137.3
				c0-2.1,0-2.1,2.2-2.1C360.8,250.6,394.1,250.6,427.4,250.6z"/>
			<path d="M325.8,247.4c0-2.5,0-4.9,0-7.2c0-0.8,0-1.7,0-2.5c0-2.4,1.8-4.2,4.2-4.2c5.7,0,11.4,0,17.1,0c19,0,37.9,0,56.9,0
				c1.9,0,3.4,0.9,4.1,2.6c0.2,0.5,0.3,1.1,0.3,1.6c0,3,0,6.1,0,9.1c0,0.7,0,0.7-0.7,0.7c-9.2,0-18.4,0-27.6,0
				c-11.6,0-23.2,0-34.8,0c-6.2,0-12.4,0-18.6,0C326.4,247.4,326.2,247.4,325.8,247.4z M343.7,236.7c-3,0-6.1,0-9.1,0
				c-1.7,0-3.1,1-3.6,2.5c-0.8,2.5,0.9,5,3.8,4.9c5.8,0,11.6,0,17.5,0c0.3,0,0.7,0,1-0.1c1.3-0.2,2.3-0.9,2.8-2.1
				c1.1-2.4-0.7-5.2-3.3-5.2C349.8,236.7,346.7,236.7,343.7,236.7z M366.6,240.4c0-2.1-1.7-3.7-3.7-3.7s-3.7,1.7-3.7,3.7
				c0,2.1,1.7,3.7,3.7,3.7C365,244.1,366.6,242.5,366.6,240.4z M370.2,240.4c0,2.1,1.7,3.7,3.7,3.7s3.6-1.7,3.6-3.7
				s-1.6-3.7-3.7-3.7C371.9,236.7,370.2,238.4,370.2,240.4z M388.6,240.4c0-2-1.6-3.7-3.7-3.7c-2,0-3.7,1.6-3.7,3.7
				c0,2,1.7,3.7,3.7,3.7S388.5,242.5,388.6,240.4z"/>
			<path d="M343.6,242.2c-2.9,0-5.8,0-8.7,0c-0.3,0-0.6,0-0.8-0.1c-0.9-0.2-1.4-0.9-1.3-1.8c0.1-0.8,0.7-1.5,1.6-1.6
				c0.2,0,0.3,0,0.5,0c5.9,0,11.8,0,17.7,0c1.4,0,2.3,1.1,1.9,2.3c-0.3,0.8-0.9,1.2-1.9,1.2c-2.6,0-5.2,0-7.8,0
				C344.4,242.2,344,242.2,343.6,242.2z"/>
			<path d="M364.7,240.4c0,1-0.8,1.8-1.7,1.8c-1,0-1.7-0.8-1.7-1.8c0-0.9,0.8-1.7,1.7-1.7C363.9,238.7,364.6,239.5,364.7,240.4z"/>
			<path d="M372.2,240.5c0-1,0.8-1.8,1.7-1.8c1,0,1.7,0.8,1.7,1.7s-0.7,1.7-1.7,1.7C373,242.2,372.2,241.4,372.2,240.5z"/>
			<path d="M386.6,240.4c0,1-0.7,1.7-1.7,1.7c-0.9,0-1.7-0.8-1.7-1.8s0.8-1.7,1.8-1.7C385.9,238.7,386.6,239.5,386.6,240.4z"/>
			<g>
				<text transform="matrix(1 0 0 1 337.238 272.6172)" style="fill:#FFFFFF; font-family:'SPACEARMOR'; font-size:16px;">/cart</text>
			</g>
		</g>
	</g>
	<rect x="319.6" y="227.8" class="st1" width="215.4" height="178.6"/>
	<rect x="339.7" y="281.6" class="st0" width="175.5" height="113.6"/>
	<text transform="matrix(1 0 0 1 339.7207 292.8337)" style="fill:#FFFFFF; font-family:'SpaceMono-Regular'; font-size:16px;">List of items </text>
	<text transform="matrix(1 0 0 1 339.7207 312.0337)" style="fill:#FFFFFF; font-family:'SpaceMono-Regular'; font-size:16px;">added to cart, </text>
	<text transform="matrix(1 0 0 1 339.7207 331.2336)" style="fill:#FFFFFF; font-family:'SpaceMono-Regular'; font-size:16px;">available to edit </text>
	<text transform="matrix(1 0 0 1 339.7207 350.4338)" style="fill:#FFFFFF; font-family:'SpaceMono-Regular'; font-size:16px;">their quantity </text>
	<text transform="matrix(1 0 0 1 339.7207 369.6338)" style="fill:#FFFFFF; font-family:'SpaceMono-Regular'; font-size:16px;">and remove from </text>
	<text transform="matrix(1 0 0 1 339.7207 388.8337)" style="fill:#FFFFFF; font-family:'SpaceMono-Regular'; font-size:16px;">cart.</text>
</g>
<g>
	<g>
		<g>
			<g>
				<path d="M662.2-129.1c33.1,0,66.3,0,99.4,0c2.9,0,2.6-0.2,2.6,2.5c0,45.7,0,91.3,0,137c0,6.6-4.2,10.7-11.1,10.7
					c-53.2,0-106.4,0-159.6,0c-7.4,0-14.8-0.1-22.2,0.1c-6.5,0.2-11.2-4.7-11.2-10.8c0.1-45.8,0.1-91.5,0.1-137.3
					c0-2.1,0-2.1,2.2-2.1C595.6-129.1,628.9-129.1,662.2-129.1z"/>
				<path d="M560.7-132.3c0-2.5,0-4.9,0-7.2c0-0.8,0-1.7,0-2.5c0-2.4,1.8-4.2,4.2-4.2c5.7,0,11.4,0,17.1,0c19,0,37.9,0,56.9,0
					c1.9,0,3.4,0.9,4.1,2.6c0.2,0.5,0.3,1.1,0.3,1.6c0,3,0,6.1,0,9.1c0,0.7,0,0.7-0.7,0.7c-9.2,0-18.4,0-27.6,0
					c-11.6,0-23.2,0-34.8,0c-6.2,0-12.4,0-18.6,0C561.3-132.3,561-132.3,560.7-132.3z M578.5-143c-3,0-6.1,0-9.1,0
					c-1.7,0-3.1,1-3.6,2.5c-0.8,2.5,0.9,5,3.8,4.9c5.8,0,11.6,0,17.5,0c0.3,0,0.7,0,1-0.1c1.3-0.2,2.3-0.9,2.8-2.1
					c1.1-2.4-0.7-5.2-3.3-5.2C584.6-143,581.5-143,578.5-143z M601.4-139.3c0-2.1-1.7-3.7-3.7-3.7s-3.7,1.7-3.7,3.7
					c0,2.1,1.7,3.7,3.7,3.7C599.8-135.6,601.4-137.2,601.4-139.3z M605-139.3c0,2.1,1.7,3.7,3.7,3.7s3.6-1.7,3.6-3.7
					s-1.6-3.7-3.7-3.7C606.7-143,605-141.3,605-139.3z M623.4-139.3c0-2-1.6-3.7-3.7-3.7c-2,0-3.7,1.6-3.7,3.7c0,2,1.7,3.7,3.7,3.7
					S623.4-137.2,623.4-139.3z"/>
				<path d="M578.4-137.5c-2.9,0-5.8,0-8.7,0c-0.3,0-0.6,0-0.8-0.1c-0.9-0.2-1.4-0.9-1.3-1.8c0.1-0.8,0.7-1.5,1.6-1.6
					c0.2,0,0.3,0,0.5,0c5.9,0,11.8,0,17.7,0c1.4,0,2.3,1.1,1.9,2.3c-0.3,0.8-0.9,1.2-1.9,1.2c-2.6,0-5.2,0-7.8,0
					C579.2-137.5,578.8-137.5,578.4-137.5z"/>
				<path d="M599.5-139.3c0,1-0.8,1.8-1.7,1.8c-1,0-1.7-0.8-1.7-1.8c0-0.9,0.8-1.7,1.7-1.7S599.5-140.3,599.5-139.3z"/>
				<path d="M607-139.2c0-1,0.8-1.8,1.7-1.8c1,0,1.7,0.8,1.7,1.7s-0.7,1.7-1.7,1.7C607.8-137.5,607-138.3,607-139.2z"/>
				<path d="M621.4-139.3c0,1-0.7,1.7-1.7,1.7c-0.9,0-1.7-0.8-1.7-1.8s0.8-1.7,1.8-1.7C620.7-141,621.4-140.2,621.4-139.3z"/>
				<g>
					<text transform="matrix(1 0 0 1 572.0536 -107.0835)" style="fill:#FFFFFF; font-family:'SPACEARMOR'; font-size:12px;">/category/</text>
					<text transform="matrix(1 0 0 1 713.9536 -107.0835)" style="fill:#8E4795; font-family:'SPACEARMOR'; font-size:10px;">{id}</text>
				</g>
			</g>
			<rect x="571.7" y="-96.6" class="st0" width="173.7" height="105"/>
			<text transform="matrix(1 0 0 1 571.7413 -85.4307)" style="fill:#FFFFFF; font-family:'SpaceMono-Regular'; font-size:16px;">A list of </text>
			<text transform="matrix(1 0 0 1 571.7413 -66.2307)" style="fill:#FFFFFF; font-family:'SpaceMono-Regular'; font-size:16px;">products in the </text>
			<text transform="matrix(1 0 0 1 571.7413 -47.0308)" style="fill:#FFFFFF; font-family:'SpaceMono-Regular'; font-size:16px;">selected category </text>
			<text transform="matrix(1 0 0 1 571.7413 -27.8306)" style="fill:#FFFFFF; font-family:'SpaceMono-Regular'; font-size:16px;">with the ability </text>
			<text transform="matrix(1 0 0 1 571.7413 -8.6306)" style="fill:#FFFFFF; font-family:'SpaceMono-Regular'; font-size:16px;">to filter.</text>
		</g>
		<rect x="554.4" y="-151.9" class="st1" width="215.4" height="178.6"/>
	</g>
	<g>
		<g>
			<text transform="matrix(1 0 0 1 720.9763 9.8533)" class="st2" style="font-family:'SpaceMono-Regular'; font-size:10px;">hard.</text>
			<path class="st2" d="M715.5,13.4L711,5.3l-2.4,1.4l-0.8-1.5l5.4-3l5.3,9.5L715.5,13.4z"/>
		</g>
		<g>
			<path class="st3" d="M653,13l-4.5-8.1l-2.4,1.4l-0.8-1.5l5.4-3l5.3,9.5L653,13z"/>
			<text transform="matrix(1 0 0 1 658.5076 9.8533)" class="st3" style="font-family:'SpaceMono-Regular'; font-size:10px;">med.</text>
		</g>
		<g>
			<text transform="matrix(1 0 0 1 585.4327 9.8533)" class="st4" style="font-family:'SpaceMono-Regular'; font-size:10px;">base.</text>
			<path class="st4" d="M576.4,13.7l-3.1-5.4l4.9-2.9L577.4,4l-4.1,2.4l-0.7-1.2l6.6-3.8l2.3,3.9l-4.9,2.9l1.7,2.9l2.5-1.4l-0.2-0.4
				l2.5-1.4l1,1.6L576.4,13.7z"/>
		</g>
	</g>
</g>
<g>
	<g>
		<g>
			<g>
				<path d="M655.6,1353.2c33.1,0,66.3,0,99.4,0c2.9,0,2.6-0.2,2.6,2.5c0,45.7,0,91.3,0,137c0,6.6-4.2,10.7-11.1,10.7
					c-53.2,0-106.4,0-159.6,0c-7.4,0-14.8-0.1-22.2,0.1c-6.5,0.2-11.2-4.7-11.2-10.8c0.1-45.8,0.1-91.5,0.1-137.3
					c0-2.1,0-2.1,2.2-2.1C589,1353.1,622.3,1353.1,655.6,1353.2z"/>
				<path d="M554,1350c0-2.5,0-4.9,0-7.2c0-0.8,0-1.7,0-2.5c0-2.4,1.8-4.2,4.2-4.2c5.7,0,11.4,0,17.1,0c19,0,37.9,0,56.9,0
					c1.9,0,3.4,0.9,4.1,2.6c0.2,0.5,0.3,1.1,0.3,1.6c0,3,0,6.1,0,9.1c0,0.7,0,0.7-0.7,0.7c-9.2,0-18.4,0-27.6,0
					c-11.6,0-23.2,0-34.8,0c-6.2,0-12.4,0-18.6,0C554.6,1350,554.3,1350,554,1350z M571.9,1339.3c-3,0-6.1,0-9.1,0
					c-1.7,0-3.1,1-3.6,2.5c-0.8,2.5,0.9,5,3.8,4.9c5.8,0,11.6,0,17.5,0c0.3,0,0.7,0,1-0.1c1.3-0.2,2.3-0.9,2.8-2.1
					c1.1-2.4-0.7-5.2-3.3-5.2C577.9,1339.3,574.9,1339.3,571.9,1339.3z M594.8,1343c0-2.1-1.7-3.7-3.7-3.7s-3.7,1.7-3.7,3.7
					c0,2.1,1.6,3.7,3.7,3.7C593.2,1346.7,594.8,1345.1,594.8,1343z M598.4,1343c0,2.1,1.7,3.7,3.7,3.7s3.6-1.7,3.6-3.7
					s-1.6-3.7-3.7-3.7C600.1,1339.3,598.4,1341,598.4,1343z M616.7,1343c0-2-1.6-3.7-3.7-3.7c-2,0-3.7,1.6-3.7,3.7
					c0,2,1.7,3.7,3.7,3.7C615.1,1346.7,616.7,1345.1,616.7,1343z"/>
				<path d="M571.8,1344.8c-2.9,0-5.8,0-8.7,0c-0.3,0-0.6,0-0.8-0.1c-0.9-0.2-1.4-0.9-1.3-1.8c0.1-0.8,0.7-1.5,1.6-1.6
					c0.2,0,0.3,0,0.5,0c5.9,0,11.8,0,17.7,0c1.4,0,2.3,1.1,1.9,2.3c-0.3,0.8-0.9,1.2-1.9,1.2c-2.6,0-5.2,0-7.8,0
					C572.6,1344.8,572.2,1344.8,571.8,1344.8z"/>
				<path d="M592.8,1343c0,1-0.8,1.8-1.7,1.8c-1,0-1.7-0.8-1.7-1.8c0-0.9,0.8-1.7,1.7-1.7S592.8,1342,592.8,1343z"/>
				<path d="M600.4,1343.1c0-1,0.8-1.8,1.7-1.8c1,0,1.7,0.8,1.7,1.7c0,0.9-0.7,1.7-1.7,1.7C601.2,1344.8,600.4,1344,600.4,1343.1z"
					/>
				<path d="M614.8,1343c0,1-0.7,1.7-1.7,1.7c-0.9,0-1.7-0.8-1.7-1.8s0.8-1.7,1.8-1.7C614,1341.3,614.8,1342.1,614.8,1343z"/>
				<g>
					<text transform="matrix(1 0 0 1 565.4139 1375.2126)" style="fill:#FFFFFF; font-family:'SPACEARMOR'; font-size:12px;">/products/</text>
					<text transform="matrix(1 0 0 1 707.2137 1375.2126)" style="fill:#8E4795; font-family:'SPACEARMOR'; font-size:10px;">{id}</text>
				</g>
			</g>
			<rect x="565.1" y="1385.7" class="st0" width="173.7" height="105"/>
			<text transform="matrix(1 0 0 1 565.1014 1396.8655)" style="fill:#FFFFFF; font-family:'SpaceMono-Regular'; font-size:16px;">List of all </text>
			<text transform="matrix(1 0 0 1 565.1014 1416.0654)" style="fill:#FFFFFF; font-family:'SpaceMono-Regular'; font-size:16px;">available </text>
			<text transform="matrix(1 0 0 1 565.1014 1435.2655)" style="fill:#FFFFFF; font-family:'SpaceMono-Regular'; font-size:16px;">products</text>
			<text transform="matrix(1 0 0 1 643.4015 1435.2655)" style="fill:#FFFFFF; font-family:'ArialMT'; font-size:16px;">.</text>
		</g>
		<rect x="547.8" y="1330.4" class="st1" width="215.4" height="178.6"/>
	</g>
	<g>
		<g>
			<text transform="matrix(1 0 0 1 714.9763 1488.8213)" class="st2" style="font-family:'SpaceMono-Regular'; font-size:10px;">hard.</text>
			<path class="st2" d="M709.5,1492.4l-4.5-8.1l-2.4,1.4l-0.8-1.5l5.4-3l5.3,9.5L709.5,1492.4z"/>
		</g>
		<g>
			<path class="st3" d="M647,1492l-4.5-8.1l-2.4,1.4l-0.8-1.5l5.4-3l5.3,9.5L647,1492z"/>
			<text transform="matrix(1 0 0 1 652.5076 1488.8213)" class="st3" style="font-family:'SpaceMono-Regular'; font-size:10px;">med.</text>
		</g>
		<g>
			<text transform="matrix(1 0 0 1 579.4327 1488.8213)" class="st4" style="font-family:'SpaceMono-Regular'; font-size:10px;">base.</text>
			<path class="st4" d="M570.4,1492.6l-3.1-5.4l4.9-2.9l-0.8-1.4l-4.1,2.4l-0.7-1.2l6.6-3.8l2.3,3.9l-4.9,2.9l1.7,2.9l2.5-1.4
				l-0.2-0.4l2.5-1.4l1,1.6L570.4,1492.6z"/>
		</g>
	</g>
</g>
<g>
	<g>
		<g>
			<g>
				<path d="M659.8,622.9c33.1,0,66.3,0,99.4,0c2.9,0,2.6-0.2,2.6,2.5c0,45.7,0,91.3,0,137c0,6.6-4.2,10.7-11.1,10.7
					c-53.2,0-106.4,0-159.6,0c-7.4,0-14.8-0.1-22.2,0.1c-6.5,0.2-11.2-4.7-11.2-10.8c0.1-45.8,0.1-91.5,0.1-137.3
					c0-2.1,0-2.1,2.2-2.1C593.2,622.9,626.5,622.9,659.8,622.9z"/>
				<path d="M558.3,619.8c0-2.5,0-4.9,0-7.2c0-0.8,0-1.7,0-2.5c0-2.4,1.8-4.2,4.2-4.2c5.7,0,11.4,0,17.1,0c19,0,37.9,0,56.9,0
					c1.9,0,3.4,0.9,4.1,2.6c0.2,0.5,0.3,1.1,0.3,1.6c0,3,0,6.1,0,9.1c0,0.7,0,0.7-0.7,0.7c-9.2,0-18.4,0-27.6,0
					c-11.6,0-23.2,0-34.8,0c-6.2,0-12.4,0-18.6,0C558.9,619.8,558.6,619.8,558.3,619.8z M576.1,609.1c-3,0-6.1,0-9.1,0
					c-1.7,0-3.1,1-3.6,2.5c-0.8,2.5,0.9,5,3.8,4.9c5.8,0,11.6,0,17.5,0c0.3,0,0.7,0,1-0.1c1.3-0.2,2.3-0.9,2.8-2.1
					c1.1-2.4-0.7-5.2-3.3-5.2C582.2,609.1,579.1,609.1,576.1,609.1z M599,612.8c0-2.1-1.7-3.7-3.7-3.7s-3.7,1.7-3.7,3.7
					c0,2.1,1.6,3.7,3.7,3.7S599,614.8,599,612.8z M602.6,612.8c0,2.1,1.7,3.7,3.7,3.7s3.6-1.7,3.6-3.7s-1.6-3.7-3.7-3.7
					C604.3,609.1,602.6,610.8,602.6,612.8z M621,612.8c0-2-1.6-3.7-3.7-3.7c-2,0-3.7,1.6-3.7,3.7c0,2,1.7,3.7,3.7,3.7
					S621,614.9,621,612.8z"/>
				<path d="M576,614.6c-2.9,0-5.8,0-8.7,0c-0.3,0-0.6,0-0.8-0.1c-0.9-0.2-1.4-0.9-1.3-1.8c0.1-0.8,0.7-1.5,1.6-1.6
					c0.2,0,0.3,0,0.5,0c5.9,0,11.8,0,17.7,0c1.4,0,2.3,1.1,1.9,2.3c-0.3,0.8-0.9,1.2-1.9,1.2c-2.6,0-5.2,0-7.8,0
					C576.8,614.6,576.4,614.6,576,614.6z"/>
				<path d="M597.1,612.8c0,1-0.8,1.8-1.7,1.8c-1,0-1.7-0.8-1.7-1.8c0-0.9,0.8-1.7,1.7-1.7S597.1,611.8,597.1,612.8z"/>
				<path d="M604.6,612.8c0-1,0.8-1.8,1.7-1.8c1,0,1.7,0.8,1.7,1.7c0,0.9-0.7,1.7-1.7,1.7C605.4,614.6,604.6,613.8,604.6,612.8z"/>
				<path d="M619,612.8c0,1-0.7,1.7-1.7,1.7c-0.9,0-1.7-0.8-1.7-1.8s0.8-1.7,1.8-1.7C618.3,611.1,619,611.8,619,612.8z"/>
				<g>
					<text transform="matrix(1 0 0 1 569.6534 644.9927)" style="fill:#FFFFFF; font-family:'SPACEARMOR'; font-size:12px;">/user/profile</text>
				</g>
			</g>
			<rect x="569.3" y="655.4" class="st0" width="173.7" height="105"/>
			<text transform="matrix(1 0 0 1 569.3411 666.6455)" style="fill:#FFFFFF; font-family:'SpaceMono-Regular'; font-size:16px;">View and edit </text>
			<text transform="matrix(1 0 0 1 569.3411 685.8455)" style="fill:#FFFFFF; font-family:'SpaceMono-Regular'; font-size:16px;">user information, </text>
			<text transform="matrix(1 0 0 1 569.3411 705.0455)" style="fill:#FFFFFF; font-family:'SpaceMono-Regular'; font-size:16px;">order history </text>
			<text transform="matrix(1 0 0 1 569.3411 724.2455)" style="fill:#FFFFFF; font-family:'SpaceMono-Regular'; font-size:16px;">chronology.</text>
		</g>
		<rect x="552" y="600.2" class="st1" width="215.4" height="178.6"/>
	</g>
	<g>
		<g>
			<text transform="matrix(1 0 0 1 720.9763 759.6013)" class="st2" style="font-family:'SpaceMono-Regular'; font-size:10px;">hard.</text>
		</g>
		<g>
			<text transform="matrix(1 0 0 1 585.4327 759.6013)" class="st4" style="font-family:'SpaceMono-Regular'; font-size:10px;">base.</text>
			<path class="st4" d="M576.4,763.4l-3.1-5.4l4.9-2.9l-0.8-1.4l-4.1,2.4l-0.7-1.2l6.6-3.8l2.3,3.9l-4.9,2.9l1.7,2.9l2.5-1.4
				l-0.2-0.4l2.5-1.4l1,1.6L576.4,763.4z"/>
		</g>
	</g>
	<path class="st2" d="M716.4,761.5l-0.9-1.6l-6.3,3.7l-4.2-7.3l2.7-1.6l3.4,5.9l3.6-2.1l-3.4-5.9l2.7-1.6l3.4,5.9l0.9-0.5l0.8,1.4
		l-0.9,0.5l0.9,1.6L716.4,761.5z"/>
</g>
</svg>
