<?xml version="1.0" encoding="utf-8"?>
<!-- Generator: Adobe Illustrator 26.0.1, SVG Export Plug-In . SVG Version: 6.00 Build 0)  -->
<svg version="1.1" id="Слой_1" xmlns="http://www.w3.org/2000/svg" xmlns:xlink="http://www.w3.org/1999/xlink" x="0px" y="0px"
	 viewBox="0 0 74.6 73" style="enable-background:new 0 0 74.6 73;" xml:space="preserve">
<style type="text/css">
	.st0{fill:#FFFFFF;}
</style>
<path d="M37.2,16.4h34.5c1,0,0.9-0.1,0.9,0.9v49.2c0.2,1.9-1.3,3.6-3.2,3.8c-0.2,0-0.4,0-0.6,0H13.4c-2.6,0-5.1-0.1-7.7,0
	c-2.1,0.1-3.8-1.6-3.9-3.7c0-0.1,0-0.2,0-0.2V17c0-0.8,0-0.8,0.8-0.8C14.1,16.4,25.8,16.4,37.2,16.4z"/>
<path d="M1.9,14.6V6.2C1.8,4.3,3.3,2.7,5.2,2.7c0.1,0,0.2,0,0.3,0H69c1.5-0.1,2.9,0.8,3.5,2.2c0.2,0.4,0.3,0.9,0.3,1.4v7.8
	c0,0.6,0,0.6-0.6,0.6C72.2,14.7,1.9,14.7,1.9,14.6z M17.1,5.4H9.4C8,5.4,6.7,6.3,6.3,7.5c-0.6,1.7,0.3,3.5,2,4
	c0.4,0.1,0.9,0.2,1.3,0.2h15c0.3,0,0.6,0,0.9-0.1c1.1-0.1,2-0.8,2.4-1.8c0.7-1.6,0-3.4-1.6-4.1c-0.4-0.2-0.8-0.3-1.2-0.3L17.1,5.4z
	 M36.8,8.6c0-1.7-1.4-3.2-3.1-3.2c0,0-0.1,0-0.1,0c-1.7-0.1-3,1.2-3.1,2.9c0,0.1,0,0.2,0,0.3c0,1.7,1.4,3.2,3.1,3.2c0,0,0.1,0,0.1,0
	C35.4,11.8,36.7,10.4,36.8,8.6z M39.8,8.6c0,1.7,1.4,3.2,3.1,3.2c1.7,0,3.2-1.4,3.2-3.1c0,0,0,0,0,0c0-1.7-1.3-3.2-3.1-3.2
	c0,0,0,0,0,0C41.3,5.5,39.9,6.9,39.8,8.6z M55.5,8.6c0-1.7-1.3-3.2-3.1-3.2c0,0,0,0,0,0c-1.8,0-3.2,1.4-3.2,3.2s1.4,3.2,3.2,3.2
	C54.1,11.9,55.5,10.5,55.5,8.6C55.6,8.7,55.6,8.7,55.5,8.6z"/>
<path d="M17,10.1H9.6c-0.2,0-0.5,0-0.7-0.1C8.2,9.9,7.7,9.2,7.8,8.4C7.8,7.7,8.4,7.2,9.1,7h15.6c1.2,0,2,0.9,1.6,1.9
	c-0.2,0.7-0.9,1.1-1.6,1H18C17.8,10.1,17.5,10.1,17,10.1z"/>
<path d="M35.2,8.6c0,0.8-0.7,1.5-1.5,1.5s-1.5-0.7-1.5-1.5c0-0.8,0.6-1.5,1.4-1.5c0,0,0,0,0,0C34.4,7.1,35.1,7.8,35.2,8.6z"/>
<path d="M41.5,8.6c0-0.8,0.6-1.5,1.4-1.5c0,0,0,0,0.1,0c0.8,0,1.5,0.7,1.5,1.5c0,0.8-0.6,1.5-1.4,1.5c0,0,0,0,0,0
	C42.3,10.2,41.6,9.5,41.5,8.6z"/>
<path d="M54,8.6c0,0.8-0.6,1.5-1.4,1.5c0,0,0,0-0.1,0c-0.8,0-1.5-0.7-1.5-1.5s0.7-1.5,1.5-1.5S54,7.8,54,8.6z"/>
<path class="st0" d="M10.8,32.2c0.9,0.8,1.7,1.6,2.8,2.6c-0.5,0.3-0.9,0.7-1.3,1.1c-0.9,0.9-1.9,1.8-2.8,2.8
	c-0.6,0.4-0.7,1.2-0.3,1.8c0.1,0.1,0.1,0.2,0.2,0.2c1.3,1.4,2.7,2.7,4,4c0.6,0.6,1.5,0.6,2.1,0c0,0,0,0,0,0l3-3
	c0.3-0.3,0.6-0.6,0.9-0.8l0.7,0.7l3.2,3.2c0.4,0.6,1.1,0.7,1.7,0.3c0.1-0.1,0.2-0.2,0.3-0.3c1.4-1.3,2.7-2.7,4-4.1
	c0.6-0.5,0.6-1.3,0.1-1.9c0,0-0.1-0.1-0.1-0.1c-0.2-0.3-0.5-0.6-0.8-0.8c-1-1-2-2-3.1-3c0.3-0.4,0.6-0.6,0.8-0.9l3-3
	c0.6-0.4,0.7-1.3,0.3-1.8c-0.1-0.1-0.2-0.2-0.3-0.3L25.2,25c-0.5-0.6-1.4-0.7-2-0.2C23.2,24.9,23.1,25,23,25
	c-1.1,1.1-2.2,2.1-3.2,3.2c-0.2,0.2-0.4,0.3-0.6,0.5c-0.2-0.3-0.5-0.5-0.8-0.7l-3.1-3c-0.4-0.6-1.2-0.7-1.8-0.3
	c-0.1,0.1-0.2,0.1-0.2,0.2l-4.2,4.2c-0.5,0.4-0.6,1.2-0.1,1.7c0,0,0.1,0.1,0.1,0.1C9.8,31.4,10.2,31.8,10.8,32.2z"/>
<path class="st0" d="M12.8,57.2c1.1,1.7,2.2,3.4,3.4,5.1c0.9,1.3,1.4,1.4,2.7,0.6c9.9-6,20.3-6.9,31.1-2.9c2.1,0.8,4,2,6,3
	c0.9,0.5,1.6,0.5,2.1-0.2c1.4-2,2.7-4,4-6c0.4-0.5,0.3-1.3-0.3-1.7c0,0-0.1-0.1-0.1-0.1c-0.2-0.2-0.5-0.4-0.8-0.5
	c-6.9-4.4-14.9-6.7-23.1-6.7c-8.6-0.1-17.1,2.3-24.4,7C12.1,55.5,12.1,56.2,12.8,57.2z"/>
<path class="st0" d="M48.3,34c0.3,0.3,0.6,0.6,0.8,0.9c-1.3,1.3-2.6,2.5-3.8,3.7c-0.6,0.4-0.8,1.3-0.4,1.9c0.1,0.1,0.2,0.3,0.4,0.4
	l3,3c1.7,1.8,2,1.8,3.7,0l3.1-3.1c0.3,0.3,0.6,0.6,0.9,0.9l3,3c0.7,0.6,1.4,0.7,2,0.1l4.2-4.2c0.5-0.5,0.5-1.2,0.1-1.7
	c-0.1-0.1-0.1-0.1-0.2-0.2L64,37.5c-0.9-0.9-1.8-1.7-2.8-2.6c0.2-0.3,0.5-0.6,0.8-0.8l3.1-3.1c0.6-0.5,0.7-1.3,0.2-1.9
	c0-0.1-0.1-0.1-0.1-0.2c-1.3-1.4-2.7-2.7-4-4.1c-0.4-0.6-1.1-0.7-1.7-0.3c-0.1,0.1-0.2,0.2-0.3,0.3c-1,0.9-1.9,1.9-2.9,2.8
	c-0.4,0.3-0.7,0.6-1,1l-0.7-0.7l-3.2-3.2c-0.4-0.6-1.1-0.7-1.7-0.3c-0.1,0.1-0.2,0.2-0.3,0.3c-1.4,1.3-2.7,2.7-4.1,4
	c-0.7,0.7-0.6,1.3,0.1,2C46.3,31.9,47.3,33,48.3,34z"/>
<path class="st0" d="M10.8,32.3c0.9,0.8,1.7,1.6,2.8,2.6c-0.5,0.3-0.9,0.7-1.3,1.1c-0.9,0.9-1.9,1.8-2.8,2.8
	c-0.6,0.4-0.7,1.2-0.3,1.8c0.1,0.1,0.1,0.2,0.2,0.2c1.3,1.4,2.7,2.7,4,4c0.6,0.6,1.5,0.6,2.1,0c0,0,0,0,0,0l3-3
	c0.3-0.3,0.6-0.6,0.9-0.8l0.7,0.7l3.2,3.2c0.4,0.6,1.1,0.7,1.7,0.3c0.1-0.1,0.2-0.2,0.3-0.3c1.4-1.3,2.7-2.7,4-4.1
	c0.6-0.5,0.6-1.3,0.1-1.9c0,0-0.1-0.1-0.1-0.1c-0.2-0.3-0.5-0.6-0.8-0.8c-1-1-2-2-3.1-3c0.3-0.4,0.6-0.6,0.8-0.9l3-3
	c0.6-0.4,0.7-1.3,0.3-1.8c-0.1-0.1-0.2-0.2-0.3-0.3l-3.9-3.9c-0.5-0.6-1.4-0.7-2-0.2c-0.1,0.1-0.2,0.1-0.2,0.2
	c-1.1,1.1-2.2,2.1-3.2,3.2c-0.2,0.2-0.4,0.3-0.6,0.5c-0.2-0.3-0.5-0.5-0.8-0.7L15.3,25c-0.4-0.6-1.2-0.7-1.8-0.3
	c-0.1,0.1-0.2,0.1-0.2,0.2l-4.2,4.2c-0.5,0.4-0.6,1.2-0.1,1.7c0,0,0.1,0.1,0.1,0.1C9.8,31.5,10.2,32,10.8,32.3z"/>
<path class="st0" d="M12.8,57.3c1.1,1.7,2.2,3.4,3.4,5.1c0.9,1.3,1.4,1.4,2.7,0.6c9.9-6,20.3-6.9,31.1-2.9c2.1,0.8,4,2,6,3
	c0.9,0.5,1.6,0.5,2.1-0.2c1.4-2,2.7-4,4-6c0.4-0.5,0.3-1.3-0.3-1.7c0,0-0.1-0.1-0.1-0.1c-0.2-0.2-0.5-0.4-0.8-0.5
	C53.9,50.3,45.9,48,37.8,48c-8.6-0.1-17.1,2.3-24.4,7C12.1,55.7,12.1,56.2,12.8,57.3z"/>
<path class="st0" d="M48.3,34.2c0.3,0.3,0.6,0.6,0.8,0.9c-1.3,1.3-2.6,2.5-3.8,3.7c-0.6,0.4-0.8,1.3-0.4,1.9
	c0.1,0.1,0.2,0.3,0.4,0.4l3,3c1.7,1.8,2,1.8,3.7,0l3.1-3.1c0.3,0.3,0.6,0.6,0.9,0.9l3,3c0.7,0.6,1.4,0.7,2,0.1l4.2-4.2
	c0.5-0.5,0.5-1.2,0.1-1.7c-0.1-0.1-0.1-0.1-0.2-0.2L64,37.7c-0.9-0.9-1.8-1.7-2.8-2.6c0.2-0.3,0.5-0.6,0.8-0.8l3.1-3.1
	c0.6-0.5,0.7-1.3,0.2-1.9c0-0.1-0.1-0.1-0.1-0.2c-1.3-1.4-2.7-2.7-4-4.1c-0.4-0.6-1.1-0.7-1.7-0.3c-0.1,0.1-0.2,0.2-0.3,0.3
	c-1,0.9-1.9,1.9-2.9,2.8c-0.4,0.3-0.7,0.6-1,1l-0.7-0.7l-3.2-3.2c-0.4-0.6-1.1-0.7-1.7-0.3c-0.1,0.1-0.2,0.2-0.3,0.3
	c-1.4,1.3-2.7,2.7-4.1,4c-0.7,0.7-0.6,1.3,0.1,2C46.3,32,47.3,33.1,48.3,34.2z"/>
<path class="st0" d="M10.8,32.5c0.9,0.8,1.7,1.6,2.8,2.6c-0.5,0.3-0.9,0.7-1.3,1.1c-0.9,0.9-1.9,1.8-2.8,2.8
	c-0.6,0.4-0.7,1.2-0.3,1.8c0.1,0.1,0.1,0.2,0.2,0.2c1.3,1.4,2.7,2.7,4,4c0.6,0.6,1.5,0.6,2.1,0c0,0,0,0,0,0l3-3
	c0.3-0.3,0.6-0.6,0.9-0.8l0.7,0.7l3.2,3.2c0.4,0.6,1.1,0.7,1.7,0.3c0.1-0.1,0.2-0.2,0.3-0.3c1.4-1.3,2.7-2.7,4-4.1
	c0.6-0.5,0.6-1.3,0.1-1.9c0,0-0.1-0.1-0.1-0.1c-0.2-0.3-0.5-0.6-0.8-0.8c-1-1-2-2-3.1-3c0.3-0.4,0.6-0.6,0.8-0.9l3-3
	c0.6-0.4,0.7-1.3,0.3-1.8c-0.1-0.1-0.2-0.2-0.3-0.3l-3.9-3.9c-0.5-0.6-1.4-0.7-2-0.2c-0.1,0.1-0.2,0.1-0.2,0.2
	c-1.1,1.1-2.2,2.1-3.2,3.2c-0.2,0.2-0.4,0.3-0.6,0.5c-0.2-0.3-0.5-0.5-0.8-0.7l-3.1-3.1c-0.4-0.6-1.2-0.7-1.8-0.3
	c-0.1,0.1-0.2,0.1-0.2,0.2l-4.2,4.2c-0.5,0.4-0.6,1.2-0.1,1.7c0,0,0.1,0.1,0.1,0.1C9.8,31.5,10.2,32,10.8,32.5z"/>
<path class="st0" d="M12.8,57.5c1.1,1.7,2.2,3.4,3.4,5.1c0.9,1.3,1.4,1.4,2.7,0.6c9.9-6,20.3-6.9,31.1-2.9c2.1,0.8,4,2,6,3
	c0.9,0.5,1.6,0.5,2.1-0.2c1.4-2,2.7-4,4-6c0.4-0.5,0.3-1.3-0.3-1.7c0,0-0.1-0.1-0.1-0.1c-0.2-0.2-0.5-0.4-0.8-0.5
	c-6.9-4.4-14.9-6.7-23.1-6.7c-8.6-0.1-17.1,2.3-24.4,7C12.1,55.8,12.1,56.3,12.8,57.5z"/>
<path class="st0" d="M48.3,34.3c0.3,0.3,0.6,0.6,0.8,0.9c-1.3,1.3-2.6,2.5-3.8,3.7c-0.6,0.4-0.8,1.3-0.4,1.9
	c0.1,0.1,0.2,0.3,0.4,0.4l3,3c1.7,1.8,2,1.8,3.7,0l3.1-3.1c0.3,0.3,0.6,0.6,0.9,0.9l3,3c0.7,0.6,1.4,0.7,2,0.1l4.2-4.2
	c0.5-0.5,0.5-1.2,0.1-1.7c-0.1-0.1-0.1-0.1-0.2-0.2L64,37.8c-0.9-0.9-1.8-1.7-2.8-2.6c0.2-0.3,0.5-0.6,0.8-0.8l3.1-3.1
	c0.6-0.5,0.7-1.3,0.2-1.9c0-0.1-0.1-0.1-0.1-0.2c-1.3-1.4-2.7-2.7-4-4.1c-0.4-0.6-1.1-0.7-1.7-0.3c-0.1,0.1-0.2,0.2-0.3,0.3
	c-1,0.9-1.9,1.9-2.9,2.8c-0.4,0.3-0.7,0.6-1,1l-0.7-0.7L51.4,25c-0.4-0.6-1.1-0.7-1.7-0.3c-0.1,0.1-0.2,0.2-0.3,0.3
	c-1.4,1.3-2.7,2.7-4.1,4c-0.7,0.7-0.6,1.3,0.1,2C46.2,32.2,47.3,33.2,48.3,34.3z"/>
<path class="st0" d="M10.8,32.2c0.9,0.8,1.7,1.6,2.8,2.6c-0.5,0.3-0.9,0.7-1.3,1.1c-0.9,0.9-1.9,1.8-2.8,2.8
	c-0.6,0.4-0.7,1.2-0.3,1.8c0.1,0.1,0.1,0.2,0.2,0.2c1.3,1.4,2.7,2.7,4,4c0.6,0.6,1.5,0.6,2.1,0c0,0,0,0,0,0l3-3
	c0.3-0.3,0.6-0.6,0.9-0.8l0.7,0.7l3.2,3.2c0.4,0.6,1.1,0.7,1.7,0.3c0.1-0.1,0.2-0.2,0.3-0.3c1.4-1.3,2.7-2.7,4-4.1
	c0.6-0.5,0.6-1.3,0.1-1.9c0,0-0.1-0.1-0.1-0.1c-0.2-0.3-0.5-0.6-0.8-0.8c-1-1-2-2-3.1-3c0.3-0.4,0.6-0.6,0.8-0.9l3-3
	c0.6-0.4,0.7-1.3,0.3-1.8c-0.1-0.1-0.2-0.2-0.3-0.3L25.2,25c-0.5-0.6-1.4-0.7-2-0.2C23.2,24.9,23.1,25,23,25
	c-1.1,1.1-2.2,2.1-3.2,3.2c-0.2,0.2-0.4,0.3-0.6,0.5c-0.2-0.3-0.5-0.5-0.8-0.7l-3.1-3c-0.4-0.6-1.2-0.7-1.8-0.3
	c-0.1,0.1-0.2,0.1-0.2,0.2l-4.2,4.2c-0.5,0.4-0.6,1.2-0.1,1.7c0,0,0.1,0.1,0.1,0.1C9.8,31.4,10.2,31.8,10.8,32.2z"/>
<path class="st0" d="M12.8,57.2c1.1,1.7,2.2,3.4,3.4,5.1c0.9,1.3,1.4,1.4,2.7,0.6c9.9-6,20.3-6.9,31.1-2.9c2.1,0.8,4,2,6,3
	c0.9,0.5,1.6,0.5,2.1-0.2c1.4-2,2.7-4,4-6c0.4-0.5,0.3-1.3-0.3-1.7c0,0-0.1-0.1-0.1-0.1c-0.2-0.2-0.5-0.4-0.8-0.5
	c-6.9-4.4-14.9-6.7-23.1-6.7c-8.6-0.1-17.1,2.3-24.4,7C12.1,55.5,12.1,56.2,12.8,57.2z"/>
<path class="st0" d="M48.3,34c0.3,0.3,0.6,0.6,0.8,0.9c-1.3,1.3-2.6,2.5-3.8,3.7c-0.6,0.4-0.8,1.3-0.4,1.9c0.1,0.1,0.2,0.3,0.4,0.4
	l3,3c1.7,1.8,2,1.8,3.7,0l3.1-3.1c0.3,0.3,0.6,0.6,0.9,0.9l3,3c0.7,0.6,1.4,0.7,2,0.1l4.2-4.2c0.5-0.5,0.5-1.2,0.1-1.7
	c-0.1-0.1-0.1-0.1-0.2-0.2L64,37.5c-0.9-0.9-1.8-1.7-2.8-2.6c0.2-0.3,0.5-0.6,0.8-0.8l3.1-3.1c0.6-0.5,0.7-1.3,0.2-1.9
	c0-0.1-0.1-0.1-0.1-0.2c-1.3-1.4-2.7-2.7-4-4.1c-0.4-0.6-1.1-0.7-1.7-0.3c-0.1,0.1-0.2,0.2-0.3,0.3c-1,0.9-1.9,1.9-2.9,2.8
	c-0.4,0.3-0.7,0.6-1,1l-0.7-0.7l-3.2-3.2c-0.4-0.6-1.1-0.7-1.7-0.3c-0.1,0.1-0.2,0.2-0.3,0.3c-1.4,1.3-2.7,2.7-4.1,4
	c-0.7,0.7-0.6,1.3,0.1,2C46.3,31.9,47.3,33,48.3,34z"/>
<path d="M59,56.8l-2.4,3.6c-12.9-7-25.7-7-38.7,0l-1.2-1.8c-0.4-0.6-0.8-1.2-1.2-1.9c5.8-3.6,12.3-5.6,19.1-6
	C45,50,53.9,53.2,59,56.8z"/>
<path d="M62.3,30.1c-1.1,1.1-2.3,2.2-3.4,3.3s-1.2,1.7,0,2.9s2.3,2.2,3.5,3.4c-0.8,0.8-1.6,1.5-2.4,2.2c-1-0.9-2-2-3.1-3
	c-1.6-1.6-1.9-1.6-3.5,0l-3.1,3.1c-0.7-0.8-1.4-1.5-2.2-2.3c0.6-0.6,1.3-1.4,2.1-2.1c0.5-0.5,1.1-1,1.6-1.6c0.6-0.5,0.7-1.4,0.3-2
	c-0.1-0.1-0.2-0.2-0.3-0.3c-1.2-1.2-2.5-2.4-3.7-3.7c0.8-0.7,1.5-1.4,2.4-2.1l0.5,0.5l2.9,2.9c1,1,1.6,1,2.6,0l3-3l0.6-0.6
	C60.8,28.5,61.5,29.4,62.3,30.1z"/>
<path d="M26.5,30.1c-1.1,1.1-2.3,2.2-3.4,3.3s-1.2,1.7,0,2.9s2.3,2.2,3.5,3.4c-0.8,0.8-1.6,1.5-2.4,2.2c-1-0.9-2-2-3.1-3
	c-1.6-1.6-1.9-1.6-3.5,0l-3.1,3.1c-0.7-0.8-1.4-1.5-2.2-2.3c0.6-0.6,1.3-1.4,2.1-2.1c0.5-0.5,1.1-1,1.6-1.6c0.6-0.5,0.7-1.4,0.3-2
	c-0.1-0.1-0.2-0.2-0.3-0.3c-1.2-1.2-2.5-2.4-3.7-3.7c0.8-0.7,1.5-1.4,2.4-2.1l0.5,0.5l2.9,2.9c1,1,1.6,1,2.6,0l3-3l0.6-0.6
	C25,28.5,25.6,29.4,26.5,30.1z"/>
</svg>
