<?xml version="1.0" encoding="utf-8"?>
<!-- Generator: Adobe Illustrator 26.0.1, SVG Export Plug-In . SVG Version: 6.00 Build 0)  -->
<svg version="1.1" id="Слой_1" xmlns="http://www.w3.org/2000/svg" xmlns:xlink="http://www.w3.org/1999/xlink" x="0px" y="0px"
	 viewBox="0 0 448 800" style="enable-background:new 0 0 448 800;" xml:space="preserve">
<style type="text/css">
	.st0{fill:#FFFFFF;}
	.st1{enable-background:new    ;}
</style>
<g>
	<path d="M-51,406.3c0,1.5-1.2,2.7-2.6,2.7h-0.1c-1.5,0-2.7-1.2-2.7-2.7s1.2-2.7,2.7-2.7S-51,404.8-51,406.3z"/>
	<path class="st0" d="M58.9,93.2c5.6,5,10.5,9.9,17.4,16.1c-2.9,2-5.6,4.3-8.1,6.8c-5.6,5.6-11.8,11.2-17.4,17.4
		c-3.6,2.5-4.4,7.4-1.9,11c0.4,0.5,0.8,1,1.3,1.4c8.1,8.7,16.7,16.7,24.8,24.8c3.4,3.6,9.1,3.7,12.7,0.3c0.1-0.1,0.2-0.2,0.3-0.3
		l18.6-18.6c1.7-1.8,3.6-3.5,5.6-5l4.3,4.3l19.8,19.8c2.3,3.4,7,4.3,10.4,2c0.8-0.5,1.4-1.2,2-2c8.7-8.1,16.7-16.7,24.8-25.4
		c3.4-3.1,3.7-8.3,0.7-11.7c-0.2-0.2-0.4-0.5-0.7-0.7c-1.5-1.8-3.2-3.5-5-5c-6.2-6.2-12.4-12.4-19.2-18.6c1.9-2.5,3.7-3.7,5-5.6
		l18.6-18.6c3.6-2.7,4.3-7.8,1.7-11.4c-0.5-0.6-1-1.2-1.7-1.7l-24.1-24c-3-3.8-8.5-4.4-12.3-1.4c-0.5,0.4-1,0.9-1.4,1.4
		c-6.8,6.8-13.6,13-19.8,19.8c-1.2,1.2-2.5,1.9-3.7,3.1c-1.5-1.6-3.2-3.1-5-4.3L87.4,48.2c-2.5-3.6-7.4-4.4-11-1.9
		c-0.5,0.4-1,0.8-1.4,1.3l-26,26c-3.1,2.7-3.4,7.3-0.8,10.4c0.2,0.3,0.5,0.5,0.8,0.8C52.7,87.6,55.8,90.1,58.9,93.2z"/>
	<path class="st0" d="M71.3,248.1c6.8,10.5,13.6,21.1,21.1,31.6c5.6,8.1,8.7,8.7,16.7,3.7c61.4-37.2,125.8-42.8,192.8-18
		c13,5,24.8,12.4,37.2,18.6c5.6,3.1,9.9,3.1,13-1.2c8.7-12.4,16.7-24.8,24.8-37.2c2.5-3.4,1.8-8.1-1.6-10.6
		c-0.3-0.2-0.6-0.4-0.9-0.6c-1.5-1.3-3.2-2.3-5-3.1c-42.8-27.2-92.5-41.6-143.2-41.5C172.6,189,120,204.1,75,233.2
		C67.6,237,66.9,241.3,71.3,248.1z"/>
	<path class="st0" d="M291.9,104.3c1.8,1.7,3.4,3.6,5,5.6c-8.1,8.1-16.1,15.5-23.6,22.9c-3.9,2.7-4.9,8.1-2.2,12.1
		c0.6,0.9,1.3,1.6,2.2,2.2l18.6,18.6c10.5,11.2,12.4,11.2,22.9,0l19.2-19.2c2,1.7,3.9,3.6,5.6,5.6l18.6,18.6
		c4.3,3.7,8.7,4.3,12.4,0.6l26-26c3.1-2.8,3.3-7.7,0.5-10.8c-0.3-0.4-0.7-0.7-1.1-1l-7.1-7.4c-5.6-5.6-11.2-10.5-17.4-16.1
		c1.5-1.8,3.2-3.5,5-5l19.3-19.3c3.7-2.9,4.4-8.3,1.5-12c-0.3-0.4-0.6-0.7-0.9-1c-8.1-8.7-16.7-16.7-24.8-25.4
		c-2.3-3.4-7-4.3-10.4-2c-0.8,0.5-1.4,1.2-2,2c-6.2,5.6-11.8,11.8-18,17.4c-2.2,1.9-4.3,4-6.2,6.2l-4.3-4.3l-19.9-19.9
		c-2.3-3.4-7-4.3-10.4-2c-0.8,0.5-1.4,1.2-2,2c-8.7,8.1-16.7,16.7-25.4,24.8c-4.3,4.3-3.7,8.1,0.6,12.4
		C279.3,91.1,285.4,97.9,291.9,104.3z"/>
	<path class="st0" d="M58.9,93.8c5.6,5,10.5,9.9,17.4,16.1c-2.9,2-5.6,4.3-8.1,6.8c-5.6,5.6-11.8,11.2-17.4,17.4
		c-3.6,2.5-4.4,7.4-1.9,11c0.4,0.5,0.8,1,1.3,1.4c8.1,8.7,16.7,16.7,24.8,24.8c3.4,3.6,9.1,3.7,12.7,0.3c0.1-0.1,0.2-0.2,0.3-0.3
		l18.6-18.6c1.7-1.8,3.6-3.5,5.6-5l4.3,4.3l19.8,19.8c2.3,3.4,7,4.3,10.4,2c0.8-0.5,1.4-1.2,2-2c8.7-8.1,16.7-16.7,24.8-25.4
		c3.4-3.1,3.7-8.3,0.7-11.7c-0.2-0.2-0.4-0.5-0.7-0.7c-1.5-1.8-3.2-3.5-5-5c-6.2-6.2-12.4-12.4-19.2-18.6c1.9-2.5,3.7-3.7,5-5.6
		l18.6-18.6c3.6-2.7,4.3-7.8,1.7-11.4c-0.5-0.6-1-1.2-1.7-1.7l-24.1-23.9c-3-3.8-8.5-4.4-12.3-1.4c-0.5,0.4-1,0.9-1.4,1.4
		c-6.8,6.8-13.6,13-19.8,19.8c-1.2,1.2-2.5,1.9-3.7,3.1c-1.5-1.6-3.2-3.1-5-4.3L87.4,48.6c-2.5-3.6-7.4-4.4-11-1.9
		c-0.5,0.4-1,0.8-1.4,1.3L49,74c-3.1,2.7-3.4,7.3-0.8,10.4c0.2,0.3,0.5,0.5,0.8,0.8C52.7,88.2,55.8,91.6,58.9,93.8z"/>
	<path class="st0" d="M71.3,248.8c6.8,10.5,13.6,21.1,21.1,31.6c5.6,8.1,8.7,8.7,16.7,3.7c61.4-37.2,125.8-42.8,192.8-18
		c13,5,24.8,12.4,37.2,18.6c5.6,3.1,9.9,3.1,13-1.2c8.7-12.4,16.7-24.8,24.8-37.2c2.5-3.4,1.8-8.1-1.6-10.6
		c-0.3-0.2-0.6-0.4-0.9-0.6c-1.5-1.3-3.2-2.3-5-3.1c-42.8-27.1-92.5-41.4-143.2-41.2C172.6,190,120,205.1,75,234.2
		C67.6,238.2,66.9,241.9,71.3,248.8z"/>
	<path class="st0" d="M291.9,105c1.8,1.7,3.4,3.6,5,5.6c-8.1,8.1-16.1,15.5-23.6,22.9c-3.9,2.7-4.9,8.1-2.2,12.1
		c0.6,0.9,1.3,1.6,2.2,2.2l18.6,18.6c10.5,11.2,12.4,11.2,22.9,0l19.2-19.2c2,1.7,3.9,3.6,5.6,5.6l18.6,18.6
		c4.3,3.7,8.7,4.3,12.4,0.6l26-26c3.1-2.8,3.3-7.7,0.5-10.8c-0.3-0.4-0.7-0.7-1.1-1l-7.1-7.4c-5.6-5.6-11.2-10.5-17.4-16.1
		c1.5-1.8,3.2-3.5,5-5l19.3-19.3c3.7-2.9,4.4-8.3,1.5-12c-0.3-0.4-0.6-0.7-0.9-1c-8.1-8.7-16.7-16.7-24.8-25.4
		c-2.3-3.4-7-4.3-10.4-2c-0.8,0.5-1.4,1.2-2,2c-6.2,5.6-11.8,11.8-18,17.4c-2.2,1.9-4.3,4-6.2,6.2l-4.3-4.3l-19.9-20
		c-2.3-3.4-7-4.3-10.4-2c-0.8,0.5-1.4,1.2-2,2c-8.7,8.1-16.7,16.7-25.4,24.8c-4.3,4.3-3.7,8.1,0.6,12.4
		C279.1,91.9,285.2,98.7,291.9,105z"/>
	<path class="st0" d="M58.9,94.4c5.6,5,10.5,9.9,17.4,16.1c-2.9,2-5.6,4.3-8.1,6.8c-5.6,5.6-11.8,11.2-17.4,17.4
		c-3.6,2.5-4.4,7.4-1.9,11c0.4,0.5,0.8,1,1.3,1.4c8.1,8.7,16.7,16.7,24.8,24.8c3.4,3.6,9.1,3.7,12.7,0.3c0.1-0.1,0.2-0.2,0.3-0.3
		l18.6-18.6c1.7-1.8,3.6-3.5,5.6-5l4.3,4.3l19.8,19.8c2.3,3.4,7,4.3,10.4,2c0.8-0.5,1.4-1.2,2-2c8.7-8.1,16.7-16.7,24.8-25.4
		c3.4-3.1,3.7-8.3,0.7-11.7c-0.2-0.2-0.4-0.5-0.7-0.7c-1.5-1.8-3.2-3.5-5-5c-6.2-6.2-12.4-12.4-19.2-18.6c1.9-2.5,3.7-3.7,5-5.6
		L172.9,87c3.6-2.7,4.3-7.8,1.7-11.4c-0.5-0.6-1-1.2-1.7-1.7l-24.1-24.1c-3-3.8-8.5-4.4-12.3-1.4c-0.5,0.4-1,0.9-1.4,1.4
		c-6.8,6.8-13.6,13-19.8,19.8c-1.2,1.2-2.5,1.9-3.7,3.1c-1.5-1.6-3.2-3.1-5-4.3L87.4,49.2c-2.5-3.6-7.4-4.4-11-1.9
		c-0.5,0.4-1,0.8-1.4,1.3l-26,26c-3.1,2.7-3.4,7.3-0.8,10.4c0.2,0.3,0.5,0.5,0.8,0.8C52.7,88.8,55.8,91.9,58.9,94.4z"/>
	<path class="st0" d="M71.3,250c6.8,10.5,13.6,21.1,21.1,31.6c5.6,8.1,8.7,8.7,16.7,3.7c61.4-37.2,125.8-42.8,192.8-18
		c13,5,24.8,12.4,37.2,18.6c5.6,3.1,9.9,3.1,13-1.2c8.7-12.4,16.7-24.8,24.8-37.2c2.5-3.4,1.8-8.1-1.6-10.6
		c-0.3-0.2-0.6-0.4-0.9-0.6c-1.5-1.3-3.2-2.3-5-3.1c-42.8-27.2-92.5-41.6-143.2-41.5C172.6,190.9,120,206,75,235.1
		C67.6,238.8,66.9,242.6,71.3,250z"/>
	<path class="st0" d="M291.9,106.2c1.8,1.7,3.4,3.6,5,5.6c-8.1,8.1-16.1,15.5-23.6,22.9c-3.9,2.7-4.9,8.1-2.2,12.1
		c0.6,0.9,1.3,1.6,2.2,2.2l18.6,18.6c10.5,11.2,12.4,11.2,22.9,0l19.2-19.2c2,1.7,3.9,3.6,5.6,5.6l18.6,18.6
		c4.3,3.7,8.7,4.3,12.4,0.6l26-26c3.1-2.8,3.3-7.7,0.5-10.8c-0.3-0.4-0.7-0.7-1.1-1l-7.1-7.4c-5.6-5.6-11.2-10.5-17.4-16.1
		c1.5-1.8,3.2-3.5,5-5l19.3-19.3c3.7-2.9,4.4-8.3,1.5-12c-0.3-0.4-0.6-0.7-0.9-1c-8.1-8.7-16.7-16.7-24.8-25.4
		c-2.3-3.4-7-4.3-10.4-2c-0.8,0.5-1.4,1.2-2,2c-6.2,5.6-11.8,11.8-18,17.4c-2.2,1.9-4.3,4-6.2,6.2l-4.3-4.3l-19.9-20
		c-2.3-3.4-7-4.3-10.4-2c-0.8,0.5-1.4,1.2-2,2c-8.7,8.1-16.7,16.7-25.4,24.8c-4.3,4.3-3.7,8.1,0.6,12.4
		C278.9,93.2,285.7,99.4,291.9,106.2z"/>
	<path d="M58.9,93.2c5.6,5,10.5,9.9,17.4,16.1c-2.9,2-5.6,4.3-8.1,6.8c-5.6,5.6-11.8,11.2-17.4,17.4c-3.6,2.5-4.4,7.4-1.9,11
		c0.4,0.5,0.8,1,1.3,1.4c8.1,8.7,16.7,16.7,24.8,24.8c3.4,3.6,9.1,3.7,12.7,0.3c0.1-0.1,0.2-0.2,0.3-0.3l18.6-18.6
		c1.7-1.8,3.6-3.5,5.6-5l4.3,4.3l19.8,19.8c2.3,3.4,7,4.3,10.4,2c0.8-0.5,1.4-1.2,2-2c8.7-8.1,16.7-16.7,24.8-25.4
		c3.4-3.1,3.7-8.3,0.7-11.7c-0.2-0.2-0.4-0.5-0.7-0.7c-1.5-1.8-3.2-3.5-5-5c-6.2-6.2-12.4-12.4-19.2-18.6c1.9-2.5,3.7-3.7,5-5.6
		l18.6-18.6c3.6-2.7,4.3-7.8,1.7-11.4c-0.5-0.6-1-1.2-1.7-1.7l-24.1-24c-3-3.8-8.5-4.4-12.3-1.4c-0.5,0.4-1,0.9-1.4,1.4
		c-6.8,6.8-13.6,13-19.8,19.8c-1.2,1.2-2.5,1.9-3.7,3.1c-1.5-1.6-3.2-3.1-5-4.3L87.4,48.2c-2.5-3.6-7.4-4.4-11-1.9
		c-0.5,0.4-1,0.8-1.4,1.3l-26,26c-3.1,2.7-3.4,7.3-0.8,10.4c0.2,0.3,0.5,0.5,0.8,0.8C52.7,87.6,55.8,90.1,58.9,93.2z"/>
	<path d="M71.3,248.1c6.8,10.5,13.6,21.1,21.1,31.6c5.6,8.1,8.7,8.7,16.7,3.7c61.4-37.2,125.8-42.8,192.8-18
		c13,5,24.8,12.4,37.2,18.6c5.6,3.1,9.9,3.1,13-1.2c8.7-12.4,16.7-24.8,24.8-37.2c2.5-3.4,1.8-8.1-1.6-10.6
		c-0.3-0.2-0.6-0.4-0.9-0.6c-1.5-1.3-3.2-2.3-5-3.1c-42.8-27.2-92.5-41.6-143.2-41.5C172.6,189,120,204.1,75,233.2
		C67.6,237,66.9,241.3,71.3,248.1z"/>
	<path d="M291.9,104.3c1.8,1.7,3.4,3.6,5,5.6c-8.1,8.1-16.1,15.5-23.6,22.9c-3.9,2.7-4.9,8.1-2.2,12.1c0.6,0.9,1.3,1.6,2.2,2.2
		l18.6,18.6c10.5,11.2,12.4,11.2,22.9,0l19.2-19.2c2,1.7,3.9,3.6,5.6,5.6l18.6,18.6c4.3,3.7,8.7,4.3,12.4,0.6l26-26
		c3.1-2.8,3.3-7.7,0.5-10.8c-0.3-0.4-0.7-0.7-1.1-1l-7.1-7.4c-5.6-5.6-11.2-10.5-17.4-16.1c1.5-1.8,3.2-3.5,5-5l19.3-19.3
		c3.7-2.9,4.4-8.3,1.5-12c-0.3-0.4-0.6-0.7-0.9-1c-8.1-8.7-16.7-16.7-24.8-25.4c-2.3-3.4-7-4.3-10.4-2c-0.8,0.5-1.4,1.2-2,2
		c-6.2,5.6-11.8,11.8-18,17.4c-2.2,1.9-4.3,4-6.2,6.2l-4.3-4.3l-19.9-19.9c-2.3-3.4-7-4.3-10.4-2c-0.8,0.5-1.4,1.2-2,2
		c-8.7,8.1-16.7,16.7-25.4,24.8c-4.3,4.3-3.7,8.1,0.6,12.4C279.3,91.1,285.4,97.9,291.9,104.3z"/>
	<path class="st0" d="M358,245l-14.9,22.3c-80-43.4-159.3-43.4-239.9,0l-7.4-11.2c-2.5-3.7-5-7.4-7.4-11.8
		c35.8-22,76.5-34.8,118.4-37.2C271.2,203.2,326.3,223.3,358,245z"/>
	<path class="st0" d="M378.7,80.2c-6.8,6.8-14.3,13.6-21.1,20.5c-6.8,6.8-7.4,10.5,0,18c7.4,7.4,14.3,13.6,21.7,21.1
		c-5,5-9.9,9.3-14.9,13.6c-6.2-5.6-12.4-12.4-19.2-18.6c-9.9-9.9-11.8-9.9-21.7,0L304.3,154c-4.3-5-8.7-9.3-13.6-14.3
		c3.7-3.7,8.1-8.7,13-13c3.1-3.1,6.8-6.2,9.9-9.9c3.9-3.1,4.6-8.8,1.6-12.7c-0.5-0.6-1-1.1-1.6-1.6c-7.4-7.4-15.5-14.9-22.9-22.9
		c5-4.3,9.3-8.7,14.9-13l3.1,3.1l18,18c6.2,6.2,9.9,6.2,16.1,0L361.4,69l3.7-3.7C369.4,70.2,373.8,75.2,378.7,80.2z"/>
	<path class="st0" d="M156.2,80.2c-6.8,6.8-14.3,13.6-21.1,20.5c-6.8,6.8-7.4,10.5,0,18c7.4,7.5,14.3,13.6,21.7,21.1
		c-5,5-9.9,9.3-14.9,13.6c-6.2-5.6-12.4-12.4-19.2-18.6c-9.9-9.9-11.8-9.9-21.7,0l-19.2,19.1c-4.3-5-8.7-9.3-13.6-14.3
		c3.7-3.7,8.1-8.7,13-13c3.1-3.1,6.8-6.2,9.9-9.9c3.9-3.1,4.6-8.8,1.6-12.7c-0.5-0.6-1-1.1-1.6-1.6C83.7,95,75.6,87.5,68.2,79.5
		c5-4.3,9.3-8.7,14.9-13l3.1,3.1l18,18c6.2,6.2,9.9,6.2,16.1,0L138.8,69l3.7-3.7C147.2,70.2,151.2,75.2,156.2,80.2z"/>
	<g>
		<path d="M95.8,542.3v-21.6H8.5v-99.8h37.4l0.3,81.2h49.9L96,420.9h37.4l0.2,81.2h12.5l-0.2,18.6h-12.6v21.5L95.8,542.3z"/>
		<path d="M161.6,542.3l-0.3-121.6H286v121.4L161.6,542.3z M248.5,479.8l-0.2-40.3h-50l0.2,65.4L248.5,479.8z M248.7,523.5l0.2-18.6
			l-37.3,18.8L248.7,523.5z"/>
		<path d="M389,542.2v-21.6h-87.3v-99.8h37.4l0.2,81.2h49.9l-0.2-81.2h37.4l0.2,81.2h12.5l-0.3,18.6h-12.5v21.6H389z"/>
	</g>
	<g>
		<g>
			<path d="M151.1,654.3c-0.7,0-1.4,0.1-2.1,0.2c-0.7,0.2-1.4,0.4-2,0.8c-0.6,0.3-1.1,0.8-1.4,1.3c-0.4,0.5-0.6,1.1-0.6,1.8
				c0,1.1,0.5,1.9,1.4,2.4s2.6,0.9,4.9,1c2.4,0.2,4.3,0.8,5.6,1.8s2,2.6,2,4.6c0,1.4-0.3,2.6-0.9,3.8c-0.6,1.1-1.4,2-2.4,2.8
				s-2.3,1.3-3.7,1.7s-3,0.6-4.7,0.6s-3.1-0.2-4.3-0.7s-2.2-1.1-2.9-1.8c-0.8-0.8-1.3-1.6-1.7-2.5s-0.5-1.9-0.5-2.9
				c0-0.2,0-0.3,0-0.5s0-0.4,0-0.5l3.9-0.5c0,0.3,0,0.4,0,0.5s0,0.2,0,0.3c0,0.7,0.1,1.4,0.3,2s0.6,1.1,1.1,1.6s1.1,0.8,2,1.1
				c0.8,0.3,1.8,0.4,2.9,0.4c0.8,0,1.6-0.1,2.4-0.3c0.8-0.2,1.6-0.5,2.2-0.9c0.7-0.4,1.2-0.9,1.6-1.4c0.4-0.6,0.7-1.3,0.7-2.1
				c0-1.3-0.5-2.2-1.6-2.6c-1-0.5-2.6-0.8-4.7-0.9c-2.4-0.2-4.2-0.7-5.6-1.7s-2-2.5-2-4.6c0-1.2,0.2-2.2,0.8-3.2s1.2-1.9,2.1-2.6
				c0.9-0.7,2-1.3,3.3-1.7s2.7-0.6,4.3-0.6c1.5,0,2.9,0.2,4,0.6c1.1,0.4,2,1,2.8,1.6c0.7,0.7,1.2,1.4,1.6,2.3
				c0.4,0.8,0.5,1.7,0.5,2.6v0.5l-3.9,0.5v-0.2c0-0.1,0-0.1,0-0.2c0,0,0-0.1,0-0.2c0-1.3-0.5-2.3-1.4-3
				C154.3,654.7,152.9,654.3,151.1,654.3z"/>
			<path d="M190.4,667.8c-0.4,1.3-1,2.5-1.8,3.6s-1.7,2.1-2.9,2.9c-1.2,0.8-2.5,1.5-4,2s-3.2,0.7-5.1,0.7c-1.6,0-3-0.2-4.3-0.7
				s-2.4-1.2-3.3-2.1c-0.9-0.9-1.6-2-2.1-3.2s-0.8-2.7-0.8-4.2c0-2.2,0.4-4.2,1.1-6.2c0.8-1.9,1.8-3.6,3.2-5.1s3-2.6,4.9-3.4
				c1.9-0.8,4.1-1.2,6.5-1.2c1.5,0,2.9,0.2,4.1,0.7c1.2,0.4,2.3,1,3.1,1.8c0.9,0.8,1.5,1.7,2,2.8s0.7,2.3,0.7,3.6c0,0.1,0,0.1,0,0.2
				s0,0.3,0,0.5l-4,0.6c0-0.2,0-0.4,0-0.5s0-0.2,0-0.3c0-0.8-0.1-1.5-0.4-2.2c-0.2-0.7-0.6-1.3-1.2-1.8c-0.5-0.5-1.2-0.9-2.1-1.2
				c-0.9-0.3-1.9-0.5-3-0.5c-1.6,0-3,0.3-4.3,1c-1.3,0.6-2.5,1.5-3.5,2.6s-1.8,2.3-2.3,3.8c-0.6,1.4-0.8,2.9-0.8,4.5
				c0,2.4,0.6,4.1,1.9,5.3c1.3,1.1,3,1.7,5.2,1.7c1.3,0,2.5-0.2,3.5-0.6c1-0.4,1.9-0.9,2.7-1.5s1.4-1.3,1.9-2.1s0.9-1.6,1.1-2.5
				L190.4,667.8z"/>
			<path d="M205.2,655.8c0.1-0.4,0-0.7-0.2-0.9s-0.5-0.3-0.8-0.3s-0.5,0.1-0.8,0.2l-4.5,3.1l-2-2.9l4.5-3c1.1-0.8,2.3-1.2,3.4-1.2
				c1,0,1.9,0.3,2.7,0.9c0.8,0.6,1.2,1.5,1.3,2.8h0.6c1-1.4,2-2.3,3.2-2.9s2.5-0.8,3.8-0.8c2.4,0,4.3,0.7,5.6,2.1
				c1.4,1.4,2.1,3.2,2.1,5.5c0,0.9-0.1,1.8-0.3,2.7l-4.2,0.3c0.2-0.8,0.2-1.5,0.2-2.1c0-1.6-0.4-2.8-1.3-3.6c-0.9-0.8-2-1.1-3.4-1.1
				c-1,0-1.9,0.2-2.7,0.6c-0.8,0.4-1.5,0.9-2.1,1.5s-1.1,1.4-1.5,2.3c-0.4,0.9-0.7,1.8-0.9,2.7l-2.3,11.1h5.9v3.6h-15.9v-3.6h6.1
				L205.2,655.8z"/>
			<path d="M242.5,650.8c1.4,0,2.8,0.2,4,0.8c1.2,0.5,2.3,1.2,3.2,2.1c0.9,0.9,1.6,2,2.1,3.2s0.8,2.6,0.8,4.1c0,2.1-0.3,4.1-1,6
				s-1.7,3.6-3,5.1s-2.9,2.7-4.8,3.6c-1.9,0.9-4.1,1.4-6.5,1.4c-1.4,0-2.7-0.2-3.9-0.7s-2.3-1.2-3.2-2c-0.9-0.9-1.6-1.9-2.2-3.2
				s-0.8-2.6-0.8-4.2c0-2.4,0.4-4.6,1.2-6.6s1.9-3.7,3.4-5.1c1.4-1.4,3.1-2.5,4.9-3.3C238.5,651.2,240.4,650.8,242.5,650.8z
				 M238.1,673.3c1.5,0,3-0.3,4.2-1c1.3-0.7,2.4-1.6,3.3-2.7c0.9-1.1,1.7-2.4,2.2-3.8c0.5-1.4,0.8-2.9,0.8-4.5c0-2-0.6-3.6-1.8-4.9
				s-2.9-1.9-5.1-1.9c-1.4,0-2.8,0.3-4,1c-1.3,0.6-2.4,1.5-3.3,2.6s-1.7,2.4-2.3,3.8c-0.6,1.5-0.9,3-0.9,4.6c0,2,0.6,3.6,1.8,4.9
				C234.2,672.6,235.9,673.3,238.1,673.3z"/>
			<path d="M271.9,645.6c0.1-0.4,0.1-0.7-0.1-0.9c-0.2-0.2-0.4-0.3-0.8-0.3c-0.2,0-0.5,0.1-0.8,0.2l-5.8,4l-2-3l5.9-4
				c0.5-0.4,1.1-0.6,1.7-0.8c0.6-0.2,1.1-0.2,1.7-0.2c1.1,0,2.1,0.3,2.9,1c0.8,0.7,1.3,1.7,1.3,3.1c0,0.6-0.1,1.1-0.2,1.6l-6,25.7
				c-0.1,0.4-0.1,0.7,0.1,0.9c0.2,0.2,0.4,0.4,0.7,0.4c0.2,0,0.5-0.1,0.8-0.2l5.8-3.9l2,3l-5.8,3.9c-1.1,0.7-2.2,1-3.3,1
				s-2.1-0.3-2.9-1c-0.8-0.7-1.3-1.7-1.3-3.1c0-0.6,0.1-1.1,0.2-1.6L271.9,645.6z"/>
			<path d="M302.5,645.6c0.1-0.4,0.1-0.7-0.1-0.9c-0.2-0.2-0.4-0.3-0.8-0.3c-0.2,0-0.5,0.1-0.8,0.2l-5.8,4l-2-3l5.9-4
				c0.5-0.4,1.1-0.6,1.7-0.8c0.6-0.2,1.1-0.2,1.7-0.2c1.1,0,2.1,0.3,2.9,1c0.8,0.7,1.3,1.7,1.3,3.1c0,0.6-0.1,1.1-0.2,1.6l-6,25.7
				c-0.1,0.4-0.1,0.7,0.1,0.9c0.2,0.2,0.4,0.4,0.7,0.4c0.2,0,0.5-0.1,0.8-0.2l5.8-3.9l2,3l-5.8,3.9c-1.1,0.7-2.2,1-3.3,1
				s-2.1-0.3-2.9-1c-0.8-0.7-1.3-1.7-1.3-3.1c0-0.6,0.1-1.1,0.2-1.6L302.5,645.6z"/>
			<path d="M182.4,712.4c-1.1,1.8-2.3,3-3.8,3.6c-1.5,0.7-3,1-4.6,1c-1.3,0-2.6-0.2-3.6-0.7c-1.1-0.5-2-1.1-2.8-2s-1.4-1.9-1.8-3.1
				c-0.4-1.2-0.6-2.6-0.6-4c0-2.1,0.3-4.1,0.9-6.1c0.6-2,1.6-3.7,2.8-5.2s2.7-2.8,4.4-3.7s3.8-1.4,6-1.4c1.8,0,3.2,0.4,4.4,1.1
				c1.2,0.7,2,1.9,2.4,3.5h0.6l3.1-14.8h3.9l-6.7,31.5c-0.1,0.6,0.1,0.9,0.6,0.9c0.2,0,0.4-0.1,0.6-0.2l1.8-1.3l2.1,2.9l-2.2,1.7
				c-0.4,0.3-0.8,0.5-1.3,0.7s-1.1,0.2-1.7,0.2c-0.5,0-1-0.1-1.4-0.2c-0.5-0.1-0.9-0.3-1.3-0.6c-0.4-0.3-0.7-0.7-0.9-1.1
				c-0.2-0.5-0.4-1-0.4-1.7c0-0.2,0-0.3,0-0.5s0-0.3,0.1-0.5L182.4,712.4L182.4,712.4z M175.2,713.3c1.3,0,2.6-0.3,3.8-0.9
				c1.2-0.6,2.3-1.5,3.2-2.5c0.9-1.1,1.6-2.3,2.2-3.8c0.5-1.5,0.8-3,0.8-4.7c0-2.1-0.5-3.7-1.5-5c-1-1.2-2.5-1.9-4.5-1.9
				c-1.6,0-3,0.3-4.2,1s-2.3,1.6-3.1,2.7c-0.9,1.1-1.5,2.4-2,3.9s-0.7,3-0.7,4.5C169.2,711.1,171.2,713.3,175.2,713.3z"/>
			<path d="M211.9,690.8c1.4,0,2.8,0.2,4,0.8c1.2,0.5,2.3,1.2,3.2,2.1c0.9,0.9,1.6,2,2.1,3.2s0.8,2.6,0.8,4.1c0,2.1-0.3,4.1-1,6
				s-1.7,3.6-3,5.1s-2.9,2.7-4.9,3.6c-1.9,0.9-4.1,1.4-6.5,1.4c-1.4,0-2.7-0.2-4-0.7c-1.2-0.5-2.3-1.2-3.2-2
				c-0.9-0.9-1.6-1.9-2.2-3.2s-0.8-2.6-0.8-4.2c0-2.4,0.4-4.6,1.2-6.6s1.9-3.7,3.3-5.1c1.4-1.4,3.1-2.5,4.9-3.3
				C207.9,691.2,209.8,690.8,211.9,690.8z M207.5,713.3c1.5,0,3-0.3,4.2-1c1.3-0.7,2.4-1.6,3.4-2.7c0.9-1.1,1.7-2.4,2.2-3.8
				c0.5-1.4,0.8-2.9,0.8-4.5c0-2-0.6-3.6-1.8-4.9c-1.2-1.3-2.9-1.9-5.1-1.9c-1.4,0-2.8,0.3-4.1,1s-2.4,1.5-3.3,2.6
				c-1,1.1-1.7,2.4-2.3,3.8c-0.6,1.5-0.8,3-0.8,4.6c0,2,0.6,3.6,1.8,4.9C203.6,712.6,205.3,713.3,207.5,713.3z"/>
			<path d="M230.4,714.5h0.6l7.7-23h7.2l-1.9,23h0.6l7.5-23.5l3.4,1l-8,24.2h-7l1.8-23h-0.5l-7.8,23h-7l2.2-24.8h3.6L230.4,714.5z"
				/>
			<path d="M277.3,701.4c0.1-0.5,0.2-0.9,0.2-1.2s0.1-0.6,0.1-1c0-1.6-0.5-2.8-1.4-3.6s-2.3-1.2-4-1.2c-2.3,0-4.1,0.8-5.5,2.4
				c-1.4,1.6-2.4,3.7-3,6.2l-2.8,13.2H257l5.3-24.8h3.9l-0.8,3.6h0.6c0.8-1.5,1.9-2.6,3.3-3.3s2.8-1,4.3-1c1.1,0,2.1,0.2,3,0.5
				c1,0.3,1.8,0.9,2.5,1.5c0.7,0.7,1.3,1.5,1.7,2.5s0.6,2.1,0.6,3.3c0,0.8-0.1,1.7-0.3,2.7l-2.4,11.1c-0.1,0.3,0,0.5,0.1,0.6
				s0.3,0.2,0.5,0.2s0.4-0.1,0.5-0.2l2.1-1.5l2.1,2.9l-2,1.5c-1,0.8-2.1,1.2-3.3,1.2c-0.5,0-1-0.1-1.5-0.2c-0.5-0.1-0.9-0.3-1.2-0.6
				c-0.4-0.3-0.7-0.7-0.9-1.1c-0.2-0.5-0.3-1-0.3-1.8c0-0.4,0.1-1,0.2-1.6L277.3,701.4z"/>
		</g>
		<path d="M198,769.3l23.2,12.2c1.6,0.8,3.5,0.8,5.1,0l23.2-12.2c1.8-1,3-2.8,3-4.9v-33.8c0-4.2-4.4-6.8-8.1-4.9l-18.1,9.5
			c-1.6,0.8-3.5,0.8-5.1,0l-18.1-9.5c-3.7-1.9-8.1,0.7-8.1,4.9v33.8C195,766.5,196.1,768.4,198,769.3z"/>
	</g>
	<g>
		<path d="M8,411.1V309h104.7v20.9H81.3v-5.2H39.5v70.7h73.3v15.7H8z"/>
		<path d="M125.8,411.1V309h94.2v102.1H125.8z M188.7,395.4v-70.7h-31.4v70.7H188.7z"/>
		<path d="M233.2,411.1V309h73.3l31.4,15.7v86.4H233.2z M306.5,395.4v-62.8l-15.7-7.9h-26.2v70.7H306.5z"/>
		<path d="M351,411.1v-65.4h47.1L351,322.1V309h89v15.7h-41.9l41.9,20.9v15.7h-57.6v34h26.2v-5.2H440v20.9H351z"/>
	</g>
	<g class="st1">
		<path d="M8,613.3v-41.6h36.2V592h6.4v21.3H8z M31.4,595.2v-17.1H20.8v22.4L31.4,595.2z M37.8,606.9v-6.4l-12.8,6.4H37.8z"/>
		<path d="M56,613.3v-41.6h38.4v41.6H56z M81.5,606.9v-28.8H68.7v28.8H81.5z"/>
		<path d="M99.6,613.3v-41.6h29.8l12.8,6.4v35.2h-12.8v-7.5h-17.1v7.5H99.6z M129.5,599.4v-18.1l-6.4-3.2h-10.7v21.3H129.5z"/>
		<path d="M147.6,613.3v-41.6h42.6V592l-14.9,7.5h14.9v13.9h-12.8v-7.5h-17.1v7.5H147.6z M177.4,589.8v-11.7h-17.1v20.2L177.4,589.8
			z"/>
		<path d="M195.6,613.3v-41.6h29.8l12.8,6.4v35.2H195.6z M225.4,606.9v-25.6l-6.4-3.2h-10.7v28.8H225.4z"/>
		<path d="M243.5,613.3v-41.6h42.6v6.4h-29.8v22.4l17.1-8.5h12.8v21.3H243.5z M273.4,606.9v-6.4l-12.8,6.4H273.4z"/>
		<path d="M291.5,613.3v-41.6h29.8l12.8,6.4v35.2h-12.8v-7.5h-17.1v7.5H291.5z M321.3,599.4v-18.1l-6.4-3.2h-10.7v21.3H321.3z"/>
		<path d="M339.4,613.3v-41.6h14.9l8.5,4.3v-4.3h36.2v41.6h-12.8v-35.2h-10.7v35.2h-12.8v-28.8l-10.7-5.3v34.1H339.4z M352.2,567.5
			v-1.1l2.1,1.1H352.2z"/>
		<path d="M404.4,613.3v-26.6h19.2l-19.2-9.6v-5.3h36.2v6.4h-17.1l17.1,8.5v6.4h-23.4v13.9h10.7v-2.1h12.8v8.5H404.4z"/>
	</g>
</g>
</svg>
