<svg id="Слой_1" data-name="Слой 1" xmlns="http://www.w3.org/2000/svg" viewBox="0 0 326.01 73"><defs><style>.cls-1{fill:#fff;}</style></defs><path d="M37.25,16.35h34.5c1,0,.9-.1.9.9v49.2a3.52,3.52,0,0,1-3.8,3.8H13.45c-2.6,0-5.1-.1-7.7,0a3.78,3.78,0,0,1-3.9-3.9V17.05c0-.8,0-.8.8-.8C14.15,16.35,25.75,16.35,37.25,16.35Z"/><path d="M1.85,14.65V6.25a3.47,3.47,0,0,1,3.6-3.6H69a3.46,3.46,0,0,1,3.5,2.2,3.19,3.19,0,0,1,.3,1.4v7.8c0,.6,0,.6-.6.6H1.85Zm15.3-9.2H9.35a3.25,3.25,0,0,0-3.1,2.1,3.18,3.18,0,0,0,3.3,4.2h15a2.77,2.77,0,0,0,.9-.1,3,3,0,0,0,2.4-1.8,3.12,3.12,0,0,0-2.8-4.4Zm19.6,3.2a3.16,3.16,0,0,0-3.2-3.2,3,3,0,0,0-3.1,3.2,3.16,3.16,0,0,0,3.2,3.2A3.27,3.27,0,0,0,36.75,8.65Zm3.1,0a3.15,3.15,0,1,0,6.3,0,3.14,3.14,0,0,0-3.1-3.2A3.22,3.22,0,0,0,39.85,8.65Zm15.7,0a3.14,3.14,0,0,0-3.1-3.2,3.2,3.2,0,0,0-.1,6.4A3.16,3.16,0,0,0,55.55,8.65Z"/><path d="M17.05,10.15H9.65a1.7,1.7,0,0,1-.7-.1,1.52,1.52,0,0,1-1.2-1.6,1.59,1.59,0,0,1,1.3-1.4h15.6c1.2,0,2,.9,1.6,1.9a1.47,1.47,0,0,1-1.6,1H18C17.75,10.15,17.45,10.15,17.05,10.15Z"/><path d="M35.15,8.65a1.5,1.5,0,0,1-3,0,1.45,1.45,0,0,1,1.4-1.5A1.56,1.56,0,0,1,35.15,8.65Z"/><path d="M41.55,8.65a1.47,1.47,0,0,1,1.5-1.5,1.54,1.54,0,0,1,1.5,1.5,1.45,1.45,0,0,1-1.4,1.5A1.56,1.56,0,0,1,41.55,8.65Z"/><path d="M54,8.65a1.47,1.47,0,0,1-1.5,1.5A1.5,1.5,0,1,1,54,8.65Z"/><path class="cls-1" d="M10.75,32.25c.9.8,1.7,1.6,2.8,2.6a8.12,8.12,0,0,0-1.3,1.1c-.9.9-1.9,1.8-2.8,2.8a1.27,1.27,0,0,0-.1,2c1.3,1.4,2.7,2.7,4,4a1.45,1.45,0,0,0,2.1,0l3-3a7.27,7.27,0,0,1,.9-.8l.7.7,3.2,3.2a1.21,1.21,0,0,0,2,0c1.4-1.3,2.7-2.7,4-4.1a1.34,1.34,0,0,0,0-2,6,6,0,0,0-.8-.8c-1-1-2-2-3.1-3,.3-.4.6-.6.8-.9l3-3a1.31,1.31,0,0,0,0-2.1l-3.9-3.9a1.41,1.41,0,0,0-2.2,0c-1.1,1.1-2.2,2.1-3.2,3.2-.2.2-.4.3-.6.5a5,5,0,0,0-.8-.7L15.35,25a1.27,1.27,0,0,0-2-.1l-4.2,4.2a1.19,1.19,0,0,0,0,1.8C9.75,31.35,10.25,31.75,10.75,32.25Z"/><path class="cls-1" d="M12.75,57.25c1.1,1.7,2.2,3.4,3.4,5.1.9,1.3,1.4,1.4,2.7.6,9.9-6,20.3-6.9,31.1-2.9,2.1.8,4,2,6,3,.9.5,1.6.5,2.1-.2,1.4-2,2.7-4,4-6a1.22,1.22,0,0,0-.4-1.8,3.51,3.51,0,0,0-.8-.5,43,43,0,0,0-23.1-6.7,43.77,43.77,0,0,0-24.4,7C12.15,55.45,12.05,56.15,12.75,57.25Z"/><path class="cls-1" d="M48.35,34.05a8.18,8.18,0,0,1,.8.9c-1.3,1.3-2.6,2.5-3.8,3.7a1.4,1.4,0,0,0,0,2.3l3,3c1.7,1.8,2,1.8,3.7,0l3.1-3.1a7.64,7.64,0,0,1,.9.9l3,3c.7.6,1.4.7,2,.1l4.2-4.2a1.23,1.23,0,0,0-.1-1.9L64,37.55c-.9-.9-1.8-1.7-2.8-2.6a5.93,5.93,0,0,1,.8-.8l3.1-3.1a1.38,1.38,0,0,0,.1-2.1c-1.3-1.4-2.7-2.7-4-4.1a1.21,1.21,0,0,0-2,0c-1,.9-1.9,1.9-2.9,2.8a9.43,9.43,0,0,0-1,1l-.7-.7-3.2-3.2a1.21,1.21,0,0,0-2,0c-1.4,1.3-2.7,2.7-4.1,4-.7.7-.6,1.3.1,2A31.83,31.83,0,0,0,48.35,34.05Z"/><path class="cls-1" d="M10.75,32.35c.9.8,1.7,1.6,2.8,2.6a8.12,8.12,0,0,0-1.3,1.1c-.9.9-1.9,1.8-2.8,2.8a1.27,1.27,0,0,0-.1,2c1.3,1.4,2.7,2.7,4,4a1.45,1.45,0,0,0,2.1,0l3-3a7.27,7.27,0,0,1,.9-.8l.7.7,3.2,3.2a1.21,1.21,0,0,0,2,0c1.4-1.3,2.7-2.7,4-4.1a1.34,1.34,0,0,0,0-2,6,6,0,0,0-.8-.8c-1-1-2-2-3.1-3,.3-.4.6-.6.8-.9l3-3a1.31,1.31,0,0,0,0-2.1l-3.9-3.9a1.41,1.41,0,0,0-2.2,0c-1.1,1.1-2.2,2.1-3.2,3.2-.2.2-.4.3-.6.5a5,5,0,0,0-.8-.7l-3.1-3.1a1.27,1.27,0,0,0-2-.1l-4.2,4.2a1.19,1.19,0,0,0,0,1.8C9.75,31.45,10.25,32,10.75,32.35Z"/><path class="cls-1" d="M12.75,57.35c1.1,1.7,2.2,3.4,3.4,5.1.9,1.3,1.4,1.4,2.7.6,9.9-6,20.3-6.9,31.1-2.9,2.1.8,4,2,6,3,.9.5,1.6.5,2.1-.2,1.4-2,2.7-4,4-6a1.22,1.22,0,0,0-.4-1.8,3.51,3.51,0,0,0-.8-.5A43,43,0,0,0,37.75,48a43.77,43.77,0,0,0-24.4,7C12.15,55.65,12.05,56.25,12.75,57.35Z"/><path class="cls-1" d="M48.35,34.15a8.18,8.18,0,0,1,.8.9c-1.3,1.3-2.6,2.5-3.8,3.7a1.4,1.4,0,0,0,0,2.3l3,3c1.7,1.8,2,1.8,3.7,0l3.1-3.1a7.64,7.64,0,0,1,.9.9l3,3c.7.6,1.4.7,2,.1l4.2-4.2a1.23,1.23,0,0,0-.1-1.9L64,37.65c-.9-.9-1.8-1.7-2.8-2.6a5.93,5.93,0,0,1,.8-.8l3.1-3.1a1.38,1.38,0,0,0,.1-2.1c-1.3-1.4-2.7-2.7-4-4.1a1.21,1.21,0,0,0-2,0c-1,.9-1.9,1.9-2.9,2.8a9.43,9.43,0,0,0-1,1l-.7-.7-3.2-3.2a1.21,1.21,0,0,0-2,0c-1.4,1.3-2.7,2.7-4.1,4-.7.7-.6,1.3.1,2A24.08,24.08,0,0,0,48.35,34.15Z"/><path class="cls-1" d="M10.75,32.45c.9.8,1.7,1.6,2.8,2.6a8.12,8.12,0,0,0-1.3,1.1c-.9.9-1.9,1.8-2.8,2.8a1.27,1.27,0,0,0-.1,2c1.3,1.4,2.7,2.7,4,4a1.45,1.45,0,0,0,2.1,0l3-3a7.27,7.27,0,0,1,.9-.8l.7.7,3.2,3.2a1.21,1.21,0,0,0,2,0c1.4-1.3,2.7-2.7,4-4.1a1.34,1.34,0,0,0,0-2,6,6,0,0,0-.8-.8c-1-1-2-2-3.1-3,.3-.4.6-.6.8-.9l3-3a1.31,1.31,0,0,0,0-2.1l-3.9-3.9a1.41,1.41,0,0,0-2.2,0c-1.1,1.1-2.2,2.1-3.2,3.2-.2.2-.4.3-.6.5a5,5,0,0,0-.8-.7l-3.1-3.1a1.27,1.27,0,0,0-2-.1l-4.2,4.2a1.19,1.19,0,0,0,0,1.8C9.75,31.55,10.25,32.05,10.75,32.45Z"/><path class="cls-1" d="M12.75,57.55c1.1,1.7,2.2,3.4,3.4,5.1.9,1.3,1.4,1.4,2.7.6,9.9-6,20.3-6.9,31.1-2.9,2.1.8,4,2,6,3,.9.5,1.6.5,2.1-.2,1.4-2,2.7-4,4-6a1.22,1.22,0,0,0-.4-1.8,3.51,3.51,0,0,0-.8-.5,43,43,0,0,0-23.1-6.7,43.77,43.77,0,0,0-24.4,7C12.15,55.75,12.05,56.35,12.75,57.55Z"/><path class="cls-1" d="M48.35,34.35a8.18,8.18,0,0,1,.8.9c-1.3,1.3-2.6,2.5-3.8,3.7a1.4,1.4,0,0,0,0,2.3l3,3c1.7,1.8,2,1.8,3.7,0l3.1-3.1a7.64,7.64,0,0,1,.9.9l3,3c.7.6,1.4.7,2,.1l4.2-4.2a1.23,1.23,0,0,0-.1-1.9L64,37.85c-.9-.9-1.8-1.7-2.8-2.6a5.93,5.93,0,0,1,.8-.8l3.1-3.1a1.38,1.38,0,0,0,.1-2.1c-1.3-1.4-2.7-2.7-4-4.1a1.21,1.21,0,0,0-2,0c-1,.9-1.9,1.9-2.9,2.8a9.43,9.43,0,0,0-1,1l-.7-.7-3.2-3.2a1.21,1.21,0,0,0-2,0c-1.4,1.3-2.7,2.7-4.1,4-.7.7-.6,1.3.1,2C46.25,32.25,47.35,33.25,48.35,34.35Z"/><path class="cls-1" d="M10.75,32.25c.9.8,1.7,1.6,2.8,2.6a8.12,8.12,0,0,0-1.3,1.1c-.9.9-1.9,1.8-2.8,2.8a1.27,1.27,0,0,0-.1,2c1.3,1.4,2.7,2.7,4,4a1.45,1.45,0,0,0,2.1,0l3-3a7.27,7.27,0,0,1,.9-.8l.7.7,3.2,3.2a1.21,1.21,0,0,0,2,0c1.4-1.3,2.7-2.7,4-4.1a1.34,1.34,0,0,0,0-2,6,6,0,0,0-.8-.8c-1-1-2-2-3.1-3,.3-.4.6-.6.8-.9l3-3a1.31,1.31,0,0,0,0-2.1l-3.9-3.9a1.41,1.41,0,0,0-2.2,0c-1.1,1.1-2.2,2.1-3.2,3.2-.2.2-.4.3-.6.5a5,5,0,0,0-.8-.7L15.35,25a1.27,1.27,0,0,0-2-.1l-4.2,4.2a1.19,1.19,0,0,0,0,1.8C9.75,31.35,10.25,31.75,10.75,32.25Z"/><path class="cls-1" d="M12.75,57.25c1.1,1.7,2.2,3.4,3.4,5.1.9,1.3,1.4,1.4,2.7.6,9.9-6,20.3-6.9,31.1-2.9,2.1.8,4,2,6,3,.9.5,1.6.5,2.1-.2,1.4-2,2.7-4,4-6a1.22,1.22,0,0,0-.4-1.8,3.51,3.51,0,0,0-.8-.5,43,43,0,0,0-23.1-6.7,43.77,43.77,0,0,0-24.4,7C12.15,55.45,12.05,56.15,12.75,57.25Z"/><path class="cls-1" d="M48.35,34.05a8.18,8.18,0,0,1,.8.9c-1.3,1.3-2.6,2.5-3.8,3.7a1.4,1.4,0,0,0,0,2.3l3,3c1.7,1.8,2,1.8,3.7,0l3.1-3.1a7.64,7.64,0,0,1,.9.9l3,3c.7.6,1.4.7,2,.1l4.2-4.2a1.23,1.23,0,0,0-.1-1.9L64,37.55c-.9-.9-1.8-1.7-2.8-2.6a5.93,5.93,0,0,1,.8-.8l3.1-3.1a1.38,1.38,0,0,0,.1-2.1c-1.3-1.4-2.7-2.7-4-4.1a1.21,1.21,0,0,0-2,0c-1,.9-1.9,1.9-2.9,2.8a9.43,9.43,0,0,0-1,1l-.7-.7-3.2-3.2a1.21,1.21,0,0,0-2,0c-1.4,1.3-2.7,2.7-4.1,4-.7.7-.6,1.3.1,2A31.83,31.83,0,0,0,48.35,34.05Z"/><path d="M59,56.75l-2.4,3.6c-12.9-7-25.7-7-38.7,0l-1.2-1.8c-.4-.6-.8-1.2-1.2-1.9a40.83,40.83,0,0,1,19.1-6C45,50,53.9,53.25,59,56.75Z"/><path d="M62.35,30.15c-1.1,1.1-2.3,2.2-3.4,3.3s-1.2,1.7,0,2.9,2.3,2.2,3.5,3.4c-.8.8-1.6,1.5-2.4,2.2-1-.9-2-2-3.1-3-1.6-1.6-1.9-1.6-3.5,0l-3.1,3.1c-.7-.8-1.4-1.5-2.2-2.3.6-.6,1.3-1.4,2.1-2.1.5-.5,1.1-1,1.6-1.6a1.46,1.46,0,0,0,0-2.3c-1.2-1.2-2.5-2.4-3.7-3.7.8-.7,1.5-1.4,2.4-2.1l.5.5,2.9,2.9c1,1,1.6,1,2.6,0l3-3,.6-.6C60.85,28.55,61.55,29.35,62.35,30.15Z"/><path d="M26.45,30.15c-1.1,1.1-2.3,2.2-3.4,3.3s-1.2,1.7,0,2.9,2.3,2.2,3.5,3.4c-.8.8-1.6,1.5-2.4,2.2-1-.9-2-2-3.1-3-1.6-1.6-1.9-1.6-3.5,0l-3.1,3.1c-.7-.8-1.4-1.5-2.2-2.3.6-.6,1.3-1.4,2.1-2.1.5-.5,1.1-1,1.6-1.6a1.46,1.46,0,0,0,0-2.3c-1.2-1.2-2.5-2.4-3.7-3.7.8-.7,1.5-1.4,2.4-2.1l.5.5,2.9,2.9c1,1,1.6,1,2.6,0l3-3,.6-.6C25,28.55,25.65,29.35,26.45,30.15Z"/><path d="M134.09,69.9V58.12l-47.65,0,0-54.45h20.42L107,48h27.22l-.08-44.3h20.42l.09,44.3h6.8l-.1,10.16H154.5V69.91Z"/><path d="M170,69.92l-.18-66.35,68.07,0,0,66.24Zm47.46-34.13-.1-22H190.09l.09,35.67Zm.09,23.88.11-10.15L197.28,59.78Z"/><path d="M294.11,69.86V58.07H246.46V3.6h20.42l.09,44.3h27.23l-.09-44.3h20.42l.09,44.3h6.8l-.1,10.15h-6.8V69.86Z"/></svg>