<svg id="Слой_1" data-name="Слой 1" xmlns="http://www.w3.org/2000/svg" xmlns:xlink="http://www.w3.org/1999/xlink" viewBox="0 0 102 73.7"><defs><style>.cls-1{fill:none;}.cls-2{clip-path:url(#clip-path);}.cls-3{fill:#129a39;}.cls-4{clip-path:url(#clip-path-2);}.cls-5{fill:#fff;}.cls-6{clip-path:url(#clip-path-5);}</style><clipPath id="clip-path"><rect class="cls-1" x="110.75" width="102" height="73.7"/></clipPath><clipPath id="clip-path-2"><rect class="cls-1" width="102" height="73.7"/></clipPath><clipPath id="clip-path-5"><rect class="cls-1" x="-112.12" width="102" height="73.7"/></clipPath></defs><g class="cls-2"><path class="cls-3" d="M74.05-18.4,137.35-55l37.5,65-63.3,36.6Zm36,39.9,9.7-5.6L98.75,2Zm22.7-13.1,21.1-12.2-15-26-34.1,19.7Z"/></g><g class="cls-4"><rect class="cls-5" width="102" height="73.7"/></g><g class="cls-4"><path class="cls-3" d="M73.7,132.2,37.1,68.9l65-37.5,36.6,63.3Zm26.7-58.8L88.2,52.3l-26,15,19.7,34.1Zm13.1,22.8-5.6-9.7L94,107.5Z"/></g><g class="cls-4"><path class="cls-3" d="M-36.7-18.4,26.6-55,64.1,10,.8,46.6Zm36,39.9L9,15.9-12,2ZM22,8.4,43.1-3.8l-15-26L-6-10.1Z"/></g><g class="cls-6"><path class="cls-3" d="M-38.42,132.2-75,68.9l65-37.5,36.6,63.3Zm26.7-58.8-12.2-21.1-26,15,19.7,34.1ZM1.38,96.2l-5.6-9.7-13.9,21Z"/></g><path class="cls-3" d="M35.8,65.78l-2.62-4.55L15,71.73,3,51l7.8-4.5,9.75,16.89,10.39-6L21.18,40.45,29,36l9.75,16.89,2.6-1.5,2.25,3.89L41,56.73l2.63,4.55Z"/><path class="cls-3" d="M67.63,47.41l-2.25-3.9L41.94,44.92,34.82,32.58l26-15L75.42,42.91ZM55.25,26,44.86,32,49,39.12l13.39-.81Z"/><path class="cls-3" d="M82.57,38.78l-3-5.19,10.16-15.4L84.48,9.1,66.29,19.6,64,15.7,90,.7,98.27,15,88.11,30.38l2.25,3.9Z"/></svg>