<svg id="Слой_1" data-name="Слой 1" xmlns="http://www.w3.org/2000/svg" xmlns:xlink="http://www.w3.org/1999/xlink" viewBox="0 0 102 73.7"><defs><style>.cls-1{fill:none;}.cls-2{clip-path:url(#clip-path);}.cls-3{fill:#fff;}.cls-4{fill:#129a39;}.cls-5{clip-path:url(#clip-path-4);}</style><clipPath id="clip-path"><rect class="cls-1" width="102" height="73.7"/></clipPath><clipPath id="clip-path-4"><rect class="cls-1" x="-110.75" width="102" height="73.7"/></clipPath></defs><g class="cls-2"><rect class="cls-3" width="102" height="73.7"/></g><g class="cls-2"><path class="cls-4" d="M73.7,132.2,37.1,68.9l65-37.5,36.6,63.3Zm26.7-58.8L88.2,52.3l-26,15,19.7,34.1Zm13.1,22.8-5.6-9.7L94,107.5Z"/></g><g class="cls-2"><path class="cls-4" d="M-36.7-18.4,26.6-55,64.1,10,.8,46.6Zm36,39.9L9,15.9-12,2ZM22,8.4,43.1-3.8l-15-26L-6-10.1Z"/></g><g class="cls-5"><path class="cls-4" d="M-37,132.2l-36.6-63.3,65-37.5L28,94.7Zm26.7-58.8-12.2-21.1-26,15,19.7,34.1ZM2.75,96.2l-5.6-9.7-13.9,21Z"/></g><path class="cls-4" d="M33.19,67.29l-2.62-4.54L12.38,73.25.38,52.46,8.17,48l9.75,16.89,10.4-6L18.57,42l7.79-4.5,9.75,16.89,2.6-1.5L41,56.75l-2.6,1.5L41,62.79Z"/><path class="cls-4" d="M65,48.92,62.76,45,39.33,46.43,32.2,34.09l26-15L72.81,44.42ZM52.64,27.48l-10.39,6,4.12,7.15,13.39-.8Z"/><path class="cls-4" d="M94.24,32,92,28.15l-23.43,1.4L61.43,17.21l26-15L102,27.54ZM81.87,10.61l-10.39,6,4.12,7.14L89,23Z"/></svg>