<svg id="Слой_1" data-name="Слой 1" xmlns="http://www.w3.org/2000/svg" xmlns:xlink="http://www.w3.org/1999/xlink" viewBox="0 0 102 73.7"><defs><style>.cls-1{fill:none;}.cls-2{clip-path:url(#clip-path);}.cls-3{fill:#129a39;}.cls-4{clip-path:url(#clip-path-2);}.cls-5{fill:#fff;}.cls-6{isolation:isolate;}</style><clipPath id="clip-path"><rect class="cls-1" x="127.79" width="102" height="73.7"/></clipPath><clipPath id="clip-path-2"><rect class="cls-1" width="102" height="73.7"/></clipPath></defs><g class="cls-2"><path class="cls-3" d="M91.09-18.4,154.39-55l37.5,65-63.3,36.6Zm36,39.9,9.7-5.6L115.79,2Zm22.7-13.1,21.1-12.2-15-26-34.1,19.7Z"/></g><g class="cls-4"><rect class="cls-5" width="102" height="73.7"/></g><g class="cls-4"><path class="cls-3" d="M73.7,132.2,37.1,68.9l65-37.5,36.6,63.3Zm26.7-58.8L88.2,52.3l-26,15,19.7,34.1Zm13.1,22.8-5.6-9.7L94,107.5Z"/></g><g class="cls-4"><path class="cls-3" d="M-36.7-18.4,26.6-55,64.1,10,.8,46.6Zm36,39.9L9,15.9-12,2ZM22,8.4,43.1-3.8l-15-26L-6-10.1Z"/></g><g class="cls-6"><path class="cls-3" d="M31.54,68.39l-2.62-4.54L10.73,74.35l-12-20.79,7.79-4.5L16.27,66l10.4-6L16.92,43.06l7.79-4.5,9.75,16.89,2.6-1.5,2.25,3.9-2.6,1.5,2.62,4.54Z"/><path class="cls-3" d="M63.37,50l-2.63-4.55L42.56,56l-12-20.78,7.79-4.5L48.1,47.57l10.39-6L48.74,24.69l7.8-4.5,9.75,16.88,2.59-1.5,2.25,3.9L68.54,41l2.62,4.55Z"/><path class="cls-3" d="M95.19,31.64l-2.62-4.55L74.38,37.59l-12-20.78,7.79-4.5L79.92,29.2l10.4-6L80.57,6.31l7.79-4.5L98.11,18.7l2.6-1.5L103,21.09l-2.6,1.5L103,27.14Z"/></g></svg>