<svg id="Слой_1" data-name="Слой 1" xmlns="http://www.w3.org/2000/svg" xmlns:xlink="http://www.w3.org/1999/xlink" viewBox="0 0 102 73"><defs><style>.cls-1{fill:none;}.cls-2{clip-path:url(#clip-path);}.cls-3{fill:#ca8b0c;}.cls-4{fill:#854e13;}.cls-5{clip-path:url(#clip-path-4);}.cls-6{isolation:isolate;}.cls-7{fill:#fff;}</style><clipPath id="clip-path"><rect class="cls-1" y="-0.35" width="102" height="73.7"/></clipPath><clipPath id="clip-path-4"><rect class="cls-1" x="-126.41" y="-0.35" width="102" height="73.7"/></clipPath></defs><g class="cls-2"><rect class="cls-3" y="-0.35" width="102" height="73.7"/></g><g class="cls-2"><path class="cls-4" d="M73.7,131.85,37.1,68.55l65-37.5,36.6,63.3Zm26.7-58.8L88.2,52l-26,15,19.7,34.1Zm13.1,22.8-5.6-9.7-13.9,21Z"/></g><g class="cls-2"><path class="cls-4" d="M-36.7-18.75l63.3-36.6,37.5,65L.8,46.25Zm36,39.9L9,15.55-12,1.65ZM22,8.05,43.1-4.15l-15-26L-6-10.45Z"/></g><g class="cls-5"><path class="cls-4" d="M-52.71,131.85l-36.6-63.3,65-37.5,36.6,63.3ZM-26,73.05-38.21,52l-26,15,19.7,34.1Zm13.1,22.8-5.6-9.7-13.9,21Z"/></g><g class="cls-6"><path class="cls-7" d="M22.88,71.67l-3-5.19L27.67,62l.75,1.3,7.8-4.5L31,49.68l-15.59,9L8.25,46.34,29,34.34l2.25,3.9-13,7.5,2.62,4.55,15.59-9,9.75,16.88Z"/><path class="cls-7" d="M49.51,56.3l-3-5.2,7.79-4.5.75,1.3,7.8-4.5L57.6,34.31,42,43.31,34.89,31,55.67,19l2.25,3.9-13,7.5,2.62,4.54,15.59-9L72.89,42.8Z"/><path class="cls-7" d="M76.14,40.92,61.51,15.59l20.79-12,2.25,3.9-13,7.5,4.5,7.8,5.54-8.4,7.8-4.5L99.52,27.42ZM89.48,28,84.6,19.58,79.06,28l2.62,4.55Z"/></g></svg>