<svg id="Слой_1" data-name="Слой 1" xmlns="http://www.w3.org/2000/svg" xmlns:xlink="http://www.w3.org/1999/xlink" viewBox="0 0 102 73"><defs><style>.cls-1{fill:none;}.cls-2{clip-path:url(#clip-path);}.cls-3{fill:#854e13;}.cls-4{clip-path:url(#clip-path-2);}.cls-5{fill:#ca8b0c;}.cls-6{fill:#fff;}.cls-7{clip-path:url(#clip-path-5);}.cls-8{clip-path:url(#clip-path-6);}.cls-9{fill:#9f173a;}.cls-10{clip-path:url(#clip-path-7);}</style><clipPath id="clip-path"><rect class="cls-1" x="122.65" y="-0.35" width="102" height="73.7"/></clipPath><clipPath id="clip-path-2"><rect class="cls-1" y="-0.4" width="102" height="73.7"/></clipPath><clipPath id="clip-path-5"><rect class="cls-1" x="-122.02" y="-0.35" width="102" height="73.7"/></clipPath><clipPath id="clip-path-6"><rect class="cls-1" x="9.28" y="-105.88" width="102" height="73.7"/></clipPath><clipPath id="clip-path-7"><rect class="cls-1" x="-100.45" y="-105.93" width="102" height="73.7"/></clipPath></defs><g class="cls-2"><path class="cls-3" d="M86-18.75l63.3-36.6,37.5,65-63.3,36.6Zm36,39.9,9.7-5.6-21-13.9Zm22.7-13.1,21.1-12.2-15-26-34.1,19.7Z"/></g><g class="cls-4"><rect class="cls-5" y="-0.4" width="102" height="73.7"/></g><g class="cls-4"><path class="cls-3" d="M73.7,131.8,37.1,68.5l65-37.5,36.6,63.2Zm26.7-58.7L88.2,52l-26,15,19.7,34.1Zm13.1,22.7-5.6-9.7L94,107.1Z"/></g><g class="cls-4"><path class="cls-3" d="M-36.7-18.8,26.6-55.4l37.5,65L.8,46.2Zm36,39.9L9,15.5-12,1.6ZM22,7.9,43.1-4.3l-15-26L-6-10.6Z"/></g><path class="cls-6" d="M20.2,73.4l-3-5.2L25,63.7l.8,1.3,7.8-4.5-5.2-9.1-15.6,9L5.7,48,26.5,36l2.2,4-13,7.5L18.3,52l15.6-9,9.8,16.9Z"/><path class="cls-6" d="M46.8,57.9,32.2,32.6l26-15L72.8,42.9ZM57.5,34.4,52.6,26,42.2,32l7.9,13.6Zm5.3,9.1-2.2-3.9L55.1,48Z"/><path class="cls-6" d="M94.2,30.5,91.6,26,73.4,36.5l-12-20.8,7.8-4.5L79,28.1l10.4-6L79.6,5.2,87.4.7l9.8,16.9,2.6-1.5L102,20l-2.6,1.5L102,26Z"/><g class="cls-7"><path class="cls-3" d="M-48.42,131.85-85,68.55l65-37.5,36.6,63.3Zm26.8-58.7-12.2-21.1-26,15,19.7,34.1Zm13.1,22.7-5.6-9.7-13.9,21Z"/></g><g class="cls-8"><path class="cls-9" d="M83,26.32,46.38-37l65-37.5L148-11.18Zm26.7-58.8-12.2-21.1-26,15,19.7,34.1Zm13.1,22.8-5.6-9.7-13.9,21Z"/></g><g class="cls-10"><path class="cls-9" d="M-26.75,26.27-63.35-37l65-37.5,36.6,63.3ZM0-32.53l-12.2-21.1-26,15,19.7,34.1Zm13.1,22.8-5.6-9.7-13.9,21Z"/></g></svg>