<svg id="Слой_1" data-name="Слой 1" xmlns="http://www.w3.org/2000/svg" xmlns:xlink="http://www.w3.org/1999/xlink" viewBox="0 0 102 73"><defs><style>.cls-1{fill:none;}.cls-2{clip-path:url(#clip-path);}.cls-3{fill:#ca8b0c;}.cls-4{fill:#854e13;}.cls-5{clip-path:url(#clip-path-4);}.cls-6{isolation:isolate;}.cls-7{fill:#fff;}.cls-8{clip-path:url(#clip-path-5);}.cls-9{clip-path:url(#clip-path-6);}.cls-10{fill:#9f173a;}.cls-11{clip-path:url(#clip-path-7);}</style><clipPath id="clip-path"><rect class="cls-1" x="-0.01" y="-0.35" width="102" height="73.7"/></clipPath><clipPath id="clip-path-4"><rect class="cls-1" x="117.07" y="-0.35" width="102" height="73.7"/></clipPath><clipPath id="clip-path-5"><rect class="cls-1" x="-122.67" y="-0.4" width="102" height="73.7"/></clipPath><clipPath id="clip-path-6"><rect class="cls-1" x="7.53" y="-105.88" width="102" height="73.7"/></clipPath><clipPath id="clip-path-7"><rect class="cls-1" x="-113.38" y="-105.88" width="102" height="73.7"/></clipPath></defs><g class="cls-2"><rect class="cls-3" x="-0.01" y="-0.35" width="102" height="73.7"/></g><g class="cls-2"><path class="cls-4" d="M73.69,131.85l-36.6-63.3,65-37.5,36.6,63.3Zm26.7-58.8L88.19,52l-26,15,19.7,34.1Zm13.1,22.8-5.6-9.7-13.9,21Z"/></g><g class="cls-2"><path class="cls-4" d="M-36.71-18.75l63.3-36.6,37.5,65L.79,46.25Zm36,39.9L9,15.55-12,1.65ZM22,8.05l21.1-12.2-15-26L-6-10.45Z"/></g><g class="cls-5"><path class="cls-4" d="M80.37-18.75l63.3-36.6,37.5,65-63.3,36.6Zm36,39.9,9.7-5.6-21-13.9Zm22.7-13.1,21.1-12.2-15-26-34.1,19.7Z"/></g><g class="cls-6"><path class="cls-7" d="M28.52,68.54l-3-5.2,7.8-4.5.75,1.3,7.79-4.5-5.25-9.09L21,55.55,13.9,43.21l20.78-12,2.25,3.9-13,7.5,2.63,4.54,15.59-9L51.91,55Z"/><path class="cls-7" d="M55.15,53.16,45.4,36.28l15.59-9-2.62-4.55-13,7.5-2.25-3.9,20.78-12L71,26.67l-15.59,9,5.25,9.1,7.79-4.5L67.74,39l7.8-4.5,3,5.19Z"/><path class="cls-7" d="M88.28,34,75.9,12.61l-6.49,3.75-2.25-3.9L81.45,4.21,96.07,29.54Z"/></g><g class="cls-8"><path class="cls-4" d="M-49,131.8l-36.6-63.3,65-37.5L16,94.2Zm26.7-58.7L-34.47,52l-26,15,19.7,34.1Zm13.1,22.7-5.6-9.7-13.9,21Z"/></g><g class="cls-9"><path class="cls-10" d="M81.23,26.32,44.63-37l65-37.5,36.6,63.3Zm26.7-58.8-12.2-21.1-26,15,19.7,34.1ZM121-9.68l-5.6-9.7-13.9,21Z"/></g><g class="cls-11"><path class="cls-10" d="M-39.68,26.32-76.28-37l65-37.5,36.6,63.3ZM-13-32.48l-12.2-21.1-26,15,19.7,34.1ZM.12-9.68l-5.6-9.7-13.9,21Z"/></g></svg>