<svg id="Слой_1" data-name="Слой 1" xmlns="http://www.w3.org/2000/svg" xmlns:xlink="http://www.w3.org/1999/xlink" viewBox="0 0 102 73"><defs><style>.cls-1{fill:none;}.cls-2{clip-path:url(#clip-path);}.cls-3{fill:#854e13;}.cls-4{clip-path:url(#clip-path-2);}.cls-5{fill:#ca8b0c;}.cls-6{clip-path:url(#clip-path-5);}.cls-7{isolation:isolate;}.cls-8{fill:#fff;}.cls-9{clip-path:url(#clip-path-6);}.cls-10{fill:#9f173a;}.cls-11{clip-path:url(#clip-path-7);}</style><clipPath id="clip-path"><rect class="cls-1" x="-123.85" y="-0.35" width="102" height="73.7"/></clipPath><clipPath id="clip-path-2"><rect class="cls-1" y="-0.35" width="102" height="73.7"/></clipPath><clipPath id="clip-path-5"><rect class="cls-1" x="120.37" y="-0.35" width="102" height="73.7"/></clipPath><clipPath id="clip-path-6"><rect class="cls-1" x="5.37" y="-105.88" width="102" height="73.7"/></clipPath><clipPath id="clip-path-7"><rect class="cls-1" x="-113.24" y="-105.88" width="102" height="73.7"/></clipPath></defs><g class="cls-2"><path class="cls-3" d="M-50.15,131.85l-36.6-63.3,65-37.5,36.6,63.3Zm26.7-58.8L-35.65,52l-26,15,19.7,34.1Zm13.1,22.8-5.6-9.7-13.9,21Z"/></g><g class="cls-4"><rect class="cls-5" y="-0.35" width="102" height="73.7"/></g><g class="cls-4"><path class="cls-3" d="M73.7,131.85,37.1,68.55l65-37.5,36.6,63.3Zm26.7-58.8L88.2,52l-26,15,19.7,34.1Zm13.1,22.8-5.6-9.7-13.9,21Z"/></g><g class="cls-4"><path class="cls-3" d="M-36.7-18.75l63.3-36.6,37.5,65L.8,46.25Zm36,39.9L9,15.55-12,1.65ZM22,8.05,43.1-4.15l-15-26L-6-10.45Z"/></g><g class="cls-6"><path class="cls-3" d="M83.67-18.75,147-55.35l37.5,65-63.3,36.6Zm36,39.9,9.7-5.6-21-13.9Zm22.7-13.1,21.1-12.2-15-26-34.1,19.7Z"/></g><g class="cls-7"><path class="cls-8" d="M22.61,72.36l-3-5.19,7.79-4.5L28.15,64l7.79-4.5-5.25-9.09-15.58,9L8,47,28.76,35,31,38.93l-13,7.5L20.65,51l15.59-9L46,58.86Z"/><path class="cls-8" d="M49.23,57l-3-5.2,7.8-4.5.75,1.3,6.49-3.75L56.4,36.4,42.11,44.65l-2.25-3.9,7.39-11.2-10.39,6-2.25-3.89L56.69,18.91l1.88,3.24-8.32,12.6L61.94,28l9.38,16.24Z"/><path class="cls-8" d="M92.75,31.86l-2.62-4.55L71.94,37.81,59.94,17l7.79-4.5,9.75,16.89,10.4-6L78.13,6.53,85.92,2l9.75,16.89,2.6-1.5,2.25,3.89-2.6,1.5,2.63,4.55Z"/></g><g class="cls-9"><path class="cls-10" d="M79.07,26.32,42.47-37l65-37.5,36.6,63.3Zm26.7-58.8-12.2-21.1-26,15,19.7,34.1Zm13.1,22.8-5.6-9.7-13.9,21Z"/></g><g class="cls-11"><path class="cls-10" d="M-39.54,26.32-76.14-37l65-37.5,36.6,63.3Zm26.7-58.8L-25-53.58l-26,15,19.7,34.1ZM.26-9.68l-5.6-9.7-13.9,21Z"/></g></svg>