<svg id="Слой_1" data-name="Слой 1" xmlns="http://www.w3.org/2000/svg" xmlns:xlink="http://www.w3.org/1999/xlink" viewBox="0 0 102 73"><defs><style>.cls-1{fill:none;}.cls-2{clip-path:url(#clip-path);}.cls-3{fill:#ca8b0c;}.cls-4{fill:#854e13;}.cls-5{clip-path:url(#clip-path-4);}.cls-6{clip-path:url(#clip-path-5);}.cls-7{isolation:isolate;}.cls-8{fill:#fff;}.cls-9{clip-path:url(#clip-path-6);}.cls-10{fill:#9f173a;}.cls-11{clip-path:url(#clip-path-7);}</style><clipPath id="clip-path"><rect class="cls-1" y="-0.35" width="102" height="73.7"/></clipPath><clipPath id="clip-path-4"><rect class="cls-1" x="-117.07" y="-0.35" width="102" height="73.7"/></clipPath><clipPath id="clip-path-5"><rect class="cls-1" x="123.85" y="-0.35" width="102" height="73.7"/></clipPath><clipPath id="clip-path-6"><rect class="cls-1" x="10.62" y="-105.88" width="102" height="73.7"/></clipPath><clipPath id="clip-path-7"><rect class="cls-1" x="-110.3" y="-105.88" width="102" height="73.7"/></clipPath></defs><g class="cls-2"><rect class="cls-3" y="-0.35" width="102" height="73.7"/></g><g class="cls-2"><path class="cls-4" d="M73.7,131.85,37.1,68.55l65-37.5,36.6,63.3Zm26.7-58.8L88.2,52l-26,15,19.7,34.1Zm13.1,22.8-5.6-9.7-13.9,21Z"/></g><g class="cls-2"><path class="cls-4" d="M-36.7-18.75l63.3-36.6,37.5,65L.8,46.25Zm36,39.9L9,15.55-12,1.65ZM22,8.05,43.1-4.15l-15-26L-6-10.45Z"/></g><g class="cls-5"><path class="cls-4" d="M-43.37,131.85-80,68.55l65-37.5,36.6,63.3Zm26.7-58.8L-28.87,52l-26,15,19.7,34.1Zm13.1,22.8-5.6-9.7-13.9,21Z"/></g><g class="cls-6"><path class="cls-4" d="M87.15-18.75l63.3-36.6,37.5,65-63.3,36.6Zm36,39.9,9.7-5.6-21-13.9Zm22.7-13.1L167-4.15l-15-26-34.1,19.7Z"/></g><g class="cls-7"><path class="cls-8" d="M22.77,72.11l-3-5.19,7.79-4.5.75,1.29,7.8-4.5-5.25-9.09-15.59,9L8.14,46.78l20.79-12,2.25,3.9-13,7.5,2.62,4.54,15.59-9,9.75,16.89Z"/><path class="cls-8" d="M49.4,56.74l-3-5.2L54.19,47l.75,1.3,6.5-3.75-4.88-8.44L42.27,44.4,40,40.5l7.39-11.2L37,35.3l-2.25-3.89L56.86,18.66l1.87,3.24L50.41,34.5l11.7-6.75L71.48,44Z"/><path class="cls-8" d="M74.73,42.11,60.1,16.78l26-15,14.63,25.33ZM85.41,18.62l-4.87-8.44-10.39,6L78,29.82Zm5.25,9.09-2.25-3.89-5.54,8.39Z"/></g><g class="cls-9"><path class="cls-10" d="M84.32,26.32,47.72-37l65-37.5,36.6,63.3ZM111-32.48l-12.2-21.1-26,15,19.7,34.1Zm13.1,22.8-5.6-9.7-13.9,21Z"/></g><g class="cls-11"><path class="cls-10" d="M-36.6,26.32-73.2-37l65-37.5,36.6,63.3Zm26.7-58.8-12.2-21.1-26,15,19.7,34.1ZM3.2-9.68l-5.6-9.7-13.9,21Z"/></g></svg>