<svg id="Слой_1" data-name="Слой 1" xmlns="http://www.w3.org/2000/svg" xmlns:xlink="http://www.w3.org/1999/xlink" viewBox="0 0 102 73"><defs><style>.cls-1{fill:none;}.cls-2{clip-path:url(#clip-path);}.cls-3{fill:#854e13;}.cls-4{clip-path:url(#clip-path-2);}.cls-5{fill:#ca8b0c;}.cls-6{clip-path:url(#clip-path-5);}.cls-7{isolation:isolate;}.cls-8{fill:#fff;}</style><clipPath id="clip-path"><rect class="cls-1" x="126.41" y="-0.35" width="102" height="73.7"/></clipPath><clipPath id="clip-path-2"><rect class="cls-1" y="-0.35" width="102" height="73.7"/></clipPath><clipPath id="clip-path-5"><rect class="cls-1" x="-114.32" y="-0.35" width="102" height="73.7"/></clipPath></defs><g class="cls-2"><path class="cls-3" d="M89.71-18.75,153-55.35l37.5,65-63.3,36.6Zm36,39.9,9.7-5.6-21-13.9Zm22.7-13.1,21.1-12.2-15-26-34.1,19.7Z"/></g><g class="cls-4"><rect class="cls-5" y="-0.35" width="102" height="73.7"/></g><g class="cls-4"><path class="cls-3" d="M73.7,131.85,37.1,68.55l65-37.5,36.6,63.3Zm26.7-58.8L88.2,52l-26,15,19.7,34.1Zm13.1,22.8-5.6-9.7-13.9,21Z"/></g><g class="cls-4"><path class="cls-3" d="M-36.7-18.75l63.3-36.6,37.5,65L.8,46.25Zm36,39.9L9,15.55-12,1.65ZM22,8.05,43.1-4.15l-15-26L-6-10.45Z"/></g><g class="cls-6"><path class="cls-3" d="M-40.62,131.85l-36.6-63.3,65-37.5,36.6,63.3Zm26.7-58.8L-26.12,52l-26,15,19.7,34.1Zm13.1,22.8-5.6-9.7-13.9,21Z"/></g><g class="cls-7"><path class="cls-8" d="M23.16,71.67l-3-5.19L28,62l.75,1.3,7.79-4.5-5.25-9.1-15.58,9L8.53,46.34l20.78-12,2.25,3.9-13,7.5,2.63,4.55,15.59-9,9.75,16.88Z"/><path class="cls-8" d="M49.79,56.3l-3-5.2,7.79-4.5.75,1.3,7.79-4.5-5.25-9.09-15.58,9L35.16,31,55.94,19l2.25,3.9-13,7.5,2.63,4.54,15.59-9L73.17,42.8Z"/><path class="cls-8" d="M76.41,40.92l-3-5.19,7.8-4.5.75,1.3L89.75,28l-5.25-9.1-15.59,9L61.79,15.59l20.78-12,2.25,3.9-13,7.5,2.63,4.55,15.59-9L99.8,27.42Z"/></g></svg>