<svg id="Слой_1" data-name="Слой 1" xmlns="http://www.w3.org/2000/svg" xmlns:xlink="http://www.w3.org/1999/xlink" viewBox="0 0 102 73"><defs><style>.cls-1{fill:none;}.cls-2{clip-path:url(#clip-path);}.cls-3{isolation:isolate;font-size:60px;font-family:High-Marker-Flat, High Marker Flat;}.cls-11,.cls-3{fill:#9f173a;}.cls-4{clip-path:url(#clip-path-2);}.cls-5{fill:#854e13;}.cls-6{clip-path:url(#clip-path-3);}.cls-7{clip-path:url(#clip-path-4);}.cls-8{fill:#ca8b0c;}.cls-9{fill:#fff;}.cls-10{clip-path:url(#clip-path-7);}</style><clipPath id="clip-path"><rect class="cls-1" x="-93.86" y="-105.88" width="102" height="73.7"/></clipPath><clipPath id="clip-path-2"><rect class="cls-1" x="-116.52" y="-0.35" width="102" height="73.7"/></clipPath><clipPath id="clip-path-3"><rect class="cls-1" x="122.02" y="-0.4" width="102" height="73.7"/></clipPath><clipPath id="clip-path-4"><rect class="cls-1" y="-0.35" width="102" height="73.7"/></clipPath><clipPath id="clip-path-7"><rect class="cls-1" x="21.56" y="-105.93" width="102" height="73.7"/></clipPath></defs><g class="cls-2"><text class="cls-3" transform="matrix(0.87, -0.5, 0.5, 0.87, -20.19, 26.3)">0</text></g><g class="cls-4"><path class="cls-5" d="M-42.82,131.85l-36.6-63.3,65-37.5,36.6,63.3Zm26.7-58.8L-28.32,52l-26,15,19.7,34.1ZM-3,95.85l-5.6-9.7-13.9,21Z"/></g><g class="cls-6"><path class="cls-5" d="M85.32-18.8l63.3-36.6,37.5,65-63.3,36.6Zm36,39.9,9.7-5.6L110,1.6ZM144,7.9l21.1-12.2-15-26L116-10.6Z"/></g><g class="cls-7"><rect class="cls-8" y="-0.35" width="102" height="73.7"/></g><g class="cls-7"><path class="cls-5" d="M73.6,131.85,37,68.55l65-37.5,36.6,63.3Zm26.8-58.7L88.2,52.05l-26,15,19.7,34.1Zm13.1,22.7-5.6-9.7-13.9,21Z"/></g><g class="cls-7"><path class="cls-5" d="M-36.7-18.75l63.3-36.6,37.5,65L.8,46.25Zm36,39.9L9,15.55-12,1.65ZM22,8,43.1-4.25l-15-26L-6-10.55Z"/></g><path class="cls-9" d="M21.9,71.65l-3-5.2L26.7,62l.8,1.3,7.8-4.5-5.2-9.1-15.6,9L7.4,46.35l20.8-12,2.2,3.9-13,7.5,2.6,4.5,15.6-9,9.8,16.9Z"/><path class="cls-9" d="M48.5,56.25,33.9,31l26-15,14.6,25.3Zm10.7-23.5-4.9-8.4-10.4,6L51.8,44Zm5.3,9.1L62.3,38l-5.5,8.4Z"/><path class="cls-9" d="M77.8,39.35l-3-5.2,7.8-4.5.8,1.4,6.5-3.8L85,18.85l-14.3,8.2-2.2-3.9L75.9,12,65.5,18l-2.2-3.9L85.4,1.15l1.9,3.2L79,17l11.7-6.8,9.4,16.2Z"/><g class="cls-10"><path class="cls-11" d="M95.26,26.27,58.66-37l65-37.5,36.6,63.3ZM122-32.53l-12.2-21.1-26,15,19.7,34.1Zm13.1,22.8-5.6-9.7-13.9,21Z"/></g></svg>