<svg id="Слой_1" data-name="Слой 1" xmlns="http://www.w3.org/2000/svg" xmlns:xlink="http://www.w3.org/1999/xlink" viewBox="0 0 102 73"><defs><style>.cls-1{fill:none;}.cls-2{clip-path:url(#clip-path);}.cls-3{fill:#854e13;}.cls-4{clip-path:url(#clip-path-2);}.cls-5{fill:#ca8b0c;}.cls-6{clip-path:url(#clip-path-5);}.cls-7{isolation:isolate;}.cls-8{fill:#fff;}</style><clipPath id="clip-path"><rect class="cls-1" x="-115.42" y="-0.35" width="102" height="73.7"/></clipPath><clipPath id="clip-path-2"><rect class="cls-1" y="-0.35" width="102" height="73.7"/></clipPath><clipPath id="clip-path-5"><rect class="cls-1" x="115.42" y="-0.35" width="102" height="73.7"/></clipPath></defs><g class="cls-2"><path class="cls-3" d="M-41.72,131.85l-36.6-63.3,65-37.5,36.6,63.3ZM-15,73.05-27.22,52l-26,15,19.7,34.1Zm13.1,22.8-5.6-9.7-13.9,21Z"/></g><g class="cls-4"><rect class="cls-5" y="-0.35" width="102" height="73.7"/></g><g class="cls-4"><path class="cls-3" d="M73.7,131.85,37.1,68.55l65-37.5,36.6,63.3Zm26.7-58.8L88.2,52l-26,15,19.7,34.1Zm13.1,22.8-5.6-9.7-13.9,21Z"/></g><g class="cls-4"><path class="cls-3" d="M-36.7-18.75l63.3-36.6,37.5,65L.8,46.25Zm36,39.9L9,15.55-12,1.65ZM22,8.05,43.1-4.15l-15-26L-6-10.45Z"/></g><g class="cls-6"><path class="cls-3" d="M78.72-18.75,142-55.35l37.5,65-63.3,36.6Zm36,39.9,9.7-5.6-21-13.9Zm22.7-13.1,21.1-12.2-15-26-34.1,19.7Z"/></g><g class="cls-7"><path class="cls-8" d="M21.09,73.35l-3-5.2,7.8-4.5.75,1.3,7.79-4.5-5.25-9.09-15.59,9L6.47,48,27.25,36l2.25,3.9-13,7.5L19.14,52l15.59-9,9.75,16.89Z"/><path class="cls-8" d="M47.72,58l-3-5.19,7.8-4.5.75,1.3,6.49-3.75-4.87-8.45L40.6,45.63l-2.25-3.89,7.39-11.2-10.39,6-2.25-3.9L55.18,19.89l1.88,3.25-8.32,12.6L60.43,29l9.38,16.23Z"/><path class="cls-8" d="M73.05,43.35,65.93,31l5.19-3-6.69.4L58.43,18,87,1.52l6,10.39-3.7,5.6,5.2-3,7.12,12.34ZM84.46,15.11l-3-5.19-13,7.5,3,5.19,8.37-.5Zm7.13,12.34L89,22.91l-13,7.5L78.6,35Z"/></g></svg>