<svg id="Слой_1" data-name="Слой 1" xmlns="http://www.w3.org/2000/svg" xmlns:xlink="http://www.w3.org/1999/xlink" viewBox="0 0 102 73"><defs><style>.cls-1{fill:none;}.cls-2{clip-path:url(#clip-path);}.cls-3{fill:#854e13;}.cls-4{clip-path:url(#clip-path-2);}.cls-5{fill:#ca8b0c;}.cls-6{clip-path:url(#clip-path-5);}.cls-7{isolation:isolate;}.cls-8{fill:#fff;}</style><clipPath id="clip-path"><rect class="cls-1" x="-109.9" y="-0.35" width="102" height="73.7"/></clipPath><clipPath id="clip-path-2"><rect class="cls-1" y="-0.35" width="102" height="73.7"/></clipPath><clipPath id="clip-path-5"><rect class="cls-1" x="113.77" y="-0.35" width="102" height="73.7"/></clipPath></defs><g class="cls-2"><path class="cls-3" d="M-36.2,131.85l-36.6-63.3,65-37.5,36.6,63.3Zm26.7-58.8L-21.7,52l-26,15,19.7,34.1ZM3.6,95.85-2,86.15l-13.9,21Z"/></g><g class="cls-4"><rect class="cls-5" y="-0.35" width="102" height="73.7"/></g><g class="cls-4"><path class="cls-3" d="M73.7,131.85,37.1,68.55l65-37.5,36.6,63.3Zm26.7-58.8L88.2,52l-26,15,19.7,34.1Zm13.1,22.8-5.6-9.7-13.9,21Z"/></g><g class="cls-4"><path class="cls-3" d="M-36.7-18.75l63.3-36.6,37.5,65L.8,46.25Zm36,39.9L9,15.55-12,1.65ZM22,8.05,43.1-4.15l-15-26L-6-10.45Z"/></g><g class="cls-6"><path class="cls-3" d="M77.07-18.75l63.3-36.6,37.5,65-63.3,36.6Zm36,39.9,9.7-5.6-21-13.9Zm22.7-13.1,21.1-12.2-15-26-34.1,19.7Z"/></g><g class="cls-7"><path class="cls-8" d="M23.7,71.54l-3-5.2,7.8-4.5.75,1.3L37,58.64l-5.25-9.09-15.59,9L9.08,46.21l20.78-12,2.25,3.89-13,7.5,2.63,4.55,15.59-9L47.09,58Z"/><path class="cls-8" d="M50.33,56.16l-3-5.19,7.8-4.5.75,1.29,7.79-4.5-5.25-9.09-15.59,9L35.71,30.83l20.78-12,2.25,3.9-13,7.5,2.63,4.55,15.58-9,9.75,16.88Z"/><path class="cls-8" d="M77,40.79,67.21,23.9l15.59-9-2.62-4.55-13,7.5L64.94,14,85.72,2,92.84,14.3l-15.58,9,5.25,9.09,7.79-4.5-.75-1.3,7.79-4.5,3,5.2Z"/></g></svg>