<svg id="Слой_1" data-name="Слой 1" xmlns="http://www.w3.org/2000/svg" xmlns:xlink="http://www.w3.org/1999/xlink" viewBox="0 0 102 73"><defs><style>.cls-1{fill:none;}.cls-2{clip-path:url(#clip-path);}.cls-3{fill:#9f173a;}.cls-4{clip-path:url(#clip-path-2);}.cls-5{clip-path:url(#clip-path-3);}.cls-6{fill:#854e13;}.cls-7{clip-path:url(#clip-path-4);}.cls-8{fill:#ca8b0c;}.cls-9{clip-path:url(#clip-path-7);}.cls-10{isolation:isolate;}.cls-11{fill:#fff;}</style><clipPath id="clip-path"><rect class="cls-1" x="-3.96" y="-105.88" width="102" height="73.7"/></clipPath><clipPath id="clip-path-2"><rect class="cls-1" x="-124.88" y="-105.88" width="102" height="73.7"/></clipPath><clipPath id="clip-path-3"><rect class="cls-1" x="-115.42" y="-0.35" width="102" height="73.7"/></clipPath><clipPath id="clip-path-4"><rect class="cls-1" y="-0.35" width="102" height="73.7"/></clipPath><clipPath id="clip-path-7"><rect class="cls-1" x="113.77" y="-0.35" width="102" height="73.7"/></clipPath></defs><g class="cls-2"><path class="cls-3" d="M69.74,26.32,33.14-37l65-37.5,36.6,63.3Zm26.7-58.8-12.2-21.1-26,15,19.7,34.1Zm13.1,22.8-5.6-9.7L90,1.62Z"/></g><g class="cls-4"><path class="cls-3" d="M-51.18,26.32-87.78-37l65-37.5,36.6,63.3Zm26.7-58.8-12.2-21.1-26,15L-43-4.48Zm13.1,22.8-5.6-9.7-13.9,21Z"/></g><g class="cls-5"><path class="cls-6" d="M-41.72,131.85l-36.6-63.3,65-37.5,36.6,63.3ZM-15,73.05-27.22,52l-26,15,19.7,34.1Zm13.1,22.8-5.6-9.7-13.9,21Z"/></g><g class="cls-7"><rect class="cls-8" y="-0.35" width="102" height="73.7"/></g><g class="cls-7"><path class="cls-6" d="M73.7,131.85,37.1,68.55l65-37.5,36.6,63.3Zm26.7-58.8L88.2,52l-26,15,19.7,34.1Zm13.1,22.8-5.6-9.7-13.9,21Z"/></g><g class="cls-7"><path class="cls-6" d="M-36.7-18.75l63.3-36.6,37.5,65L.8,46.25Zm36,39.9L9,15.55-12,1.65ZM22,8.05,43.1-4.15l-15-26L-6-10.45Z"/></g><g class="cls-9"><path class="cls-6" d="M77.07-18.75l63.3-36.6,37.5,65-63.3,36.6Zm36,39.9,9.7-5.6-21-13.9Zm22.7-13.1,21.1-12.2-15-26-34.1,19.7Z"/></g><g class="cls-10"><path class="cls-11" d="M22.33,72.36l-3-5.19,7.79-4.5L27.87,64l7.8-4.5-5.25-9.09-15.59,9L7.71,47,28.49,35l2.25,3.9-13,7.5L20.37,51,36,42l9.75,16.89Z"/><path class="cls-11" d="M49,57l-3-5.2,7.79-4.5.75,1.3,7.8-4.5L57.05,35,41.46,44,34.34,31.66l20.78-12,2.25,3.89-13,7.5L47,35.6l15.59-9,9.75,16.89Z"/><path class="cls-11" d="M75.59,41.61,61,16.28l26-15,14.63,25.33ZM86.28,18.12,81.4,9.68,71,15.68l7.87,13.64Zm5.25,9.09-2.25-3.89-5.55,8.39Z"/></g></svg>