<svg id="Слой_1" data-name="Слой 1" xmlns="http://www.w3.org/2000/svg" xmlns:xlink="http://www.w3.org/1999/xlink" viewBox="0 0 102 73"><defs><style>.cls-1{fill:none;}.cls-2{clip-path:url(#clip-path);}.cls-3{fill:#3f6212;}.cls-4{clip-path:url(#clip-path-2);}.cls-5{clip-path:url(#clip-path-3);}.cls-6{fill:#854e13;}.cls-7{clip-path:url(#clip-path-4);}.cls-8{fill:#ca8b0c;}.cls-9{isolation:isolate;}.cls-10{fill:#fff;}</style><clipPath id="clip-path"><rect class="cls-1" x="109.37" y="97.48" width="102" height="73.7"/></clipPath><clipPath id="clip-path-2"><rect class="cls-1" y="97.48" width="102" height="73.7"/></clipPath><clipPath id="clip-path-3"><rect class="cls-1" x="109.37" y="-0.35" width="102" height="73.7"/></clipPath><clipPath id="clip-path-4"><rect class="cls-1" y="-0.35" width="102" height="73.7"/></clipPath></defs><g class="cls-2"><path class="cls-3" d="M72.67,79.08,136,42.48l37.5,65-63.3,36.6Zm36,39.9,9.7-5.6-21-13.9Zm22.7-13.1,21.1-12.2-15-26-34.1,19.7Z"/></g><g class="cls-4"><path class="cls-3" d="M-36.7,79.08l63.3-36.6,37.5,65L.8,144.08ZM-.7,119l9.7-5.6-21-13.9ZM22,105.88l21.1-12.2-15-26L-6,87.38Z"/></g><g class="cls-5"><path class="cls-6" d="M72.67-18.75,136-55.35l37.5,65-63.3,36.6Zm36,39.9,9.7-5.6-21-13.9Zm22.7-13.1,21.1-12.2-15-26-34.1,19.7Z"/></g><g class="cls-7"><rect class="cls-8" y="-0.35" width="102" height="73.7"/></g><g class="cls-7"><path class="cls-6" d="M73.7,131.85,37.1,68.55l65-37.5,36.6,63.3Zm26.7-58.8L88.2,52l-26,15,19.7,34.1Zm13.1,22.8-5.6-9.7-13.9,21Z"/></g><g class="cls-7"><path class="cls-6" d="M-36.7-18.75l63.3-36.6,37.5,65L.8,46.25Zm36,39.9L9,15.55-12,1.65ZM22,8.05,43.1-4.15l-15-26L-6-10.45Z"/></g><g class="cls-9"><path class="cls-10" d="M28.61,68.88l-3-5.2,7.79-4.5.75,1.3L41.94,56l-5.25-9.09-15.58,9L14,43.55l20.78-12L37,35.45,24,43l2.63,4.54,15.59-9L52,55.38Z"/><path class="cls-10" d="M55.24,53.51,40.61,28.17l26-15L81.21,38.51ZM65.92,30l-4.87-8.45-10.4,6,7.88,13.64Zm5.25,9.09-2.25-3.9-5.54,8.4Z"/><path class="cls-10" d="M91,32.88,78.58,11.45,72.09,15.2l-2.25-3.9L84.13,3.05,98.75,28.38Z"/></g></svg>