<svg id="Слой_1" data-name="Слой 1" xmlns="http://www.w3.org/2000/svg" xmlns:xlink="http://www.w3.org/1999/xlink" viewBox="0 0 102 73"><defs><style>.cls-1{fill:none;}.cls-2{clip-path:url(#clip-path);}.cls-3{fill:#3f6212;}.cls-4{clip-path:url(#clip-path-2);}.cls-5{clip-path:url(#clip-path-3);}.cls-11,.cls-6{isolation:isolate;}.cls-6{font-size:60px;fill:#9f173a;font-family:High-Marker-Flat, High Marker Flat;}.cls-7{clip-path:url(#clip-path-4);}.cls-8{fill:#ca8b0c;}.cls-9{fill:#854e13;}.cls-10{clip-path:url(#clip-path-7);}.cls-12{fill:#fff;}.cls-13{clip-path:url(#clip-path-8);}</style><clipPath id="clip-path"><rect class="cls-1" x="112.01" y="97.48" width="102" height="73.7"/></clipPath><clipPath id="clip-path-2"><rect class="cls-1" y="97.48" width="102" height="73.7"/></clipPath><clipPath id="clip-path-3"><rect class="cls-1" x="22.66" y="-105.88" width="102" height="73.7"/></clipPath><clipPath id="clip-path-4"><rect class="cls-1" y="-0.35" width="102" height="73.7"/></clipPath><clipPath id="clip-path-7"><rect class="cls-1" x="-109.37" y="-0.35" width="102" height="73.7"/></clipPath><clipPath id="clip-path-8"><rect class="cls-1" x="116.52" y="-0.35" width="102" height="73.7"/></clipPath></defs><g class="cls-2"><path class="cls-3" d="M75.31,79.08l63.3-36.6,37.5,65-63.3,36.6Zm36,39.9,9.7-5.6-21-13.9Zm22.7-13.1,21.1-12.2-15-26L106,87.38Z"/></g><g class="cls-4"><path class="cls-3" d="M-36.7,79.08l63.3-36.6,37.5,65L.8,144.08ZM-.7,119l9.7-5.6-21-13.9ZM22,105.88l21.1-12.2-15-26L-6,87.38Z"/></g><g class="cls-5"><text class="cls-6" transform="matrix(0.87, -0.5, 0.5, 0.87, 96.33, 26.3)">0</text></g><g class="cls-7"><rect class="cls-8" y="-0.35" width="102" height="73.7"/></g><g class="cls-7"><path class="cls-9" d="M73.7,131.85,37.1,68.55l65-37.5,36.6,63.3Zm26.7-58.8L88.2,52l-26,15,19.7,34.1Zm13.1,22.8-5.6-9.7-13.9,21Z"/></g><g class="cls-7"><path class="cls-9" d="M-36.7-18.75l63.3-36.6,37.5,65L.8,46.25Zm36,39.9L9,15.55-12,1.65ZM22,8.05,43.1-4.15l-15-26L-6-10.45Z"/></g><g class="cls-10"><path class="cls-9" d="M-35.67,131.85l-36.6-63.3,65-37.5,36.6,63.3ZM-9,73.05-21.17,52l-26,15,19.7,34.1Zm13.1,22.8-5.6-9.7-13.9,21Z"/></g><g class="cls-11"><path class="cls-12" d="M22.05,72.6l-3-5.2,7.8-4.5.75,1.3,7.79-4.5-5.25-9.09-15.59,9L7.43,47.27l20.78-12,2.25,3.9-13,7.5,2.63,4.54,15.58-9L45.43,59.1Z"/><path class="cls-12" d="M48.68,57.23,34.06,31.89l26-15L74.66,42.23ZM59.37,33.74l-4.88-8.45-10.39,6L52,44.93Zm5.25,9.09-2.25-3.9-5.55,8.4Z"/><path class="cls-12" d="M77.91,40.35,68.16,23.46l15.59-9L81.12,9.92l-13,7.5-2.25-3.9,20.79-12,7.12,12.34-15.59,9L83.45,32l7.8-4.5-.75-1.3,7.79-4.5,3,5.2Z"/></g><g class="cls-13"><path class="cls-9" d="M79.82-18.75l63.3-36.6,37.5,65-63.3,36.6Zm36,39.9,9.7-5.6-21-13.9ZM138.52,8l21.1-12.2-15-26-34.1,19.7Z"/></g></svg>