<svg id="Слой_1" data-name="Слой 1" xmlns="http://www.w3.org/2000/svg" xmlns:xlink="http://www.w3.org/1999/xlink" viewBox="0 0 102 73"><defs><style>.cls-1{fill:none;}.cls-2{clip-path:url(#clip-path);}.cls-3{fill:#854e13;}.cls-4{clip-path:url(#clip-path-2);}.cls-5{fill:#ca8b0c;}.cls-6{isolation:isolate;}.cls-7{fill:#fff;}</style><clipPath id="clip-path"><rect class="cls-1" x="-113.77" y="-0.35" width="102" height="73.7"/></clipPath><clipPath id="clip-path-2"><rect class="cls-1" y="-0.35" width="102" height="73.7"/></clipPath></defs><g class="cls-2"><path class="cls-3" d="M-40.07,131.85l-36.6-63.3,65-37.5,36.6,63.3Zm26.7-58.8L-25.57,52l-26,15,19.7,34.1Zm13.1,22.8-5.6-9.7-13.9,21Z"/></g><g class="cls-4"><rect class="cls-5" y="-0.35" width="102" height="73.7"/></g><g class="cls-4"><path class="cls-3" d="M73.7,131.85,37.1,68.55l65-37.5,36.6,63.3Zm26.7-58.8L88.2,52l-26,15,19.7,34.1Zm13.1,22.8-5.6-9.7-13.9,21Z"/></g><g class="cls-4"><path class="cls-3" d="M-36.7-18.75l63.3-36.6,37.5,65L.8,46.25Zm36,39.9L9,15.55-12,1.65ZM22,8.05,43.1-4.15l-15-26L-6-10.45Z"/></g><g class="cls-6"><path class="cls-7" d="M24.53,71.12l-3-5.19,7.79-4.5.75,1.3,7.8-4.5-5.25-9.1L17,58.13,9.9,45.79l20.79-12,2.25,3.9-13,7.5,2.62,4.55,15.59-9,9.75,16.88Z"/><path class="cls-7" d="M51.16,55.75l-3-5.2L56,46.05l.75,1.3,7.8-4.5-5.25-9.09-15.59,9L36.53,30.42l20.79-12,2.25,3.9-13,7.5,2.62,4.54,15.59-9,9.75,16.89Z"/><path class="cls-7" d="M77.79,40.37l-3-5.19,7.79-4.5.75,1.3,6.5-3.75L85,19.78,70.66,28l-2.25-3.89,7.39-11.2-10.39,6L63.16,15,85.25,2.29l1.87,3.25L78.8,18.14l11.7-6.75,9.37,16.23Z"/></g></svg>