<svg id="Слой_1" data-name="Слой 1" xmlns="http://www.w3.org/2000/svg" xmlns:xlink="http://www.w3.org/1999/xlink" viewBox="0 0 102 73"><defs><style>.cls-1{fill:none;}.cls-2{clip-path:url(#clip-path);}.cls-11,.cls-3{isolation:isolate;}.cls-3{font-size:60px;font-family:High-Marker-Flat, High Marker Flat;}.cls-3,.cls-5{fill:#9f173a;}.cls-4{clip-path:url(#clip-path-2);}.cls-6{clip-path:url(#clip-path-3);}.cls-7{fill:#854e13;}.cls-8{clip-path:url(#clip-path-4);}.cls-9{fill:#ca8b0c;}.cls-10{clip-path:url(#clip-path-7);}.cls-12{fill:#fff;}</style><clipPath id="clip-path"><rect class="cls-1" x="-122.46" y="-105.88" width="102" height="73.7"/></clipPath><clipPath id="clip-path-2"><rect class="cls-1" x="-2.65" y="-105.88" width="102" height="73.7"/></clipPath><clipPath id="clip-path-3"><rect class="cls-1" x="-117.07" y="-0.35" width="102" height="73.7"/></clipPath><clipPath id="clip-path-4"><rect class="cls-1" y="-0.35" width="102" height="73.7"/></clipPath><clipPath id="clip-path-7"><rect class="cls-1" x="123.66" y="-0.35" width="102" height="73.7"/></clipPath></defs><g class="cls-2"><text class="cls-3" transform="matrix(0.87, -0.5, 0.5, 0.87, -48.78, 26.3)">0</text></g><g class="cls-4"><path class="cls-5" d="M71.05,26.32,34.45-37l65-37.5,36.6,63.3Zm26.7-58.8-12.2-21.1-26,15,19.7,34.1Zm13.1,22.8-5.6-9.7-13.9,21Z"/></g><g class="cls-6"><path class="cls-7" d="M-43.37,131.85-80,68.55l65-37.5,36.6,63.3Zm26.7-58.8L-28.87,52l-26,15,19.7,34.1Zm13.1,22.8-5.6-9.7-13.9,21Z"/></g><g class="cls-8"><rect class="cls-9" y="-0.35" width="102" height="73.7"/></g><g class="cls-8"><path class="cls-7" d="M73.7,131.85,37.1,68.55l65-37.5,36.6,63.3Zm26.7-58.8L88.2,52l-26,15,19.7,34.1Zm13.1,22.8-5.6-9.7-13.9,21Z"/></g><g class="cls-8"><path class="cls-7" d="M-36.7-18.75l63.3-36.6,37.5,65L.8,46.25Zm36,39.9L9,15.55-12,1.65ZM22,8.05,43.1-4.15l-15-26L-6-10.45Z"/></g><g class="cls-10"><path class="cls-7" d="M87-18.75l63.3-36.6,37.5,65-63.3,36.6Zm36,39.9,9.7-5.6-21-13.9Zm22.7-13.1,21.1-12.2-15-26-34.1,19.7Z"/></g><g class="cls-11"><path class="cls-12" d="M25.49,71.26l-3-5.19,7.79-4.5.75,1.3,7.8-4.5-5.25-9.1L18,58.27,10.87,45.93l20.78-12,2.25,3.9-13,7.5,2.62,4.55,15.59-9,9.75,16.88Z"/><path class="cls-12" d="M52.12,55.89l-3-5.2,7.79-4.5.75,1.3,6.5-3.75L59.28,35.3,45,43.55l-2.25-3.9,7.39-11.2-10.39,6L37.5,30.56,59.58,17.81l1.87,3.24-8.31,12.6L64.83,26.9,74.2,43.14Z"/><path class="cls-12" d="M77.45,41.26l-3-5.19,7.79-4.5.75,1.3,6.5-3.75-4.88-8.45L70.33,28.92,68.08,25l7.39-11.19-10.39,6-2.25-3.9L84.91,3.18l1.87,3.25L78.47,19l11.69-6.75,9.37,16.24Z"/></g></svg>