<svg id="Слой_1" data-name="Слой 1" xmlns="http://www.w3.org/2000/svg" xmlns:xlink="http://www.w3.org/1999/xlink" viewBox="0 0 102 73"><defs><style>.cls-1{fill:none;}.cls-2{clip-path:url(#clip-path);}.cls-11,.cls-3{isolation:isolate;}.cls-3{font-size:60px;font-family:High-Marker-Flat, High Marker Flat;}.cls-3,.cls-5{fill:#9f173a;}.cls-4{clip-path:url(#clip-path-2);}.cls-6{clip-path:url(#clip-path-3);}.cls-7{fill:#854e13;}.cls-8{clip-path:url(#clip-path-4);}.cls-9{fill:#ca8b0c;}.cls-10{clip-path:url(#clip-path-7);}.cls-12{fill:#fff;}</style><clipPath id="clip-path"><rect class="cls-1" x="-4.84" y="-105.88" width="102" height="73.7"/></clipPath><clipPath id="clip-path-2"><rect class="cls-1" x="-125.76" y="-105.88" width="102" height="73.7"/></clipPath><clipPath id="clip-path-3"><rect class="cls-1" x="-120.37" y="-0.35" width="102" height="73.7"/></clipPath><clipPath id="clip-path-4"><rect class="cls-1" y="-0.35" width="102" height="73.7"/></clipPath><clipPath id="clip-path-7"><rect class="cls-1" x="115.42" y="-0.35" width="102" height="73.7"/></clipPath></defs><g class="cls-2"><text class="cls-3" transform="matrix(0.87, -0.5, 0.5, 0.87, 68.87, 26.3)">0</text></g><g class="cls-4"><path class="cls-5" d="M-52.06,26.32-88.66-37l65-37.5,36.6,63.3Zm26.7-58.8-12.2-21.1-26,15,19.7,34.1Zm13.1,22.8-5.6-9.7-13.9,21Z"/></g><g class="cls-6"><path class="cls-7" d="M-46.67,131.85l-36.6-63.3,65-37.5,36.6,63.3ZM-20,73.05-32.17,52l-26,15,19.7,34.1Zm13.1,22.8-5.6-9.7-13.9,21Z"/></g><g class="cls-8"><rect class="cls-9" y="-0.35" width="102" height="73.7"/></g><g class="cls-8"><path class="cls-7" d="M73.7,131.85,37.1,68.55l65-37.5,36.6,63.3Zm26.7-58.8L88.2,52l-26,15,19.7,34.1Zm13.1,22.8-5.6-9.7-13.9,21Z"/></g><g class="cls-8"><path class="cls-7" d="M-36.7-18.75l63.3-36.6,37.5,65L.8,46.25Zm36,39.9L9,15.55-12,1.65ZM22,8.05,43.1-4.15l-15-26L-6-10.45Z"/></g><g class="cls-10"><path class="cls-7" d="M78.72-18.75,142-55.35l37.5,65-63.3,36.6Zm36,39.9,9.7-5.6-21-13.9Zm22.7-13.1,21.1-12.2-15-26-34.1,19.7Z"/></g><g class="cls-11"><path class="cls-12" d="M24.53,71.4l-3-5.2,7.79-4.5.75,1.3,7.8-4.5-5.25-9.09L17,58.41,9.9,46.07l20.79-12L32.94,38l-13,7.5L22.57,50l15.59-9L47.91,57.9Z"/><path class="cls-12" d="M51.16,56l-3-5.19L56,46.33l.75,1.3,6.5-3.75-4.88-8.45L44,43.68l-2.25-3.89,7.4-11.2-10.4,6-2.25-3.9L58.62,17.94l1.87,3.25-8.31,12.6L63.87,27l9.37,16.23Z"/><path class="cls-12" d="M76.49,41.4,61.86,16.07l20.79-12L84.9,8l-13,7.5,4.5,7.79L82,14.86l7.8-4.5L99.87,27.9ZM89.83,28.5,85,20.06l-5.54,8.4L82,33Z"/></g></svg>