<svg id="Слой_1" data-name="Слой 1" xmlns="http://www.w3.org/2000/svg" xmlns:xlink="http://www.w3.org/1999/xlink" viewBox="0 0 102 73"><defs><style>.cls-1{fill:none;}.cls-2{clip-path:url(#clip-path);}.cls-10,.cls-3{isolation:isolate;}.cls-3{font-size:60px;fill:#9f173a;font-family:High-Marker-Flat, High Marker Flat;}.cls-4{clip-path:url(#clip-path-2);}.cls-5{clip-path:url(#clip-path-3);}.cls-6{fill:#854e13;}.cls-7{clip-path:url(#clip-path-4);}.cls-8{fill:#ca8b0c;}.cls-9{clip-path:url(#clip-path-7);}.cls-11{fill:#fff;}</style><clipPath id="clip-path"><rect class="cls-1" x="-5.39" y="-105.88" width="102" height="73.7"/></clipPath><clipPath id="clip-path-2"><rect class="cls-1" x="-119.16" y="-105.88" width="102" height="73.7"/></clipPath><clipPath id="clip-path-3"><rect class="cls-1" x="-122.02" y="-0.35" width="102" height="73.7"/></clipPath><clipPath id="clip-path-4"><rect class="cls-1" y="-0.35" width="102" height="73.7"/></clipPath><clipPath id="clip-path-7"><rect class="cls-1" x="117.07" y="-0.35" width="102" height="73.7"/></clipPath></defs><g class="cls-2"><text class="cls-3" transform="matrix(0.87, -0.5, 0.5, 0.87, 68.29, 26.3)">0</text></g><g class="cls-4"><text class="cls-3" transform="matrix(0.87, -0.5, 0.5, 0.87, -45.47, 26.3)">0</text></g><g class="cls-5"><path class="cls-6" d="M-48.32,131.85l-36.6-63.3,65-37.5,36.6,63.3Zm26.7-58.8L-33.82,52l-26,15,19.7,34.1Zm13.1,22.8-5.6-9.7-13.9,21Z"/></g><g class="cls-7"><rect class="cls-8" y="-0.35" width="102" height="73.7"/></g><g class="cls-7"><path class="cls-6" d="M73.7,131.85,37.1,68.55l65-37.5,36.6,63.3Zm26.7-58.8L88.2,52l-26,15,19.7,34.1Zm13.1,22.8-5.6-9.7-13.9,21Z"/></g><g class="cls-7"><path class="cls-6" d="M-36.7-18.75l63.3-36.6,37.5,65L.8,46.25Zm36,39.9L9,15.55-12,1.65ZM22,8.05,43.1-4.15l-15-26L-6-10.45Z"/></g><g class="cls-9"><path class="cls-6" d="M80.37-18.75l63.3-36.6,37.5,65-63.3,36.6Zm36,39.9,9.7-5.6-21-13.9Zm22.7-13.1,21.1-12.2-15-26-34.1,19.7Z"/></g><g class="cls-10"><path class="cls-11" d="M24.12,71.4l-3-5.2,7.79-4.5.75,1.3,7.8-4.5-5.25-9.09-15.59,9L9.49,46.07l20.79-12L32.53,38l-13,7.5L22.16,50l15.59-9L47.5,57.9Z"/><path class="cls-11" d="M50.75,56l-3-5.19,7.79-4.5.75,1.3,6.5-3.75-4.88-8.45L43.62,43.68l-2.25-3.89,7.39-11.2-10.39,6-2.25-3.9L58.2,17.94l1.88,3.25-8.32,12.6L63.45,27l9.38,16.23Z"/><path class="cls-11" d="M76.08,41.4,66.33,24.51l15.59-9L79.29,11l-13,7.5-2.25-3.9,20.78-12L92,14.91l-15.59,9L81.62,33l7.8-4.5-.75-1.3,7.79-4.5,3,5.2Z"/></g></svg>