<svg id="Слой_1" data-name="Слой 1" xmlns="http://www.w3.org/2000/svg" xmlns:xlink="http://www.w3.org/1999/xlink" viewBox="0 0 102 73"><defs><style>.cls-1{fill:none;}.cls-2{clip-path:url(#clip-path);}.cls-11,.cls-3{isolation:isolate;}.cls-3{font-size:60px;font-family:High-Marker-Flat, High Marker Flat;}.cls-3,.cls-5{fill:#9f173a;}.cls-4{clip-path:url(#clip-path-2);}.cls-6{clip-path:url(#clip-path-3);}.cls-7{fill:#854e13;}.cls-8{clip-path:url(#clip-path-4);}.cls-9{fill:#ca8b0c;}.cls-10{clip-path:url(#clip-path-7);}.cls-12{fill:#fff;}</style><clipPath id="clip-path"><rect class="cls-1" x="-120.26" y="-105.88" width="102" height="73.7"/></clipPath><clipPath id="clip-path-2"><rect class="cls-1" x="-9.46" y="-105.88" width="102" height="73.7"/></clipPath><clipPath id="clip-path-3"><rect class="cls-1" x="-115.42" y="-0.35" width="102" height="73.7"/></clipPath><clipPath id="clip-path-4"><rect class="cls-1" y="-0.35" width="102" height="73.7"/></clipPath><clipPath id="clip-path-7"><rect class="cls-1" x="115.42" y="-0.35" width="102" height="73.7"/></clipPath></defs><g class="cls-2"><text class="cls-3" transform="matrix(0.87, -0.5, 0.5, 0.87, -46.55, 26.3)">0</text></g><g class="cls-4"><path class="cls-5" d="M64.24,26.32,27.64-37l65-37.5,36.6,63.3Zm26.7-58.8-12.2-21.1-26,15,19.7,34.1ZM104-9.68l-5.6-9.7-13.9,21Z"/></g><g class="cls-6"><path class="cls-7" d="M-41.72,131.85l-36.6-63.3,65-37.5,36.6,63.3ZM-15,73.05-27.22,52l-26,15,19.7,34.1Zm13.1,22.8-5.6-9.7-13.9,21Z"/></g><g class="cls-8"><rect class="cls-9" y="-0.35" width="102" height="73.7"/></g><g class="cls-8"><path class="cls-7" d="M73.7,131.85,37.1,68.55l65-37.5,36.6,63.3Zm26.7-58.8L88.2,52l-26,15,19.7,34.1Zm13.1,22.8-5.6-9.7-13.9,21Z"/></g><g class="cls-8"><path class="cls-7" d="M-36.7-18.75l63.3-36.6,37.5,65L.8,46.25Zm36,39.9L9,15.55-12,1.65ZM22,8.05,43.1-4.15l-15-26L-6-10.45Z"/></g><g class="cls-10"><path class="cls-7" d="M78.72-18.75,142-55.35l37.5,65-63.3,36.6Zm36,39.9,9.7-5.6-21-13.9Zm22.7-13.1,21.1-12.2-15-26-34.1,19.7Z"/></g><g class="cls-11"><path class="cls-12" d="M24.12,71.81l-3-5.19,7.79-4.5.75,1.29,7.79-4.5L32.2,49.82l-15.58,9L9.49,46.48l20.79-12,2.25,3.9-13,7.5,2.62,4.54,15.59-9L47.5,58.31Z"/><path class="cls-12" d="M50.75,56.44l-3-5.2,7.79-4.5.75,1.3,6.5-3.75-4.88-8.44L43.62,44.1l-2.25-3.9L48.76,29,38.37,35l-2.25-3.89L58.2,18.36l1.88,3.24L51.76,34.2l11.69-6.75,9.38,16.24Z"/><path class="cls-12" d="M80,39.56l-3-5.19L87.14,19,81.89,9.88,63.7,20.38l-2.25-3.9,26-15,8.25,14.29L85.52,31.16l2.25,3.9Z"/></g></svg>