<svg id="Слой_1" data-name="Слой 1" xmlns="http://www.w3.org/2000/svg" xmlns:xlink="http://www.w3.org/1999/xlink" viewBox="0 0 102 73.7"><defs><style>.cls-1{fill:none;}.cls-2{clip-path:url(#clip-path);}.cls-3{fill:#fbb811;}.cls-4{clip-path:url(#clip-path-2);}.cls-5{fill:#339fda;}.cls-6{fill:#e95228;}.cls-7{fill:#0f0f0e;}</style><clipPath id="clip-path"><rect class="cls-1" x="-126.14" width="102" height="73.7"/></clipPath><clipPath id="clip-path-2"><rect class="cls-1" width="102" height="73.7"/></clipPath></defs><g class="cls-2"><path class="cls-3" d="M-52.44,132.2-89,68.9l65-37.5,36.6,63.3Zm26.7-58.8-12.2-21.1-26,15,19.7,34.1Zm13.1,22.8-5.6-9.7-13.9,21Z"/></g><g class="cls-4"><rect class="cls-5" width="102" height="73.7"/></g><g class="cls-4"><path class="cls-3" d="M73.7,132.2,37.1,68.9l65-37.5,36.6,63.3Zm26.7-58.8L88.2,52.3l-26,15,19.7,34.1Zm13.1,22.8-5.6-9.7L94,107.5Z"/></g><g class="cls-4"><path class="cls-6" d="M-36.7-18.4,26.6-55,64.1,10,.8,46.6Zm36,39.9L9,15.9-12,2ZM22,8.4,43.1-3.8l-15-26L-6-10.1Z"/></g><path class="cls-7" d="M43.08,60.39l-2.62-4.54L22.27,66.35l-12-20.79,7.8-4.5L27.82,58l10.39-6L28.46,35.06l7.79-4.5L46,47.45,48.6,46l2.25,3.9-2.6,1.5,2.63,4.54Z"/><path class="cls-7" d="M56.72,52.52l-3-5.2,7.8-4.5.75,1.3,7.79-4.5-5.25-9.09-15.59,9L42.1,27.19l20.78-12,2.25,3.89-13,7.5,2.63,4.55,15.58-9L80.1,39Z"/><path class="cls-7" d="M89.85,33.39,77.47,12,71,15.71l-2.25-3.9L83,3.56,97.64,28.89Z"/></svg>