<svg id="Слой_1" data-name="Слой 1" xmlns="http://www.w3.org/2000/svg" xmlns:xlink="http://www.w3.org/1999/xlink" viewBox="0 0 102 73.7"><defs><style>.cls-1{fill:none;}.cls-2{clip-path:url(#clip-path);}.cls-3{fill:#339fda;}.cls-4{fill:#fbb811;}.cls-5{fill:#e95228;}.cls-6{clip-path:url(#clip-path-4);}.cls-7{clip-path:url(#clip-path-5);}.cls-8{fill:#0f0f0e;}</style><clipPath id="clip-path"><rect class="cls-1" width="102" height="73.7"/></clipPath><clipPath id="clip-path-4"><rect class="cls-1" x="-127.79" width="102" height="73.7"/></clipPath><clipPath id="clip-path-5"><rect class="cls-1" x="126.14" width="102" height="73.7"/></clipPath></defs><g class="cls-2"><rect class="cls-3" width="102" height="73.7"/></g><g class="cls-2"><path class="cls-4" d="M73.7,132.2,37.1,68.9l65-37.5,36.6,63.3Zm26.7-58.8L88.2,52.3l-26,15,19.7,34.1Zm13.1,22.8-5.6-9.7L94,107.5Z"/></g><g class="cls-2"><path class="cls-5" d="M-36.7-18.4,26.6-55,64.1,10,.8,46.6Zm36,39.9L9,15.9-12,2ZM22,8.4,43.1-3.8l-15-26L-6-10.1Z"/></g><g class="cls-6"><path class="cls-4" d="M-54.09,132.2l-36.6-63.3,65-37.5,36.6,63.3Zm26.7-58.8-12.2-21.1-26,15,19.7,34.1Zm13.1,22.8-5.6-9.7-13.9,21Z"/></g><g class="cls-7"><path class="cls-5" d="M89.44-18.4,152.74-55l37.5,65-63.3,36.6Zm36,39.9,9.7-5.6L114.14,2Zm22.7-13.1,21.1-12.2-15-26-34.1,19.7Z"/></g><path class="cls-8" d="M31.68,68.17l-2.63-4.55L10.87,74.12l-12-20.79,7.79-4.5,9.75,16.89,10.39-6L17.05,42.83l7.8-4.5L34.6,55.22l2.59-1.5,2.25,3.9-2.59,1.5,2.62,4.55Z"/><path class="cls-8" d="M63.5,49.79l-2.62-4.55L42.69,55.74,30.69,35l7.8-4.5,9.75,16.89,10.39-6L48.88,24.46,56.67,20l9.75,16.89,2.6-1.5,2.25,3.89-2.6,1.5,2.63,4.55Z"/><path class="cls-8" d="M95.33,31.41l-2.25-3.89L69.64,28.93,62.52,16.58l26-15,14.62,25.33ZM83,10,72.56,16l4.13,7.15,13.39-.81Z"/></svg>