<svg id="Слой_1" data-name="Слой 1" xmlns="http://www.w3.org/2000/svg" xmlns:xlink="http://www.w3.org/1999/xlink" viewBox="0 0 102 73.7"><defs><style>.cls-1{fill:none;}.cls-2{clip-path:url(#clip-path);}.cls-3{fill:#e95228;}.cls-4{clip-path:url(#clip-path-2);}.cls-5{fill:#339fda;}.cls-6{fill:#fbb811;}.cls-7{isolation:isolate;}.cls-8{fill:#0f0f0e;}</style><clipPath id="clip-path"><rect class="cls-1" x="127.79" width="102" height="73.7"/></clipPath><clipPath id="clip-path-2"><rect class="cls-1" width="102" height="73.7"/></clipPath></defs><g class="cls-2"><path class="cls-3" d="M91.09-18.4,154.39-55l37.5,65-63.3,36.6Zm36,39.9,9.7-5.6L115.79,2Zm22.7-13.1,21.1-12.2-15-26-34.1,19.7Z"/></g><g class="cls-4"><rect class="cls-5" width="102" height="73.7"/></g><g class="cls-4"><path class="cls-6" d="M73.7,132.2,37.1,68.9l65-37.5,36.6,63.3Zm26.7-58.8L88.2,52.3l-26,15,19.7,34.1Zm13.1,22.8-5.6-9.7L94,107.5Z"/></g><g class="cls-4"><path class="cls-3" d="M-36.7-18.4,26.6-55,64.1,10,.8,46.6Zm36,39.9L9,15.9-12,2ZM22,8.4,43.1-3.8l-15-26L-6-10.1Z"/></g><g class="cls-7"><path class="cls-8" d="M32.18,66.93l-2.62-4.55L11.37,72.88-.63,52.1l7.79-4.5,9.75,16.89,10.4-6L17.56,41.6l7.79-4.5L35.1,54l2.6-1.5L40,56.38l-2.6,1.5L40,62.43Z"/><path class="cls-8" d="M64,48.55,61.38,44,43.2,54.51l-12-20.79L39,29.22l9.75,16.89,10.39-6L49.38,23.22l7.8-4.5,9.75,16.89,2.59-1.5L71.77,38l-2.59,1.5,2.62,4.54Z"/><path class="cls-8" d="M77.65,40.68,63,15.35l26-15,14.63,25.33ZM88.33,17.19,83.46,8.75l-10.4,6,7.88,13.63Zm5.25,9.09-2.25-3.9-5.54,8.4Z"/></g></svg>