<svg id="Слой_1" data-name="Слой 1" xmlns="http://www.w3.org/2000/svg" xmlns:xlink="http://www.w3.org/1999/xlink" viewBox="0 0 102 73.7"><defs><style>.cls-1{fill:none;}.cls-2{clip-path:url(#clip-path);}.cls-3{fill:#f08224;}.cls-4{clip-path:url(#clip-path-2);}.cls-5{fill:#71727c;}.cls-6{fill:#f8ad40;}.cls-7{clip-path:url(#clip-path-5);}.cls-8{isolation:isolate;}.cls-9{fill:#404042;}</style><clipPath id="clip-path"><rect class="cls-1" x="127.79" width="102" height="73.7"/></clipPath><clipPath id="clip-path-2"><rect class="cls-1" width="102" height="73.7"/></clipPath><clipPath id="clip-path-5"><rect class="cls-1" y="-91.24" width="102" height="73.7"/></clipPath></defs><g class="cls-2"><path class="cls-3" d="M91.09-18.4,154.39-55l37.5,65-63.3,36.6Zm36,39.9,9.7-5.6L115.79,2Zm22.7-13.1,21.1-12.2-15-26-34.1,19.7Z"/></g><g class="cls-4"><rect class="cls-5" width="102" height="73.7"/></g><g class="cls-4"><path class="cls-6" d="M73.7,132.2,37.1,68.9l65-37.5,36.6,63.3Zm26.7-58.8L88.2,52.3l-26,15,19.7,34.1Zm13.1,22.8-5.6-9.7L94,107.5Z"/></g><g class="cls-4"><path class="cls-3" d="M-36.7-18.4,26.6-55,64.1,10,.8,46.6Zm36,39.9L9,15.9-12,2ZM22,8.4,43.1-3.8l-15-26L-6-10.1Z"/></g><g class="cls-7"><path class="cls-6" d="M73.7,41,37.1-22.34l65-37.5,36.6,63.3Zm26.7-58.8L88.2-38.94l-26,15,19.7,34.1ZM113.5,5l-5.6-9.7L94,16.26Z"/></g><g class="cls-8"><path class="cls-9" d="M23.25,72.05l-3-5.2L28,62.35l.75,1.3,7.8-4.5-5.25-9.09-15.59,9L8.62,46.72l20.79-12,2.25,3.89-13,7.5,2.62,4.55,15.59-9,9.75,16.89Z"/><path class="cls-9" d="M49.88,56.67,40.13,39.79l15.59-9-2.63-4.55-13,7.5-2.25-3.9,20.78-12,7.13,12.34-15.59,9,5.25,9.09,7.8-4.5-.75-1.29L70.26,38l3,5.19Z"/><path class="cls-9" d="M76.51,41.3l-3-5.2,7.79-4.5.75,1.3,7.79-4.5-5.25-9.09L69,28.31,61.88,16,82.67,4l2.25,3.89-13,7.5,2.62,4.55,15.59-9L99.89,27.8Z"/></g></svg>