<svg id="Слой_1" data-name="Слой 1" xmlns="http://www.w3.org/2000/svg" xmlns:xlink="http://www.w3.org/1999/xlink" viewBox="0 0 102 73.7"><defs><style>.cls-1{fill:none;}.cls-2{clip-path:url(#clip-path);}.cls-3{fill:#f08224;}.cls-4{clip-path:url(#clip-path-2);}.cls-5{clip-path:url(#clip-path-3);}.cls-6{fill:#71727c;}.cls-7{clip-path:url(#clip-path-6);}.cls-8{fill:#f8ad40;}.cls-9{fill:#404042;}</style><clipPath id="clip-path"><rect class="cls-1" y="91.24" width="102" height="73.7"/></clipPath><clipPath id="clip-path-2"><rect class="cls-1" x="112.12" width="102" height="73.7"/></clipPath><clipPath id="clip-path-3"><rect class="cls-1" width="102" height="73.7"/></clipPath><clipPath id="clip-path-6"><rect class="cls-1" x="-117.89" width="102" height="73.7"/></clipPath></defs><g class="cls-2"><path class="cls-3" d="M-36.7,72.84l63.3-36.6,37.5,65L.8,137.84Zm36,39.9,9.7-5.6-21-13.9ZM22,99.64l21.1-12.2-15-26L-6,81.14Z"/></g><g class="cls-4"><path class="cls-3" d="M75.42-18.4,138.72-55l37.5,65-63.3,36.6Zm36,39.9,9.7-5.6L100.12,2Zm22.7-13.1,21.1-12.2-15-26-34.1,19.7Z"/></g><g class="cls-5"><rect class="cls-6" width="102" height="73.7"/></g><g class="cls-5"><path class="cls-3" d="M73.7,132.2,37.1,68.9l65-37.5,36.6,63.3Zm26.7-58.8L88.2,52.3l-26,15,19.7,34.1Zm13.1,22.8-5.6-9.7L94,107.5Z"/></g><g class="cls-5"><path class="cls-3" d="M-36.7-18.4,26.6-55,64.1,10,.8,46.6Zm36,39.9L9,15.9-12,2ZM22,8.4,43.1-3.8l-15-26L-6-10.1Z"/></g><g class="cls-7"><path class="cls-8" d="M-44.19,132.2l-36.6-63.3,65-37.5,36.6,63.3Zm26.7-58.8-12.2-21.1-26,15L-36,101.4Zm13.1,22.8L-10,86.5l-13.9,21Z"/></g><path class="cls-9" d="M24.44,71.79l-3-5.19,7.79-4.5L30,63.4l7.8-4.5-5.25-9.1-15.59,9L9.82,46.46l20.78-12,2.25,3.9-13,7.5,2.62,4.55,15.59-9,9.75,16.88Z"/><path class="cls-9" d="M51.07,56.42,41.32,39.53l15.59-9L54.28,26l-13,7.5L39,29.59l20.79-12L67,29.93l-15.59,9L56.61,48l7.8-4.5-.75-1.3,7.79-4.5,3,5.2Z"/><path class="cls-9" d="M77.7,41l-3-5.19,7.79-4.5.75,1.3,6.5-3.75-4.88-8.45L70.57,28.7l-2.25-3.89,7.4-11.2-10.4,6-2.25-3.9L85.16,3,87,6.21l-8.31,12.6,11.69-6.75,9.37,16.23Z"/></svg>