<svg id="Слой_1" data-name="Слой 1" xmlns="http://www.w3.org/2000/svg" xmlns:xlink="http://www.w3.org/1999/xlink" viewBox="0 0 102 73.7"><defs><style>.cls-1{fill:none;}.cls-2{clip-path:url(#clip-path);}.cls-3{fill:#f08224;}.cls-4{clip-path:url(#clip-path-2);}.cls-5{fill:#f8ad40;}.cls-6{clip-path:url(#clip-path-3);}.cls-7{fill:#71727c;}.cls-8{clip-path:url(#clip-path-6);}.cls-9{clip-path:url(#clip-path-7);}.cls-10{fill:#404042;}</style><clipPath id="clip-path"><rect class="cls-1" x="117.89" width="102" height="73.7"/></clipPath><clipPath id="clip-path-2"><rect class="cls-1" x="-126.14" width="102" height="73.7"/></clipPath><clipPath id="clip-path-3"><rect class="cls-1" width="102" height="73.7"/></clipPath><clipPath id="clip-path-6"><rect class="cls-1" x="-126.14" y="-91.24" width="102" height="73.7"/></clipPath><clipPath id="clip-path-7"><rect class="cls-1" y="-91.24" width="102" height="73.7"/></clipPath></defs><g class="cls-2"><path class="cls-3" d="M81.19-18.4,144.49-55,182,10l-63.3,36.6Zm36,39.9,9.7-5.6L105.89,2Zm22.7-13.1L161-3.8l-15-26-34.1,19.7Z"/></g><g class="cls-4"><path class="cls-5" d="M-52.44,132.2-89,68.9l65-37.5,36.6,63.3Zm26.7-58.8-12.2-21.1-26,15,19.7,34.1Zm13.1,22.8-5.6-9.7-13.9,21Z"/></g><g class="cls-6"><rect class="cls-7" width="102" height="73.7"/></g><g class="cls-6"><path class="cls-5" d="M73.7,132.2,37.1,68.9l65-37.5,36.6,63.3Zm26.7-58.8L88.2,52.3l-26,15,19.7,34.1Zm13.1,22.8-5.6-9.7L94,107.5Z"/></g><g class="cls-6"><path class="cls-3" d="M-36.7-18.4,26.6-55,64.1,10,.8,46.6Zm36,39.9L9,15.9-12,2ZM22,8.4,43.1-3.8l-15-26L-6-10.1Z"/></g><g class="cls-8"><path class="cls-5" d="M-52.44,41-89-22.34l65-37.5,36.6,63.3Zm26.7-58.8-12.2-21.1-26,15,19.7,34.1ZM-12.64,5l-5.6-9.7-13.9,21Z"/></g><g class="cls-9"><path class="cls-5" d="M73.7,41,37.1-22.34l65-37.5,36.6,63.3Zm26.7-58.8L88.2-38.94l-26,15,19.7,34.1ZM113.5,5l-5.6-9.7L94,16.26Z"/></g><path class="cls-10" d="M24.39,72l-3-5.2,7.8-4.5.75,1.3,7.79-4.5L32.48,50,16.89,59,9.77,46.68l20.78-12,2.25,3.89-13,7.5,2.63,4.55,15.59-9,9.75,16.89Z"/><path class="cls-10" d="M51,56.63,41.27,39.75l15.59-9L54.24,26.2l-13,7.5L39,29.8l20.78-12L66.9,30.14l-15.58,9,5.25,9.1,7.79-4.5-.75-1.3,7.79-4.5,3,5.19Z"/><path class="cls-10" d="M81.55,39l-3-5.2L88.71,18.42l-5.25-9.1L65.28,19.82,63,15.93l26-15,8.25,14.29L87.09,30.61l2.25,3.9Z"/></svg>