<svg id="Слой_1" data-name="Слой 1" xmlns="http://www.w3.org/2000/svg" xmlns:xlink="http://www.w3.org/1999/xlink" viewBox="0 0 102 73.7"><defs><style>.cls-1{fill:none;}.cls-2{clip-path:url(#clip-path);}.cls-3{fill:#f08224;}.cls-4{clip-path:url(#clip-path-2);}.cls-5{clip-path:url(#clip-path-3);}.cls-6{clip-path:url(#clip-path-4);}.cls-7{fill:#71727c;}.cls-8{fill:#f8ad40;}.cls-9{isolation:isolate;}.cls-10{fill:#404042;}</style><clipPath id="clip-path"><rect class="cls-1" x="127.79" y="91.24" width="102" height="73.7"/></clipPath><clipPath id="clip-path-2"><rect class="cls-1" y="91.24" width="102" height="73.7"/></clipPath><clipPath id="clip-path-3"><rect class="cls-1" x="127.79" width="102" height="73.7"/></clipPath><clipPath id="clip-path-4"><rect class="cls-1" width="102" height="73.7"/></clipPath></defs><g class="cls-2"><path class="cls-3" d="M91.09,72.84l63.3-36.6,37.5,65-63.3,36.6Zm36,39.9,9.7-5.6-21-13.9Zm22.7-13.1,21.1-12.2-15-26-34.1,19.7Z"/></g><g class="cls-4"><path class="cls-3" d="M-36.7,72.84l63.3-36.6,37.5,65L.8,137.84Zm36,39.9,9.7-5.6-21-13.9ZM22,99.64l21.1-12.2-15-26L-6,81.14Z"/></g><g class="cls-5"><path class="cls-3" d="M91.09-18.4,154.39-55l37.5,65-63.3,36.6Zm36,39.9,9.7-5.6L115.79,2Zm22.7-13.1,21.1-12.2-15-26-34.1,19.7Z"/></g><g class="cls-6"><rect class="cls-7" width="102" height="73.7"/></g><g class="cls-6"><path class="cls-8" d="M73.7,132.2,37.1,68.9l65-37.5,36.6,63.3Zm26.7-58.8L88.2,52.3l-26,15,19.7,34.1Zm13.1,22.8-5.6-9.7L94,107.5Z"/></g><g class="cls-6"><path class="cls-3" d="M-36.7-18.4,26.6-55,64.1,10,.8,46.6Zm36,39.9L9,15.9-12,2ZM22,8.4,43.1-3.8l-15-26L-6-10.1Z"/></g><g class="cls-9"><path class="cls-10" d="M22.1,72.48l-3-5.19,7.8-4.5.75,1.3,7.79-4.5-5.25-9.1-15.59,9L7.48,47.15l20.78-12,2.25,3.9-13,7.5,2.63,4.55,15.58-9L45.48,59Z"/><path class="cls-10" d="M48.73,57.11,39,40.22l15.59-9L52,26.67l-13,7.5-2.25-3.89,20.78-12,7.12,12.34L49,39.62l5.25,9.09,7.79-4.5-.75-1.3,7.79-4.5,3,5.2Z"/><path class="cls-10" d="M75.36,41.73,60.74,16.4l26-15,14.62,25.33ZM86.05,18.24,81.17,9.8l-10.39,6,7.88,13.64Zm5.25,9.09-2.25-3.89L83.5,31.83Z"/></g></svg>