<svg id="Слой_1" data-name="Слой 1" xmlns="http://www.w3.org/2000/svg" xmlns:xlink="http://www.w3.org/1999/xlink" viewBox="0 0 102 73.7"><defs><style>.cls-1{fill:none;}.cls-2{clip-path:url(#clip-path);}.cls-3{fill:#71727c;}.cls-4{fill:#f8ad40;}.cls-5{fill:#f08224;}.cls-6{clip-path:url(#clip-path-4);}.cls-7{clip-path:url(#clip-path-5);}.cls-8{clip-path:url(#clip-path-6);}.cls-9{clip-path:url(#clip-path-7);}.cls-10{fill:#404042;}</style><clipPath id="clip-path"><rect class="cls-1" width="102" height="73.7"/></clipPath><clipPath id="clip-path-4"><rect class="cls-1" x="-127.79" width="102" height="73.7"/></clipPath><clipPath id="clip-path-5"><rect class="cls-1" x="126.14" width="102" height="73.7"/></clipPath><clipPath id="clip-path-6"><rect class="cls-1" y="-91.24" width="102" height="73.7"/></clipPath><clipPath id="clip-path-7"><rect class="cls-1" x="-127.79" y="-91.24" width="102" height="73.7"/></clipPath></defs><g class="cls-2"><rect class="cls-3" width="102" height="73.7"/></g><g class="cls-2"><path class="cls-4" d="M73.7,132.2,37.1,68.9l65-37.5,36.6,63.3Zm26.7-58.8L88.2,52.3l-26,15,19.7,34.1Zm13.1,22.8-5.6-9.7L94,107.5Z"/></g><g class="cls-2"><path class="cls-5" d="M-36.7-18.4,26.6-55,64.1,10,.8,46.6Zm36,39.9L9,15.9-12,2ZM22,8.4,43.1-3.8l-15-26L-6-10.1Z"/></g><g class="cls-6"><path class="cls-4" d="M-54.09,132.2l-36.6-63.3,65-37.5,36.6,63.3Zm26.7-58.8-12.2-21.1-26,15,19.7,34.1Zm13.1,22.8-5.6-9.7-13.9,21Z"/></g><g class="cls-7"><path class="cls-5" d="M89.44-18.4,152.74-55l37.5,65-63.3,36.6Zm36,39.9,9.7-5.6L114.14,2Zm22.7-13.1,21.1-12.2-15-26-34.1,19.7Z"/></g><g class="cls-8"><path class="cls-4" d="M73.7,41,37.1-22.34l65-37.5,36.6,63.3Zm26.7-58.8L88.2-38.94l-26,15,19.7,34.1ZM113.5,5l-5.6-9.7L94,16.26Z"/></g><g class="cls-9"><path class="cls-4" d="M-54.09,41l-36.6-63.3,65-37.5,36.6,63.3Zm26.7-58.8-12.2-21.1-26,15,19.7,34.1ZM-14.29,5l-5.6-9.7-13.9,21Z"/></g><path class="cls-10" d="M23.84,72l-3-5.2,7.8-4.5.75,1.3,7.79-4.5L31.93,50,16.34,59,9.22,46.68,30,34.68l2.25,3.89-13,7.5,2.63,4.55,15.59-9,9.75,16.89Z"/><path class="cls-10" d="M50.47,56.63,40.72,39.75l15.59-9L53.69,26.2l-13,7.5-2.25-3.9,20.78-12,7.12,12.34-15.58,9L56,48.23l7.79-4.5-.75-1.29,7.79-4.5,3,5.19Z"/><path class="cls-10" d="M77.1,41.26,62.48,15.93l20.78-12,2.25,3.89-13,7.5,4.5,7.8,5.55-8.4,7.79-4.5,10.12,17.54Zm13.34-12.9-4.87-8.44L80,28.31l2.63,4.55Z"/></svg>