<svg id="Слой_1" data-name="Слой 1" xmlns="http://www.w3.org/2000/svg" xmlns:xlink="http://www.w3.org/1999/xlink" viewBox="0 0 102 73.7"><defs><style>.cls-1{fill:none;}.cls-2{clip-path:url(#clip-path);}.cls-3{fill:#71727c;}.cls-4{fill:#f8ad40;}.cls-5{fill:#f08224;}.cls-6{clip-path:url(#clip-path-4);}.cls-7{clip-path:url(#clip-path-5);}.cls-8{clip-path:url(#clip-path-6);}.cls-9{fill:#404042;}</style><clipPath id="clip-path"><rect class="cls-1" width="102" height="73.7"/></clipPath><clipPath id="clip-path-4"><rect class="cls-1" x="-117.89" width="102" height="73.7"/></clipPath><clipPath id="clip-path-5"><rect class="cls-1" y="-91.24" width="102" height="73.7"/></clipPath><clipPath id="clip-path-6"><rect class="cls-1" x="-117.89" y="-91.24" width="102" height="73.7"/></clipPath></defs><g class="cls-2"><rect class="cls-3" width="102" height="73.7"/></g><g class="cls-2"><path class="cls-4" d="M73.7,132.2,37.1,68.9l65-37.5,36.6,63.3Zm26.7-58.8L88.2,52.3l-26,15,19.7,34.1Zm13.1,22.8-5.6-9.7L94,107.5Z"/></g><g class="cls-2"><path class="cls-5" d="M-36.7-18.4,26.6-55,64.1,10,.8,46.6Zm36,39.9L9,15.9-12,2ZM22,8.4,43.1-3.8l-15-26L-6-10.1Z"/></g><g class="cls-6"><path class="cls-4" d="M-44.19,132.2l-36.6-63.3,65-37.5,36.6,63.3Zm26.7-58.8-12.2-21.1-26,15L-36,101.4Zm13.1,22.8L-10,86.5l-13.9,21Z"/></g><g class="cls-7"><path class="cls-5" d="M73.7,41,37.1-22.34l65-37.5,36.6,63.3Zm26.7-58.8L88.2-38.94l-26,15,19.7,34.1ZM113.5,5l-5.6-9.7L94,16.26Z"/></g><g class="cls-8"><path class="cls-4" d="M-44.19,41l-36.6-63.3,65-37.5,36.6,63.3Zm26.7-58.8-12.2-21.1-26,15L-36,10.16ZM-4.39,5-10-4.74l-13.9,21Z"/></g><path class="cls-9" d="M22.93,72.71l-3-5.2L27.72,63l.75,1.3,7.8-4.5L31,50.72l-15.59,9L8.3,47.38l20.79-12,2.25,3.89-13,7.5L21,51.32l15.59-9,9.75,16.89Z"/><path class="cls-9" d="M49.56,57.33l-3-5.19,7.79-4.5.75,1.3,6.5-3.75-4.88-8.45L42.43,45,40.18,41.1l7.4-11.2-10.4,6L34.93,32,57,19.25l1.87,3.25L50.58,35.1l11.69-6.75,9.37,16.23Z"/><path class="cls-9" d="M74.89,42.71,60.26,17.38l26-15,14.63,25.33ZM85.57,19.22,80.7,10.77l-10.39,6,7.87,13.64Zm5.25,9.09-2.25-3.9L83,32.81Z"/></svg>