<svg id="Слой_1" data-name="Слой 1" xmlns="http://www.w3.org/2000/svg" xmlns:xlink="http://www.w3.org/1999/xlink" viewBox="0 0 102 73.7"><defs><style>.cls-1{fill:none;}.cls-2{clip-path:url(#clip-path);}.cls-3{fill:#71727c;}.cls-4{fill:#f8ad40;}.cls-5{fill:#f08224;}.cls-6{clip-path:url(#clip-path-4);}.cls-7{fill:#404042;}</style><clipPath id="clip-path"><rect class="cls-1" width="102" height="73.7"/></clipPath><clipPath id="clip-path-4"><rect class="cls-1" x="-112.12" width="102" height="73.7"/></clipPath></defs><g class="cls-2"><rect class="cls-3" width="102" height="73.7"/></g><g class="cls-2"><path class="cls-4" d="M73.7,132.2,37.1,68.9l65-37.5,36.6,63.3Zm26.7-58.8L88.2,52.3l-26,15,19.7,34.1Zm13.1,22.8-5.6-9.7L94,107.5Z"/></g><g class="cls-2"><path class="cls-5" d="M-36.7-18.4,26.6-55,64.1,10,.8,46.6Zm36,39.9L9,15.9-12,2ZM22,8.4,43.1-3.8l-15-26L-6-10.1Z"/></g><g class="cls-6"><path class="cls-5" d="M-38.42,132.2-75,68.9l65-37.5,36.6,63.3Zm26.7-58.8-12.2-21.1-26,15,19.7,34.1ZM1.38,96.2l-5.6-9.7-13.9,21Z"/></g><path class="cls-7" d="M21.65,73.09l-3-5.2,7.79-4.5.75,1.3L35,60.19,29.73,51.1l-15.58,9L7,47.76l20.79-12,2.25,3.9-13,7.5,2.62,4.54,15.59-9L45,59.59Z"/><path class="cls-7" d="M48.28,57.71,38.53,40.83l15.58-9-2.62-4.55-13,7.5-2.25-3.9L57,18.88l7.13,12.34-15.59,9,5.25,9.1,7.79-4.5-.75-1.3,7.8-4.5,3,5.19Z"/><path class="cls-7" d="M93.09,31.84l-2.62-4.55L72.28,37.79,60.28,17l7.79-4.5,9.75,16.88,10.4-6L78.47,6.51,86.26,2,96,18.89l2.6-1.5,2.25,3.9-2.6,1.5,2.63,4.55Z"/></svg>