<svg id="Слой_1" data-name="Слой 1" xmlns="http://www.w3.org/2000/svg" xmlns:xlink="http://www.w3.org/1999/xlink" viewBox="0 0 102 73.7"><defs><style>.cls-1{fill:none;}.cls-2{clip-path:url(#clip-path);}.cls-3{fill:#f08224;}.cls-4{clip-path:url(#clip-path-2);}.cls-5{clip-path:url(#clip-path-3);}.cls-6{clip-path:url(#clip-path-4);}.cls-7{fill:#f8ad40;}.cls-8{clip-path:url(#clip-path-5);}.cls-9{fill:#71727c;}.cls-10{fill:#404042;}</style><clipPath id="clip-path"><rect class="cls-1" x="117.89" y="91.24" width="102" height="73.7"/></clipPath><clipPath id="clip-path-2"><rect class="cls-1" y="91.24" width="102" height="73.7"/></clipPath><clipPath id="clip-path-3"><rect class="cls-1" x="117.89" width="102" height="73.7"/></clipPath><clipPath id="clip-path-4"><rect class="cls-1" x="-126.14" width="102" height="73.7"/></clipPath><clipPath id="clip-path-5"><rect class="cls-1" width="102" height="73.7"/></clipPath></defs><g class="cls-2"><path class="cls-3" d="M81.19,72.84l63.3-36.6,37.5,65-63.3,36.6Zm36,39.9,9.7-5.6-21-13.9Zm22.7-13.1L161,87.44l-15-26-34.1,19.7Z"/></g><g class="cls-4"><path class="cls-3" d="M-36.7,72.84l63.3-36.6,37.5,65L.8,137.84Zm36,39.9,9.7-5.6-21-13.9ZM22,99.64l21.1-12.2-15-26L-6,81.14Z"/></g><g class="cls-5"><path class="cls-3" d="M81.19-18.4,144.49-55,182,10l-63.3,36.6Zm36,39.9,9.7-5.6L105.89,2Zm22.7-13.1L161-3.8l-15-26-34.1,19.7Z"/></g><g class="cls-6"><path class="cls-7" d="M-52.44,132.2-89,68.9l65-37.5,36.6,63.3Zm26.7-58.8-12.2-21.1-26,15,19.7,34.1Zm13.1,22.8-5.6-9.7-13.9,21Z"/></g><g class="cls-8"><rect class="cls-9" width="102" height="73.7"/></g><g class="cls-8"><path class="cls-7" d="M73.7,132.2,37.1,68.9l65-37.5,36.6,63.3Zm26.7-58.8L88.2,52.3l-26,15,19.7,34.1Zm13.1,22.8-5.6-9.7L94,107.5Z"/></g><g class="cls-8"><path class="cls-3" d="M-36.7-18.4,26.6-55,64.1,10,.8,46.6Zm36,39.9L9,15.9-12,2ZM22,8.4,43.1-3.8l-15-26L-6-10.1Z"/></g><path class="cls-10" d="M23.52,73.09l-3-5.2,7.8-4.5.75,1.3,7.79-4.5L31.61,51.1,16,60.1,8.9,47.76l20.78-12,2.25,3.9-13,7.5,2.63,4.54,15.58-9L46.9,59.59Z"/><path class="cls-10" d="M50.15,57.71,40.4,40.83l15.59-9-2.62-4.55-13,7.5-2.25-3.9,20.78-12L66,31.22l-15.58,9,5.25,9.1,7.79-4.5-.75-1.3L70.53,39l3,5.19Z"/><path class="cls-10" d="M76.78,42.34,67,25.45l15.59-9L80,11.91l-13,7.5-2.25-3.9,20.79-12,7.12,12.34-15.59,9,5.25,9.09,7.8-4.5-.75-1.3,7.79-4.5,3,5.2Z"/></svg>