<svg id="Слой_1" data-name="Слой 1" xmlns="http://www.w3.org/2000/svg" xmlns:xlink="http://www.w3.org/1999/xlink" viewBox="0 0 102 73"><defs><style>.cls-1{fill:none;}.cls-2{clip-path:url(#clip-path);}.cls-3{fill:#137590;}.cls-4{clip-path:url(#clip-path-2);}.cls-5{fill:#066047;}.cls-6{clip-path:url(#clip-path-3);}.cls-7{clip-path:url(#clip-path-4);}.cls-8{fill:#7f2986;}.cls-9{clip-path:url(#clip-path-5);}.cls-10{fill:#049669;}.cls-11{isolation:isolate;}.cls-12{fill:#fff;}.cls-13{clip-path:url(#clip-path-8);}</style><clipPath id="clip-path"><rect class="cls-1" y="110.12" width="102" height="73.7"/></clipPath><clipPath id="clip-path-2"><rect class="cls-1" x="-120.37" y="-0.35" width="102" height="73.7"/></clipPath><clipPath id="clip-path-3"><rect class="cls-1" x="122.02" y="-0.35" width="102" height="73.7"/></clipPath><clipPath id="clip-path-4"><rect class="cls-1" x="-134.29" y="-105.88" width="102" height="73.7"/></clipPath><clipPath id="clip-path-5"><rect class="cls-1" y="-0.35" width="102" height="73.7"/></clipPath><clipPath id="clip-path-8"><rect class="cls-1" x="122.02" y="110.12" width="102" height="73.7"/></clipPath></defs><g class="cls-2"><path class="cls-3" d="M-36.7,91.82l63.3-36.6,37.5,65L.8,156.82Zm36,39.8L9,126l-21-13.9ZM22,118.52l21.1-12.2-15-26L-6,100Z"/></g><g class="cls-4"><path class="cls-5" d="M-46.77,131.85l-36.6-63.3,65-37.5,36.6,63.3Zm26.7-58.8L-32.17,52l-26,15,19.7,34.1Zm13.2,22.8-5.6-9.7-13.9,21Z"/></g><g class="cls-6"><path class="cls-5" d="M85.32-18.65l63.3-36.6,37.5,65-63.3,36.6Zm36,39.8,9.7-5.6L110,1.65ZM144,8.05l21.1-12.2-15-26L116-10.45Z"/></g><g class="cls-7"><path class="cls-8" d="M-60.69,26.32-97.29-37l65-37.5,36.6,63.3Zm26.8-58.8-12.2-21.1-26,15,19.7,34.1Zm13.1,22.8-5.6-9.7-13.9,21Z"/></g><g class="cls-9"><rect class="cls-10" y="-0.35" width="102" height="73.7"/></g><g class="cls-9"><path class="cls-5" d="M73.7,131.85,37.1,68.55l65-37.5,36.6,63.3Zm26.7-58.8L88.2,52l-26,15,19.7,34.1Zm13.1,22.8-5.6-9.7-13.9,21Z"/></g><g class="cls-9"><path class="cls-5" d="M-36.7-18.65l63.3-36.6,37.5,65L.8,46.35Zm36,39.8L9,15.55-12,1.65ZM22,8.05,43.1-4.15l-15-26L-6-10.45Z"/></g><g class="cls-11"><path class="cls-12" d="M23.6,72.05l-9.8-16.9,15.6-9-2.6-4.5-13,7.5-2.2-3.9,20.8-12,7.1,12.3-15.6,9,5.2,9.1,7.8-4.5-.8-1.3,7.8-4.5,3,5.2Z"/><path class="cls-12" d="M50.2,56.65,35.6,31.35l26-15,14.6,25.3Zm10.7-23.5L56,24.75l-10.4,6,7.9,13.6Zm5.3,9.1L64,38.35l-5.6,8.4Z"/><path class="cls-12" d="M79.4,39.75l-3-5.2,7.8-4.5.8,1.3,6.5-3.8-4.9-8.4-14.3,8.2-2.2-3.9,7.4-11.2-10.4,6-2.2-3.9L87,1.55l1.9,3.2-8.3,12.6,11.7-6.8,9.4,16.2Z"/></g><g class="cls-13"><path class="cls-3" d="M85.32,91.72l63.3-36.6,37.5,65-63.3,36.6Zm36,39.9L131,126l-21-13.9Zm22.7-13.2,21.1-12.2-15-26L116,99.92Z"/></g></svg>