<svg id="Слой_1" data-name="Слой 1" xmlns="http://www.w3.org/2000/svg" xmlns:xlink="http://www.w3.org/1999/xlink" viewBox="0 0 102 73"><defs><style>.cls-1{fill:none;}.cls-2{clip-path:url(#clip-path);}.cls-3{fill:#066047;}.cls-4{clip-path:url(#clip-path-2);}.cls-5{clip-path:url(#clip-path-3);}.cls-6{fill:#049669;}.cls-7{isolation:isolate;}.cls-8{fill:#fff;}.cls-9{clip-path:url(#clip-path-6);}.cls-10{fill:#137590;}.cls-11{clip-path:url(#clip-path-7);}</style><clipPath id="clip-path"><rect class="cls-1" x="-117.07" y="-0.35" width="102" height="73.7"/></clipPath><clipPath id="clip-path-2"><rect class="cls-1" x="123.66" y="-0.35" width="102" height="73.7"/></clipPath><clipPath id="clip-path-3"><rect class="cls-1" y="-0.35" width="102" height="73.7"/></clipPath><clipPath id="clip-path-6"><rect class="cls-1" x="123.66" y="110.12" width="102" height="73.7"/></clipPath><clipPath id="clip-path-7"><rect class="cls-1" y="110.12" width="102" height="73.7"/></clipPath></defs><g class="cls-2"><path class="cls-3" d="M-43.37,131.85-80,68.55l65-37.5,36.6,63.3Zm26.7-58.8L-28.87,52l-26,15,19.7,34.1Zm13.1,22.8-5.6-9.7-13.9,21Z"/></g><g class="cls-4"><path class="cls-3" d="M87-18.65l63.3-36.6,37.5,65-63.3,36.6Zm36,39.8,9.7-5.6-21-13.9Zm22.7-13.1,21.1-12.2-15-26-34.1,19.7Z"/></g><g class="cls-5"><rect class="cls-6" y="-0.35" width="102" height="73.7"/></g><g class="cls-5"><path class="cls-3" d="M73.7,131.85,37.1,68.55l65-37.5,36.6,63.3Zm26.7-58.8L88.2,52l-26,15,19.7,34.1Zm13.1,22.8-5.6-9.7-13.9,21Z"/></g><g class="cls-5"><path class="cls-3" d="M-36.7-18.65l63.3-36.6,37.5,65L.8,46.35Zm36,39.8L9,15.55-12,1.65ZM22,8.05,43.1-4.15l-15-26L-6-10.45Z"/></g><g class="cls-7"><path class="cls-8" d="M22.6,72.65l-9.8-16.9,15.6-9-2.6-4.5-13,7.5-2.2-3.9,20.8-12,7.1,12.3-15.6,9,5.2,9.1,7.8-4.5-.8-1.3L42.9,54l3,5.2Z"/><path class="cls-8" d="M49.2,57.25,34.6,32l26-15,14.6,25.3Zm10.7-23.5L55,25.35l-10.4,6L52.5,45Zm5.3,9.1L63,39l-5.5,8.4Z"/><path class="cls-8" d="M78.4,40.35l-3-5.2,7.8-4.5L84,32l7.8-4.5-5.2-9.1-15.6,9-7.1-12.3,20.8-12L86.9,7l-13,7.5L76.5,19l15.6-9,9.8,16.9Z"/></g><g class="cls-9"><path class="cls-10" d="M87,91.72l63.3-36.6,37.5,65-63.3,36.6Zm36,39.9,9.7-5.6-21-13.9Zm22.7-13.2,21.1-12.2-15-26-34.1,19.7Z"/></g><g class="cls-11"><path class="cls-10" d="M-36.7,91.72l63.3-36.6,37.5,65L.8,156.72Zm36,39.9L9,126l-21-13.9ZM22,118.42l21.1-12.2-15-26L-6,99.92Z"/></g></svg>