<svg id="Слой_1" data-name="Слой 1" xmlns="http://www.w3.org/2000/svg" xmlns:xlink="http://www.w3.org/1999/xlink" viewBox="0 0 102 73"><defs><style>.cls-1{fill:none;}.cls-2{clip-path:url(#clip-path);}.cls-3{fill:#137590;}.cls-4{clip-path:url(#clip-path-2);}.cls-5{clip-path:url(#clip-path-3);}.cls-6{fill:#066047;}.cls-7{clip-path:url(#clip-path-4);}.cls-8{fill:#049669;}.cls-9{fill:#fff;}.cls-10{clip-path:url(#clip-path-8);}.cls-11{fill:#7f2986;}.cls-12{clip-path:url(#clip-path-9);}.cls-13{clip-path:url(#clip-path-10);}</style><clipPath id="clip-path"><rect class="cls-1" y="110.12" width="102" height="73.7"/></clipPath><clipPath id="clip-path-2"><rect class="cls-1" x="120.37" y="110.12" width="102" height="73.7"/></clipPath><clipPath id="clip-path-3"><rect class="cls-1" x="-122.02" y="-0.35" width="102" height="73.7"/></clipPath><clipPath id="clip-path-4"><rect class="cls-1" y="-0.35" width="102" height="73.7"/></clipPath><clipPath id="clip-path-8"><rect class="cls-1" x="-122.02" y="-105.88" width="102" height="73.7"/></clipPath><clipPath id="clip-path-9"><rect class="cls-1" x="-13.92" y="-105.88" width="102" height="73.7"/></clipPath><clipPath id="clip-path-10"><rect class="cls-1" x="120.37" y="-0.35" width="102" height="73.7"/></clipPath></defs><g class="cls-2"><path class="cls-3" d="M-36.7,91.82l63.3-36.6,37.5,65L.8,156.82Zm36,39.8L9,126l-21-13.9ZM22,118.52l21.1-12.2-15-26L-6,100Z"/></g><g class="cls-4"><path class="cls-3" d="M83.67,91.82,147,55.22l37.5,65-63.3,36.6Zm36,39.8,9.7-5.6-21-13.9Zm22.7-13.1,21.1-12.2-15-26L114.37,100Z"/></g><g class="cls-5"><path class="cls-6" d="M-48.42,131.85l-36.5-63.4,65-37.5,36.6,63.3Zm26.7-58.8L-33.82,52l-26,15,19.7,34.1Zm13.2,22.8-5.6-9.7-13.9,21Z"/></g><g class="cls-7"><rect class="cls-8" y="-0.35" width="102" height="73.7"/></g><g class="cls-7"><path class="cls-9" d="M21,73.35l-9.8-16.9,15.6-9L24.2,43l-13,7.5L9,46.55l20.8-12,7.1,12.3-15.6,9L26.5,65l7.8-4.5-.8-1.3,7.8-4.5,3,5.2Z"/><path class="cls-9" d="M47.6,58.05,33,32.75l26-15,14.6,25.3Zm10.7-23.5-4.9-8.4-10.4,6,7.9,13.6Zm5.2,9.1-2.2-3.9-5.5,8.4Z"/><path class="cls-9" d="M76.8,41.15,67,24.25l15.6-9L80,10.75l-13,7.5-2.2-3.9,20.8-12,7.1,12.3-15.6,9,5.2,9.1,7.8-4.5L89.3,27l7.8-4.5,3,5.2Z"/></g><g class="cls-7"><path class="cls-6" d="M73.6,131.85,37,68.55l65-37.5,36.6,63.3Zm26.7-58.8L88.2,52l-26,15,19.7,34.1Zm13.2,22.8-5.6-9.7-13.9,21Z"/></g><g class="cls-7"><path class="cls-6" d="M-36.7-18.65l63.3-36.6,37.5,65L.8,46.25Zm36,39.8L9,15.55-12,1.65ZM22,8.05,43.1-4.15l-15-26L-6-10.45Z"/></g><g class="cls-10"><path class="cls-11" d="M-48.42,26.32l-36.5-63.4,65-37.5,36.6,63.3Zm26.7-58.8-12.1-21.1-26,15,19.7,34.1Zm13.2,22.8-5.6-9.7L-28,1.62Z"/></g><g class="cls-12"><path class="cls-11" d="M59.68,26.32,23.08-37l65-37.5,36.6,63.3Zm26.8-58.8-12.2-21.1-26,15L68-4.48Zm13.1,22.8L94-19.38l-13.9,21Z"/></g><g class="cls-13"><path class="cls-6" d="M83.67-18.65,147-55.25l37.5,65-63.3,36.6Zm36,39.8,9.7-5.6-21-13.9Zm22.7-13.1,21.1-12.2-15-26-34.1,19.7Z"/></g></svg>