<svg id="Слой_1" data-name="Слой 1" xmlns="http://www.w3.org/2000/svg" xmlns:xlink="http://www.w3.org/1999/xlink" viewBox="0 0 102 73"><defs><style>.cls-1{fill:none;}.cls-2{clip-path:url(#clip-path);}.cls-3{fill:#049669;}.cls-4{fill:#fff;}.cls-5{fill:#066047;}.cls-6{clip-path:url(#clip-path-5);}.cls-7{clip-path:url(#clip-path-6);}.cls-8{clip-path:url(#clip-path-7);}.cls-9{fill:#137590;}.cls-10{clip-path:url(#clip-path-8);}</style><clipPath id="clip-path"><rect class="cls-1" y="-0.35" width="102" height="73.7"/></clipPath><clipPath id="clip-path-5"><rect class="cls-1" x="117.07" y="-0.35" width="102" height="73.7"/></clipPath><clipPath id="clip-path-6"><rect class="cls-1" x="-122.02" y="-0.35" width="102" height="73.7"/></clipPath><clipPath id="clip-path-7"><rect class="cls-1" x="117.07" y="110.12" width="102" height="73.7"/></clipPath><clipPath id="clip-path-8"><rect class="cls-1" y="110.12" width="102" height="73.7"/></clipPath></defs><g class="cls-2"><rect class="cls-3" y="-0.35" width="102" height="73.7"/></g><g class="cls-2"><path class="cls-4" d="M20.2,73.35l-9.8-16.9,15.6-9L23.4,43l-13,7.5-2.2-3.9,20.8-12,7.1,12.3-15.6,9L25.7,65l7.8-4.5-.8-1.3,7.8-4.5,3,5.2Z"/><path class="cls-4" d="M46.8,58.05,32.2,32.75l26-15,14.6,25.3Zm10.7-23.5-4.9-8.4-10.4,6,7.9,13.6Zm5.3,9.1-2.2-3.9-5.5,8.4Z"/><path class="cls-4" d="M94.2,30.65l-2.6-4.5L73.4,36.65l-12-20.8,7.8-4.5L79,28.25l10.4-6L79.6,5.35,87.4.85l9.8,16.9,2.6-1.5,2.2,3.9-2.6,1.5,2.6,4.5Z"/></g><g class="cls-2"><path class="cls-5" d="M73.7,131.85,37.1,68.55l65-37.5,36.6,63.3Zm26.7-58.8L88.2,52l-26,15,19.7,34.1Zm13.1,22.8-5.6-9.7-13.9,21Z"/></g><g class="cls-2"><path class="cls-5" d="M-36.7-18.65l63.3-36.6,37.5,65L.8,46.35Zm36,39.8L9,15.55-12,1.65ZM22,8.05,43.1-4.15l-15-26L-6-10.45Z"/></g><g class="cls-6"><path class="cls-5" d="M80.37-18.65l63.3-36.6,37.5,65-63.3,36.6Zm36,39.8,9.7-5.6-21-13.9Zm22.7-13.1,21.1-12.2-15-26-34.1,19.7Z"/></g><g class="cls-7"><path class="cls-5" d="M-48.32,131.85l-36.6-63.3,65-37.5,36.6,63.3Zm26.7-58.8L-33.82,52l-26,15,19.7,34.1Zm13.1,22.8-5.6-9.7-13.9,21Z"/></g><g class="cls-8"><path class="cls-9" d="M80.37,91.72l63.3-36.6,37.5,65-63.3,36.6Zm36,39.9,9.7-5.6-21-13.9Zm22.7-13.2,21.1-12.2-15-26-34.1,19.7Z"/></g><g class="cls-10"><path class="cls-9" d="M-36.7,91.72l63.3-36.6,37.5,65L.8,156.72Zm36,39.9L9,126l-21-13.9ZM22,118.42l21.1-12.2-15-26L-6,99.92Z"/></g></svg>