<svg id="Слой_1" data-name="Слой 1" xmlns="http://www.w3.org/2000/svg" xmlns:xlink="http://www.w3.org/1999/xlink" viewBox="0 0 102 73"><defs><style>.cls-1{fill:none;}.cls-2{clip-path:url(#clip-path);}.cls-3{fill:#066047;}.cls-4{clip-path:url(#clip-path-2);}.cls-5{fill:#049669;}.cls-6{isolation:isolate;}.cls-7{fill:#fff;}.cls-8{clip-path:url(#clip-path-5);}.cls-9{clip-path:url(#clip-path-6);}.cls-10{fill:#137590;}.cls-11{clip-path:url(#clip-path-7);}</style><clipPath id="clip-path"><rect class="cls-1" x="115.42" y="-0.35" width="102" height="73.7"/></clipPath><clipPath id="clip-path-2"><rect class="cls-1" x="-0.75" y="-0.8" width="102" height="73.7"/></clipPath><clipPath id="clip-path-5"><rect class="cls-1" x="-115.42" y="-0.35" width="102" height="73.7"/></clipPath><clipPath id="clip-path-6"><rect class="cls-1" x="115.42" y="110.12" width="102" height="73.7"/></clipPath><clipPath id="clip-path-7"><rect class="cls-1" y="110.12" width="102" height="73.7"/></clipPath></defs><g class="cls-2"><path class="cls-3" d="M78.72-18.65,142-55.25l37.5,65-63.3,36.6Zm36,39.8,9.7-5.6-21-13.9Zm22.7-13.1,21.1-12.2-15-26-34.1,19.7Z"/></g><g class="cls-4"><rect class="cls-5" x="-0.75" y="-0.8" width="102" height="73.7"/></g><g class="cls-4"><path class="cls-3" d="M73,131.4,36.35,68.1l65-37.5L138,93.9Zm26.7-58.8L87.45,51.5l-26,15,19.7,34.1Zm13.1,22.8-5.6-9.7-13.9,21Z"/></g><g class="cls-4"><path class="cls-3" d="M-37.45-19.1l63.3-36.6,37.5,65L.05,45.9Zm36,39.8,9.7-5.6-21-13.9ZM21.25,7.6,42.35-4.6l-15-26L-6.75-10.9Z"/></g><g class="cls-6"><path class="cls-7" d="M18.25,73.8,8.45,56.9l15.6-9-2.6-4.5-13,7.5L6.25,47l20.8-12,7.1,12.3-15.6,9,5.2,9.1,7.8-4.5-.8-1.3,7.8-4.5,3,5.2Z"/><path class="cls-7" d="M44.85,58.4,30.25,33.1l26-15,14.6,25.3Zm10.7-23.5-4.9-8.4-10.4,6,7.9,13.6Zm5.3,9.1-2.2-3.9-5.5,8.4Z"/><path class="cls-7" d="M74.15,41.5l-7.1-12.3,5.2-3-6.7.4-6-10.4L88.15-.3l6,10.4-3.7,5.6,5.2-3,7.1,12.3Zm11.4-28.2-3-5.2-13,7.5,3,5.2,8.4-.5Zm7.1,12.4-2.6-4.5-13,7.5,2.6,4.5Z"/></g><g class="cls-8"><path class="cls-3" d="M-41.72,131.85l-36.6-63.3,65-37.5,36.6,63.3ZM-15,73.05-27.22,52l-26,15,19.7,34.1Zm13.1,22.8-5.6-9.7-13.9,21Z"/></g><g class="cls-9"><path class="cls-10" d="M78.72,91.72,142,55.12l37.5,65-63.3,36.6Zm36,39.9,9.7-5.6-21-13.9Zm22.7-13.2,21.1-12.2-15-26-34.1,19.7Z"/></g><g class="cls-11"><path class="cls-10" d="M-36.7,91.72l63.3-36.6,37.5,65L.8,156.72Zm36,39.9L9,126l-21-13.9ZM22,118.42l21.1-12.2-15-26L-6,99.92Z"/></g></svg>