<svg id="Слой_1" data-name="Слой 1" xmlns="http://www.w3.org/2000/svg" xmlns:xlink="http://www.w3.org/1999/xlink" viewBox="0 0 102 73"><defs><style>.cls-1{fill:none;}.cls-2{clip-path:url(#clip-path);}.cls-3{fill:#066047;}.cls-4{clip-path:url(#clip-path-2);}.cls-5{fill:#049669;}.cls-6{isolation:isolate;}.cls-7{fill:#fff;}.cls-8{clip-path:url(#clip-path-5);}.cls-9{clip-path:url(#clip-path-6);}.cls-10{fill:#137590;}.cls-11{clip-path:url(#clip-path-7);}</style><clipPath id="clip-path"><rect class="cls-1" x="120.37" y="-0.35" width="102" height="73.7"/></clipPath><clipPath id="clip-path-2"><rect class="cls-1" y="-0.35" width="102" height="73.7"/></clipPath><clipPath id="clip-path-5"><rect class="cls-1" x="-123.66" y="-0.35" width="102" height="73.7"/></clipPath><clipPath id="clip-path-6"><rect class="cls-1" x="120.37" y="110.12" width="102" height="73.7"/></clipPath><clipPath id="clip-path-7"><rect class="cls-1" y="110.12" width="102" height="73.7"/></clipPath></defs><g class="cls-2"><path class="cls-3" d="M83.67-18.65,147-55.25l37.5,65-63.3,36.6Zm36,39.8,9.7-5.6-21-13.9Zm22.7-13.1,21.1-12.2-15-26-34.1,19.7Z"/></g><g class="cls-4"><rect class="cls-5" y="-0.35" width="102" height="73.7"/></g><g class="cls-4"><path class="cls-3" d="M73.7,131.85,37.1,68.55l65-37.5,36.6,63.3Zm26.7-58.8L88.2,52l-26,15,19.7,34.1Zm13.1,22.8-5.6-9.7-13.9,21Z"/></g><g class="cls-4"><path class="cls-3" d="M-36.7-18.65l63.3-36.6,37.5,65L.8,46.35Zm36,39.8L9,15.55-12,1.65ZM22,8.05,43.1-4.15l-15-26L-6-10.45Z"/></g><g class="cls-6"><path class="cls-7" d="M22.2,72.55l-9.8-16.9,15.6-9-2.6-4.5-13,7.5-2.2-3.9,20.8-12,7.1,12.3-15.6,9,5.2,9.1,7.8-4.5-.8-1.3,7.8-4.5,3,5.2Z"/><path class="cls-7" d="M48.9,57.15,34.3,31.85l26-15,14.6,25.3Zm10.7-23.5-4.9-8.4-10.4,6,7.9,13.6Zm5.2,9.1-2.2-3.9-5.5,8.4Z"/><path class="cls-7" d="M78.1,40.25,63.5,15,84.3,3l2.2,3.9-13,7.5,4.5,7.8,5.5-8.4,7.8-4.5,10.1,17.5Zm13.3-12.9L86.5,19,81,27.35l2.6,4.5Z"/></g><g class="cls-8"><path class="cls-3" d="M-50,131.85l-36.6-63.3,65-37.5L15,94.35Zm26.7-58.8L-35.46,52l-26,15,19.7,34.1Zm13.1,22.8-5.6-9.7-13.9,21Z"/></g><g class="cls-9"><path class="cls-10" d="M83.67,91.72,147,55.12l37.5,65-63.3,36.6Zm36,39.9,9.7-5.6-21-13.9Zm22.7-13.2,21.1-12.2-15-26-34.1,19.7Z"/></g><g class="cls-11"><path class="cls-10" d="M-36.7,91.72l63.3-36.6,37.5,65L.8,156.72Zm36,39.9L9,126l-21-13.9ZM22,118.42l21.1-12.2-15-26L-6,99.92Z"/></g></svg>