<svg id="Слой_1" data-name="Слой 1" xmlns="http://www.w3.org/2000/svg" xmlns:xlink="http://www.w3.org/1999/xlink" viewBox="0 0 102 73"><defs><style>.cls-1{fill:none;}.cls-2{clip-path:url(#clip-path);}.cls-3{fill:#066047;}.cls-4{clip-path:url(#clip-path-2);}.cls-5{fill:#049669;}.cls-6{clip-path:url(#clip-path-5);}.cls-7{isolation:isolate;}.cls-8{fill:#fff;}</style><clipPath id="clip-path"><rect class="cls-1" x="110.47" y="-0.35" width="102" height="73.7"/></clipPath><clipPath id="clip-path-2"><rect class="cls-1" y="-0.35" width="102" height="73.7"/></clipPath><clipPath id="clip-path-5"><rect class="cls-1" x="-108.27" y="-0.35" width="102" height="73.7"/></clipPath></defs><g class="cls-2"><path class="cls-3" d="M73.77-18.65l63.3-36.6,37.5,65-63.3,36.6Zm36,39.8,9.7-5.6-21-13.9Zm22.7-13.1,21.1-12.2-15-26-34.1,19.7Z"/></g><g class="cls-4"><rect class="cls-5" y="-0.35" width="102" height="73.7"/></g><g class="cls-4"><path class="cls-3" d="M73.7,131.85,37.1,68.55l65-37.5,36.6,63.3Zm26.7-58.8L88.2,52l-26,15,19.7,34.1Zm13.1,22.8-5.6-9.7-13.9,21Z"/></g><g class="cls-4"><path class="cls-3" d="M-36.7-18.65l63.3-36.6,37.5,65L.8,46.35Zm36,39.8L9,15.55-12,1.65ZM22,8.05,43.1-4.15l-15-26L-6-10.45Z"/></g><g class="cls-6"><path class="cls-3" d="M-34.57,131.85l-36.6-63.3,65-37.5,36.6,63.3Zm26.7-58.8L-20.07,52l-26,15,19.7,34.1Zm13.1,22.8-5.6-9.7-13.9,21Z"/></g><g class="cls-7"><path class="cls-8" d="M19,74.23,9.26,57.34l15.59-9L22.22,43.8l-13,7.5L7,47.4l20.79-12,7.12,12.34-15.59,9,5.25,9.09,7.8-4.5L31.6,60l7.79-4.5,3,5.2Z"/><path class="cls-8" d="M45.64,58.86,31,33.53l26-15L71.62,43.86Zm10.69-23.5-4.88-8.44-10.39,6,7.87,13.64Zm5.25,9.1-2.25-3.9L53.78,49Z"/><path class="cls-8" d="M74.87,42,67.74,29.64l5.2-3-6.7.4-6-10.39L88.82.15l6,10.39-3.7,5.6,5.2-3,7.12,12.34ZM86.28,13.74l-3-5.19-13,7.5,3,5.19,8.37-.5ZM93.4,26.08l-2.62-4.54-13,7.5,2.62,4.54Z"/></g></svg>