<svg id="Слой_1" data-name="Слой 1" xmlns="http://www.w3.org/2000/svg" xmlns:xlink="http://www.w3.org/1999/xlink" viewBox="0 0 102 73"><defs><style>.cls-1{fill:none;}.cls-2{clip-path:url(#clip-path);}.cls-3{fill:#137590;}.cls-4{clip-path:url(#clip-path-2);}.cls-5{clip-path:url(#clip-path-3);}.cls-6{fill:#066047;}.cls-7{clip-path:url(#clip-path-4);}.cls-8{fill:#049669;}.cls-9{fill:#fff;}.cls-10{clip-path:url(#clip-path-8);}.cls-11{clip-path:url(#clip-path-9);}.cls-12{fill:#7f2986;}</style><clipPath id="clip-path"><rect class="cls-1" x="-123.11" y="-84.89" width="102" height="73.7"/></clipPath><clipPath id="clip-path-2"><rect class="cls-1" x="-3.85" y="-81.14" width="102" height="73.7"/></clipPath><clipPath id="clip-path-3"><rect class="cls-1" x="-120.37" y="-0.35" width="102" height="73.7"/></clipPath><clipPath id="clip-path-4"><rect class="cls-1" y="-0.35" width="102" height="73.7"/></clipPath><clipPath id="clip-path-8"><rect class="cls-1" x="124.76" y="-0.35" width="102" height="73.7"/></clipPath><clipPath id="clip-path-9"><rect class="cls-1" x="-3.85" y="91.99" width="102" height="73.7"/></clipPath></defs><g class="cls-2"><path class="cls-3" d="M-49.51,47.31-86-16.09l65-37.5,36.6,63.3Zm26.7-58.8L-35-32.59l-26,15,19.7,34.1Zm13.2,22.8-5.6-9.7-13.9,21Z"/></g><g class="cls-4"><path class="cls-3" d="M69.75,51.06l-36.6-63.3,65-37.5,36.6,63.3Zm26.8-58.8-12.2-21.1-26,15,19.7,34.1Zm13.1,22.8-5.6-9.7-13.9,21Z"/></g><g class="cls-5"><path class="cls-6" d="M-46.77,131.85l-36.5-63.4,65-37.5,36.6,63.3Zm26.7-58.8L-32.17,52l-26,15,19.7,34.1Zm13.2,22.8-5.6-9.7-13.9,21Z"/></g><g class="cls-7"><rect class="cls-8" y="-0.35" width="102" height="73.7"/></g><g class="cls-7"><path class="cls-9" d="M21,73.35l-9.8-16.9,15.6-9L24.2,43l-13,7.5L9,46.55l20.8-12,7.1,12.3-15.6,9L26.5,65l7.8-4.5-.8-1.3,7.8-4.5,3,5.2Z"/><path class="cls-9" d="M47.6,58.05,33,32.75l26-15,14.6,25.3Zm10.7-23.5-4.9-8.4-10.4,6,7.9,13.6Zm5.2,9.1-2.2-3.9-5.5,8.4Z"/><path class="cls-9" d="M76.8,41.15,67,24.25l15.6-9L80,10.75l-13,7.5-2.2-3.9,20.8-12,7.1,12.3-15.6,9,5.2,9.1,7.8-4.5L89.3,27l7.8-4.5,3,5.2Z"/></g><g class="cls-7"><path class="cls-6" d="M73.6,131.85,37,68.55l65-37.5,36.6,63.3Zm26.7-58.8L88.2,52l-26,15,19.7,34.1Zm13.2,22.8-5.6-9.7-13.9,21Z"/></g><g class="cls-7"><path class="cls-6" d="M-36.7-18.65l63.3-36.6,37.5,65L.8,46.25Zm36,39.8L9,15.55-12,1.65ZM22,8.05,43.1-4.15l-15-26L-6-10.45Z"/></g><g class="cls-10"><path class="cls-6" d="M88.06-18.65l63.3-36.6,37.5,65-63.3,36.6Zm36,39.8,9.7-5.6-21-13.9Zm22.7-13.1,21.1-12.2-15-26-34.1,19.7Z"/></g><g class="cls-11"><path class="cls-12" d="M-40.55,73.59,22.75,37l37.5,65L-3,138.59Zm36,39.9,9.7-5.6-21-13.9Zm22.7-13.1,21.1-12.2-15-26-34.1,19.7Z"/></g></svg>