<svg id="Слой_1" data-name="Слой 1" xmlns="http://www.w3.org/2000/svg" xmlns:xlink="http://www.w3.org/1999/xlink" viewBox="0 0 102 73"><defs><style>.cls-1{fill:none;}.cls-2{clip-path:url(#clip-path);}.cls-3{fill:#137590;}.cls-4{clip-path:url(#clip-path-2);}.cls-5{fill:#039769;}.cls-6{fill:#fff;}.cls-7{fill:#066047;}.cls-8{clip-path:url(#clip-path-6);}.cls-9{clip-path:url(#clip-path-7);}.cls-10{fill:#7f2986;}.cls-11{clip-path:url(#clip-path-8);}.cls-12{fill:#854e13;}.cls-13{clip-path:url(#clip-path-9);}</style><clipPath id="clip-path"><rect class="cls-1" y="-84.89" width="102" height="73.7"/></clipPath><clipPath id="clip-path-2"><rect class="cls-1" y="-0.35" width="102" height="73.7"/></clipPath><clipPath id="clip-path-6"><rect class="cls-1" x="116.52" y="-0.35" width="102" height="73.7"/></clipPath><clipPath id="clip-path-7"><rect class="cls-1" y="91.99" width="102" height="73.7"/></clipPath><clipPath id="clip-path-8"><rect class="cls-1" x="-124.47" y="-46.35" width="102" height="73.7"/></clipPath><clipPath id="clip-path-9"><rect class="cls-1" x="116.52" y="91.99" width="102" height="73.7"/></clipPath></defs><g class="cls-2"><path class="cls-3" d="M73.7,47.31,37.1-16l65-37.5,36.6,63.3Zm26.7-58.8L88.2-32.59l-26,15,19.7,34.1Zm13.1,22.8-5.6-9.7L94,22.61Z"/></g><g class="cls-4"><rect class="cls-5" y="-0.35" width="102" height="73.7"/></g><g class="cls-4"><path class="cls-6" d="M20.2,73.35l-9.8-16.9,15.6-9L23.4,43l-13,7.5-2.2-3.9,20.8-12,7.1,12.3-15.6,9L25.8,65l7.8-4.5-.8-1.3,7.8-4.5,3,5.2Z"/><path class="cls-6" d="M46.8,58.05,32.2,32.75l26-15,14.6,25.3Zm10.7-23.5-4.9-8.4-10.4,6,7.9,13.6Zm5.3,9.1-2.2-3.9-5.5,8.4Z"/><path class="cls-6" d="M76.1,41.15,61.4,15.75l26-15L102,26.05Zm10.7-23.5-4.9-8.4-10.4,6,7.9,13.6Zm5.2,9.1-2.2-3.9-5.5,8.4Z"/></g><g class="cls-4"><path class="cls-7" d="M73.7,131.85,37.1,68.55l65-37.5,36.6,63.3Zm26.7-58.8L88.2,52l-26,15,19.7,34.1Zm13.1,22.8-5.6-9.7-13.9,21Z"/></g><g class="cls-4"><path class="cls-7" d="M-36.7-18.65l63.3-36.6,37.5,65L.8,46.35Zm36,39.8L9,15.55-12,1.65ZM22,8.05,43.1-4.15l-15-26L-6-10.45Z"/></g><g class="cls-8"><path class="cls-7" d="M79.82-18.65l63.3-36.6,37.5,65-63.3,36.6Zm36,39.8,9.7-5.6-21-13.9Zm22.7-13.1,21.1-12.2-15-26-34.1,19.7Z"/></g><g class="cls-9"><path class="cls-10" d="M-36.7,73.59,26.6,37l37.5,65L.8,138.59Zm36,39.9,9.7-5.6L-12,94ZM22,100.39l21.1-12.2-15-26L-6,81.89Z"/></g><g class="cls-11"><path class="cls-12" d="M-50.77,85.75l-36.6-63.3,65-37.5,36.6,63.3Zm26.7-58.7L-36.27,6l-26,15,19.7,34.1ZM-11,49.75l-5.6-9.7-13.9,21Z"/></g><g class="cls-13"><path class="cls-10" d="M79.82,73.59,143.12,37l37.5,65-63.3,36.6Zm36,39.9,9.7-5.6-21-13.9Zm22.7-13.1,21.1-12.2-15-26-34.1,19.7Z"/></g></svg>