<svg id="Слой_1" data-name="Слой 1" xmlns="http://www.w3.org/2000/svg" xmlns:xlink="http://www.w3.org/1999/xlink" viewBox="0 0 102 73"><defs><style>.cls-1{fill:none;}.cls-2{clip-path:url(#clip-path);}.cls-3{fill:#049669;}.cls-4{fill:#066047;}.cls-5{clip-path:url(#clip-path-4);}.cls-6{isolation:isolate;}.cls-7{fill:#fff;}</style><clipPath id="clip-path"><rect class="cls-1" y="-0.35" width="102" height="73.7"/></clipPath><clipPath id="clip-path-4"><rect class="cls-1" x="-110.47" y="-0.35" width="102" height="73.7"/></clipPath></defs><g class="cls-2"><rect class="cls-3" y="-0.35" width="102" height="73.7"/></g><g class="cls-2"><path class="cls-4" d="M73.7,131.85,37.1,68.55l65-37.5,36.6,63.3Zm26.7-58.8L88.2,52l-26,15,19.7,34.1Zm13.1,22.8-5.6-9.7-13.9,21Z"/></g><g class="cls-2"><path class="cls-4" d="M-36.7-18.65l63.3-36.6,37.5,65L.8,46.35Zm36,39.8L9,15.55-12,1.65ZM22,8.05,43.1-4.15l-15-26L-6-10.45Z"/></g><g class="cls-5"><path class="cls-4" d="M-36.77,131.85l-36.6-63.3,65-37.5,36.6,63.3Zm26.7-58.8L-22.27,52l-26,15,19.7,34.1ZM3,95.85l-5.6-9.7-13.9,21Z"/></g><g class="cls-6"><path class="cls-7" d="M24.55,71.39,14.8,54.51l15.58-9L27.76,41l-13,7.5-2.25-3.9,20.78-12L40.43,44.9l-15.59,9L30.09,63l7.79-4.5-.75-1.3,7.8-4.5,3,5.19Z"/><path class="cls-7" d="M51.18,56,41.43,39.13l15.58-9-2.62-4.54-13,7.5-2.25-3.9,20.78-12,7.13,12.34-15.59,9,5.25,9.09,7.79-4.5-.75-1.3,7.8-4.5,3,5.2Z"/><path class="cls-7" d="M77.8,40.64,63.18,15.31,84,3.31l2.25,3.9-13,7.5,4.5,7.79,5.55-8.39,7.79-4.5,10.13,17.53ZM91.14,27.75,86.27,19.3l-5.55,8.4,2.63,4.55Z"/></g></svg>