<svg id="Слой_1" data-name="Слой 1" xmlns="http://www.w3.org/2000/svg" xmlns:xlink="http://www.w3.org/1999/xlink" viewBox="0 0 102 73"><defs><style>.cls-1{fill:none;}.cls-2{clip-path:url(#clip-path);}.cls-3{fill:#066047;}.cls-4{clip-path:url(#clip-path-2);}.cls-5{fill:#049669;}.cls-6{clip-path:url(#clip-path-5);}.cls-7{isolation:isolate;}.cls-8{fill:#fff;}</style><clipPath id="clip-path"><rect class="cls-1" x="107.73" y="-0.35" width="102" height="73.7"/></clipPath><clipPath id="clip-path-2"><rect class="cls-1" y="-0.35" width="102" height="73.7"/></clipPath><clipPath id="clip-path-5"><rect class="cls-1" x="-105.85" y="-0.35" width="102" height="73.7"/></clipPath></defs><g class="cls-2"><path class="cls-3" d="M71-18.65l63.3-36.6,37.5,65-63.3,36.6Zm36,39.8,9.7-5.6-21-13.9Zm22.7-13.1,21.1-12.2-15-26-34.1,19.7Z"/></g><g class="cls-4"><rect class="cls-5" y="-0.35" width="102" height="73.7"/></g><g class="cls-4"><path class="cls-3" d="M73.7,131.85,37.1,68.55l65-37.5,36.6,63.3Zm26.7-58.8L88.2,52l-26,15,19.7,34.1Zm13.1,22.8-5.6-9.7-13.9,21Z"/></g><g class="cls-4"><path class="cls-3" d="M-36.7-18.65l63.3-36.6,37.5,65L.8,46.35Zm36,39.8L9,15.55-12,1.65ZM22,8.05,43.1-4.15l-15-26L-6-10.45Z"/></g><g class="cls-6"><path class="cls-3" d="M-32.15,131.85l-36.6-63.3,65-37.5,36.6,63.3Zm26.7-58.8L-17.65,52l-26,15,19.7,34.1Zm13.1,22.8-5.6-9.7-13.9,21Z"/></g><g class="cls-7"><path class="cls-8" d="M22.25,72.49,12.5,55.61l15.58-9-2.62-4.55-13,7.5-2.25-3.9L31,33.66,38.13,46,22.54,55l5.25,9.1,7.79-4.5-.75-1.3,7.8-4.5,3,5.19Z"/><path class="cls-8" d="M48.88,57.12,34.25,31.79l26-15L74.85,42.12ZM59.56,33.63l-4.87-8.44-10.4,6,7.88,13.63Zm5.25,9.09-2.25-3.9L57,47.22Z"/><path class="cls-8" d="M78.1,40.24,63.48,14.91l20.78-12,2.25,3.9-13,7.5,4.5,7.8,5.54-8.4,7.8-4.5,10.12,17.53ZM91.44,27.35,86.56,18.9,81,27.3l2.63,4.55Z"/></g></svg>