<svg id="Слой_1" data-name="Слой 1" xmlns="http://www.w3.org/2000/svg" xmlns:xlink="http://www.w3.org/1999/xlink" viewBox="0 0 102 73"><defs><style>.cls-1{fill:none;}.cls-2{clip-path:url(#clip-path);}.cls-3{fill:#137590;}.cls-4{clip-path:url(#clip-path-2);}.cls-5{clip-path:url(#clip-path-3);}.cls-6{fill:#066047;}.cls-7{clip-path:url(#clip-path-4);}.cls-8{fill:#049669;}.cls-9{fill:#fff;}.cls-10{clip-path:url(#clip-path-8);}.cls-11{clip-path:url(#clip-path-9);}.cls-12{fill:#7f2986;}.cls-13{clip-path:url(#clip-path-10);}</style><clipPath id="clip-path"><rect class="cls-1" x="-116.52" y="-84.89" width="102" height="73.7"/></clipPath><clipPath id="clip-path-2"><rect class="cls-1" x="-2.75" y="-84.89" width="102" height="73.7"/></clipPath><clipPath id="clip-path-3"><rect class="cls-1" x="-116.52" y="-0.35" width="102" height="73.7"/></clipPath><clipPath id="clip-path-4"><rect class="cls-1" y="-0.35" width="102" height="73.7"/></clipPath><clipPath id="clip-path-8"><rect class="cls-1" x="120.37" y="-0.35" width="102" height="73.7"/></clipPath><clipPath id="clip-path-9"><rect class="cls-1" y="91.99" width="102" height="73.7"/></clipPath><clipPath id="clip-path-10"><rect class="cls-1" x="116.52" y="91.99" width="102" height="73.7"/></clipPath></defs><g class="cls-2"><path class="cls-3" d="M-42.82,47.31-79.42-16l65-37.5,36.6,63.3Zm26.7-58.8-12.2-21.1-26,15,19.7,34.1ZM-3,11.31l-5.6-9.7-13.9,21Z"/></g><g class="cls-4"><path class="cls-3" d="M70.85,47.31l-36.5-63.4,65-37.5L136,9.71Zm26.7-58.8-12.2-21.1-26,15,19.7,34.1Zm13.2,22.8-5.6-9.7-13.9,21Z"/></g><g class="cls-5"><path class="cls-6" d="M-42.82,131.85l-36.6-63.3,65-37.5,36.6,63.3Zm26.7-58.8L-28.32,52l-26,15,19.7,34.1ZM-3,95.85l-5.6-9.7-13.9,21Z"/></g><g class="cls-7"><rect class="cls-8" y="-0.35" width="102" height="73.7"/></g><g class="cls-7"><path class="cls-9" d="M27.6,69.45l-9.8-16.9,15.6-9-2.6-4.5-13,7.5-2.2-3.9,20.8-12L43.5,43,27.9,52l5.2,9.1,7.8-4.5-.8-1.3,7.8-4.5,3,5.2Z"/><path class="cls-9" d="M54.2,54.05,39.6,28.75l26-15,14.6,25.3Zm10.7-23.5L60,22.15l-10.4,6,7.9,13.6Zm5.2,9.1-2.2-3.9-5.5,8.4Z"/><path class="cls-9" d="M89.9,33.45,77.5,12.05,71,15.85,68.8,12l14.3-8.2,14.6,25.3Z"/></g><g class="cls-7"><path class="cls-6" d="M73.6,131.85,37.1,68.45l65-37.5,36.6,63.3Zm26.7-58.8L88.2,52l-26,15,19.7,34.1Zm13.2,22.8-5.6-9.7-13.9,21Z"/></g><g class="cls-7"><path class="cls-6" d="M-36.7-18.65l63.3-36.6,37.5,65L.8,46.35Zm36,39.8L9,15.55-12,1.65ZM22,8.05,43.1-4.15l-15-26L-6-10.45Z"/></g><g class="cls-10"><path class="cls-6" d="M83.67-18.65,147-55.25l37.5,65-63.3,36.5Zm36,39.8,9.7-5.6-21-13.9Zm22.7-13.1,21.1-12.2-15-26-34.1,19.7Z"/></g><g class="cls-11"><path class="cls-12" d="M-36.7,73.59,26.6,37l37.5,65L.8,138.59Zm36,39.9,9.7-5.6L-12,94ZM22,100.39l21.1-12.2-15-26L-6,81.89Z"/></g><g class="cls-13"><path class="cls-12" d="M79.82,73.59,143.12,37l37.5,65-63.3,36.6Zm36,39.9,9.7-5.6-21-13.9Zm22.7-13.1,21.1-12.2-15-26-34.1,19.7Z"/></g></svg>