<svg id="Слой_1" data-name="Слой 1" xmlns="http://www.w3.org/2000/svg" xmlns:xlink="http://www.w3.org/1999/xlink" viewBox="0 0 102 73"><defs><style>.cls-1{fill:none;}.cls-2{clip-path:url(#clip-path);}.cls-3{fill:#137590;}.cls-4{clip-path:url(#clip-path-2);}.cls-5{clip-path:url(#clip-path-3);}.cls-6{fill:#066047;}.cls-7{clip-path:url(#clip-path-4);}.cls-8{fill:#049669;}.cls-9{clip-path:url(#clip-path-7);}.cls-10{isolation:isolate;}.cls-11{fill:#fff;}</style><clipPath id="clip-path"><rect class="cls-1" x="-128.61" y="-81.14" width="102" height="73.7"/></clipPath><clipPath id="clip-path-2"><rect class="cls-1" y="-82.79" width="102" height="73.7"/></clipPath><clipPath id="clip-path-3"><rect class="cls-1" x="-124.76" y="-0.35" width="102" height="73.7"/></clipPath><clipPath id="clip-path-4"><rect class="cls-1" y="-0.35" width="102" height="73.7"/></clipPath><clipPath id="clip-path-7"><rect class="cls-1" x="112.12" y="-0.35" width="102" height="73.7"/></clipPath></defs><g class="cls-2"><path class="cls-3" d="M-55,51.06l-36.6-63.3,65-37.5L10,13.56Zm26.8-58.8-12.2-21.1-26,15,19.7,34.1Zm13.1,22.8-5.6-9.7-13.9,21Z"/></g><g class="cls-4"><path class="cls-3" d="M73.7,49.41,37.1-13.89l65-37.5,36.6,63.3Zm26.7-58.8L88.2-30.49l-26,15,19.7,34.1Zm13.1,22.8-5.6-9.7L94,24.71Z"/></g><g class="cls-5"><path class="cls-6" d="M-51.16,131.85l-36.6-63.3,65-37.5,36.6,63.3Zm26.7-58.8L-36.56,52l-26,15,19.7,34.1Zm13.2,22.8-5.6-9.7-13.9,21Z"/></g><g class="cls-7"><rect class="cls-8" y="-0.35" width="102" height="73.7"/></g><g class="cls-7"><path class="cls-6" d="M73.7,131.85,37.1,68.55l65-37.5,36.6,63.3Zm26.7-58.8L88.2,52l-26,15,19.7,34.1Zm13.1,22.8-5.6-9.7-13.9,21Z"/></g><g class="cls-7"><path class="cls-6" d="M-36.7-18.65l63.3-36.6,37.5,65L.8,46.35Zm36,39.8L9,15.55-12,1.65ZM22,8.05,43.1-4.15l-15-26L-6-10.45Z"/></g><g class="cls-9"><path class="cls-6" d="M75.42-18.65l63.3-36.6,37.5,65-63.3,36.6Zm36,39.8,9.7-5.6-21-13.9Zm22.7-13.1,21.1-12.2-15-26-34.1,19.7Z"/></g><g class="cls-10"><path class="cls-11" d="M23.54,72,13.79,55.11l15.59-9-2.62-4.55-13,7.5-2.25-3.9,20.78-12L39.43,45.5l-15.59,9,5.25,9.1,7.79-4.5-.75-1.3,7.8-4.5,3,5.19Z"/><path class="cls-11" d="M50.17,56.62,35.55,31.29l26-15L76.15,41.62ZM60.86,33.13,56,24.69l-10.4,6,7.88,13.63Zm5.25,9.09-2.25-3.9-5.54,8.4Z"/><path class="cls-11" d="M79.4,39.74l-3-5.19,7.8-4.5.75,1.3,6.49-3.75-4.87-8.45L72.28,27.4,70,23.51l7.39-11.2L67,18.31l-2.25-3.9L86.86,1.66l1.88,3.25-8.32,12.6,11.69-6.75L101.49,27Z"/></g></svg>