<svg id="Слой_1" data-name="Слой 1" xmlns="http://www.w3.org/2000/svg" xmlns:xlink="http://www.w3.org/1999/xlink" viewBox="0 0 102 73"><defs><style>.cls-1{fill:none;}.cls-2{clip-path:url(#clip-path);}.cls-3{fill:#066047;}.cls-4{clip-path:url(#clip-path-2);}.cls-5{clip-path:url(#clip-path-3);}.cls-6{fill:#137590;}.cls-7{clip-path:url(#clip-path-4);}.cls-8{fill:#0b91b2;}.cls-9{clip-path:url(#clip-path-7);}.cls-10{isolation:isolate;}.cls-11{fill:#fff;}</style><clipPath id="clip-path"><rect class="cls-1" x="-13.15" y="-110.82" width="102" height="73.7"/></clipPath><clipPath id="clip-path-2"><rect class="cls-1" x="-127.47" y="-110.82" width="102" height="73.7"/></clipPath><clipPath id="clip-path-3"><rect class="cls-1" x="-120.37" y="-0.35" width="102" height="73.7"/></clipPath><clipPath id="clip-path-4"><rect class="cls-1" y="-0.35" width="102" height="73.7"/></clipPath><clipPath id="clip-path-7"><rect class="cls-1" x="122.02" y="-0.35" width="102" height="73.7"/></clipPath></defs><g class="cls-2"><path class="cls-3" d="M60.55,21.38,24-41.92l65-37.5,36.6,63.3Zm26.7-58.8-12.2-21.1-26,15,19.7,34.1Zm13.1,22.8-5.6-9.7-13.9,21Z"/></g><g class="cls-4"><path class="cls-3" d="M-53.77,21.38l-36.6-63.3,65-37.5,36.6,63.3Zm26.7-58.8-12.2-21.1-26,15,19.7,34.1ZM-14-14.62l-5.6-9.7-13.9,21Z"/></g><g class="cls-5"><path class="cls-6" d="M-46.67,131.85l-36.6-63.3,65-37.5,36.6,63.3ZM-20,73.05-32.17,52l-26,15,19.7,34.1Zm13.1,22.8-5.6-9.7-13.9,21Z"/></g><g class="cls-7"><rect class="cls-8" y="-0.35" width="102" height="73.7"/></g><g class="cls-7"><path class="cls-6" d="M73.7,131.85,37.1,68.55l65-37.5,36.6,63.3Zm26.7-58.8L88.2,52l-26,15,19.7,34.1Zm13.1,22.8-5.6-9.7-13.9,21Z"/></g><g class="cls-7"><path class="cls-6" d="M-36.7-18.75l63.3-36.6,37.5,65L.8,46.25Zm36,39.9L9,15.55-12,1.65ZM22,8.05,43.1-4.15l-15-26L-6-10.45Z"/></g><g class="cls-9"><path class="cls-6" d="M85.32-18.75l63.3-36.6,37.5,65-63.3,36.6Zm36,39.9,9.7-5.6L110,1.65ZM144,8.05l21.1-12.2-15-26L116-10.45Z"/></g><g class="cls-10"><path class="cls-11" d="M25.4,70.47l-3-5.19,7.79-4.5.75,1.29,6.5-3.75-4.88-8.44L18.27,58.13,16,54.23,23.42,43,13,49l-2.25-3.9L32.86,32.39l1.87,3.25L26.42,48.23l11.69-6.75,9.37,16.24Z"/><path class="cls-11" d="M50.73,55.85l-3-5.2,7.79-4.5.75,1.3,6.5-3.75-4.88-8.44L43.61,43.51l-2.25-3.9,7.39-11.2-10.39,6-2.25-3.89L58.19,17.77,60.06,21l-8.31,12.6,11.69-6.75L72.81,43.1Z"/><path class="cls-11" d="M76.06,41.22,61.44,15.89l20.78-12,2.25,3.9-13,7.5L76,23.08l5.54-8.39,7.8-4.5L99.44,27.72ZM89.4,28.32l-4.88-8.44L79,28.28l2.62,4.54Z"/></g></svg>