<svg id="Слой_1" data-name="Слой 1" xmlns="http://www.w3.org/2000/svg" xmlns:xlink="http://www.w3.org/1999/xlink" viewBox="0 0 102 73"><defs><style>.cls-1{fill:none;}.cls-2{clip-path:url(#clip-path);}.cls-3{fill:#066047;}.cls-4{clip-path:url(#clip-path-2);}.cls-5{fill:#0b91b2;}.cls-6{fill:#137590;}.cls-7{clip-path:url(#clip-path-5);}.cls-8{isolation:isolate;}.cls-9{fill:#fff;}</style><clipPath id="clip-path"><rect class="cls-1" x="10.01" y="-110.82" width="102" height="73.7"/></clipPath><clipPath id="clip-path-2"><rect class="cls-1" y="-0.35" width="102" height="73.7"/></clipPath><clipPath id="clip-path-5"><rect class="cls-1" x="116.52" y="-0.35" width="102" height="73.7"/></clipPath></defs><g class="cls-2"><path class="cls-3" d="M83.61,21.38,47-41.92l65-37.5,36.6,63.3Zm26.7-58.8-12.1-21.1-26,15,19.7,34.1Zm13.2,22.8-5.6-9.7L104-3.32Z"/></g><g class="cls-4"><rect class="cls-5" y="-0.35" width="102" height="73.7"/></g><g class="cls-4"><path class="cls-6" d="M73.7,131.85,37.1,68.55l65-37.5,36.6,63.3Zm26.7-58.8L88.2,52l-26,15,19.7,34.1Zm13.1,22.8-5.6-9.7-13.9,21Z"/></g><g class="cls-4"><path class="cls-6" d="M-36.7-18.75l63.3-36.6,37.5,65L.8,46.25Zm36,39.9L9,15.55-12,1.65ZM22,8.05,43.1-4.15l-15-26L-6-10.45Z"/></g><g class="cls-7"><path class="cls-6" d="M79.82-18.75l63.3-36.6,37.5,65-63.3,36.6Zm36,39.9,9.7-5.6-21-13.9Zm22.7-13.1,21.1-12.2-15-26-34.1,19.7Z"/></g><g class="cls-8"><path class="cls-9" d="M30.71,67.87l-3-5.19,7.8-4.5.75,1.3,6.49-3.75-4.87-8.45L23.59,55.53l-2.25-3.89,7.39-11.2-10.39,6-2.25-3.9L38.17,29.79,40.05,33l-8.32,12.6,11.69-6.75L52.8,55.12Z"/><path class="cls-9" d="M56,53.25l-3-5.2,7.8-4.5.75,1.3,6.49-3.75-4.87-8.44L48.92,40.91,46.67,37l7.39-11.19-10.39,6-2.25-3.9L63.5,15.17l1.88,3.24L57.06,31l11.69-6.75L78.13,40.5Z"/><path class="cls-9" d="M87.87,34.87,75.49,13.44,69,17.19l-2.25-3.9L81,5,95.66,30.37Z"/></g></svg>