<svg id="Слой_1" data-name="Слой 1" xmlns="http://www.w3.org/2000/svg" xmlns:xlink="http://www.w3.org/1999/xlink" viewBox="0 0 102 73"><defs><style>.cls-1{fill:none;}.cls-2{clip-path:url(#clip-path);}.cls-3{fill:#066047;}.cls-4{clip-path:url(#clip-path-2);}.cls-5{clip-path:url(#clip-path-3);}.cls-6{fill:#137590;}.cls-7{clip-path:url(#clip-path-4);}.cls-8{fill:#0b91b2;}.cls-9{isolation:isolate;}.cls-10{fill:#fff;}</style><clipPath id="clip-path"><rect class="cls-1" x="-20.02" y="-110.82" width="102" height="73.7"/></clipPath><clipPath id="clip-path-2"><rect class="cls-1" x="-135.16" y="-110.82" width="102" height="73.7"/></clipPath><clipPath id="clip-path-3"><rect class="cls-1" x="-122.02" y="-0.35" width="102" height="73.7"/></clipPath><clipPath id="clip-path-4"><rect class="cls-1" y="-0.35" width="102" height="73.7"/></clipPath></defs><g class="cls-2"><path class="cls-3" d="M53.68,21.38l-36.6-63.3,65-37.5,36.6,63.3Zm26.7-58.8-12.2-21.1-26,15,19.7,34.1Zm13.1,22.8-5.6-9.7L74-3.32Z"/></g><g class="cls-4"><path class="cls-3" d="M-61.46,21.38l-36.6-63.3,65-37.5,36.6,63.3Zm26.7-58.8L-47-58.52l-26,15,19.7,34.1Zm13.1,22.8-5.6-9.7-13.9,21Z"/></g><g class="cls-5"><path class="cls-6" d="M-48.32,131.85l-36.6-63.3,65-37.5,36.6,63.3Zm26.7-58.8L-33.82,52l-26,15,19.7,34.1Zm13.1,22.8-5.6-9.7-13.9,21Z"/></g><g class="cls-7"><rect class="cls-8" y="-0.35" width="102" height="73.7"/></g><g class="cls-7"><path class="cls-6" d="M73.7,131.85,37.1,68.55l65-37.5,36.6,63.3Zm26.7-58.8L88.2,52l-26,15,19.7,34.1Zm13.1,22.8-5.6-9.7-13.9,21Z"/></g><g class="cls-7"><path class="cls-6" d="M-36.7-18.75l63.3-36.6,37.5,65L.8,46.25Zm36,39.9L9,15.55-12,1.65ZM22,8.05,43.1-4.15l-15-26L-6-10.45Z"/></g><g class="cls-9"><path class="cls-10" d="M22.84,71.9l-3-5.19,7.79-4.5.75,1.3,6.49-3.75L30,51.31,15.71,59.56l-2.25-3.89,7.39-11.2-10.39,6-2.25-3.9L30.29,33.82l1.88,3.25-8.32,12.6,11.69-6.75,9.38,16.23Z"/><path class="cls-10" d="M48.17,57.28l-3-5.2L53,47.58l.75,1.3,7.79-4.5-5.25-9.09-15.58,9L33.54,32,54.32,20l2.25,3.89-13,7.5,2.63,4.55,15.59-9,9.75,16.89Z"/><path class="cls-10" d="M74.8,41.9,60.17,16.57l26-15L100.78,26.9ZM85.48,18.41,80.61,10l-10.4,6,7.88,13.64Zm5.25,9.1-2.25-3.9L82.94,32Z"/></g></svg>