<svg id="Слой_1" data-name="Слой 1" xmlns="http://www.w3.org/2000/svg" xmlns:xlink="http://www.w3.org/1999/xlink" viewBox="0 0 102 73"><defs><style>.cls-1{fill:none;}.cls-2{clip-path:url(#clip-path);}.cls-3{fill:#066047;}.cls-4{clip-path:url(#clip-path-2);}.cls-5{clip-path:url(#clip-path-3);}.cls-6{fill:#137590;}.cls-7{clip-path:url(#clip-path-4);}.cls-8{fill:#0b91b2;}.cls-9{clip-path:url(#clip-path-7);}.cls-10{isolation:isolate;}.cls-11{fill:#fff;}</style><clipPath id="clip-path"><rect class="cls-1" x="-106.51" y="-110.82" width="102" height="73.7"/></clipPath><clipPath id="clip-path-2"><rect class="cls-1" x="6.09" y="-110.82" width="102" height="73.7"/></clipPath><clipPath id="clip-path-3"><rect class="cls-1" x="-116.52" y="-0.35" width="102" height="73.7"/></clipPath><clipPath id="clip-path-4"><rect class="cls-1" y="-0.35" width="102" height="73.7"/></clipPath><clipPath id="clip-path-7"><rect class="cls-1" x="122.02" y="-0.35" width="102" height="73.7"/></clipPath></defs><g class="cls-2"><path class="cls-3" d="M-32.91,21.38l-36.6-63.3,65-37.5,36.6,63.3Zm26.7-58.8-12.1-21.1-26,15,19.7,34.1ZM7-14.62l-5.6-9.7-13.9,21Z"/></g><g class="cls-4"><path class="cls-3" d="M79.79,21.38l-36.6-63.3,65-37.5,36.6,63.3Zm26.7-58.8-12.2-21.1-26,15L88-9.42Zm13.1,22.8-5.6-9.7-13.9,21Z"/></g><g class="cls-5"><path class="cls-6" d="M-42.82,131.85l-36.6-63.3,65-37.5,36.6,63.3Zm26.7-58.8L-28.32,52l-26,15,19.7,34.1ZM-3,95.85l-5.6-9.7-13.9,21Z"/></g><g class="cls-7"><rect class="cls-8" y="-0.35" width="102" height="73.7"/></g><g class="cls-7"><path class="cls-6" d="M73.7,131.85,37.1,68.55l65-37.5,36.6,63.3Zm26.7-58.8L88.2,52l-26,15,19.7,34.1Zm13.1,22.8-5.6-9.7-13.9,21Z"/></g><g class="cls-7"><path class="cls-6" d="M-36.7-18.75l63.3-36.6,37.5,65L.8,46.25Zm36,39.9L9,15.55-12,1.65ZM22,8.05,43.1-4.15l-15-26L-6-10.45Z"/></g><g class="cls-9"><path class="cls-6" d="M85.32-18.75l63.3-36.6,37.5,65-63.3,36.6Zm36,39.9,9.7-5.6L110,1.65ZM144,8.05l21.1-12.2-15-26L116-10.45Z"/></g><g class="cls-10"><path class="cls-11" d="M25.18,70.8l-3-5.19,7.8-4.5.75,1.3,6.49-3.75-4.87-8.45L18.06,58.46l-2.25-3.89,7.39-11.2-10.39,6-2.25-3.9L32.64,32.72,34.52,36,26.2,48.57l11.69-6.75,9.38,16.23Z"/><path class="cls-11" d="M50.51,56.18l-3-5.2,7.8-4.5.75,1.3L62.55,44l-4.87-8.44L43.39,43.84l-2.25-3.9,7.39-11.19-10.39,6-2.25-3.9L58,18.1l1.88,3.25L51.53,33.94l11.69-6.75L72.6,43.43Z"/><path class="cls-11" d="M75.84,41.55,66.09,24.67l15.59-9-2.62-4.55-13,7.5-2.25-3.9,20.78-12,7.13,12.34-15.59,9,5.25,9.1,7.79-4.5-.75-1.3,7.8-4.5,3,5.19Z"/></g></svg>