<svg id="Слой_1" data-name="Слой 1" xmlns="http://www.w3.org/2000/svg" xmlns:xlink="http://www.w3.org/1999/xlink" viewBox="0 0 102 73"><defs><style>.cls-1{fill:none;}.cls-2{clip-path:url(#clip-path);}.cls-3{fill:#066047;}.cls-4{clip-path:url(#clip-path-2);}.cls-5{clip-path:url(#clip-path-3);}.cls-6{fill:#7f2986;}.cls-7{clip-path:url(#clip-path-4);}.cls-8{fill:#8d4795;}.cls-9{clip-path:url(#clip-path-7);}.cls-10{fill:#fff;}</style><clipPath id="clip-path"><rect class="cls-1" x="121.15" y="105.18" width="102" height="73.7"/></clipPath><clipPath id="clip-path-2"><rect class="cls-1" x="6.82" y="105.18" width="102" height="73.7"/></clipPath><clipPath id="clip-path-3"><rect class="cls-1" x="-108.09" y="-0.35" width="102" height="73.7"/></clipPath><clipPath id="clip-path-4"><rect class="cls-1" y="-0.35" width="102" height="73.7"/></clipPath><clipPath id="clip-path-7"><rect class="cls-1" x="115.94" y="-0.35" width="102" height="73.7"/></clipPath></defs><g class="cls-2"><path class="cls-3" d="M84.44,86.78l63.31-36.6,37.5,65-63.31,36.6Zm36,39.9,9.7-5.6-21-13.9Zm22.71-13.1,21.1-12.2-15-26-34.1,19.7Z"/></g><g class="cls-4"><path class="cls-3" d="M-29.88,86.78l63.3-36.6,37.5,65-63.3,36.6Zm36,39.9,9.7-5.6-21-13.9Zm22.7-13.1,21.1-12.2-15-26L.82,95.08Z"/></g><g class="cls-5"><path class="cls-6" d="M-34.39,131.85-71,68.55l65-37.5,36.6,63.3Zm26.7-58.8L-19.89,52l-26,15,19.7,34.1Zm13.1,22.8-5.6-9.7-13.9,21Z"/></g><g class="cls-7"><rect class="cls-8" y="-0.35" width="102" height="73.7"/></g><g class="cls-7"><path class="cls-6" d="M73.7,131.85,37.1,68.55l65-37.5,36.6,63.3Zm26.7-58.8L88.2,52l-26,15,19.7,34.1Zm13.1,22.8-5.6-9.7-13.9,21Z"/></g><g class="cls-7"><path class="cls-6" d="M-36.7-18.75l63.3-36.6,37.5,65L.8,46.25Zm36,39.9L9,15.55-12,1.65ZM22,8.05,43.1-4.15l-15-26L-6-10.45Z"/></g><g class="cls-9"><path class="cls-6" d="M79.24-18.75l63.3-36.6,37.5,65-63.3,36.6Zm36,39.9,9.7-5.6-21-13.9Zm22.7-13.1L159-4.15l-15-26-34.1,19.7Z"/></g><path class="cls-10" d="M34.64,65.59,22.27,44.15l-6.5,3.75L13.52,44l14.29-8.25L42.44,61.09Z"/><path class="cls-10" d="M45.68,59.21,35.93,42.33l15.59-9L48.9,28.78l-13,7.5-2.25-3.9,20.78-12,7.13,12.34L46,41.72l5.25,9.1L59,46.32,58.27,45l7.8-4.5,3,5.19Z"/><path class="cls-10" d="M72.31,43.84l-3-5.2,7.8-4.5.75,1.3,7.79-4.5L80.4,21.85l-15.59,9L57.69,18.51l20.78-12,2.25,3.89-13,7.5,2.63,4.55,15.59-9L95.7,30.34Z"/></svg>