<svg id="Слой_1" data-name="Слой 1" xmlns="http://www.w3.org/2000/svg" xmlns:xlink="http://www.w3.org/1999/xlink" viewBox="0 0 102 73"><defs><style>.cls-1{fill:none;}.cls-2{clip-path:url(#clip-path);}.cls-3{fill:#066047;}.cls-4{clip-path:url(#clip-path-2);}.cls-5{clip-path:url(#clip-path-3);}.cls-6{fill:#7f2986;}.cls-7{clip-path:url(#clip-path-4);}.cls-8{fill:#8d4795;}.cls-9{clip-path:url(#clip-path-7);}.cls-10{fill:#fff;}</style><clipPath id="clip-path"><rect class="cls-1" x="114.92" y="105.18" width="102" height="73.7"/></clipPath><clipPath id="clip-path-2"><rect class="cls-1" x="6.09" y="105.18" width="102" height="73.7"/></clipPath><clipPath id="clip-path-3"><rect class="cls-1" x="-116.52" y="-0.35" width="102" height="73.7"/></clipPath><clipPath id="clip-path-4"><rect class="cls-1" y="-0.35" width="102" height="73.7"/></clipPath><clipPath id="clip-path-7"><rect class="cls-1" x="108.09" y="-0.35" width="102" height="73.7"/></clipPath></defs><g class="cls-2"><path class="cls-3" d="M78.22,86.78l63.3-36.6,37.5,65-63.3,36.6Zm36,39.9,9.7-5.6-21-13.9Zm22.7-13.1,21.1-12.2-15-26-34.1,19.7Z"/></g><g class="cls-4"><path class="cls-3" d="M-30.61,86.78l63.3-36.6,37.5,65-63.3,36.6Zm36,39.9,9.7-5.6-21-13.9Zm22.7-13.1,21.1-12.2-15-26L.09,95.08Z"/></g><g class="cls-5"><path class="cls-6" d="M-42.82,131.85l-36.6-63.3,65-37.5,36.6,63.3Zm26.7-58.8L-28.32,52l-26,15,19.7,34.1ZM-3,95.85l-5.6-9.7-13.9,21Z"/></g><g class="cls-7"><rect class="cls-8" y="-0.35" width="102" height="73.7"/></g><g class="cls-7"><path class="cls-6" d="M73.7,131.85,37.1,68.55l65-37.5,36.6,63.3Zm26.7-58.8L88.2,52l-26,15,19.7,34.1Zm13.1,22.8-5.6-9.7-13.9,21Z"/></g><g class="cls-7"><path class="cls-6" d="M-36.7-18.75l63.3-36.6,37.5,65L.8,46.25Zm36,39.9L9,15.55-12,1.65ZM22,8.05,43.1-4.15l-15-26L-6-10.45Z"/></g><g class="cls-9"><path class="cls-6" d="M71.39-18.75l63.3-36.6,37.5,65-63.3,36.6Zm36,39.9,9.7-5.6-21-13.9Zm22.7-13.1,21.1-12.2-15-26-34.1,19.7Z"/></g><path class="cls-10" d="M35.38,65,23,43.61l-6.5,3.75-2.25-3.9,14.29-8.25L43.17,60.54Z"/><path class="cls-10" d="M46.42,58.66,36.67,41.78l15.58-9-2.62-4.55-13,7.5-2.25-3.9,20.78-12L62.3,32.17l-15.59,9L52,50.27l7.79-4.5L59,44.47,66.8,40l3,5.19Z"/><path class="cls-10" d="M73.05,43.29,58.42,18l26-15L99,28.29ZM83.73,19.8l-4.87-8.44-10.4,6L76.34,31ZM89,28.89,86.73,25l-5.54,8.4Z"/></svg>