<svg id="Слой_1" data-name="Слой 1" xmlns="http://www.w3.org/2000/svg" xmlns:xlink="http://www.w3.org/1999/xlink" viewBox="0 0 102 73"><defs><style>.cls-1{fill:none;}.cls-2{clip-path:url(#clip-path);}.cls-3{fill:#066047;}.cls-4{clip-path:url(#clip-path-2);}.cls-5{clip-path:url(#clip-path-3);}.cls-6{fill:#8d4795;}.cls-7{fill:#7f2986;}.cls-8{clip-path:url(#clip-path-6);}.cls-9{fill:#fff;}</style><clipPath id="clip-path"><rect class="cls-1" x="10.01" y="105.18" width="102" height="73.7"/></clipPath><clipPath id="clip-path-2"><rect class="cls-1" x="122.61" y="105.18" width="102" height="73.7"/></clipPath><clipPath id="clip-path-3"><rect class="cls-1" y="-0.35" width="102" height="73.7"/></clipPath><clipPath id="clip-path-6"><rect class="cls-1" x="116.52" y="-0.35" width="102" height="73.7"/></clipPath></defs><g class="cls-2"><path class="cls-3" d="M-26.69,86.88l63.3-36.6,37.5,65-63.3,36.5Zm36,39.8,9.7-5.6-21-13.9ZM32,113.58l21.1-12.2-15-26L4,95.08Z"/></g><g class="cls-4"><path class="cls-3" d="M85.91,86.78l63.3-36.6,37.5,65-63.3,36.6Zm36,39.9,9.7-5.6-21-13.9Zm22.7-13.1,21.1-12.2-15-26-34.1,19.7Z"/></g><g class="cls-5"><rect class="cls-6" y="-0.35" width="102" height="73.7"/></g><g class="cls-5"><path class="cls-7" d="M73.7,131.85,37.1,68.55l65-37.5,36.6,63.3Zm26.7-58.8L88.2,52l-26,15,19.7,34.1Zm13.1,22.8-5.6-9.7-13.9,21Z"/></g><g class="cls-5"><path class="cls-7" d="M-36.7-18.75l63.3-36.6,37.5,65L.8,46.25Zm36,39.9L9,15.55-12,1.65ZM22,8.05,43.1-4.15l-15-26L-6-10.45Z"/></g><g class="cls-8"><path class="cls-7" d="M79.82-18.75l63.3-36.6,37.5,65-63.3,36.6Zm36,39.9,9.7-5.6-21-13.9Zm22.7-13.1,21.1-12.2-15-26-34.1,19.7Z"/></g><path class="cls-9" d="M34.73,65.86,22.36,44.43l-6.5,3.75-2.25-3.9L27.9,36,42.53,61.36Z"/><path class="cls-9" d="M52.27,55.74,39.9,34.31l-6.5,3.75-2.25-3.9,14.29-8.25L60.06,51.24Z"/><path class="cls-9" d="M63.31,49.36,48.69,24l26-15L89.29,34.36ZM74,25.87l-4.88-8.44-10.39,6,7.88,13.64ZM79.25,35,77,31.07l-5.55,8.4Z"/></svg>