<svg id="Слой_1" data-name="Слой 1" xmlns="http://www.w3.org/2000/svg" xmlns:xlink="http://www.w3.org/1999/xlink" viewBox="0 0 102 73"><defs><style>.cls-1{fill:none;}.cls-2{clip-path:url(#clip-path);}.cls-3{fill:#137590;}.cls-4{clip-path:url(#clip-path-2);}.cls-5{fill:#0b91b2;}.cls-6{clip-path:url(#clip-path-5);}.cls-7{fill:#066047;}.cls-8{clip-path:url(#clip-path-6);}.cls-9{isolation:isolate;}.cls-10{fill:#fff;}</style><clipPath id="clip-path"><rect class="cls-1" x="-106.35" y="-0.35" width="102" height="73.7"/></clipPath><clipPath id="clip-path-2"><rect class="cls-1" y="-0.35" width="102" height="73.7"/></clipPath><clipPath id="clip-path-5"><rect class="cls-1" x="7.52" y="-86.09" width="102" height="73.7"/></clipPath><clipPath id="clip-path-6"><rect class="cls-1" x="-108.4" y="-86.09" width="102" height="73.7"/></clipPath></defs><g class="cls-2"><path class="cls-3" d="M-32.65,131.85l-36.6-63.3,65-37.5,36.6,63.3Zm26.7-58.8L-18.15,52l-26,15,19.7,34.1Zm13.1,22.8-5.6-9.7-13.9,21Z"/></g><g class="cls-4"><rect class="cls-5" y="-0.35" width="102" height="73.7"/></g><g class="cls-4"><path class="cls-3" d="M73.7,131.85,37.1,68.55l65-37.5,36.6,63.3Zm26.7-58.8L88.2,52l-26,15,19.7,34.1Zm13.1,22.8-5.6-9.7-13.9,21Z"/></g><g class="cls-4"><path class="cls-3" d="M-36.7-18.75l63.3-36.6,37.5,65L.8,46.25Zm36,39.9L9,15.55-12,1.65ZM22,8.05,43.1-4.15l-15-26L-6-10.45Z"/></g><g class="cls-6"><path class="cls-7" d="M81.22,46.11l-36.6-63.3,65-37.5,36.6,63.3Zm26.7-58.8-12.2-21.1-26,15,19.7,34.1ZM121,10.11l-5.6-9.7-13.9,21Z"/></g><g class="cls-8"><path class="cls-7" d="M-34.7,46.11l-36.6-63.3,65-37.5L30.3,8.61ZM-8-12.69l-12.2-21.1-26,15,19.7,34.1ZM5.1,10.11-.5.41l-13.9,21Z"/></g><g class="cls-9"><path class="cls-10" d="M21.92,73l-3-5.2,7.79-4.5.75,1.3L34,60.85l-4.88-8.44L14.79,60.66l-2.25-3.9,7.4-11.19-10.4,6-2.25-3.9L29.38,34.92l1.87,3.25L22.94,50.76,34.63,44,44,60.25Z"/><path class="cls-10" d="M47.25,58.37l-3-5.19L52,48.68l.75,1.3,7.8-4.5-5.25-9.09-15.59,9L32.63,33,53.41,21l2.25,3.9-13,7.5L45.29,37l15.59-9,9.75,16.88Z"/><path class="cls-10" d="M92.06,32.5,89.44,28,71.25,38.45l-12-20.78,7.8-4.5L76.8,30.06l10.39-6L77.44,7.17l7.79-4.5L95,19.56l2.6-1.5L99.83,22l-2.6,1.5L99.86,28Z"/></g></svg>