<svg id="Слой_1" data-name="Слой 1" xmlns="http://www.w3.org/2000/svg" xmlns:xlink="http://www.w3.org/1999/xlink" viewBox="0 0 102 73"><defs><style>.cls-1{fill:none;}.cls-2{clip-path:url(#clip-path);}.cls-3{fill:#0b91b2;}.cls-4{fill:#137590;}.cls-5{clip-path:url(#clip-path-4);}.cls-6{clip-path:url(#clip-path-5);}.cls-7{fill:#066047;}.cls-8{isolation:isolate;}.cls-9{fill:#fff;}</style><clipPath id="clip-path"><rect class="cls-1" y="-0.35" width="102" height="73.7"/></clipPath><clipPath id="clip-path-4"><rect class="cls-1" x="106.35" y="-0.35" width="102" height="73.7"/></clipPath><clipPath id="clip-path-5"><rect class="cls-1" x="-2.05" y="-86.09" width="102" height="73.7"/></clipPath></defs><g class="cls-2"><rect class="cls-3" y="-0.35" width="102" height="73.7"/></g><g class="cls-2"><path class="cls-4" d="M73.7,131.85,37.1,68.55l65-37.5,36.6,63.3Zm26.7-58.8L88.2,52l-26,15,19.7,34.1Zm13.1,22.8-5.6-9.7-13.9,21Z"/></g><g class="cls-2"><path class="cls-4" d="M-36.7-18.75l63.3-36.6,37.5,65L.8,46.25Zm36,39.9L9,15.55-12,1.65ZM22,8.05,43.1-4.15l-15-26L-6-10.45Z"/></g><g class="cls-5"><path class="cls-4" d="M69.65-18.75,133-55.35l37.5,65-63.3,36.6Zm36,39.9,9.7-5.6-21-13.9Zm22.7-13.1,21.1-12.2-15-26-34.1,19.7Z"/></g><g class="cls-6"><path class="cls-7" d="M71.65,46.11l-36.6-63.3,65-37.5,36.6,63.3Zm26.7-58.8-12.2-21.1-26,15,19.7,34.1Zm13.1,22.8-5.6-9.7L92,21.41Z"/></g><g class="cls-8"><path class="cls-9" d="M23.57,71.9l-3-5.19,7.79-4.5.75,1.3,6.5-3.75-4.88-8.45L16.44,59.56l-2.25-3.89,7.39-11.2-10.39,6-2.25-3.9L31,33.82l1.87,3.25-8.32,12.6,11.7-6.75,9.37,16.23Z"/><path class="cls-9" d="M48.9,57.28l-3-5.2,7.79-4.5.75,1.3,6.5-3.75-4.88-8.44L41.77,44.94,39.52,41l7.39-11.19-10.39,6L34.27,32,56.36,19.2l1.87,3.25L49.91,35l11.7-6.75L71,44.53Z"/><path class="cls-9" d="M92.41,32.15l-2.62-4.54L71.6,38.11l-12-20.79,7.8-4.5,9.75,16.89,10.39-6L77.79,6.82l7.79-4.5,9.75,16.89,2.6-1.5,2.25,3.9-2.6,1.5,2.63,4.54Z"/></g></svg>