<svg id="Слой_1" data-name="Слой 1" xmlns="http://www.w3.org/2000/svg" xmlns:xlink="http://www.w3.org/1999/xlink" viewBox="0 0 102 73"><defs><style>.cls-1{fill:none;}.cls-2{clip-path:url(#clip-path);}.cls-11,.cls-3{isolation:isolate;}.cls-3{font-size:60px;font-family:High-Marker-Flat, High Marker Flat;}.cls-3,.cls-6{fill:#9f173a;}.cls-4{clip-path:url(#clip-path-2);}.cls-5{fill:#e21d49;}.cls-7{clip-path:url(#clip-path-5);}.cls-8{clip-path:url(#clip-path-6);}.cls-9{fill:#854e13;}.cls-10{clip-path:url(#clip-path-7);}.cls-12{fill:#fff;}</style><clipPath id="clip-path"><rect class="cls-1" x="120.92" y="-0.35" width="102" height="73.7"/></clipPath><clipPath id="clip-path-2"><rect class="cls-1" y="-0.35" width="102" height="73.7"/></clipPath><clipPath id="clip-path-5"><rect class="cls-1" x="-120.92" y="-0.35" width="102" height="73.7"/></clipPath><clipPath id="clip-path-6"><rect class="cls-1" x="5.39" y="105.18" width="102" height="73.7"/></clipPath><clipPath id="clip-path-7"><rect class="cls-1" x="125.76" y="105.18" width="102" height="73.7"/></clipPath></defs><g class="cls-2"><text class="cls-3" transform="matrix(0.5, 0.87, -0.87, 0.5, 84.26, -18.67)">0</text></g><g class="cls-4"><rect class="cls-5" y="-0.35" width="102" height="73.7"/></g><g class="cls-4"><path class="cls-6" d="M73.7,131.85,37.1,68.55l65-37.5,36.6,63.3Zm26.7-58.8L88.2,52l-26,15,19.7,34.1Zm13.1,22.8-5.6-9.7-13.9,21Z"/></g><g class="cls-4"><path class="cls-6" d="M-36.7-18.75l63.3-36.6,37.5,65L.8,46.25Zm36,39.9L9,15.55-12,1.65ZM22,8.05,43.1-4.15l-15-26L-6-10.45Z"/></g><g class="cls-7"><path class="cls-6" d="M-47.22,131.85l-36.6-63.3,65-37.5,36.6,63.3Zm26.7-58.8L-32.72,52l-26,15,19.7,34.1Zm13.1,22.8-5.6-9.7-13.9,21Z"/></g><g class="cls-8"><path class="cls-9" d="M-31.31,86.78,32,50.18l37.5,65-63.3,36.6Zm36,39.9,9.7-5.6-21-13.9Zm22.7-13.1,21.1-12.2-15-26L-.61,95.08Z"/></g><g class="cls-10"><path class="cls-9" d="M89.06,86.78l63.3-36.6,37.5,65-63.3,36.6Zm36,39.9,9.7-5.6-21-13.9Zm22.7-13.1,21.1-12.2-15-26-34.1,19.7Z"/></g><g class="cls-11"><path class="cls-12" d="M35.16,64.88l-2.63-4.54L14.35,70.84l-12-20.79,7.79-4.5,9.75,16.89,10.39-6L20.53,39.55l7.8-4.5,9.75,16.89,2.59-1.5,2.25,3.9-2.59,1.5L43,60.38Z"/><path class="cls-12" d="M48.8,57l-3-5.2,7.79-4.5.75,1.3,6.5-3.75L56,36.42,41.67,44.67l-2.25-3.9,7.39-11.19-10.39,6-2.25-3.9L56.26,18.93l1.87,3.25L49.81,34.77,61.51,28l9.37,16.24Z"/><path class="cls-12" d="M92.31,31.88l-2.62-4.54L71.5,37.84l-12-20.79,7.8-4.5,9.75,16.89,10.39-6L77.69,6.55l7.79-4.5,9.75,16.89,2.6-1.5,2.25,3.9-2.6,1.5,2.63,4.54Z"/></g></svg>