<svg id="Слой_1" data-name="Слой 1" xmlns="http://www.w3.org/2000/svg" xmlns:xlink="http://www.w3.org/1999/xlink" viewBox="0 0 102 73"><defs><style>.cls-1{fill:none;}.cls-2{clip-path:url(#clip-path);}.cls-3,.cls-8{isolation:isolate;}.cls-3{font-size:60px;font-family:High-Marker-Flat, High Marker Flat;}.cls-3,.cls-5{fill:#9f173a;}.cls-4{clip-path:url(#clip-path-2);}.cls-6{clip-path:url(#clip-path-3);}.cls-7{fill:#e21d49;}.cls-9{fill:#fff;}.cls-10{clip-path:url(#clip-path-6);}.cls-11{fill:#854e13;}.cls-12{clip-path:url(#clip-path-7);}</style><clipPath id="clip-path"><rect class="cls-1" x="-115.42" y="-0.35" width="102" height="73.7"/></clipPath><clipPath id="clip-path-2"><rect class="cls-1" x="113.77" y="-0.35" width="102" height="73.7"/></clipPath><clipPath id="clip-path-3"><rect class="cls-1" y="-0.4" width="102" height="73.7"/></clipPath><clipPath id="clip-path-6"><rect class="cls-1" x="100.45" y="105.13" width="102" height="73.7"/></clipPath><clipPath id="clip-path-7"><rect class="cls-1" x="-21.56" y="105.18" width="102" height="73.7"/></clipPath></defs><g class="cls-2"><text class="cls-3" transform="matrix(0.87, -0.5, 0.5, 0.87, -41.75, 131.83)">0</text></g><g class="cls-4"><path class="cls-5" d="M77.07-18.75l63.3-36.6,37.5,65-63.3,36.6Zm36,39.9,9.7-5.6-21-13.9Zm22.7-13.1,21.1-12.2-15-26-34.1,19.7Z"/></g><g class="cls-6"><rect class="cls-7" y="-0.4" width="102" height="73.7"/></g><g class="cls-6"><path class="cls-5" d="M73.7,131.8,37.1,68.5l65-37.5,36.6,63.3ZM100.4,73,88.2,51.9l-26,15L81.9,101Zm13.1,22.8-5.6-9.7L94,107.1Z"/></g><g class="cls-6"><path class="cls-5" d="M-36.7-18.8,26.6-55.4l37.5,65L.8,46.2Zm36,39.9L9,15.5-12,1.6ZM22,8,43.1-4.2l-15-26L-6-10.5Z"/></g><g class="cls-8"><path class="cls-9" d="M35.16,64.83l-2.63-4.54L14.35,70.79,2.35,50l7.79-4.5,9.75,16.89,10.39-6L20.53,39.5l7.8-4.5,9.75,16.89,2.59-1.5,2.25,3.9-2.59,1.5L43,60.33Z"/><path class="cls-9" d="M48.8,57,39.05,40.07l15.59-9L52,26.52,39,34l-2.25-3.89,20.79-12,7.12,12.34-15.59,9,5.25,9.09,7.8-4.5-.75-1.3,7.79-4.5,3,5.2Z"/><path class="cls-9" d="M75.43,41.58,60.8,16.25l20.79-12,2.25,3.9-13,7.5,4.5,7.79,5.54-8.39,7.79-4.5L98.81,28.08ZM88.77,28.69l-4.88-8.45-5.54,8.4L81,33.19Z"/></g><g class="cls-10"><path class="cls-11" d="M63.75,86.73l63.3-36.6,37.5,65-63.3,36.6Zm36,39.9,9.7-5.6-21-13.9Zm22.7-13.2,21.1-12.2-15-26-34.1,19.7Z"/></g><g class="cls-12"><path class="cls-11" d="M-58.26,86.78,5,50.18l37.5,65-63.3,36.6Zm36,39.9,9.7-5.6-21-13.9Zm22.7-13.2,21.1-12.2-15-26L-27.56,95Z"/></g></svg>