<svg id="Слой_1" data-name="Слой 1" xmlns="http://www.w3.org/2000/svg" xmlns:xlink="http://www.w3.org/1999/xlink" viewBox="0 0 102 73"><defs><style>.cls-1{fill:none;}.cls-2{clip-path:url(#clip-path);}.cls-11,.cls-3{isolation:isolate;}.cls-3{font-size:60px;font-family:High-Marker-Flat, High Marker Flat;}.cls-3,.cls-5{fill:#9f173a;}.cls-4{clip-path:url(#clip-path-2);}.cls-6{clip-path:url(#clip-path-3);}.cls-7{fill:#e21d49;}.cls-8{clip-path:url(#clip-path-6);}.cls-9{fill:#854e13;}.cls-10{clip-path:url(#clip-path-7);}.cls-12{fill:#fff;}</style><clipPath id="clip-path"><rect class="cls-1" x="-119.82" y="-0.35" width="102" height="73.7"/></clipPath><clipPath id="clip-path-2"><rect class="cls-1" x="120.92" y="-0.35" width="102" height="73.7"/></clipPath><clipPath id="clip-path-3"><rect class="cls-1" y="-0.35" width="102" height="73.7"/></clipPath><clipPath id="clip-path-6"><rect class="cls-1" x="2.65" y="105.18" width="102" height="73.7"/></clipPath><clipPath id="clip-path-7"><rect class="cls-1" x="126.31" y="105.18" width="102" height="73.7"/></clipPath></defs><g class="cls-2"><text class="cls-3" transform="matrix(0.87, -0.5, 0.5, 0.87, -46.13, 131.83)">0</text></g><g class="cls-4"><path class="cls-5" d="M84.22-18.75l63.3-36.6,37.5,65-63.3,36.6Zm36,39.9,9.7-5.6-21-13.9Zm22.7-13.1L164-4.15l-15-26-34.1,19.7Z"/></g><g class="cls-6"><rect class="cls-7" y="-0.35" width="102" height="73.7"/></g><g class="cls-6"><path class="cls-5" d="M73.7,131.85,37.1,68.55l65-37.5,36.6,63.3Zm26.7-58.8L88.2,52l-26,15,19.7,34.1Zm13.1,22.8-5.6-9.7-13.9,21Z"/></g><g class="cls-6"><path class="cls-5" d="M-36.7-18.75l63.3-36.6,37.5,65L.8,46.25Zm36,39.9L9,15.55-12,1.65ZM22,8.05,43.1-4.15l-15-26L-6-10.45Z"/></g><g class="cls-8"><path class="cls-9" d="M-34.06,86.78l63.31-36.6,37.5,65L3.44,151.78Zm36,39.9,9.7-5.6-21-13.9Zm22.71-13.1,21.1-12.2-15-26-34.1,19.7Z"/></g><g class="cls-10"><path class="cls-9" d="M89.61,86.78l63.3-36.6,37.5,65-63.3,36.6Zm36,39.9,9.7-5.6-21-13.9Zm22.7-13.1,21.1-12.2-15-26-34.1,19.7Z"/></g><g class="cls-11"><path class="cls-12" d="M40.93,62.5,38.3,58,20.12,68.45l-12-20.78,7.79-4.5,9.75,16.89,10.39-6L26.3,37.17l7.8-4.5,9.75,16.89,2.6-1.5L48.7,52l-2.6,1.5L48.72,58Z"/><path class="cls-12" d="M54.57,54.62l-3-5.19,7.79-4.5.75,1.3,6.5-3.75L61.73,34,47.44,42.28l-2.25-3.89,7.4-11.2-10.4,6-2.25-3.9L62,16.54l1.87,3.25-8.31,12.6,11.69-6.75,9.37,16.23Z"/><path class="cls-12" d="M86.39,36.25,74,14.82l-6.5,3.75-2.25-3.9L79.56,6.42,94.19,31.75Z"/></g></svg>