<svg id="Слой_1" data-name="Слой 1" xmlns="http://www.w3.org/2000/svg" xmlns:xlink="http://www.w3.org/1999/xlink" viewBox="0 0 102 73"><defs><style>.cls-1{fill:none;}.cls-2{clip-path:url(#clip-path);}.cls-3{isolation:isolate;font-size:60px;font-family:High-Marker-Flat, High Marker Flat;}.cls-3,.cls-7{fill:#9f173a;}.cls-4{clip-path:url(#clip-path-2);}.cls-5{fill:#e21d49;}.cls-6{clip-path:url(#clip-path-5);}.cls-8{clip-path:url(#clip-path-6);}.cls-9{fill:#854e13;}.cls-10{clip-path:url(#clip-path-7);}.cls-11{fill:#fff;}</style><clipPath id="clip-path"><rect class="cls-1" x="113.77" y="-0.35" width="102" height="73.7"/></clipPath><clipPath id="clip-path-2"><rect class="cls-1" y="-0.35" width="102" height="73.7"/></clipPath><clipPath id="clip-path-5"><rect class="cls-1" x="-109.9" y="-0.35" width="102" height="73.7"/></clipPath><clipPath id="clip-path-6"><rect class="cls-1" x="-2.85" y="105.18" width="102" height="73.7"/></clipPath><clipPath id="clip-path-7"><rect class="cls-1" x="119.16" y="105.18" width="102" height="73.7"/></clipPath></defs><g class="cls-2"><text class="cls-3" transform="matrix(0.5, 0.87, -0.87, 0.5, 77.08, -18.67)">0</text></g><g class="cls-4"><rect class="cls-5" y="-0.35" width="102" height="73.7"/></g><g class="cls-4"><text class="cls-3" transform="matrix(0.87, -0.5, 0.5, 0.87, 73.69, 131.83)">0</text></g><g class="cls-4"><text class="cls-3" transform="matrix(0.5, 0.87, -0.87, 0.5, -36.67, -18.67)">0</text></g><g class="cls-6"><path class="cls-7" d="M-36.2,131.85l-36.6-63.3,65-37.5,36.6,63.3Zm26.7-58.8L-21.7,52l-26,15,19.7,34.1ZM3.6,95.85-2,86.15l-13.9,21Z"/></g><g class="cls-8"><path class="cls-9" d="M-39.55,86.78l63.3-36.6,37.5,65L-2,151.78Zm36,39.9,9.7-5.6-21-13.9Zm22.7-13.1,21.1-12.2-15-26-34.1,19.7Z"/></g><g class="cls-10"><path class="cls-9" d="M82.46,86.78l63.3-36.6,37.5,65L120,151.78Zm36,39.9,9.7-5.6-21-13.9Zm22.7-13.1,21.1-12.2-15-26-34.1,19.7Z"/></g><path class="cls-11" d="M36.3,63.75l-2.6-4.5L15.5,69.75,3.5,49l7.8-4.5,9.8,16.9,10.4-6-9.8-16.9L29.5,34l9.8,16.9,2.6-1.5,2.2,3.9-2.6,1.5,2.6,4.5Z"/><path class="cls-11" d="M49.9,55.85,40.1,39l15.6-9-2.6-4.5L40.1,33l-2.2-3.9,20.8-12,7.1,12.3-15.6,9,5.2,9.1L63.2,43l-.8-1.3,7.8-4.5,3,5.2Z"/><path class="cls-11" d="M76.6,40.55l-3-5.2,7.8-4.5.8,1.3,7.8-4.5-5.2-9.1-15.6,9-7.1-12.3,20.8-12,2.2,3.9-13,7.5,2.6,4.5,15.6-9,9.8,16.9Z"/></svg>