<svg id="Слой_1" data-name="Слой 1" xmlns="http://www.w3.org/2000/svg" xmlns:xlink="http://www.w3.org/1999/xlink" viewBox="0 0 102 73"><defs><style>.cls-1{fill:none;}.cls-2{clip-path:url(#clip-path);}.cls-11,.cls-3{isolation:isolate;}.cls-3{font-size:60px;font-family:High-Marker-Flat, High Marker Flat;}.cls-3,.cls-5{fill:#9f173a;}.cls-4{clip-path:url(#clip-path-2);}.cls-6{clip-path:url(#clip-path-3);}.cls-7{fill:#e21d49;}.cls-8{clip-path:url(#clip-path-6);}.cls-9{fill:#854e13;}.cls-10{clip-path:url(#clip-path-7);}.cls-12{fill:#fff;}</style><clipPath id="clip-path"><rect class="cls-1" x="-110.81" y="-0.35" width="102" height="73.7"/></clipPath><clipPath id="clip-path-2"><rect class="cls-1" x="120.92" y="-0.35" width="102" height="73.7"/></clipPath><clipPath id="clip-path-3"><rect class="cls-1" y="-0.35" width="102" height="73.7"/></clipPath><clipPath id="clip-path-6"><rect class="cls-1" x="9.46" y="105.18" width="102" height="73.7"/></clipPath><clipPath id="clip-path-7"><rect class="cls-1" x="124.88" y="105.18" width="102" height="73.7"/></clipPath></defs><g class="cls-2"><text class="cls-3" transform="matrix(0.87, -0.5, 0.5, 0.87, -37.09, 131.83)">0</text></g><g class="cls-4"><path class="cls-5" d="M84.22-18.75l63.3-36.6,37.5,65-63.3,36.6Zm36,39.9,9.7-5.6-21-13.9Zm22.7-13.1L164-4.15l-15-26-34.1,19.7Z"/></g><g class="cls-6"><rect class="cls-7" y="-0.35" width="102" height="73.7"/></g><g class="cls-6"><path class="cls-5" d="M73.7,131.85,37.1,68.55l65-37.5,36.6,63.3Zm26.7-58.8L88.2,52l-26,15,19.7,34.1Zm13.1,22.8-5.6-9.7-13.9,21Z"/></g><g class="cls-6"><path class="cls-5" d="M-36.7-18.75l63.3-36.6,37.5,65L.8,46.25Zm36,39.9L9,15.55-12,1.65ZM22,8.05,43.1-4.15l-15-26L-6-10.45Z"/></g><g class="cls-8"><path class="cls-9" d="M-27.24,86.78l63.3-36.6,37.5,65-63.3,36.6Zm36,39.9,9.7-5.6-21-13.9Zm22.7-13.1,21.1-12.2-15-26L3.46,95.08Z"/></g><g class="cls-10"><path class="cls-9" d="M88.18,86.78l63.3-36.6,37.5,65-63.3,36.6Zm36,39.9,9.7-5.6-21-13.9Zm22.7-13.1,21.1-12.2-15-26-34.1,19.7Z"/></g><g class="cls-11"><path class="cls-12" d="M34.16,65.78l-2.63-4.54L13.35,71.74,1.35,51l7.79-4.5,9.75,16.89,10.39-6L19.53,40.45l7.8-4.5,9.75,16.89,2.59-1.5,2.25,3.9-2.59,1.5L42,61.28Z"/><path class="cls-12" d="M47.8,57.91l-3-5.2,7.79-4.5.75,1.3,7.8-4.5-5.25-9.09-15.59,9L33.17,32.58,54,20.58l2.25,3.9-13,7.5,2.62,4.54,15.59-9,9.75,16.89Z"/><path class="cls-12" d="M74.43,42.53,59.8,17.2l26-15,14.63,25.33ZM85.11,19,80.24,10.6l-10.39,6,7.87,13.64Zm5.25,9.1-2.25-3.9-5.54,8.4Z"/></g></svg>