<svg id="Слой_1" data-name="Слой 1" xmlns="http://www.w3.org/2000/svg" xmlns:xlink="http://www.w3.org/1999/xlink" viewBox="0 0 102 73"><defs><style>.cls-1{fill:none;}.cls-2{clip-path:url(#clip-path);}.cls-3{fill:#e21d49;}.cls-4{isolation:isolate;font-size:60px;font-family:High-Marker-Flat, High Marker Flat;}.cls-4,.cls-6{fill:#9f173a;}.cls-5{clip-path:url(#clip-path-4);}.cls-7{clip-path:url(#clip-path-5);}.cls-8{fill:#854e13;}.cls-9{fill:#fff;}.cls-10{clip-path:url(#clip-path-6);}</style><clipPath id="clip-path"><rect class="cls-1" y="-0.35" width="102" height="73.7"/></clipPath><clipPath id="clip-path-4"><rect class="cls-1" x="115.42" y="-0.4" width="102" height="73.7"/></clipPath><clipPath id="clip-path-5"><rect class="cls-1" x="-22.66" y="105.18" width="102" height="73.7"/></clipPath><clipPath id="clip-path-6"><rect class="cls-1" x="93.86" y="105.18" width="102" height="73.7"/></clipPath></defs><g class="cls-2"><rect class="cls-3" y="-0.35" width="102" height="73.7"/></g><g class="cls-2"><text class="cls-4" transform="matrix(0.87, -0.5, 0.5, 0.87, 73.67, 131.83)">0</text></g><g class="cls-2"><text class="cls-4" transform="matrix(0.5, 0.87, -0.87, 0.5, -36.7, -18.67)">0</text></g><g class="cls-5"><path class="cls-6" d="M78.72-18.8,142-55.4l37.5,65-63.3,36.6Zm36,39.9,9.7-5.6-21-13.9ZM137.42,8l21.1-12.2-15-26-34.1,19.7Z"/></g><g class="cls-7"><path class="cls-8" d="M-59.36,86.78l63.3-36.6,37.5,65-63.3,36.6Zm36,39.9,9.7-5.6-21-13.9Zm22.7-13.1,21.1-12.2-15-26-34.1,19.7Z"/></g><path class="cls-9" d="M40.1,61.85l-2.6-4.5L19.3,67.85l-12-20.8,7.8-4.5,9.8,16.9,10.4-6-9.8-16.9,7.8-4.5L43.1,49l2.6-1.5,2.2,3.9-2.6,1.5,2.6,4.5Z"/><path class="cls-9" d="M53.8,54.05,44,37.15l15.6-9L57,23.65l-13,7.5-2.2-3.9,20.8-12,7.1,12.3-15.6,9,5.2,9.1,7.8-4.5-.8-1.3,7.8-4.5,3,5.2Z"/><path class="cls-9" d="M86.9,34.85,74.5,13.45,68,17.25l-2.2-3.9,14.3-8.2,14.6,25.3Z"/><g class="cls-10"><path class="cls-8" d="M57.16,86.78l63.3-36.6,37.5,65-63.3,36.6Zm36,39.9,9.7-5.6-21-13.9Zm22.7-13.2,21.1-12.2-15-26L87.86,95Z"/></g></svg>