<?xml version="1.0" encoding="utf-8"?>
<!-- Generator: Adobe Illustrator 26.0.1, SVG Export Plug-In . SVG Version: 6.00 Build 0)  -->
<svg version="1.1" id="Layer_1" xmlns="http://www.w3.org/2000/svg" xmlns:xlink="http://www.w3.org/1999/xlink" x="0px" y="0px"
	 viewBox="0 0 224.3 100" style="enable-background:new 0 0 224.3 100;" xml:space="preserve">
<style type="text/css">
	.st0{fill:#F25022;}
	.st1{fill:#7FBA00;}
	.st2{fill:#00A4EF;}
	.st3{fill:#FFB900;}
</style>
<g>
	<g>
		<path d="M110.2,5.7v86.7h11.2V5.7H110.2L110.2,5.7z M141.1,5.7v86.7h11.2V5.7H141.1L141.1,5.7z M167.2,88.3
			c4.6,3,13.7,5.6,22.3,5.6c20.4,0,30.4-11.6,30.4-25.1c0-12.7-7.4-20-22.3-25.5c-12.1-4.6-17.2-8.6-17.2-16.7c0-6.1,4.4-13,16.5-13
			c7.9,0,13.7,2.5,16.5,4.2l3-9c-3.9-2.1-10.2-4.2-19.2-4.2c-16.9,0-28,10-28,23.6c0,12.3,8.8,19.5,22.9,24.6
			c11.9,4.4,16.5,9,16.5,17.2c0,8.8-6.8,14.9-18.1,14.9c-7.6,0-15.1-2.5-20.2-5.6L167.2,88.3z"/>
	</g>
	<g>
		<path class="st0" d="M9.9,4.8h42v42h-42V4.8z"/>
		<path class="st1" d="M56.1,4.8h42v42h-42L56.1,4.8L56.1,4.8z"/>
		<path class="st2" d="M9.9,51.3h42v41.9h-42V51.3z"/>
		<path class="st3" d="M56.1,51.3h42v41.9h-42L56.1,51.3L56.1,51.3z"/>
	</g>
</g>
</svg>
