<svg id="Слой_1" data-name="Слой 1" xmlns="http://www.w3.org/2000/svg" xmlns:xlink="http://www.w3.org/1999/xlink" viewBox="0 0 102 73.7"><defs><style>.cls-1{fill:none;}.cls-2{clip-path:url(#clip-path);}.cls-3{fill:#57b25c;}.cls-4{fill:#fff;}.cls-5{clip-path:url(#clip-path-4);}.cls-6{clip-path:url(#clip-path-5);}</style><clipPath id="clip-path"><rect class="cls-1" width="102" height="73.7"/></clipPath><clipPath id="clip-path-4"><rect class="cls-1" x="-127.79" width="102" height="73.7"/></clipPath><clipPath id="clip-path-5"><rect class="cls-1" x="126.14" width="102" height="73.7"/></clipPath></defs><g class="cls-2"><rect class="cls-3" width="102" height="73.7"/></g><g class="cls-2"><path class="cls-4" d="M73.7,132.2,37.1,68.9l65-37.5,36.6,63.3Zm26.7-58.8L88.2,52.3l-26,15,19.7,34.1Zm13.1,22.8-5.6-9.7L94,107.5Z"/></g><g class="cls-2"><path class="cls-4" d="M-36.7-18.4,26.6-55,64.1,10,.8,46.6Zm36,39.9L9,15.9-12,2ZM22,8.4,43.1-3.8l-15-26L-6-10.1Z"/></g><g class="cls-5"><path class="cls-4" d="M-54.09,132.2l-36.6-63.3,65-37.5,36.6,63.3Zm26.7-58.8-12.2-21.1-26,15,19.7,34.1Zm13.1,22.8-5.6-9.7-13.9,21Z"/></g><g class="cls-6"><path class="cls-4" d="M89.44-18.4,152.74-55l37.5,65-63.3,36.6Zm36,39.9,9.7-5.6L114.14,2Zm22.7-13.1,21.1-12.2-15-26-34.1,19.7Z"/></g><path class="cls-4" d="M35.25,65.14,32.63,60.6,14.44,71.1l-12-20.79,7.79-4.5L20,62.7l10.4-6L20.63,39.81l7.79-4.5L38.17,52.2l2.6-1.5L43,54.6l-2.6,1.5,2.63,4.54Z"/><path class="cls-4" d="M48.89,57.27l-3-5.2,7.79-4.5.75,1.3,6.5-3.75-4.87-8.44L41.77,44.93,39.52,41l7.39-11.2-10.39,6-2.25-3.89L56.35,19.19l1.87,3.24L49.91,35,61.6,28.28,71,44.52Z"/><path class="cls-4" d="M74.22,42.64,59.6,17.31l26-15L100.2,27.64ZM84.91,19.15,80,10.71l-10.39,6,7.88,13.64Zm5.25,9.1-2.25-3.9-5.55,8.4Z"/></svg>