<svg id="Слой_1" data-name="Слой 1" xmlns="http://www.w3.org/2000/svg" xmlns:xlink="http://www.w3.org/1999/xlink" viewBox="0 0 102 73"><defs><style>.cls-1{fill:none;}.cls-2{clip-path:url(#clip-path);}.cls-3{fill:#066047;}.cls-4{clip-path:url(#clip-path-2);}.cls-5{clip-path:url(#clip-path-3);}.cls-6{fill:#7f2986;}.cls-7{clip-path:url(#clip-path-4);}.cls-8{fill:#8d4795;}.cls-9{fill:#fff;}.cls-10{clip-path:url(#clip-path-8);}</style><clipPath id="clip-path"><rect class="cls-1" y="105.18" width="102" height="73.7"/></clipPath><clipPath id="clip-path-2"><rect class="cls-1" x="122.02" y="105.18" width="102" height="73.7"/></clipPath><clipPath id="clip-path-3"><rect class="cls-1" x="-116.52" y="-0.35" width="102" height="73.7"/></clipPath><clipPath id="clip-path-4"><rect class="cls-1" y="-0.35" width="102" height="73.7"/></clipPath><clipPath id="clip-path-8"><rect class="cls-1" x="108.09" y="-0.35" width="102" height="73.7"/></clipPath></defs><g class="cls-2"><path class="cls-3" d="M-36.7,86.88l63.3-36.6,37.5,65L.8,151.88Zm36,39.8,9.7-5.6-21-13.9ZM22,113.58l21.1-12.2-15-26L-6,95.08Z"/></g><g class="cls-4"><path class="cls-3" d="M85.32,86.88l63.3-36.6,37.5,65-63.3,36.5Zm36,39.8,9.7-5.6-21-13.9Zm22.7-13.1,21.1-12.2-15-26L116,95.08Z"/></g><g class="cls-5"><path class="cls-6" d="M-42.82,131.85l-36.6-63.3,65-37.5,36.6,63.3Zm26.7-58.8L-28.32,52l-26,15,19.7,34.1ZM-3,95.85l-5.6-9.7-13.9,21Z"/></g><g class="cls-7"><rect class="cls-8" y="-0.35" width="102" height="73.7"/></g><g class="cls-7"><path class="cls-9" d="M34.8,65.25,22.4,43.85l-6.5,3.8-2.2-3.9L28,35.55l14.6,25.3Z"/><path class="cls-9" d="M45.9,59,31.3,33.65l26-15L71.8,44Zm10.6-23.5-4.9-8.4-10.4,6,7.9,13.6Zm5.3,9.1-2.2-3.9-5.5,8.4Z"/><path class="cls-9" d="M81.6,38.25,69.2,16.85l-6.5,3.8-2.2-3.9,14.3-8.2,14.6,25.3Z"/></g><g class="cls-7"><path class="cls-6" d="M73.6,131.85,37.1,68.45l65-37.5,36.6,63.3Zm26.7-58.8L88.2,52l-26,15,19.7,34.1Zm13.2,22.8-5.6-9.7-13.9,21Z"/></g><g class="cls-7"><path class="cls-6" d="M-36.7-18.75l63.3-36.6,37.5,65L.8,46.25Zm36,39.9L9,15.55-12,1.65ZM22,8.05,43.1-4.15l-15-26L-6-10.45Z"/></g><g class="cls-10"><path class="cls-6" d="M71.39-18.75l63.3-36.6,37.5,65-63.3,36.6Zm36,39.9,9.7-5.6-21-13.9Zm22.7-13.1,21.1-12.2-15-26-34.1,19.7Z"/></g></svg>