<svg id="Слой_1" data-name="Слой 1" xmlns="http://www.w3.org/2000/svg" xmlns:xlink="http://www.w3.org/1999/xlink" viewBox="0 0 102 73"><defs><style>.cls-1{fill:none;}.cls-2{clip-path:url(#clip-path);}.cls-3{fill:#066047;}.cls-4{clip-path:url(#clip-path-2);}.cls-5{fill:#8d4795;}.cls-6{clip-path:url(#clip-path-3);}.cls-7{fill:#fff;}.cls-8{fill:#7f2986;}.cls-9{clip-path:url(#clip-path-7);}.cls-10{fill:#854e13;}.cls-11{clip-path:url(#clip-path-8);}</style><clipPath id="clip-path"><rect class="cls-1" y="105.18" width="102" height="73.7"/></clipPath><clipPath id="clip-path-2"><rect class="cls-1" x="116.52" y="105.18" width="102" height="73.7"/></clipPath><clipPath id="clip-path-3"><rect class="cls-1" y="-0.35" width="102" height="73.7"/></clipPath><clipPath id="clip-path-7"><rect class="cls-1" x="-114.79" y="-127.61" width="102" height="73.7"/></clipPath><clipPath id="clip-path-8"><rect class="cls-1" x="116.52" y="-0.35" width="102" height="73.7"/></clipPath></defs><g class="cls-2"><path class="cls-3" d="M-36.7,86.88l63.3-36.6,37.5,65L.8,151.88Zm36,39.8,9.7-5.6-21-13.9ZM22,113.58l21.1-12.2-15-26L-6,95.08Z"/></g><g class="cls-4"><path class="cls-3" d="M79.82,86.88l63.3-36.6,37.5,65-63.3,36.6Zm36,39.8,9.7-5.6-21-13.9Zm22.7-13.1,21.1-12.2-15-26-34.1,19.7Z"/></g><rect id="SVGID" class="cls-5" y="-0.35" width="102" height="73.7"/><g class="cls-6"><rect class="cls-5" y="-0.35" width="102" height="73.7"/></g><g class="cls-6"><path class="cls-7" d="M28.5,68.45,16.1,47l-6.5,3.8-2.2-3.9,14.3-8.2L36.3,64Z"/><path class="cls-7" d="M39.5,62.05,24.9,36.75l26-15,14.6,25.3Zm10.7-23.5-4.9-8.4-10.4,6,7.9,13.6Zm5.2,9.1-2.2-3.9-5.5,8.4Z"/><path class="cls-7" d="M68.7,45.15,54.1,19.85l26-15,14.6,25.3Zm10.7-23.5-4.9-8.4-10.4,6L72,32.85Zm5.3,9.1-2.2-3.9L77,35.25Z"/></g><g class="cls-6"><path class="cls-8" d="M73.7,131.85,37.1,68.55l65-37.5,36.6,63.3Zm26.7-58.8L88.2,52l-26,15,19.7,34.1Zm13.1,22.8-5.6-9.7-13.9,21Z"/></g><g class="cls-6"><path class="cls-8" d="M-36.7-18.75l63.3-36.6,37.5,65L.8,46.25Zm36,39.9L9,15.55-12,1.65ZM22,8.05,43.1-4.15l-15-26L-6-10.45Z"/></g><g class="cls-9"><path class="cls-10" d="M-41.09,4.59l-36.6-63.3,65-37.5,36.6,63.3Zm26.7-58.8-12.2-21.1-26,15,19.7,34.1Zm13.1,22.8-5.6-9.7-13.9,21Z"/></g><g class="cls-11"><path class="cls-8" d="M79.82-18.75l63.3-36.6,37.5,65-63.3,36.6Zm36,39.9,9.7-5.6-21-13.9Zm22.7-13.1,21.1-12.2-15-26-34.1,19.7Z"/></g></svg>