<svg id="Слой_1" data-name="Слой 1" xmlns="http://www.w3.org/2000/svg" xmlns:xlink="http://www.w3.org/1999/xlink" viewBox="0 0 102 73"><defs><style>.cls-1{fill:none;}.cls-2{clip-path:url(#clip-path);}.cls-3{fill:#066047;}.cls-4{clip-path:url(#clip-path-2);}.cls-5{fill:#7f2986;}.cls-6{clip-path:url(#clip-path-3);}.cls-7{fill:#8d4795;}.cls-8{fill:#fff;}.cls-9{clip-path:url(#clip-path-7);}</style><clipPath id="clip-path"><rect class="cls-1" x="13.92" y="105.18" width="102" height="73.7"/></clipPath><clipPath id="clip-path-2"><rect class="cls-1" x="-108.09" y="-0.35" width="102" height="73.7"/></clipPath><clipPath id="clip-path-3"><rect class="cls-1" y="-0.35" width="102" height="73.7"/></clipPath><clipPath id="clip-path-7"><rect class="cls-1" x="134.29" y="105.18" width="102" height="73.7"/></clipPath></defs><g class="cls-2"><path class="cls-3" d="M-22.78,86.88l63.3-36.6,37.5,65-63.3,36.5Zm36,39.8,9.7-5.6-21-13.9Zm22.7-13.1L57,101.38l-15-26L7.92,95.08Z"/></g><g class="cls-4"><path class="cls-5" d="M-34.49,131.85-71,68.45-6,31l36.6,63.3Zm26.7-58.8L-19.89,52l-26,15,19.7,34.1Zm13.2,22.8-5.6-9.7-13.9,21Z"/></g><g class="cls-6"><rect class="cls-7" y="-0.35" width="102" height="73.7"/></g><g class="cls-6"><path class="cls-8" d="M29.7,67.55,17.3,46.15,10.8,50l-2.2-3.9,14.3-8.2,14.6,25.3Z"/><path class="cls-8" d="M40.8,61.15,26.2,35.85l26-15,14.6,25.3Zm10.7-23.5-4.9-8.4-10.4,6,7.9,13.6Zm5.2,9.1-2.2-3.9L49,51.25Z"/><path class="cls-8" d="M70,44.35l-9.8-16.9,15.6-9L73.2,14l-13,7.5L58,17.55l20.8-12,7.1,12.3-15.6,9L75.5,36l7.8-4.5-.8-1.3,7.8-4.5,3,5.2Z"/></g><g class="cls-6"><path class="cls-5" d="M73.6,131.85,37,68.55l65-37.5,36.6,63.3Zm26.8-58.8L88.2,52l-26,15,19.7,34.1Zm13.1,22.8-5.6-9.7-13.9,21Z"/></g><g class="cls-6"><path class="cls-5" d="M-36.7-18.75l63.3-36.6,37.5,65L.8,46.25Zm36,39.9L9,15.55-12,1.65ZM22,8.05,43.1-4.15l-15-26L-6-10.45Z"/></g><g class="cls-9"><path class="cls-3" d="M97.59,86.88l63.3-36.6,37.5,65-63.3,36.6Zm36,39.8,9.7-5.6-21-13.9Zm22.7-13.1,21.1-12.2-15-26-34.1,19.7Z"/></g></svg>