<?xml version="1.0" encoding="utf-8"?>
<!-- Generator: Adobe Illustrator 26.0.1, SVG Export Plug-In . SVG Version: 6.00 Build 0)  -->
<svg version="1.1" id="Слой_1" xmlns="http://www.w3.org/2000/svg" xmlns:xlink="http://www.w3.org/1999/xlink" x="0px" y="0px"
	 viewBox="0 0 163.4 40" style="enable-background:new 0 0 163.4 40;" xml:space="preserve">
<style type="text/css">
	.st0{fill:url(#path3178_00000089575024991481718410000008368794750189168291_);}
	.st1{fill:none;}
	.st2{fill:#BD222F;}
	.st3{opacity:0.35;fill:#BD222F;enable-background:new    ;}
	.st4{fill:url(#path3205_00000162320714007640094430000015896632171388174006_);}
	.st5{fill:url(#path3216_00000060021304422481371390000017189955779452698283_);}
	.st6{fill:url(#path3227_00000137114857786878264070000013855252991097981323_);}
	.st7{fill:url(#path3238_00000123438637649207522310000001938346187555447195_);}
	.st8{fill:url(#path3249_00000026872029741107095580000007672178545645867193_);}
	.st9{fill:url(#path3260_00000111184795790165493120000000328552137451244443_);}
	.st10{fill:url(#path3275_00000024684867205022718720000001604020211480415902_);}
	.st11{fill:url(#path3290_00000036932758560148506000000007616576392790770310_);}
	.st12{fill:url(#path3305_00000016068888928380079020000005368894408343126962_);}
	.st13{fill:#CC2834;}
	.st14{fill:#6C6C70;fill-opacity:0.8314;}
</style>
<g id="layer1" transform="translate(-84.941252,-512.09059)">
	<g id="g3169" transform="matrix(0.2470791,0,0,0.2470791,84.768297,512.1097)">
		
			<linearGradient id="path3178_00000165224466750767587960000016458330235150513326_" gradientUnits="userSpaceOnUse" x1="-34611.6289" y1="-4188.2051" x2="-34587.9609" y2="-4160.5288" gradientTransform="matrix(8.588470e-02 -0.1842 0.1842 8.588470e-02 3808.4219 -5987.4795)">
			<stop  offset="0" style="stop-color:#F49726"/>
			<stop  offset="0.3123" style="stop-color:#F49825"/>
			<stop  offset="0.8383" style="stop-color:#E97827"/>
		</linearGradient>
		<path id="path3178" style="fill:url(#path3178_00000165224466750767587960000016458330235150513326_);" d="M71.1,16.6
			c-2.2,1.3-5.8,4.9-10,10.1l3.9,7.4c2.8-3.9,5.6-7.5,8.4-10.6c0.2-0.2,0.3-0.4,0.3-0.4c-0.1,0.1-0.2,0.2-0.3,0.4
			c-0.9,1-3.7,4.3-7.9,10.7c4-0.2,10.2-1,15.3-1.9c1.5-8.4-1.5-12.3-1.5-12.3S75.6,14,71.1,16.6z"/>
		<path id="path3180" class="st1" d="M64.5,59C64.5,59,64.5,59,64.5,59l-0.5,0c0,0-0.1,0-0.1,0C64.1,59.1,64.3,59.1,64.5,59L64.5,59
			z"/>
		<path id="path3182" class="st1" d="M60.4,72.4c-0.3,0.1-0.6,0.1-1,0.2C59.8,72.5,60.1,72.4,60.4,72.4z"/>
		<path id="path3184" class="st1" d="M33.1,102.2c0-0.1,0.1-0.2,0.1-0.3c0.9-2.3,1.7-4.5,2.6-6.7c0.9-2.4,1.9-4.8,2.8-7.1
			c1-2.4,2-4.7,2.9-7c1-2.4,2-4.6,3-6.8c0.8-1.8,1.6-3.5,2.3-5.2c0.3-0.6,0.5-1.1,0.8-1.7c0.5-1.1,1-2.1,1.5-3.2
			c0.5-0.9,0.9-1.9,1.4-2.8c0.2-0.3,0.3-0.6,0.4-0.9c0,0,0-0.1,0.1-0.2l-0.5,0l-0.4-0.8c0,0.1-0.1,0.2-0.1,0.2
			c-0.7,1.4-1.4,2.8-2.1,4.2c-0.4,0.8-0.8,1.6-1.2,2.4c-1.1,2.3-2.1,4.5-3.2,6.8c-1.1,2.3-2.1,4.6-3.1,7c-1,2.3-2,4.6-2.9,6.9
			c-0.9,2.3-1.9,4.6-2.8,6.8c-0.9,2.4-1.9,4.7-2.8,7c-0.2,0.5-0.4,1-0.6,1.6c-0.7,1.9-1.4,3.7-2.1,5.5l0.6,1.2l0.5-0.1
			c0-0.1,0-0.1,0.1-0.2C31.4,106.8,32.3,104.5,33.1,102.2L33.1,102.2z"/>
		<path id="path3186" class="st1" d="M59.2,72.6"/>
		<path id="path3188" class="st2" d="M57.9,79.1c-0.5,0.1-1,0.2-1.5,0.3c0,0,0,0,0,0c0.3,0,0.5-0.1,0.8-0.1
			C57.4,79.2,57.7,79.1,57.9,79.1z"/>
		<path id="path3190" class="st3" d="M57.9,79.1c-0.5,0.1-1,0.2-1.5,0.3c0,0,0,0,0,0c0.3,0,0.5-0.1,0.8-0.1
			C57.4,79.2,57.7,79.1,57.9,79.1z"/>
		<path id="path3192" class="st2" d="M59.2,72.6C59.2,72.6,59.2,72.6,59.2,72.6C59.2,72.6,59.2,72.6,59.2,72.6c0.1,0,0.2,0,0.2,0
			c0.3,0,0.7-0.1,1-0.2C60.1,72.4,59.7,72.5,59.2,72.6z"/>
		<path id="path3194" class="st3" d="M59.2,72.6C59.2,72.6,59.2,72.6,59.2,72.6C59.2,72.6,59.2,72.6,59.2,72.6c0.1,0,0.2,0,0.2,0
			c0.3,0,0.7-0.1,1-0.2C60.1,72.4,59.7,72.5,59.2,72.6z"/>
		
			<linearGradient id="path3205_00000054252399323101139860000009014118948002466970_" gradientUnits="userSpaceOnUse" x1="-35320.6367" y1="-4200.4688" x2="-35151.7734" y2="-4200.4688" gradientTransform="matrix(8.588470e-02 -0.1842 0.1842 8.588470e-02 3808.4219 -5987.4795)">
			<stop  offset="0.3233" style="stop-color:#9D2264"/>
			<stop  offset="0.6302" style="stop-color:#C92338"/>
			<stop  offset="0.7514" style="stop-color:#CD2436"/>
			<stop  offset="1" style="stop-color:#E97827"/>
		</linearGradient>
		<path id="path3205" style="fill:url(#path3205_00000054252399323101139860000009014118948002466970_);" d="M53.4,53.4
			c1.2-2.2,2.4-4.4,3.6-6.5c1.3-2.2,2.6-4.4,3.9-6.4c0.1-0.1,0.2-0.2,0.2-0.4c1.3-2,2.6-4,3.9-5.9l-3.9-7.4
			c-0.3,0.4-0.6,0.7-0.9,1.1c-1.1,1.4-2.3,2.9-3.5,4.6c-1.4,1.8-2.8,3.8-4.2,5.8c-1.3,1.9-2.6,3.9-4,5.9c-1.1,1.7-2.3,3.5-3.4,5.4
			c0,0.1-0.1,0.1-0.1,0.2l5.1,10.1C51.2,57.6,52.3,55.5,53.4,53.4z"/>
		
			<linearGradient id="path3216_00000146480170262829428050000011077563983788471215_" gradientUnits="userSpaceOnUse" x1="-35238.1367" y1="-4131.9282" x2="-35137.5078" y2="-4131.9282" gradientTransform="matrix(8.588470e-02 -0.1842 0.1842 8.588470e-02 3808.4219 -5987.4795)">
			<stop  offset="0" style="stop-color:#282A60"/>
			<stop  offset="9.548389e-02" style="stop-color:#653189"/>
			<stop  offset="0.7882" style="stop-color:#9F2265"/>
			<stop  offset="0.9487" style="stop-color:#CD2233"/>
		</linearGradient>
		<path id="path3216" style="fill:url(#path3216_00000146480170262829428050000011077563983788471215_);" d="M30.1,110.5
			c-0.7,1.9-1.4,3.8-2,5.7c0,0,0,0.1,0,0.1c-0.1,0.3-0.2,0.6-0.3,0.8c-0.5,1.3-0.9,2.5-1.8,5.2c1.5,0.7,2.7,2.5,3.9,4.6
			c-0.1-2.1-1-4.1-2.7-5.7c7.4,0.3,13.9-1.5,17.2-7c0.3-0.5,0.6-1,0.8-1.5c-1.5,1.9-3.4,2.7-6.9,2.5c0,0,0,0,0,0c0,0,0,0,0,0
			c5.2-2.3,7.8-4.5,10.1-8.2c0.5-0.9,1.1-1.8,1.6-2.9c-4.5,4.6-9.8,6-15.3,5l-4.1,0.5C30.3,109.8,30.2,110.1,30.1,110.5z"/>
		
			<linearGradient id="path3227_00000027590775412788082190000008757119180572394384_" gradientUnits="userSpaceOnUse" x1="-35282.25" y1="-4206.8906" x2="-35113.3867" y2="-4206.8906" gradientTransform="matrix(8.588470e-02 -0.1842 0.1842 8.588470e-02 3808.4219 -5987.4795)">
			<stop  offset="0.3233" style="stop-color:#9D2264"/>
			<stop  offset="0.6302" style="stop-color:#C92338"/>
			<stop  offset="0.7514" style="stop-color:#CD2436"/>
			<stop  offset="1" style="stop-color:#E97827"/>
		</linearGradient>
		<path id="path3227" style="fill:url(#path3227_00000027590775412788082190000008757119180572394384_);" d="M32,101.2
			c0.9-2.3,1.8-4.7,2.8-7c0.9-2.3,1.8-4.5,2.8-6.8c1-2.3,1.9-4.6,2.9-6.9c1-2.3,2-4.7,3.1-7c1-2.3,2.1-4.6,3.2-6.8
			c0.4-0.8,0.8-1.6,1.2-2.4c0.7-1.4,1.4-2.8,2.1-4.2c0-0.1,0.1-0.2,0.1-0.2L45,49.7c-0.1,0.1-0.2,0.3-0.3,0.4c-1.2,2-2.4,3.9-3.5,6
			c-1.2,2.1-2.3,4.2-3.5,6.3c-0.9,1.8-1.9,3.6-2.8,5.4c-0.2,0.4-0.4,0.7-0.5,1.1c-1.1,2.3-2.1,4.5-3,6.7c-1,2.4-1.9,4.7-2.7,6.9
			c-0.5,1.4-1,2.8-1.4,4.2c-0.4,1.1-0.7,2.3-1,3.4c-0.8,2.7-1.4,5.4-2,8l5.2,10.2c0.7-1.8,1.4-3.7,2.1-5.5
			C31.6,102.2,31.8,101.7,32,101.2z"/>
		
			<linearGradient id="path3238_00000130638093362119685710000003009849272828016547_" gradientUnits="userSpaceOnUse" x1="-35232.4062" y1="-4197.5977" x2="-35143.6641" y2="-4197.5977" gradientTransform="matrix(8.588470e-02 -0.1842 0.1842 8.588470e-02 3808.4219 -5987.4795)">
			<stop  offset="0" style="stop-color:#282A60"/>
			<stop  offset="9.548389e-02" style="stop-color:#653189"/>
			<stop  offset="0.7882" style="stop-color:#9F2265"/>
			<stop  offset="0.9487" style="stop-color:#CD2233"/>
		</linearGradient>
		<path id="path3238" style="fill:url(#path3238_00000130638093362119685710000003009849272828016547_);" d="M24.1,98.5
			c-0.6,3.3-1.1,6.5-1.3,9.7c0,0.1,0,0.2,0,0.3c-1.6-2.6-5.9-5.1-5.9-5.1c3.1,4.5,5.4,8.9,5.8,13.3c-1.7,0.3-3.9-0.2-6.5-1.1
			c2.7,2.5,4.8,3.2,5.6,3.4c-2.5,0.2-5.1,1.9-7.7,3.9c3.8-1.6,6.9-2.2,9.2-1.7c-3.5,10-7.1,21-10.6,32.7c1.1-0.3,1.7-1.1,2.1-2
			c0.6-2.1,4.8-16,11.3-34.2c0.2-0.5,0.4-1,0.6-1.6c0-0.2,0.1-0.3,0.2-0.4c0.7-1.9,1.4-3.9,2.1-5.9c0.2-0.5,0.3-0.9,0.5-1.4
			c0,0,0,0,0,0l-5.2-10.2C24.1,98.2,24.1,98.3,24.1,98.5z"/>
		
			<linearGradient id="path3249_00000176733991332281040060000005093103681530610877_" gradientUnits="userSpaceOnUse" x1="-35282.25" y1="-4136.1436" x2="-35113.3867" y2="-4136.1436" gradientTransform="matrix(8.588470e-02 -0.1842 0.1842 8.588470e-02 3808.4219 -5987.4795)">
			<stop  offset="0.3233" style="stop-color:#9D2264"/>
			<stop  offset="0.6302" style="stop-color:#C92338"/>
			<stop  offset="0.7514" style="stop-color:#CD2436"/>
			<stop  offset="1" style="stop-color:#E97827"/>
		</linearGradient>
		<path id="path3249" style="fill:url(#path3249_00000176733991332281040060000005093103681530610877_);" d="M50.9,60.7
			c-0.2,0.3-0.3,0.6-0.4,0.9c-0.4,0.9-0.9,1.9-1.4,2.8c-0.5,1-1,2.1-1.5,3.2c-0.3,0.5-0.5,1.1-0.8,1.7c-0.8,1.7-1.5,3.4-2.3,5.2
			c-1,2.2-2,4.5-3,6.8c-0.9,2.2-1.9,4.6-2.9,7c-0.9,2.3-1.9,4.6-2.8,7.1c-0.9,2.2-1.7,4.4-2.6,6.7c0,0.1-0.1,0.2-0.1,0.3
			c-0.9,2.3-1.7,4.6-2.6,7c0,0.1,0,0.1-0.1,0.2l4.1-0.5c-0.1,0-0.2,0-0.2,0c5-0.6,11.5-4.3,15.8-8.9c2-2.1,3.7-4.6,5.4-7.5
			c1.2-2.2,2.4-4.6,3.5-7.2c1-2.3,1.9-4.8,2.8-7.6c-1.1,0.6-2.4,1-3.9,1.3c-0.3,0.1-0.5,0.1-0.8,0.2c-0.3,0-0.5,0.1-0.8,0.1l0,0l0,0
			c0,0,0,0,0,0c4.6-1.8,7.5-5.2,9.7-9.4c-1.2,0.8-3.2,1.9-5.6,2.4c-0.3,0.1-0.6,0.1-1,0.2c-0.1,0-0.2,0-0.2,0l0,0l0,0h0c0,0,0,0,0,0
			l0,0c1.6-0.7,3-1.4,4.1-2.3c0.3-0.2,0.5-0.4,0.7-0.6c0.4-0.3,0.7-0.6,1-1c0.2-0.2,0.4-0.4,0.6-0.7c0.5-0.6,0.9-1.1,1.3-1.8
			c0.1-0.2,0.2-0.4,0.4-0.6c0.2-0.3,0.3-0.6,0.4-0.9c0.6-1.3,1.2-2.5,1.6-3.5c0.2-0.5,0.4-1,0.5-1.4c0.1-0.2,0.1-0.3,0.2-0.5
			c0.2-0.5,0.3-0.9,0.4-1.3c0.2-0.6,0.3-1,0.3-1.4l0,0l0,0c-0.2,0.1-0.3,0.2-0.5,0.4c-1.4,0.8-3.8,1.6-5.7,1.9l3.8-0.4L64.5,59
			c0,0-0.1,0-0.1,0c-0.2,0-0.4,0.1-0.6,0.1c0,0,0.1,0,0.1,0l-13,1.4C51,60.6,50.9,60.6,50.9,60.7L50.9,60.7z"/>
		
			<linearGradient id="path3260_00000139266948462491283410000016668154596235542423_" gradientUnits="userSpaceOnUse" x1="-35324.6484" y1="-4139.6616" x2="-35155.7812" y2="-4139.6616" gradientTransform="matrix(8.588470e-02 -0.1842 0.1842 8.588470e-02 3808.4219 -5987.4795)">
			<stop  offset="0.3233" style="stop-color:#9D2264"/>
			<stop  offset="0.6302" style="stop-color:#C92338"/>
			<stop  offset="0.7514" style="stop-color:#CD2436"/>
			<stop  offset="1" style="stop-color:#E97827"/>
		</linearGradient>
		<path id="path3260" style="fill:url(#path3260_00000139266948462491283410000016668154596235542423_);" d="M65.6,34.3
			c-1.2,1.8-2.4,3.8-3.8,6.1c-0.1,0.1-0.2,0.2-0.2,0.4c-1.2,2-2.4,4.1-3.7,6.5c-1.1,2.1-2.3,4.3-3.5,6.6c-1.1,2.1-2.2,4.3-3.3,6.6
			l13-1.4c3.8-1.7,5.5-3.3,7.1-5.6c0.4-0.6,0.9-1.3,1.3-2c1.3-2.1,2.6-4.4,3.8-6.7c1.1-2.2,2.1-4.4,2.9-6.4c0.5-1.3,0.9-2.4,1.1-3.4
			c0.2-0.9,0.4-1.8,0.6-2.6C75.8,33.3,69.6,34.1,65.6,34.3z"/>
		<path id="path3262" class="st2" d="M57.1,79.2c-0.3,0-0.5,0.1-0.8,0.1l0,0C56.6,79.3,56.9,79.3,57.1,79.2z"/>
		<path id="path3264" class="st3" d="M57.1,79.2c-0.3,0-0.5,0.1-0.8,0.1l0,0C56.6,79.3,56.9,79.3,57.1,79.2z"/>
		
			<linearGradient id="path3275_00000004545048765329465100000007868936768063106992_" gradientUnits="userSpaceOnUse" x1="-35282.25" y1="-4115.1367" x2="-35113.3867" y2="-4115.1367" gradientTransform="matrix(8.588470e-02 -0.1842 0.1842 8.588470e-02 3808.4219 -5987.4795)">
			<stop  offset="0.3233" style="stop-color:#9D2264"/>
			<stop  offset="0.6302" style="stop-color:#C92338"/>
			<stop  offset="0.7514" style="stop-color:#CD2436"/>
			<stop  offset="1" style="stop-color:#E97827"/>
		</linearGradient>
		<path id="path3275" style="fill:url(#path3275_00000004545048765329465100000007868936768063106992_);" d="M57.1,79.2
			c-0.3,0-0.5,0.1-0.8,0.1l0,0C56.6,79.3,56.9,79.3,57.1,79.2z"/>
		<path id="path3277" class="st2" d="M59.2,72.6c0.1,0,0.2,0,0.2,0C59.4,72.6,59.3,72.6,59.2,72.6z"/>
		<path id="path3279" class="st3" d="M59.2,72.6c0.1,0,0.2,0,0.2,0C59.4,72.6,59.3,72.6,59.2,72.6z"/>
		
			<linearGradient id="path3290_00000159436192211197687760000017728142440273993903_" gradientUnits="userSpaceOnUse" x1="-35282.2617" y1="-4117.4888" x2="-35113.3945" y2="-4117.4888" gradientTransform="matrix(8.588470e-02 -0.1842 0.1842 8.588470e-02 3808.4219 -5987.4795)">
			<stop  offset="0.3233" style="stop-color:#9D2264"/>
			<stop  offset="0.6302" style="stop-color:#C92338"/>
			<stop  offset="0.7514" style="stop-color:#CD2436"/>
			<stop  offset="1" style="stop-color:#E97827"/>
		</linearGradient>
		<path id="path3290" style="fill:url(#path3290_00000159436192211197687760000017728142440273993903_);" d="M59.2,72.6
			c0.1,0,0.2,0,0.2,0C59.4,72.6,59.3,72.6,59.2,72.6z"/>
		<path id="path3292" class="st2" d="M59.2,72.6C59.2,72.6,59.2,72.6,59.2,72.6L59.2,72.6L59.2,72.6L59.2,72.6
			C59.2,72.6,59.2,72.6,59.2,72.6z"/>
		<path id="path3294" class="st3" d="M59.2,72.6C59.2,72.6,59.2,72.6,59.2,72.6L59.2,72.6L59.2,72.6L59.2,72.6
			C59.2,72.6,59.2,72.6,59.2,72.6z"/>
		
			<linearGradient id="path3305_00000152244860756677388230000013518882463087007378_" gradientUnits="userSpaceOnUse" x1="-34898.3242" y1="-4117.9883" x2="-34860.9883" y2="-4117.9883" gradientTransform="matrix(8.588470e-02 -0.1842 0.1842 8.588470e-02 3808.4219 -5987.4795)">
			<stop  offset="0.3233" style="stop-color:#9D2264"/>
			<stop  offset="0.6302" style="stop-color:#C92338"/>
			<stop  offset="0.7514" style="stop-color:#CD2436"/>
			<stop  offset="1" style="stop-color:#E97827"/>
		</linearGradient>
		<path id="path3305" style="fill:url(#path3305_00000152244860756677388230000013518882463087007378_);" d="M59.2,72.6
			C59.2,72.6,59.2,72.6,59.2,72.6L59.2,72.6L59.2,72.6L59.2,72.6C59.2,72.6,59.2,72.6,59.2,72.6z"/>
	</g>
	<g id="text5526" transform="scale(0.95669208,1.0452684)">
		<path id="path6019" class="st13" d="M130.2,519.6l-2.6-6h-12.7l-2.6,6h-2.8l10.5-23.3h2.8l10.4,23.3H130.2z M115.9,511.2h10.5
			l-5.3-12L115.9,511.2z"/>
		<path id="path6021" class="st13" d="M145.5,496.2c2.9,0,5.1,0.7,6.7,2.1c1.6,1.4,2.4,3.3,2.4,5.8c0,2.6-0.8,4.5-2.4,6
			c-1.6,1.4-3.8,2.1-6.7,2.1h-6.1v7.4h-2.7v-23.3H145.5z M145.4,509.7c2.1,0,3.7-0.5,4.9-1.4c1.2-1,1.7-2.3,1.7-4.2
			c0-1.8-0.6-3.1-1.7-4c-1.2-0.9-2.8-1.4-4.9-1.4h-6v11L145.4,509.7z"/>
		<path id="path6023" class="st13" d="M175.2,519.6l-2.6-6h-12.7l-2.6,6h-2.8l10.5-23.3h2.8l10.4,23.3H175.2z M160.9,511.2h10.5
			l-5.3-12L160.9,511.2z"/>
		<path id="path6025" class="st13" d="M198.1,501.4c-0.9-0.9-2-1.6-3.2-2.1c-1.2-0.5-2.4-0.8-3.7-0.8c-1.7,0-3.3,0.4-4.8,1.3
			c-1.4,0.8-2.6,2-3.4,3.4c-0.8,1.4-1.3,3-1.3,4.7c0,1.7,0.4,3.3,1.3,4.7c0.8,1.4,2,2.6,3.4,3.4c1.5,0.8,3.1,1.3,4.8,1.3
			c1.3,0,2.5-0.2,3.7-0.7c1.2-0.5,2.3-1.2,3.2-2.1l1.6,1.8c-1.2,1.1-2.5,2-4,2.6c-1.5,0.6-3,0.9-4.6,0.9c-2.2,0-4.2-0.5-6.1-1.6
			c-1.8-1.1-3.3-2.5-4.4-4.3c-1.1-1.8-1.6-3.8-1.6-6c0-2.2,0.5-4.1,1.6-5.9c1.1-1.8,2.6-3.3,4.4-4.3c1.9-1.1,3.9-1.6,6.1-1.6
			c1.6,0,3.1,0.3,4.6,0.9c1.5,0.6,2.8,1.4,3.9,2.5L198.1,501.4z"/>
		<path id="path6027" class="st13" d="M204.5,496.2h2.7v10.6h14.1v-10.6h2.7v23.3h-2.7v-10.3h-14.1v10.3h-2.7V496.2z"/>
		<path id="path6029" class="st13" d="M231,496.2h15.8v2.5h-13.2v7.8h11.8v2.4h-11.8v8.1h13.6v2.5H231V496.2z"/>
	</g>
	<g id="text5951">
		<path id="path5972" class="st14" d="M244.1,518.2c0.5,0.5,0.7,1,0.7,1.7s-0.2,1.2-0.7,1.7c-0.5,0.5-1.1,0.7-1.7,0.7
			s-1.3-0.2-1.7-0.7c-0.5-0.5-0.7-1-0.7-1.7c0-0.7,0.2-1.2,0.7-1.7s1.1-0.7,1.7-0.7S243.6,517.7,244.1,518.2L244.1,518.2z
			 M243.9,521.4c0.4-0.4,0.6-0.9,0.6-1.5s-0.2-1.1-0.6-1.5c-0.4-0.4-0.9-0.6-1.5-0.6s-1.1,0.2-1.5,0.6c-0.4,0.4-0.6,0.9-0.6,1.5
			c0,0.6,0.2,1.1,0.6,1.5c0.4,0.4,0.9,0.6,1.5,0.6C243,522,243.5,521.8,243.9,521.4L243.9,521.4z M243.6,519.4
			c0,0.4-0.2,0.7-0.6,0.8l0.7,1h-0.6l-0.6-0.9h-0.6v0.9h-0.5v-2.6h1c0.4,0,0.7,0.1,0.9,0.2C243.5,518.9,243.6,519.1,243.6,519.4
			L243.6,519.4z M242.4,519.9c0.3,0,0.4,0,0.5-0.1c0.1-0.1,0.1-0.2,0.1-0.4c0-0.2,0-0.3-0.1-0.4c-0.1-0.1-0.3-0.1-0.5-0.1h-0.6v1
			H242.4z"/>
	</g>
</g>
</svg>
