<?xml version="1.0" encoding="utf-8"?>
<!-- Generator: Adobe Illustrator 26.0.1, SVG Export Plug-In . SVG Version: 6.00 Build 0)  -->
<svg version="1.1" id="Слой_1" xmlns="http://www.w3.org/2000/svg" xmlns:xlink="http://www.w3.org/1999/xlink" x="0px" y="0px"
	 viewBox="0 0 612 192" style="enable-background:new 0 0 612 192;" xml:space="preserve">
<style type="text/css">
	.st0{fill:#95BF47;}
	.st1{fill:#5E8E3E;}
	.st2{fill:#FFFFFF;}
</style>
<path class="st0" d="M131.5,39.8c-0.1-0.9-0.9-1.3-1.5-1.3s-13.7-1-13.7-1s-9.1-9.1-10.2-10c-1-1-2.9-0.7-3.7-0.5
	c-0.1,0-2,0.6-5.1,1.6c-3.1-8.9-8.4-17-17.9-17h-0.9c-2.6-3.4-6-5-8.8-5c-22,0-32.6,27.5-35.9,41.5c-8.6,2.7-14.7,4.5-15.4,4.8
	c-4.8,1.5-4.9,1.6-5.5,6.1c-0.5,3.4-13,100.1-13,100.1l97.3,18.2l52.8-11.4C150.1,165.7,131.6,40.7,131.5,39.8z M91.9,30
	c-2.4,0.7-5.3,1.6-8.2,2.6v-1.8c0-5.4-0.7-9.8-2-13.3C86.7,18.1,89.8,23.6,91.9,30L91.9,30z M75.6,18.6c1.3,3.4,2.2,8.2,2.2,14.8v1
	c-5.4,1.7-11.1,3.4-17,5.3C64.1,27.1,70.4,20.9,75.6,18.6L75.6,18.6z M69.2,12.4c1,0,2,0.4,2.8,1C64.9,16.7,57.4,25,54.3,41.8
	c-4.7,1.5-9.2,2.8-13.5,4.2C44.4,33.2,53.4,12.4,69.2,12.4z"/>
<path class="st1" d="M130,38.3c-0.6,0-13.7-1-13.7-1s-9.1-9.1-10.2-10c-0.4-0.4-0.9-0.6-1.3-0.6l-7.3,150.6l52.8-11.4
	c0,0-18.5-125.2-18.6-126.1C131.3,38.9,130.6,38.5,130,38.3z"/>
<path class="st2" d="M79.4,67.5L73,86.8c0,0-5.8-3.1-12.7-3.1c-10.3,0-10.8,6.5-10.8,8.1c0,8.8,23,12.2,23,32.9
	c0,16.3-10.3,26.8-24.2,26.8c-16.8,0-25.2-10.4-25.2-10.4l4.5-14.8c0,0,8.8,7.6,16.2,7.6c4.9,0,6.9-3.8,6.9-6.6
	c0-11.5-18.8-12-18.8-31C31.9,80.4,43.3,65,66.4,65C75,64.9,79.4,67.5,79.4,67.5z"/>
<path d="M211.6,103.8c-5.3-2.8-8-5.3-8-8.6c0-4.2,3.8-6.9,9.7-6.9c6.9,0,13,2.8,13,2.8l4.8-14.7c0,0-4.4-3.4-17.4-3.4
	C195.6,73,183,83.4,183,98c0,8.3,5.9,14.6,13.7,19.1c6.4,3.5,8.6,6.1,8.6,9.9c0,3.9-3.2,7.1-9.1,7.1c-8.7,0-17-4.5-17-4.5l-5.1,14.7
	c0,0,7.6,5.1,20.4,5.1c18.6,0,32.1-9.2,32.1-25.7C226.4,114.7,219.7,108.5,211.6,103.8z M285.8,72.8c-9.2,0-16.4,4.4-21.9,11
	l-0.2-0.1l8-41.6H251l-20.2,106h20.7l6.9-36.2c2.7-13.7,9.8-22.2,16.4-22.2c4.7,0,6.5,3.2,6.5,7.7c0,2.8-0.2,6.4-0.9,9.2l-7.8,41.5
	h20.7l8.1-42.8c0.9-4.5,1.5-9.9,1.5-13.6C302.8,79.8,296.7,72.8,285.8,72.8L285.8,72.8z M349.7,72.8c-25,0-41.5,22.5-41.5,47.6
	c0,16,9.9,29,28.5,29c24.5,0,41-21.9,41-47.6C377.8,86.9,369.2,72.8,349.7,72.8z M339.5,133.6c-7.1,0-10-6-10-13.6
	c0-11.9,6.1-31.2,17.4-31.2c7.3,0,9.8,6.4,9.8,12.5C356.7,114,350.4,133.6,339.5,133.6L339.5,133.6z M430.8,72.8
	c-14,0-21.9,12.4-21.9,12.4h-0.2l1.2-11.1h-18.4c-0.9,7.5-2.6,19-4.2,27.5L373,177.5h20.7l5.8-30.7h0.5c0,0,4.3,2.7,12.1,2.7
	c24.4,0,40.3-25,40.3-50.2C452.3,85.3,446,72.8,430.8,72.8z M411,133.8c-5.4,0-8.6-3.1-8.6-3.1l3.4-19.3c2.4-13,9.2-21.5,16.4-21.5
	c6.4,0,8.3,5.9,8.3,11.4C430.6,114.7,422.6,133.8,411,133.8L411,133.8z M481.9,43.1c-6.6,0-11.9,5.3-11.9,12
	c0,6.1,3.9,10.4,9.8,10.4h0.2c6.5,0,12-4.4,12.1-12C492.2,47.4,488.1,43.1,481.9,43.1z M452.9,148h20.7l14-73.6h-20.8 M540.4,74.3
	H526l0.7-3.4c1.2-7.1,5.4-13.3,12.4-13.3c3.7,0,6.6,1.1,6.6,1.1l4-16.3c0,0-3.5-1.8-11.3-1.8c-7.3,0-14.7,2.1-20.3,6.9
	c-7.1,6-10.4,14.7-12,23.5l-0.6,3.4h-9.7l-3.1,15.7h9.7l-11,58h20.7l11-58h14.3L540.4,74.3L540.4,74.3z M590.3,74.4
	c0,0-13,32.7-18.7,50.6h-0.2c-0.4-5.8-5.1-50.6-5.1-50.6h-21.8l12.5,67.4c0.2,1.5,0.1,2.4-0.5,3.4c-2.4,4.7-6.5,9.2-11.3,12.5
	c-3.9,2.8-8.3,4.7-11.8,5.9l5.8,17.6c4.2-0.9,13-4.4,20.3-11.3c9.4-8.8,18.2-22.5,27.2-41.1L612,74.3L590.3,74.4L590.3,74.4z"/>
</svg>
