<svg id="Слой_1" data-name="Слой 1" xmlns="http://www.w3.org/2000/svg" xmlns:xlink="http://www.w3.org/1999/xlink" viewBox="0 0 102 73"><defs><style>.cls-1{fill:none;}.cls-2{clip-path:url(#clip-path);}.cls-3{fill:#066047;}.cls-4{clip-path:url(#clip-path-2);}.cls-5{clip-path:url(#clip-path-3);}.cls-6{fill:#049669;}.cls-7{fill:#fff;}</style><clipPath id="clip-path"><rect class="cls-1" x="115.72" y="-0.35" width="102" height="73.7"/></clipPath><clipPath id="clip-path-2"><rect class="cls-1" x="-118.15" y="-0.35" width="102" height="73.7"/></clipPath><clipPath id="clip-path-3"><rect class="cls-1" y="-0.35" width="102" height="73.7"/></clipPath></defs><g class="cls-2"><path class="cls-3" d="M79-18.75l63.3-36.6,37.5,65-63.3,36.6Zm36,39.9,9.7-5.6-21-13.9Zm22.7-13.1,21.1-12.2-15-26-34.1,19.7Z"/></g><g class="cls-4"><path class="cls-3" d="M-44.45,131.85-81,68.55l65-37.5,36.6,63.3Zm26.7-58.8L-29.95,52l-26,15,19.7,34.1Zm13.1,22.8-5.6-9.7-13.9,21Z"/></g><g class="cls-5"><rect class="cls-6" y="-0.35" width="102" height="73.7"/></g><g class="cls-5"><path class="cls-3" d="M73.7,131.85,37.1,68.55l65-37.5,36.6,63.3Zm26.7-58.8L88.2,52l-26,15,19.7,34.1Zm13.1,22.8-5.6-9.7-13.9,21Z"/></g><g class="cls-5"><path class="cls-3" d="M-36.7-18.65l63.3-36.6,37.5,65L.8,46.35Zm36,39.8L9,15.55-12,1.65ZM22,8.05,43.1-4.15l-15-26L-6-10.45Z"/></g><path class="cls-7" d="M24.5,71.45l-9.8-16.9,15.6-9-2.6-4.5-13,7.5-2.2-3.9,20.8-12L40.4,45,24.8,54l5.2,9.1,7.8-4.5-.8-1.3,7.8-4.5,3,5.2Z"/><path class="cls-7" d="M51.1,56.05l-9.8-16.9,15.6-9-2.6-4.5-13,7.5-2.2-3.9,20.8-12L67,29.55l-15.6,9,5.2,9.1,7.8-4.5-.8-1.3,7.8-4.5,3,5.2Z"/><path class="cls-7" d="M77.8,40.65,63.2,15.35,84,3.35l2.2,3.9-13,7.5,4.5,7.8,5.5-8.4L91,9.65l10.1,17.5Zm13.3-12.9-4.9-8.4-5.5,8.4,2.6,4.5Z"/></svg>