<svg id="Слой_1" data-name="Слой 1" xmlns="http://www.w3.org/2000/svg" xmlns:xlink="http://www.w3.org/1999/xlink" viewBox="0 0 102 73"><defs><style>.cls-1{fill:none;}.cls-2{clip-path:url(#clip-path);}.cls-3{fill:#039769;}.cls-4{fill:#066047;}.cls-5{clip-path:url(#clip-path-4);}.cls-6{clip-path:url(#clip-path-5);}.cls-7{isolation:isolate;}.cls-8{fill:#fff;}</style><clipPath id="clip-path"><rect class="cls-1" y="-0.35" width="102" height="73.7"/></clipPath><clipPath id="clip-path-4"><rect class="cls-1" x="-116.52" y="-0.35" width="102" height="73.7"/></clipPath><clipPath id="clip-path-5"><rect class="cls-1" x="118.15" y="-0.35" width="102" height="73.7"/></clipPath></defs><g class="cls-2"><rect class="cls-3" y="-0.35" width="102" height="73.7"/></g><g class="cls-2"><path class="cls-4" d="M73.7,131.85,37.1,68.55l65-37.5,36.6,63.3Zm26.7-58.8L88.2,52l-26,15,19.7,34.1Zm13.1,22.8-5.6-9.7-13.9,21Z"/></g><g class="cls-2"><path class="cls-4" d="M-36.7-18.75l63.3-36.6,37.5,65L.8,46.25Zm36,39.9L9,15.55-12,1.65ZM22,8.05,43.1-4.15l-15-26L-6-10.45Z"/></g><g class="cls-5"><path class="cls-4" d="M-42.82,131.85l-36.6-63.3,65-37.5,36.6,63.3Zm26.7-58.8L-28.32,52l-26,15,19.7,34.1ZM-3,95.85l-5.6-9.7-13.9,21Z"/></g><g class="cls-6"><path class="cls-4" d="M81.45-18.65l63.3-36.6,37.5,65L119,46.35Zm36,39.8,9.7-5.6-21-13.9Zm22.7-13.1,21.1-12.2-15-26-34.1,19.7Z"/></g><g class="cls-7"><path class="cls-8" d="M22.1,73,12.35,56.11l15.59-9-2.63-4.54-13,7.5-2.25-3.9,20.79-12L38,46.51l-15.59,9,5.25,9.09,7.8-4.5-.75-1.3,7.79-4.5,3,5.2Z"/><path class="cls-8" d="M48.73,57.63,39,40.74l15.59-9-2.63-4.55-13,7.5-2.25-3.9,20.79-12,7.12,12.35L49,40.14l5.25,9.09,7.8-4.5-.75-1.3,7.79-4.5,3,5.2Z"/><path class="cls-8" d="M79.26,40l-3-5.2L86.42,19.41l-5.25-9.09L63,20.82l-2.25-3.9,26-15L95,16.21,84.8,31.6l2.25,3.9Z"/></g></svg>