<svg id="Слой_1" data-name="Слой 1" xmlns="http://www.w3.org/2000/svg" xmlns:xlink="http://www.w3.org/1999/xlink" viewBox="0 0 102 73"><defs><style>.cls-1{fill:none;}.cls-2{clip-path:url(#clip-path);}.cls-3{fill:#65a30d;}.cls-4{fill:#3f6212;}.cls-5{clip-path:url(#clip-path-4);}.cls-6{isolation:isolate;}.cls-7{fill:#fff;}.cls-8{clip-path:url(#clip-path-5);}.cls-9{fill:#854e13;}.cls-10{clip-path:url(#clip-path-6);}</style><clipPath id="clip-path"><rect class="cls-1" y="-0.35" width="102" height="73.7"/></clipPath><clipPath id="clip-path-4"><rect class="cls-1" x="-112.01" y="-0.35" width="102" height="73.7"/></clipPath><clipPath id="clip-path-5"><rect class="cls-1" x="-112.01" y="-98.18" width="102" height="73.7"/></clipPath><clipPath id="clip-path-6"><rect class="cls-1" x="4.51" y="-98.18" width="102" height="73.7"/></clipPath></defs><g class="cls-2"><rect class="cls-3" y="-0.35" width="102" height="73.7"/></g><g class="cls-2"><path class="cls-4" d="M73.7,131.85,37.1,68.55l65-37.5,36.6,63.3Zm26.7-58.8L88.2,52l-26,15,19.7,34.1Zm13.1,22.8-5.6-9.7-13.9,21Z"/></g><g class="cls-2"><path class="cls-4" d="M-36.7-18.75l63.3-36.6,37.5,65L.8,46.25Zm36,39.9L9,15.55-12,1.65ZM22,8.05,43.1-4.15l-15-26L-6-10.45Z"/></g><g class="cls-5"><path class="cls-4" d="M-38.31,131.85l-36.6-63.3,65-37.5,36.6,63.3Zm26.7-58.8L-23.81,52l-26,15,19.7,34.1Zm13.1,22.8-5.6-9.7-13.9,21Z"/></g><g class="cls-6"><path class="cls-7" d="M22.05,72.6,7.43,47.27l20.78-12,2.25,3.9-13,7.5L22,54.46l5.54-8.4,7.8-4.5L45.43,59.1ZM35.39,59.7l-4.88-8.44L25,59.66l2.62,4.54Z"/><path class="cls-7" d="M48.68,57.23l-3-5.2,7.79-4.5.75,1.3,6.5-3.75-4.88-8.45L41.56,44.88,39.31,41l7.39-11.2-10.39,6-2.25-3.9L56.14,19.14,58,22.39,49.7,35l11.69-6.75,9.37,16.24Z"/><path class="cls-7" d="M74,42.6l-3-5.2,7.79-4.5.75,1.3,6.5-3.75L81.17,22,66.89,30.26l-2.25-3.9L72,15.17l-10.39,6-2.25-3.9L81.47,4.52l1.87,3.25L75,20.36l11.69-6.75,9.37,16.24Z"/></g><g class="cls-8"><path class="cls-9" d="M-38.31,34l-36.6-63.3,65-37.5,36.6,63.3Zm26.7-58.8-12.2-21.1-26,15,19.7,34.1ZM1.49-2l-5.6-9.7L-18,9.32Z"/></g><g class="cls-10"><path class="cls-9" d="M78.11,34l-36.6-63.3,65-37.5,36.6,63.3Zm26.8-58.7-12.2-21.1-26,15,19.7,34.1ZM118-2l-5.6-9.7-13.9,21Z"/></g></svg>