<svg id="Слой_1" data-name="Слой 1" xmlns="http://www.w3.org/2000/svg" xmlns:xlink="http://www.w3.org/1999/xlink" viewBox="0 0 102 73"><defs><style>.cls-1{fill:none;}.cls-2{clip-path:url(#clip-path);}.cls-3{fill:#066047;}.cls-4{clip-path:url(#clip-path-2);}.cls-5{fill:#039769;}.cls-6{clip-path:url(#clip-path-5);}.cls-7{isolation:isolate;}.cls-8{fill:#fff;}</style><clipPath id="clip-path"><rect class="cls-1" x="118.18" y="-0.35" width="102" height="73.7"/></clipPath><clipPath id="clip-path-2"><rect class="cls-1" y="-0.35" width="102" height="73.7"/></clipPath><clipPath id="clip-path-5"><rect class="cls-1" x="-115.72" y="-0.35" width="102" height="73.7"/></clipPath></defs><g class="cls-2"><path class="cls-3" d="M81.48-18.75l63.3-36.6,37.5,65L119,46.25Zm36,39.9,9.7-5.6-21-13.9Zm22.7-13.1,21.1-12.2-15-26-34.1,19.7Z"/></g><g class="cls-4"><rect class="cls-5" y="-0.35" width="102" height="73.7"/></g><g class="cls-4"><path class="cls-3" d="M73.7,131.85,37.1,68.55l65-37.5,36.6,63.3Zm26.7-58.8L88.2,52l-26,15,19.7,34.1Zm13.1,22.8-5.6-9.7-13.9,21Z"/></g><g class="cls-4"><path class="cls-3" d="M-36.7-18.75l63.3-36.6,37.5,65L.8,46.25Zm36,39.9L9,15.55-12,1.65ZM22,8.05,43.1-4.15l-15-26L-6-10.45Z"/></g><g class="cls-6"><path class="cls-3" d="M-42,131.85l-36.6-63.3,65-37.5L23,94.35Zm26.7-58.8L-27.52,52l-26,15,19.7,34.1Zm13.1,22.8-5.6-9.7-13.9,21Z"/></g><g class="cls-7"><path class="cls-8" d="M21.09,73,11.34,56.11l15.59-9-2.62-4.54-13,7.5-2.25-3.9,20.78-12L37,46.51l-15.58,9,5.25,9.09,7.79-4.5-.75-1.3,7.79-4.5,3,5.2Z"/><path class="cls-8" d="M47.72,57.63,38,40.74l15.59-9-2.62-4.55-13,7.5-2.25-3.9,20.78-12L63.6,31.14,48,40.14l5.25,9.09,7.79-4.5-.75-1.3,7.79-4.5,3,5.2Z"/><path class="cls-8" d="M74.35,42.25,67.23,29.91l5.19-3-6.69.4-6-10.39L88.3.42l6,10.39-3.69,5.6,5.19-3,7.13,12.34ZM85.76,14l-3-5.19-13,7.5,3,5.19,8.37-.5Zm7.13,12.34-2.63-4.54-13,7.5,2.63,4.54Z"/></g></svg>