<svg id="Слой_1" data-name="Слой 1" xmlns="http://www.w3.org/2000/svg" xmlns:xlink="http://www.w3.org/1999/xlink" viewBox="0 0 102 73"><defs><style>.cls-1{fill:none;}.cls-2{clip-path:url(#clip-path);}.cls-3{fill:#854e13;}.cls-4{clip-path:url(#clip-path-2);}.cls-5{fill:#ca8b0c;}.cls-6{fill:#fff;}.cls-7{clip-path:url(#clip-path-6);}.cls-8{clip-path:url(#clip-path-7);}.cls-9{isolation:isolate;font-size:60px;fill:#9f173a;font-family:High-Marker-Flat, High Marker Flat;}.cls-10{clip-path:url(#clip-path-8);}</style><clipPath id="clip-path"><rect class="cls-1" x="112.69" y="-0.35" width="102" height="73.7"/></clipPath><clipPath id="clip-path-2"><rect class="cls-1" y="-0.35" width="102" height="73.7"/></clipPath><clipPath id="clip-path-6"><rect class="cls-1" x="-113.77" y="-0.35" width="102" height="73.7"/></clipPath><clipPath id="clip-path-7"><rect class="cls-1" y="-105.88" width="102" height="73.7"/></clipPath><clipPath id="clip-path-8"><rect class="cls-1" x="-113.77" y="-105.88" width="102" height="73.7"/></clipPath></defs><g class="cls-2"><path class="cls-3" d="M76-18.75l63.3-36.6,37.5,65-63.3,36.6Zm36,39.9,9.7-5.6-21-13.9ZM134.69,8l21.1-12.2-15-26-34.1,19.7Z"/></g><g class="cls-4"><rect class="cls-5" y="-0.35" width="102" height="73.7"/></g><g class="cls-4"><path class="cls-6" d="M22.5,71.45l-3-5.2,7.8-4.5.8,1.3,7.8-4.5-5.2-9.1-15.6,9L8,46.15l20.8-12,2.2,3.9-13,7.5,2.6,4.5,15.6-9L46,58Z"/><path class="cls-6" d="M49.2,56.05l-9.8-16.9,15.6-9-2.6-4.5-13,7.5-2.2-3.9,20.8-12,7.1,12.3-15.6,9,5.2,9.1,7.8-4.5-.8-1.3,7.8-4.5,3,5.2Z"/><path class="cls-6" d="M75.8,40.65l-3-5.2L80.6,31l.8,1.3,7.8-4.5L84,18.65l-15.6,9-7.1-12.3,20.8-12,2.2,3.9-13,7.5,2.6,4.5,15.6-9,9.8,16.9Z"/></g><g class="cls-4"><path class="cls-3" d="M73.6,131.85,37,68.55l65-37.5,36.6,63.3Zm26.7-58.7L88.1,52.05l-26,15,19.7,34.1Zm13.2,22.7-5.6-9.7-13.9,21Z"/></g><g class="cls-4"><path class="cls-3" d="M-36.7-18.75l63.3-36.6,37.5,65L.8,46.25Zm36,39.9L9,15.55-12,1.65ZM22,8,43.1-4.25l-15-26L-6-10.55Z"/></g><g class="cls-7"><path class="cls-3" d="M-40.07,131.75l-36.6-63.3,65-37.5,36.6,63.3Zm26.7-58.7L-25.57,52l-26,15,19.7,34.1Zm13.1,22.7-5.6-9.7-13.9,21Z"/></g><g class="cls-8"><text class="cls-9" transform="matrix(0.87, -0.5, 0.5, 0.87, 73.72, 26.3)">0</text></g><g class="cls-10"><text class="cls-9" transform="matrix(0.87, -0.5, 0.5, 0.87, -40.05, 26.3)">0</text></g></svg>