<svg id="Слой_1" data-name="Слой 1" xmlns="http://www.w3.org/2000/svg" xmlns:xlink="http://www.w3.org/1999/xlink" viewBox="0 0 102 73"><defs><style>.cls-1{fill:none;}.cls-2{clip-path:url(#clip-path);}.cls-3{isolation:isolate;font-size:60px;fill:#9f173a;font-family:High-Marker-Flat, High Marker Flat;}.cls-4{clip-path:url(#clip-path-2);}.cls-5{fill:#854e13;}.cls-6{clip-path:url(#clip-path-3);}.cls-7{fill:#ca8b0c;}.cls-8{fill:#fff;}</style><clipPath id="clip-path"><rect class="cls-1" y="-105.88" width="102" height="73.7"/></clipPath><clipPath id="clip-path-2"><rect class="cls-1" x="116.52" y="-0.35" width="102" height="73.7"/></clipPath><clipPath id="clip-path-3"><rect class="cls-1" y="-0.35" width="102" height="73.7"/></clipPath></defs><g class="cls-2"><text class="cls-3" transform="matrix(0.87, -0.5, 0.5, 0.87, 73.63, 26.37)">0</text></g><g class="cls-4"><path class="cls-5" d="M79.82-18.75l63.3-36.6,37.5,65-63.3,36.6Zm36,39.9,9.7-5.6-21-13.9ZM138.52,8l21.1-12.2-15-26-34.1,19.7Z"/></g><g class="cls-6"><rect class="cls-7" y="-0.35" width="102" height="73.7"/></g><g class="cls-6"><path class="cls-8" d="M20.6,73.85l-3-5.2,7.8-4.5.8,1.3L34,61l-5.2-9.1-15.6,9L6.1,48.45l20.8-12,2.2,3.9-13,7.5,2.6,4.5,15.6-9,9.8,16.9Z"/><path class="cls-8" d="M47.2,58.45,32.6,33.05l26-15,14.6,25.3ZM57.9,35,53,26.55l-10.4,6,7.9,13.6Zm5.3,9L61,40.05l-5.5,8.4Z"/><path class="cls-8" d="M76.5,41.55,61.9,16.25l26-15,14.5,25.3Zm10.6-23.5-4.9-8.4-10.4,6,7.9,13.6Zm5.3,9.1-2.3-3.9-5.5,8.4Z"/></g><g class="cls-6"><path class="cls-5" d="M73.7,131.85,37.1,68.45l65-37.5,36.5,63.3Zm26.7-58.7L88.2,52l-26,15,19.7,34.1Zm13.1,22.7-5.6-9.7-13.9,21Z"/></g><g class="cls-6"><path class="cls-5" d="M-36.7-18.75l63.3-36.6,37.5,65L.8,46.25Zm36,39.9L9,15.55-12,1.65ZM22,8,43.1-4.25l-15-26L-6-10.55Z"/></g></svg>