<svg id="Слой_1" data-name="Слой 1" xmlns="http://www.w3.org/2000/svg" xmlns:xlink="http://www.w3.org/1999/xlink" viewBox="0 0 102 73"><defs><style>.cls-1{fill:none;}.cls-2{clip-path:url(#clip-path);}.cls-3{isolation:isolate;font-size:60px;fill:#9f173a;font-family:High-Marker-Flat, High Marker Flat;}.cls-4{clip-path:url(#clip-path-2);}.cls-5{clip-path:url(#clip-path-3);}.cls-6{fill:#854e13;}.cls-7{clip-path:url(#clip-path-4);}.cls-8{fill:#ca8b0c;}.cls-9{fill:#fff;}.cls-10{clip-path:url(#clip-path-8);}</style><clipPath id="clip-path"><rect class="cls-1" y="-105.88" width="102" height="73.7"/></clipPath><clipPath id="clip-path-2"><rect class="cls-1" x="-115.42" y="-105.88" width="102" height="73.7"/></clipPath><clipPath id="clip-path-3"><rect class="cls-1" x="115.42" y="-0.35" width="102" height="73.7"/></clipPath><clipPath id="clip-path-4"><rect class="cls-1" y="-0.35" width="102" height="73.7"/></clipPath><clipPath id="clip-path-8"><rect class="cls-1" x="-115.42" y="-0.35" width="102" height="73.7"/></clipPath></defs><g class="cls-2"><text class="cls-3" transform="matrix(0.87, -0.5, 0.5, 0.87, 73.65, 26.37)">0</text></g><g class="cls-4"><text class="cls-3" transform="matrix(0.87, -0.5, 0.5, 0.87, -41.75, 26.37)">0</text></g><g class="cls-5"><path class="cls-6" d="M78.72-18.75,142-55.35l37.5,65-63.3,36.6Zm36,39.9,9.7-5.6-21-13.9ZM137.42,8l21.1-12.2-15-26-34.1,19.7Z"/></g><g class="cls-7"><rect class="cls-8" y="-0.35" width="102" height="73.7"/></g><g class="cls-7"><path class="cls-9" d="M29.9,68.05l-3-5.2,7.8-4.5.8,1.3,7.8-4.5-5.2-9.1-15.6,9-7.1-12.3,20.8-12,2.2,3.9-13,7.5,2.6,4.5,15.6-9,9.8,16.9Z"/><path class="cls-9" d="M56.5,52.65l-9.8-16.9,15.6-9-2.6-4.5-13,7.5-2.2-3.9,20.8-12,7.1,12.3-15.6,9,5.2,9.1,7.8-4.5-.8-1.3L76.8,34l3,5.2Z"/><path class="cls-9" d="M89.6,33.55,77.2,12.15,70.7,16l-2.2-3.9,14.3-8.2,14.6,25.3Z"/></g><g class="cls-7"><path class="cls-6" d="M73.6,131.75,37,68.45,102,31l36.6,63.3Zm26.8-58.7L88.2,52l-26,15,19.7,34.1Zm13.1,22.7-5.6-9.7-13.9,21Z"/></g><g class="cls-7"><path class="cls-6" d="M-36.7-18.75l63.3-36.6,37.5,65L.8,46.25Zm36,39.9L9,15.55-12,1.65ZM22,8,43.1-4.25l-15-26L-6-10.55Z"/></g><g class="cls-10"><path class="cls-6" d="M-41.82,131.75l-36.6-63.3,65-37.5,36.6,63.3Zm26.7-58.7L-27.32,52l-26,15,19.7,34.1Zm13.2,22.7-5.6-9.7-13.9,21Z"/></g></svg>