<svg id="Слой_1" data-name="Слой 1" xmlns="http://www.w3.org/2000/svg" xmlns:xlink="http://www.w3.org/1999/xlink" viewBox="0 0 102 73"><defs><style>.cls-1{fill:none;}.cls-2{clip-path:url(#clip-path);}.cls-3{fill:#854e13;}.cls-4{clip-path:url(#clip-path-2);}.cls-5{fill:#ca8b0c;}.cls-6{fill:#fff;}.cls-7{clip-path:url(#clip-path-6);}</style><clipPath id="clip-path"><rect class="cls-1" x="114.32" y="1.85" width="102" height="73.7"/></clipPath><clipPath id="clip-path-2"><rect class="cls-1" y="-0.35" width="102" height="73.7"/></clipPath><clipPath id="clip-path-6"><rect class="cls-1" x="-118.17" y="1.85" width="102" height="73.7"/></clipPath></defs><g class="cls-2"><path class="cls-3" d="M77.62-16.55l63.3-36.6,37.5,65-63.3,36.6Zm36,39.9,9.7-5.6-21-13.9Zm22.7-13.2L157.42-2l-15-26-34.1,19.7Z"/></g><g class="cls-4"><rect class="cls-5" y="-0.35" width="102" height="73.7"/></g><g class="cls-4"><path class="cls-6" d="M21.5,72.45l-3-5.2,7.8-4.5.8,1.3,7.8-4.5-5.2-9.1-15.6,9L7,47.15l20.8-12,2.2,3.9-13,7.5,2.6,4.5,15.6-9L45,59Z"/><path class="cls-6" d="M48.1,57.05l-9.8-16.9,15.6-9-2.6-4.5-13,7.5-2.2-3.9,20.8-12L64,30.55l-15.6,9,5.2,9.1,7.8-4.5-.8-1.3,7.8-4.5,3,5.2Z"/><path class="cls-6" d="M92.9,31.25l-2.6-4.5L72.1,37.25l-12-20.8L67.9,12l9.8,16.9,10.4-6L78.3,6l7.8-4.5,9.8,16.9,2.6-1.5,2.2,3.9-2.6,1.5,2.6,4.5Z"/></g><g class="cls-4"><path class="cls-3" d="M73.7,131.75,37.1,68.45l65-37.5,36.6,63.3Zm26.7-58.7L88.2,52l-26,15,19.7,34.1Zm13.1,22.7-5.6-9.7-13.9,21Z"/></g><g class="cls-4"><path class="cls-3" d="M-36.7-18.75l63.3-36.6,37.5,65L.8,46.25Zm36,39.9L9,15.55-12,1.65ZM22.1,8,43.2-4.25l-15-26L-5.9-10.55Z"/></g><g class="cls-7"><path class="cls-3" d="M-44.47,134l-36.6-63.3,65-37.5,36.6,63.3Zm26.7-58.7L-30,54.15l-26,15,19.7,34.1ZM-4.67,98l-5.6-9.7-13.9,21Z"/></g></svg>