<svg id="Слой_1" data-name="Слой 1" xmlns="http://www.w3.org/2000/svg" xmlns:xlink="http://www.w3.org/1999/xlink" viewBox="0 0 102 73"><defs><style>.cls-1{fill:none;}.cls-2{clip-path:url(#clip-path);}.cls-3{isolation:isolate;font-size:60px;fill:#9f173a;font-family:High-Marker-Flat, High Marker Flat;}.cls-4{clip-path:url(#clip-path-2);}.cls-5{clip-path:url(#clip-path-3);}.cls-6{fill:#854e13;}.cls-7{clip-path:url(#clip-path-4);}.cls-8{fill:#ca8b0c;}.cls-9{fill:#fff;}.cls-10{clip-path:url(#clip-path-8);}</style><clipPath id="clip-path"><rect class="cls-1" x="117.62" y="94.73" width="102" height="73.7"/></clipPath><clipPath id="clip-path-2"><rect class="cls-1" x="-2.75" y="97.48" width="102" height="73.7"/></clipPath><clipPath id="clip-path-3"><rect class="cls-1" x="114.32" y="-2.55" width="102" height="73.7"/></clipPath><clipPath id="clip-path-4"><rect class="cls-1" y="-0.35" width="102" height="73.7"/></clipPath><clipPath id="clip-path-8"><rect class="cls-1" x="-120.37" y="-0.35" width="102" height="73.7"/></clipPath></defs><g class="cls-2"><text class="cls-3" transform="matrix(0.5, 0.87, -0.87, 0.5, 80.95, 76.41)">0</text></g><g class="cls-4"><text class="cls-3" transform="matrix(0.5, 0.87, -0.87, 0.5, -39.44, 79.16)">0</text></g><g class="cls-5"><path class="cls-6" d="M77.72-20.95,141-57.55l37.5,65-63.3,36.6ZM113.62,19l9.7-5.6-21-13.9Zm22.8-13.2,21.1-12.2-15-26-34.1,19.7Z"/></g><g class="cls-7"><rect class="cls-8" y="-0.35" width="102" height="73.7"/></g><g class="cls-7"><path class="cls-9" d="M19.3,73.55l-3-5.2,7.8-4.5.8,1.3,7.8-4.5-5.2-9.1-15.6,9L4.8,48.25l20.8-12,2.2,3.9-13,7.5,2.6,4.5,15.6-9,9.8,16.9Z"/><path class="cls-9" d="M45.9,58.15,31.3,32.85l26-15,14.6,25.3Zm10.7-23.5-4.9-8.4-10.4,6,7.9,13.6Zm5.3,9.1-2.2-3.9-5.5,8.4Z"/><path class="cls-9" d="M75.2,41.25,68.1,29l5.2-3-6.7.4L60.6,16,89.2-.55l6,10.4-3.7,5.6,5.2-3,7.1,12.3Zm11.4-28.2-3-5.2-13,7.5,3,5.2,8.4-.5Zm7.1,12.3-2.6-4.5-13,7.5,2.6,4.5Z"/></g><g class="cls-7"><path class="cls-6" d="M73.7,131.75,37.1,68.45l65-37.5,36.6,63.3Zm26.7-58.7L88.2,52l-26,15,19.7,34.1Zm13.1,22.7-5.6-9.7-13.9,21Z"/></g><g class="cls-7"><path class="cls-6" d="M-36.7-18.75l63.3-36.6,37.5,65L.8,46.25Zm36,39.9L9,15.55-12,1.65ZM22.1,8,43.2-4.25l-15-26L-5.9-10.55Z"/></g><g class="cls-10"><path class="cls-6" d="M-46.67,131.75l-36.6-63.3,65-37.5,36.6,63.3ZM-20,73.05-32.17,52l-26,15,19.7,34.1Zm13.1,22.7-5.6-9.7-13.9,21Z"/></g></svg>