<svg id="Слой_1" data-name="Слой 1" xmlns="http://www.w3.org/2000/svg" xmlns:xlink="http://www.w3.org/1999/xlink" viewBox="0 0 102 73"><defs><style>.cls-1{fill:none;}.cls-2{clip-path:url(#clip-path);}.cls-3{isolation:isolate;font-size:60px;fill:#9f173a;font-family:High-Marker-Flat, High Marker Flat;}.cls-4{clip-path:url(#clip-path-2);}.cls-5{fill:#854e13;}.cls-6{clip-path:url(#clip-path-3);}.cls-7{fill:#ca8b0c;}.cls-8{fill:#fff;}.cls-9{clip-path:url(#clip-path-7);}</style><clipPath id="clip-path"><rect class="cls-1" y="94.73" width="102" height="73.7"/></clipPath><clipPath id="clip-path-2"><rect class="cls-1" x="118.17" y="-2.55" width="102" height="73.7"/></clipPath><clipPath id="clip-path-3"><rect class="cls-1" y="-0.35" width="102" height="73.7"/></clipPath><clipPath id="clip-path-7"><rect class="cls-1" x="-115.97" y="-2.55" width="102" height="73.7"/></clipPath></defs><g class="cls-2"><text class="cls-3" transform="matrix(0.5, 0.87, -0.87, 0.5, -36.69, 76.41)">0</text></g><g class="cls-4"><path class="cls-5" d="M81.47-20.95l63.3-36.6,37.5,65L119,44.05Zm36,39.9,9.7-5.6-21-13.9Zm22.8-13.2,21.1-12.2-15-26-34.1,19.7Z"/></g><g class="cls-6"><rect class="cls-7" y="-0.35" width="102" height="73.7"/></g><g class="cls-6"><path class="cls-8" d="M24,70.85l-3-5.2,7.8-4.5.8,1.3L37.4,58l-5.2-9.1-15.6,9L9.5,45.55l20.8-12,2.2,3.9L19.5,45l2.6,4.5,15.6-9,9.8,16.9Z"/><path class="cls-8" d="M50.6,55.55l-9.8-16.9,15.6-9-2.6-4.5-13,7.5-2.2-3.9,20.8-12,7.1,12.3-15.6,9,5.2,9.1,7.8-4.5-.8-1.3,7.8-4.5,3,5.2Z"/><path class="cls-8" d="M77.2,40.15l-3-5.2,7.8-4.5.8,1.3L89.3,28l-4.9-8.4-14.3,8.2-2.2-3.9,7.4-11.2-10.4,6-2.2-3.9L84.8,2l1.9,3.2-8.3,12.6L90.1,11l9.4,16.2Z"/></g><g class="cls-6"><path class="cls-5" d="M73.7,131.75,37.1,68.45l65-37.5,36.6,63.3Zm26.7-58.7L88.2,52l-26,15,19.7,34.1Zm13.1,22.7-5.6-9.7-13.9,21Z"/></g><g class="cls-6"><path class="cls-5" d="M-36.7-18.75l63.3-36.6,37.5,65L.8,46.25Zm36,39.9L9,15.55-12,1.65ZM22.1,8,43.2-4.25l-15-26L-5.9-10.55Z"/></g><g class="cls-9"><path class="cls-5" d="M-42.27,129.55l-36.6-63.3,65-37.5,36.6,63.3Zm26.7-58.7-12.2-21.1-26,15,19.7,34.1Zm13.1,22.7-5.6-9.7-13.9,21Z"/></g></svg>