<svg id="Слой_1" data-name="Слой 1" xmlns="http://www.w3.org/2000/svg" xmlns:xlink="http://www.w3.org/1999/xlink" viewBox="0 0 102 73"><defs><style>.cls-1{fill:none;}.cls-2{clip-path:url(#clip-path);}.cls-3{fill:#ca8b0c;}.cls-4{fill:#fff;}.cls-5{fill:#854e13;}.cls-6{clip-path:url(#clip-path-5);}</style><clipPath id="clip-path"><rect class="cls-1" y="-0.35" width="102" height="73.7"/></clipPath><clipPath id="clip-path-5"><rect class="cls-1" x="-113.59" y="-0.35" width="102" height="73.7"/></clipPath></defs><g class="cls-2"><rect class="cls-3" y="-0.35" width="102" height="73.7"/></g><g class="cls-2"><path class="cls-4" d="M23.1,71.65l-3-5.2L27.9,62l.8,1.3,7.8-4.5-5.2-9.1-15.6,9L8.6,46.35l20.8-12,2.2,3.9-13,7.5,2.6,4.5,15.6-9,9.8,16.9Z"/><path class="cls-4" d="M49.7,56.25l-9.8-16.9,15.6-9-2.6-4.5-13,7.5-2.2-3.9,20.8-12,7.1,12.3-15.6,9,5.2,9.1,7.8-4.5-.8-1.3,7.8-4.5,3,5.2Z"/><path class="cls-4" d="M76.4,40.85,61.8,15.55l20.8-12,2.2,3.9L71.8,15l4.5,7.8,5.5-8.4,7.8-4.5,10.1,17.5ZM89.7,28l-4.9-8.4L79.3,28l2.6,4.5Z"/></g><g class="cls-2"><path class="cls-5" d="M73.6,131.75,37,68.45,102,31l36.6,63.3Zm26.8-58.7L88.2,52l-26,15,19.7,34.1Zm13.1,22.7-5.6-9.7-13.9,21Z"/></g><g class="cls-2"><path class="cls-5" d="M-36.7-18.75l63.3-36.6,37.5,65L.8,46.25Zm36,39.9L9,15.55-12,1.65ZM22,8,43.1-4.25l-15-26L-6-10.55Z"/></g><g class="cls-6"><path class="cls-5" d="M-40,131.75l-36.6-63.3,65-37.5L25,94.25Zm26.7-58.7L-25.49,52l-26,15,19.7,34.1Zm13.2,22.7-5.6-9.7-13.9,21Z"/></g></svg>