<svg id="Слой_1" data-name="Слой 1" xmlns="http://www.w3.org/2000/svg" xmlns:xlink="http://www.w3.org/1999/xlink" viewBox="0 0 102 73"><defs><style>.cls-1{fill:none;}.cls-2{clip-path:url(#clip-path);}.cls-3{fill:#854e13;}.cls-4{clip-path:url(#clip-path-2);}.cls-5,.cls-9{isolation:isolate;font-family:High-Marker-Flat, High Marker Flat;}.cls-5{font-size:60px;fill:#9f173a;}.cls-6{clip-path:url(#clip-path-3);}.cls-7{clip-path:url(#clip-path-4);}.cls-8{fill:#ca8b0c;}.cls-9{font-size:24px;fill:#fff;}</style><clipPath id="clip-path"><rect class="cls-1" x="-118.91" y="-2.07" width="102" height="73.7"/></clipPath><clipPath id="clip-path-2"><rect class="cls-1" x="-54.41" y="92.03" width="102" height="73.7"/></clipPath><clipPath id="clip-path-3"><rect class="cls-1" x="75.89" y="92.03" width="102" height="73.7"/></clipPath><clipPath id="clip-path-4"><rect class="cls-1" y="-0.35" width="102" height="73.7"/></clipPath></defs><g class="cls-2"><path class="cls-3" d="M-45.31,130.13l-36.6-63.4,65-37.5,36.6,63.3Zm26.8-58.7-12.2-21.1-26,15L-37,99.43Zm13.1,22.7-5.6-9.7-13.9,21Z"/></g><g class="cls-4"><text class="cls-5" transform="matrix(0.5, 0.87, -0.87, 0.5, -91.08, 73.7)">0</text></g><g class="cls-6"><text class="cls-5" transform="matrix(0.5, 0.87, -0.87, 0.5, 39.17, 73.7)">0</text></g><g class="cls-7"><rect class="cls-8" y="-0.35" width="102" height="73.7"/></g><g class="cls-7"><text class="cls-9" transform="matrix(0.87, -0.5, 0.5, 0.87, 21.73, 71.63)">502</text></g><g class="cls-7"><path class="cls-3" d="M73.7,131.85,37.1,68.55l65-37.5,36.6,63.3Zm26.7-58.8L88.2,52l-26,15,19.7,34.1Zm13.1,22.8-5.6-9.7-13.9,21Z"/></g><g class="cls-7"><path class="cls-3" d="M-36.7-18.75l63.3-36.6,37.5,65L.8,46.25Zm36,39.9L9,15.55-12,1.65ZM22,8.05,43.1-4.15l-15-26L-6-10.45Z"/></g></svg>