<svg id="Слой_1" data-name="Слой 1" xmlns="http://www.w3.org/2000/svg" xmlns:xlink="http://www.w3.org/1999/xlink" viewBox="0 0 102 73"><defs><style>.cls-1{fill:none;}.cls-2{clip-path:url(#clip-path);}.cls-3{isolation:isolate;font-size:60px;fill:#9f173a;font-family:High-Marker-Flat, High Marker Flat;}.cls-4{clip-path:url(#clip-path-2);}.cls-5{clip-path:url(#clip-path-3);}.cls-6{fill:#854e13;}.cls-7{clip-path:url(#clip-path-4);}.cls-8{fill:#ca8b0c;}.cls-9{fill:#fff;}.cls-10{clip-path:url(#clip-path-8);}</style><clipPath id="clip-path"><rect class="cls-1" x="120.92" y="99.68" width="102" height="73.7"/></clipPath><clipPath id="clip-path-2"><rect class="cls-1" x="2.2" y="99.68" width="102" height="73.7"/></clipPath><clipPath id="clip-path-3"><rect class="cls-1" x="120.92" y="4.6" width="102" height="73.7"/></clipPath><clipPath id="clip-path-4"><rect class="cls-1" y="-0.35" width="102" height="73.7"/></clipPath><clipPath id="clip-path-8"><rect class="cls-1" x="-127.51" y="4.6" width="102" height="73.7"/></clipPath></defs><g class="cls-2"><text class="cls-3" transform="matrix(0.5, 0.87, -0.87, 0.5, 84.21, 81.36)">0</text></g><g class="cls-4"><text class="cls-3" transform="matrix(0.5, 0.87, -0.87, 0.5, -34.53, 81.36)">0</text></g><g class="cls-5"><path class="cls-6" d="M84.22-13.8l63.3-36.6,37.5,65-63.3,36.6Zm36,39.9,9.7-5.6-21-13.9Zm22.7-13.2L164,.7l-15-26L114.92-5.6Z"/></g><g class="cls-7"><rect class="cls-8" y="-0.35" width="102" height="73.7"/></g><g class="cls-7"><path class="cls-9" d="M22.1,72.75l-3-5.2,7.8-4.5.8,1.3,7.8-4.5-5.2-9.1-15.6,9L7.6,47.45l20.8-12,2.2,3.9-13,7.5,2.6,4.5,15.6-9,9.8,16.9Z"/><path class="cls-9" d="M48.7,57.35,34.1,32.05l26-15,14.6,25.3Zm10.7-23.5-4.9-8.4-10.4,6L52,45.05ZM64.6,43l-2.2-3.9-5.5,8.4Z"/><path class="cls-9" d="M77.9,40.45l-3-5.2,7.8-4.5.8,1.3,7.8-4.5-5.2-9.1-15.6,9-7.1-12.3,20.8-12,2.2,3.9-13,7.5,2.6,4.5,15.6-9L101.4,27Z"/></g><g class="cls-7"><path class="cls-6" d="M73.7,131.75,37.1,68.45l65-37.5,36.5,63.3Zm26.7-58.7L88.2,52l-26,15,19.7,34.1Zm13.1,22.7-5.6-9.7-13.9,21Z"/></g><g class="cls-7"><path class="cls-6" d="M-36.7-18.75l63.3-36.5,37.5,65L.8,46.25Zm36,39.9L9,15.55-12,1.65ZM22,8,43.1-4.25l-15-26L-6-10.55Z"/></g><g class="cls-10"><path class="cls-6" d="M-53.81,136.7l-36.6-63.3,65-37.5,36.6,63.3ZM-27.11,78l-12.2-21.1-26,15,19.7,34.1ZM-14,100.7l-5.6-9.7-13.9,21Z"/></g></svg>