<svg id="Слой_1" data-name="Слой 1" xmlns="http://www.w3.org/2000/svg" xmlns:xlink="http://www.w3.org/1999/xlink" viewBox="0 0 102 73.7"><defs><style>.cls-1{fill:none;}.cls-2{clip-path:url(#clip-path);}.cls-3{fill:#404040;}.cls-4{clip-path:url(#clip-path-2);}.cls-5{fill:#71727c;}.cls-6{clip-path:url(#clip-path-5);}.cls-7{clip-path:url(#clip-path-6);}.cls-8{isolation:isolate;}.cls-9{fill:#fff;}</style><clipPath id="clip-path"><rect class="cls-1" x="-121.19" width="102" height="73.7"/></clipPath><clipPath id="clip-path-2"><rect class="cls-1" width="102" height="73.7"/></clipPath><clipPath id="clip-path-5"><rect class="cls-1" y="-98.93" width="102" height="73.7"/></clipPath><clipPath id="clip-path-6"><rect class="cls-1" x="-121.19" y="-98.93" width="102" height="73.7"/></clipPath></defs><g class="cls-2"><path class="cls-3" d="M-47.49,132.2l-36.6-63.3,65-37.5,36.6,63.3Zm26.7-58.8L-33,52.3l-26,15,19.7,34.1Zm13.1,22.8-5.6-9.7-13.9,21Z"/></g><g class="cls-4"><rect class="cls-5" width="102" height="73.7"/></g><g class="cls-4"><path class="cls-3" d="M73.7,132.2,37.1,68.9l65-37.5,36.6,63.3Zm26.7-58.8L88.2,52.3l-26,15,19.7,34.1Zm13.1,22.8-5.6-9.7L94,107.5Z"/></g><g class="cls-4"><path class="cls-3" d="M-36.7-18.4,26.6-55,64.1,10,.8,46.6Zm36,39.9L9,15.9-12,2ZM22,8.4,43.1-3.8l-15-26L-6-10.1Z"/></g><g class="cls-6"><path class="cls-3" d="M73.7,33.27,37.1-30l65-37.5,36.6,63.3Zm26.7-58.8L88.2-46.63l-26,15L81.9,2.47Zm13.1,22.8-5.6-9.7L94,8.57Z"/></g><g class="cls-7"><path class="cls-3" d="M-47.49,33.27-84.09-30l65-37.5,36.6,63.3Zm26.7-58.8L-33-46.63l-26,15,19.7,34.1Zm13.1,22.8-5.6-9.7-13.9,21Z"/></g><g class="cls-8"><path class="cls-9" d="M20.82,73.7l-3-5.2,7.8-4.5.75,1.3,7.79-4.5-5.25-9.09-15.59,9L6.2,48.37,27,36.37l2.25,3.9-13,7.5,2.63,4.54,15.58-9L44.2,60.2Z"/><path class="cls-9" d="M47.45,58.32,37.7,41.44l15.59-9-2.63-4.55-13,7.5-2.25-3.9,20.79-12,7.12,12.35-15.58,9L53,49.93l7.79-4.5L60,44.13l7.79-4.5,3,5.19Z"/><path class="cls-9" d="M92.27,32.45,90,28.55,66.58,30,59.46,17.62l26-15L100.06,28ZM79.89,11,69.5,17l4.12,7.14,13.4-.8Z"/></g></svg>