<svg id="Слой_1" data-name="Слой 1" xmlns="http://www.w3.org/2000/svg" xmlns:xlink="http://www.w3.org/1999/xlink" viewBox="0 0 102 73.7"><defs><style>.cls-1{fill:none;}.cls-2{clip-path:url(#clip-path);}.cls-3{fill:#404040;}.cls-4{clip-path:url(#clip-path-2);}.cls-5{clip-path:url(#clip-path-3);}.cls-6{clip-path:url(#clip-path-4);}.cls-7{fill:#71727c;}.cls-8{clip-path:url(#clip-path-7);}.cls-9{isolation:isolate;}.cls-10{fill:#fff;}</style><clipPath id="clip-path"><rect class="cls-1" y="98.93" width="102" height="73.7"/></clipPath><clipPath id="clip-path-2"><rect class="cls-1" x="112.12" y="98.93" width="102" height="73.7"/></clipPath><clipPath id="clip-path-3"><rect class="cls-1" x="112.12" width="102" height="73.7"/></clipPath><clipPath id="clip-path-4"><rect class="cls-1" width="102" height="73.7"/></clipPath><clipPath id="clip-path-7"><rect class="cls-1" x="-117.89" width="102" height="73.7"/></clipPath></defs><g class="cls-2"><path class="cls-3" d="M-36.7,80.53l63.3-36.6,37.5,65L.8,145.53Zm36,39.9,9.7-5.6-21-13.9ZM22,107.33l21.1-12.2-15-26L-6,88.83Z"/></g><g class="cls-4"><path class="cls-3" d="M75.42,80.53l63.3-36.6,37.5,65-63.3,36.6Zm36,39.9,9.7-5.6-21-13.9Zm22.7-13.1,21.1-12.2-15-26-34.1,19.7Z"/></g><g class="cls-5"><path class="cls-3" d="M75.42-18.4,138.72-55l37.5,65-63.3,36.6Zm36,39.9,9.7-5.6L100.12,2Zm22.7-13.1,21.1-12.2-15-26-34.1,19.7Z"/></g><g class="cls-6"><rect class="cls-7" width="102" height="73.7"/></g><g class="cls-6"><path class="cls-3" d="M73.7,132.2,37.1,68.9l65-37.5,36.6,63.3Zm26.7-58.8L88.2,52.3l-26,15,19.7,34.1Zm13.1,22.8-5.6-9.7L94,107.5Z"/></g><g class="cls-6"><path class="cls-3" d="M-36.7-18.4,26.6-55,64.1,10,.8,46.6Zm36,39.9L9,15.9-12,2ZM22,8.4,43.1-3.8l-15-26L-6-10.1Z"/></g><g class="cls-8"><path class="cls-3" d="M-44.19,132.2l-36.6-63.3,65-37.5,36.6,63.3Zm26.7-58.8-12.2-21.1-26,15L-36,101.4Zm13.1,22.8L-10,86.5l-13.9,21Z"/></g><g class="cls-9"><path class="cls-10" d="M36,65l-2.63-4.55L15.17,70.91l-12-20.78,7.8-4.5,9.75,16.89,10.39-6L21.36,39.63l7.79-4.5L38.9,52l2.6-1.5,2.25,3.89-2.6,1.5,2.63,4.55Z"/><path class="cls-10" d="M49.62,57.08l-3-5.19,7.8-4.5.75,1.3,6.49-3.75-4.87-8.45L42.5,44.74l-2.25-3.89,7.39-11.2-10.39,6L35,31.75,57.08,19,59,22.25l-8.32,12.6L62.33,28.1l9.38,16.23Z"/><path class="cls-10" d="M75,42.46,60.33,17.13l26-15,14.62,25.33ZM85.64,19l-4.87-8.44-10.4,6,7.88,13.63Zm5.25,9.09-2.25-3.9-5.54,8.4Z"/></g></svg>