<svg id="Слой_1" data-name="Слой 1" xmlns="http://www.w3.org/2000/svg" xmlns:xlink="http://www.w3.org/1999/xlink" viewBox="0 0 102 73.7"><defs><style>.cls-1{fill:none;}.cls-2{clip-path:url(#clip-path);}.cls-3{fill:#404040;}.cls-4{clip-path:url(#clip-path-2);}.cls-5{clip-path:url(#clip-path-3);}.cls-6{clip-path:url(#clip-path-4);}.cls-7{clip-path:url(#clip-path-5);}.cls-8{fill:#71727c;}.cls-9{isolation:isolate;}.cls-10{fill:#fff;}</style><clipPath id="clip-path"><rect class="cls-1" y="98.93" width="102" height="73.7"/></clipPath><clipPath id="clip-path-2"><rect class="cls-1" x="117.89" y="98.93" width="102" height="73.7"/></clipPath><clipPath id="clip-path-3"><rect class="cls-1" x="117.89" width="102" height="73.7"/></clipPath><clipPath id="clip-path-4"><rect class="cls-1" x="-126.14" width="102" height="73.7"/></clipPath><clipPath id="clip-path-5"><rect class="cls-1" width="102" height="73.7"/></clipPath></defs><g class="cls-2"><path class="cls-3" d="M-36.7,80.53l63.3-36.6,37.5,65L.8,145.53Zm36,39.9,9.7-5.6-21-13.9ZM22,107.33l21.1-12.2-15-26L-6,88.83Z"/></g><g class="cls-4"><path class="cls-3" d="M81.19,80.53l63.3-36.6,37.5,65-63.3,36.6Zm36,39.9,9.7-5.6-21-13.9Zm22.7-13.1L161,95.13l-15-26-34.1,19.7Z"/></g><g class="cls-5"><path class="cls-3" d="M81.19-18.4,144.49-55,182,10l-63.3,36.6Zm36,39.9,9.7-5.6L105.89,2Zm22.7-13.1L161-3.8l-15-26-34.1,19.7Z"/></g><g class="cls-6"><path class="cls-3" d="M-52.44,132.2-89,68.9l65-37.5,36.6,63.3Zm26.7-58.8-12.2-21.1-26,15,19.7,34.1Zm13.1,22.8-5.6-9.7-13.9,21Z"/></g><g class="cls-7"><rect class="cls-8" width="102" height="73.7"/></g><g class="cls-7"><path class="cls-3" d="M73.7,132.2,37.1,68.9l65-37.5,36.6,63.3Zm26.7-58.8L88.2,52.3l-26,15,19.7,34.1Zm13.1,22.8-5.6-9.7L94,107.5Z"/></g><g class="cls-7"><path class="cls-3" d="M-36.7-18.4,26.6-55,64.1,10,.8,46.6Zm36,39.9L9,15.9-12,2ZM22,8.4,43.1-3.8l-15-26L-6-10.1Z"/></g><g class="cls-9"><path class="cls-10" d="M26,70,16.29,53.08l15.59-9-2.63-4.55-13,7.5L14,43.13l20.79-12,7.12,12.34-15.58,9,5.25,9.1,7.79-4.5-.75-1.3,7.79-4.5,3,5.19Z"/><path class="cls-10" d="M59.17,50.84,46.79,29.4,40.3,33.15l-2.25-3.89L52.34,21,67,46.34Z"/><path class="cls-10" d="M70.21,44.46,63.08,32.12l5.2-3-6.7.4-6-10.39L84.16,2.63l6,10.39-3.7,5.6,5.2-3L98.78,28ZM81.62,16.23l-3-5.2-13,7.5,3,5.2L77,23.22Zm7.12,12.34L86.12,24l-13,7.5,2.62,4.55Z"/></g></svg>