<svg id="Слой_1" data-name="Слой 1" xmlns="http://www.w3.org/2000/svg" xmlns:xlink="http://www.w3.org/1999/xlink" viewBox="0 0 102 73.7"><defs><style>.cls-1{fill:none;}.cls-2{clip-path:url(#clip-path);}.cls-3{fill:#404040;}.cls-4{clip-path:url(#clip-path-2);}.cls-5{fill:#71727c;}.cls-6{clip-path:url(#clip-path-5);}.cls-7{clip-path:url(#clip-path-6);}.cls-8{clip-path:url(#clip-path-7);}.cls-9{isolation:isolate;}.cls-10{fill:#fff;}</style><clipPath id="clip-path"><rect class="cls-1" x="-117.07" width="102" height="73.7"/></clipPath><clipPath id="clip-path-2"><rect class="cls-1" width="102" height="73.7"/></clipPath><clipPath id="clip-path-5"><rect class="cls-1" x="117.89" width="102" height="73.7"/></clipPath><clipPath id="clip-path-6"><rect class="cls-1" x="-126.14" y="-98.93" width="102" height="73.7"/></clipPath><clipPath id="clip-path-7"><rect class="cls-1" y="-98.93" width="102" height="73.7"/></clipPath></defs><g class="cls-2"><path class="cls-3" d="M-43.37,132.2-80,68.9l65-37.5,36.6,63.3Zm26.7-58.8-12.2-21.1-26,15,19.7,34.1Zm13.1,22.8-5.6-9.7-13.9,21Z"/></g><g class="cls-4"><rect class="cls-5" width="102" height="73.7"/></g><g class="cls-4"><path class="cls-3" d="M73.7,132.2,37.1,68.9l65-37.5,36.6,63.3Zm26.7-58.8L88.2,52.3l-26,15,19.7,34.1Zm13.1,22.8-5.6-9.7L94,107.5Z"/></g><g class="cls-4"><path class="cls-3" d="M-36.7-18.4,26.6-55,64.1,10,.8,46.6Zm36,39.9L9,15.9-12,2ZM22,8.4,43.1-3.8l-15-26L-6-10.1Z"/></g><g class="cls-6"><path class="cls-3" d="M81.19-18.4,144.49-55,182,10l-63.3,36.6Zm36,39.9,9.7-5.6L105.89,2Zm22.7-13.1L161-3.8l-15-26-34.1,19.7Z"/></g><g class="cls-7"><path class="cls-3" d="M-52.44,33.27-89-30l65-37.5,36.6,63.3Zm26.7-58.8-12.2-21.1-26,15,19.7,34.1Zm13.1,22.8-5.6-9.7-13.9,21Z"/></g><g class="cls-8"><path class="cls-3" d="M73.7,33.27,37.1-30l65-37.5,36.6,63.3Zm26.7-58.8L88.2-46.63l-26,15L81.9,2.47Zm13.1,22.8-5.6-9.7L94,8.57Z"/></g><g class="cls-9"><path class="cls-10" d="M18.84,74.57l-3-5.2,7.8-4.5.75,1.3,7.79-4.5-5.25-9.09-15.59,9L4.22,49.24,25,37.24l2.25,3.89-13,7.5,2.63,4.55,15.59-9,9.75,16.89Z"/><path class="cls-10" d="M63.66,48.69,61.41,44.8,38,46.2,30.85,33.86l26-15L71.45,44.19ZM51.28,27.26l-10.39,6L45,40.4l13.39-.8Z"/><path class="cls-10" d="M74.7,42.32,67.57,30l5.2-3-6.7.4L60.07,17,88.65.49l6,10.39L91,16.48l5.19-3,7.13,12.34ZM86.11,14.08l-3-5.2-13,7.5,3,5.2,8.37-.5Zm7.12,12.34-2.62-4.55-13,7.5,2.62,4.55Z"/></g></svg>