<svg id="Слой_1" data-name="Слой 1" xmlns="http://www.w3.org/2000/svg" xmlns:xlink="http://www.w3.org/1999/xlink" viewBox="0 0 102 73.7"><defs><style>.cls-1{fill:none;}.cls-2{clip-path:url(#clip-path);}.cls-3{fill:#71727c;}.cls-4{fill:#404040;}.cls-5{clip-path:url(#clip-path-4);}.cls-6{clip-path:url(#clip-path-5);}.cls-7{isolation:isolate;}.cls-8{fill:#fff;}</style><clipPath id="clip-path"><rect class="cls-1" width="102" height="73.7"/></clipPath><clipPath id="clip-path-4"><rect class="cls-1" x="136.85" width="102" height="73.7"/></clipPath><clipPath id="clip-path-5"><rect class="cls-1" y="-98.93" width="102" height="73.7"/></clipPath></defs><g class="cls-2"><rect class="cls-3" width="102" height="73.7"/></g><g class="cls-2"><path class="cls-4" d="M73.7,132.2,37.1,68.9l65-37.5,36.6,63.3Zm26.7-58.8L88.2,52.3l-26,15,19.7,34.1Zm13.1,22.8-5.6-9.7L94,107.5Z"/></g><g class="cls-2"><path class="cls-4" d="M-36.7-18.4,26.6-55,64.1,10,.8,46.6Zm36,39.9L9,15.9-12,2ZM22,8.4,43.1-3.8l-15-26L-6-10.1Z"/></g><g class="cls-5"><path class="cls-4" d="M100.15-18.4,163.45-55,201,10l-63.3,36.6Zm36,39.9,9.7-5.6L124.85,2Zm22.7-13.1L180-3.8l-15-26-34.1,19.7Z"/></g><g class="cls-6"><path class="cls-4" d="M73.7,33.27,37.1-30l65-37.5,36.6,63.3Zm26.7-58.8L88.2-46.63l-26,15L81.9,2.47Zm13.1,22.8-5.6-9.7L94,8.57Z"/></g><g class="cls-7"><path class="cls-8" d="M22,73.21,19,68,29.14,52.62l-5.25-9.09L5.7,54l-2.25-3.9,26-15,8.25,14.29L27.51,64.81l2.25,3.9Z"/><path class="cls-8" d="M47.3,58.58,40.18,46.24l5.19-3-6.69.41-6-10.4,28.57-16.5,6,10.4-3.69,5.59,5.19-3,7.13,12.34ZM58.71,30.35l-3-5.2-13,7.5,3,5.2,8.37-.5Zm7.12,12.34-2.62-4.55-13,7.5,2.62,4.55Z"/><path class="cls-8" d="M79.13,40.21l-3-5.2,7.79-4.5.75,1.3,6.49-3.75-4.87-8.44L72,27.87,69.75,24l7.39-11.19-10.39,6-2.25-3.9L86.58,2.13l1.88,3.25L80.14,18l11.69-6.75,9.38,16.24Z"/></g></svg>