<svg id="Слой_1" data-name="Слой 1" xmlns="http://www.w3.org/2000/svg" xmlns:xlink="http://www.w3.org/1999/xlink" viewBox="0 0 102 73.7"><defs><style>.cls-1{fill:none;}.cls-2{clip-path:url(#clip-path);}.cls-3{fill:#71727c;}.cls-4{fill:#404040;}.cls-5{clip-path:url(#clip-path-4);}.cls-6{clip-path:url(#clip-path-5);}.cls-7{clip-path:url(#clip-path-6);}.cls-8{clip-path:url(#clip-path-7);}.cls-9{isolation:isolate;}.cls-10{fill:#fff;}</style><clipPath id="clip-path"><rect class="cls-1" width="102" height="73.7"/></clipPath><clipPath id="clip-path-4"><rect class="cls-1" x="121.19" width="102" height="73.7"/></clipPath><clipPath id="clip-path-5"><rect class="cls-1" x="-130.26" width="102" height="73.7"/></clipPath><clipPath id="clip-path-6"><rect class="cls-1" x="-130.26" y="-98.93" width="102" height="73.7"/></clipPath><clipPath id="clip-path-7"><rect class="cls-1" y="-98.93" width="102" height="73.7"/></clipPath></defs><g class="cls-2"><rect class="cls-3" width="102" height="73.7"/></g><g class="cls-2"><path class="cls-4" d="M73.7,132.2,37.1,68.9l65-37.5,36.6,63.3Zm26.7-58.8L88.2,52.3l-26,15,19.7,34.1Zm13.1,22.8-5.6-9.7L94,107.5Z"/></g><g class="cls-2"><path class="cls-4" d="M-36.7-18.4,26.6-55,64.1,10,.8,46.6Zm36,39.9L9,15.9-12,2ZM22,8.4,43.1-3.8l-15-26L-6-10.1Z"/></g><g class="cls-5"><path class="cls-4" d="M84.49-18.4,147.79-55l37.5,65L122,46.6Zm36,39.9,9.7-5.6L109.19,2Zm22.7-13.1,21.1-12.2-15-26-34.1,19.7Z"/></g><g class="cls-6"><path class="cls-4" d="M-56.56,132.2l-36.6-63.3,65-37.5L8.44,94.7Zm26.7-58.8-12.2-21.1-26,15,19.7,34.1Zm13.1,22.8-5.6-9.7-13.9,21Z"/></g><g class="cls-7"><path class="cls-4" d="M-56.56,33.27-93.16-30l65-37.5L8.44-4.23Zm26.7-58.8-12.2-21.1-26,15,19.7,34.1Zm13.1,22.8-5.6-9.7-13.9,21Z"/></g><g class="cls-8"><path class="cls-4" d="M73.7,33.27,37.1-30l65-37.5,36.6,63.3Zm26.7-58.8L88.2-46.63l-26,15L81.9,2.47Zm13.1,22.8-5.6-9.7L94,8.57Z"/></g><g class="cls-9"><path class="cls-10" d="M22.2,72.44l-3-5.2L27,62.74l.75,1.3,7.79-4.5-5.25-9.09-15.58,9L7.57,47.11l20.79-12L30.61,39l-13,7.5,2.62,4.55,15.59-9,9.75,16.89Z"/><path class="cls-10" d="M48.83,57.06l-3-5.19,7.79-4.5.75,1.29,6.5-3.75L56,36.47,41.7,44.72l-2.25-3.9,7.39-11.19-10.39,6-2.25-3.9L56.28,19l1.88,3.25L49.84,34.82l11.69-6.75,9.38,16.24Z"/><path class="cls-10" d="M74.16,42.44,59.53,17.11l26-15,14.63,25.33ZM84.84,19,80,10.5l-10.39,6,7.87,13.64ZM90.09,28l-2.25-3.9-5.54,8.4Z"/></g></svg>