<svg id="Слой_1" data-name="Слой 1" xmlns="http://www.w3.org/2000/svg" xmlns:xlink="http://www.w3.org/1999/xlink" viewBox="0 0 102 73.7"><defs><style>.cls-1{fill:none;}.cls-2{clip-path:url(#clip-path);}.cls-3{fill:#404040;}.cls-4{clip-path:url(#clip-path-2);}.cls-5{fill:#71727c;}.cls-6{clip-path:url(#clip-path-5);}.cls-7{isolation:isolate;}.cls-8{fill:#fff;}</style><clipPath id="clip-path"><rect class="cls-1" y="98.93" width="102" height="73.7"/></clipPath><clipPath id="clip-path-2"><rect class="cls-1" width="102" height="73.7"/></clipPath><clipPath id="clip-path-5"><rect class="cls-1" x="-121.19" width="102" height="73.7"/></clipPath></defs><g class="cls-2"><path class="cls-3" d="M-36.7,80.53l63.3-36.6,37.5,65L.8,145.53Zm36,39.9,9.7-5.6-21-13.9ZM22,107.33l21.1-12.2-15-26L-6,88.83Z"/></g><g class="cls-4"><rect class="cls-5" width="102" height="73.7"/></g><g class="cls-4"><path class="cls-3" d="M73.7,132.2,37.1,68.9l65-37.5,36.6,63.3Zm26.7-58.8L88.2,52.3l-26,15,19.7,34.1Zm13.1,22.8-5.6-9.7L94,107.5Z"/></g><g class="cls-4"><path class="cls-3" d="M-36.7-18.4,26.6-55,64.1,10,.8,46.6Zm36,39.9L9,15.9-12,2ZM22,8.4,43.1-3.8l-15-26L-6-10.1Z"/></g><g class="cls-6"><path class="cls-3" d="M-47.49,132.2l-36.6-63.3,65-37.5,36.6,63.3Zm26.7-58.8L-33,52.3l-26,15,19.7,34.1Zm13.1,22.8-5.6-9.7-13.9,21Z"/></g><g class="cls-7"><path class="cls-8" d="M31.86,67.16l-2.62-4.55L11.05,73.11l-12-20.78,7.8-4.5L16.6,64.71l10.39-6L17.24,41.83,25,37.33l9.75,16.88,2.6-1.5,2.25,3.9L37,58.11l2.63,4.55Z"/><path class="cls-8" d="M63.69,48.78l-2.25-3.89L38,46.29,30.88,34l26-15L71.48,44.28ZM51.31,27.35l-10.39,6,4.13,7.14,13.39-.8Z"/><path class="cls-8" d="M74.73,42.41,67.61,30.07l5.19-3-6.69.4-6-10.39L88.68.58l6,10.39L91,16.57l5.19-3,7.13,12.34ZM86.14,14.17,83.14,9l-13,7.5,3,5.19,8.37-.5Zm7.12,12.34L90.64,22l-13,7.5L80.27,34Z"/></g></svg>