<svg id="Слой_1" data-name="Слой 1" xmlns="http://www.w3.org/2000/svg" xmlns:xlink="http://www.w3.org/1999/xlink" viewBox="0 0 102 73.7"><defs><style>.cls-1{fill:none;}.cls-2{clip-path:url(#clip-path);}.cls-3{fill:#404040;}.cls-4{clip-path:url(#clip-path-2);}.cls-5{clip-path:url(#clip-path-3);}.cls-6{clip-path:url(#clip-path-4);}.cls-7{fill:#71727c;}.cls-8{isolation:isolate;}.cls-9{fill:#fff;}</style><clipPath id="clip-path"><rect class="cls-1" y="98.93" width="102" height="73.7"/></clipPath><clipPath id="clip-path-2"><rect class="cls-1" x="136.85" y="98.93" width="102" height="73.7"/></clipPath><clipPath id="clip-path-3"><rect class="cls-1" x="127.79" width="102" height="73.7"/></clipPath><clipPath id="clip-path-4"><rect class="cls-1" width="102" height="73.7"/></clipPath></defs><g class="cls-2"><path class="cls-3" d="M-36.7,80.53l63.3-36.6,37.5,65L.8,145.53Zm36,39.9,9.7-5.6-21-13.9ZM22,107.33l21.1-12.2-15-26L-6,88.83Z"/></g><g class="cls-4"><path class="cls-3" d="M100.15,80.53l63.3-36.6,37.5,65-63.3,36.6Zm36,39.9,9.7-5.6-21-13.9Zm22.7-13.1L180,95.13l-15-26-34.1,19.7Z"/></g><g class="cls-5"><path class="cls-3" d="M91.09-18.4,154.39-55l37.5,65-63.3,36.6Zm36,39.9,9.7-5.6L115.79,2Zm22.7-13.1,21.1-12.2-15-26-34.1,19.7Z"/></g><g class="cls-6"><rect class="cls-7" width="102" height="73.7"/></g><g class="cls-6"><path class="cls-3" d="M73.7,132.2,37.1,68.9l65-37.5,36.6,63.3Zm26.7-58.8L88.2,52.3l-26,15,19.7,34.1Zm13.1,22.8-5.6-9.7L94,107.5Z"/></g><g class="cls-6"><path class="cls-3" d="M-36.7-18.4,26.6-55,64.1,10,.8,46.6Zm36,39.9L9,15.9-12,2ZM22,8.4,43.1-3.8l-15-26L-6-10.1Z"/></g><g class="cls-8"><path class="cls-9" d="M41.11,61.85,38.49,57.3,20.3,67.8,8.3,47l7.8-4.5L25.85,59.4l10.39-6L26.49,36.51,34.28,32,44,48.9l2.6-1.5,2.25,3.9-2.6,1.5,2.63,4.55Z"/><path class="cls-9" d="M61.25,50.22,48.87,28.79l-6.49,3.75-2.25-3.9,14.29-8.25L69,45.72Z"/><path class="cls-9" d="M90.48,33.34l-2.25-3.89-23.44,1.4L57.66,18.51l26-15L98.27,28.84ZM78.1,11.91l-10.39,6,4.12,7.15,13.4-.81Z"/></g></svg>