<svg id="Слой_1" data-name="Слой 1" xmlns="http://www.w3.org/2000/svg" xmlns:xlink="http://www.w3.org/1999/xlink" viewBox="0 0 102 73.7"><defs><style>.cls-1{fill:none;}.cls-2{clip-path:url(#clip-path);}.cls-3{fill:#404040;}.cls-4{clip-path:url(#clip-path-2);}.cls-5{clip-path:url(#clip-path-3);}.cls-6{fill:#71727c;}.cls-7{clip-path:url(#clip-path-6);}.cls-8{clip-path:url(#clip-path-7);}.cls-9{isolation:isolate;}.cls-10{fill:#fff;}</style><clipPath id="clip-path"><rect class="cls-1" x="-112.12" width="102" height="73.7"/></clipPath><clipPath id="clip-path-2"><rect class="cls-1" x="130.26" width="102" height="73.7"/></clipPath><clipPath id="clip-path-3"><rect class="cls-1" width="102" height="73.7"/></clipPath><clipPath id="clip-path-6"><rect class="cls-1" y="-98.93" width="102" height="73.7"/></clipPath><clipPath id="clip-path-7"><rect class="cls-1" x="-112.12" y="-98.93" width="102" height="73.7"/></clipPath></defs><g class="cls-2"><path class="cls-3" d="M-38.42,132.2-75,68.9l65-37.5,36.6,63.3Zm26.7-58.8-12.2-21.1-26,15,19.7,34.1ZM1.38,96.2l-5.6-9.7-13.9,21Z"/></g><g class="cls-4"><path class="cls-3" d="M93.56-18.4,156.86-55l37.5,65-63.3,36.6Zm36,39.9,9.7-5.6L118.26,2Zm22.7-13.1,21.1-12.2-15-26-34.1,19.7Z"/></g><g class="cls-5"><rect class="cls-6" width="102" height="73.7"/></g><g class="cls-5"><path class="cls-3" d="M73.7,132.2,37.1,68.9l65-37.5,36.6,63.3Zm26.7-58.8L88.2,52.3l-26,15,19.7,34.1Zm13.1,22.8-5.6-9.7L94,107.5Z"/></g><g class="cls-5"><path class="cls-3" d="M-36.7-18.4,26.6-55,64.1,10,.8,46.6Zm36,39.9L9,15.9-12,2ZM22,8.4,43.1-3.8l-15-26L-6-10.1Z"/></g><g class="cls-7"><path class="cls-3" d="M73.7,33.27,37.1-30l65-37.5,36.6,63.3Zm26.7-58.8L88.2-46.63l-26,15L81.9,2.47Zm13.1,22.8-5.6-9.7L94,8.57Z"/></g><g class="cls-8"><path class="cls-3" d="M-38.42,33.27-75-30l65-37.5,36.6,63.3Zm26.7-58.8-12.2-21.1-26,15,19.7,34.1ZM1.38-2.73l-5.6-9.7-13.9,21Z"/></g><g class="cls-9"><path class="cls-10" d="M20.27,73.7l-3-5.2,7.8-4.5.75,1.3,7.79-4.5-5.25-9.09-15.59,9L5.65,48.37l20.78-12,2.25,3.9-13,7.5,2.63,4.54,15.58-9L43.65,60.2Z"/><path class="cls-10" d="M46.9,58.32,32.28,33l26-15L72.88,43.32ZM57.59,34.84l-4.88-8.45-10.39,6L50.2,46Zm5.25,9.09L60.59,40,55,48.43Z"/><path class="cls-10" d="M94.32,31l-2.25-3.9L68.63,28.46,61.5,16.12l26-15,14.63,25.33ZM81.94,9.52l-10.39,6,4.12,7.14,13.4-.8Z"/></g></svg>