<svg id="Слой_1" data-name="Слой 1" xmlns="http://www.w3.org/2000/svg" xmlns:xlink="http://www.w3.org/1999/xlink" viewBox="0 0 102 73.7"><defs><style>.cls-1{fill:none;}.cls-2{clip-path:url(#clip-path);}.cls-3{fill:#404040;}.cls-4{clip-path:url(#clip-path-2);}.cls-5{fill:#71727c;}.cls-6{clip-path:url(#clip-path-5);}.cls-7{clip-path:url(#clip-path-6);}.cls-8{clip-path:url(#clip-path-7);}.cls-9{isolation:isolate;}.cls-10{fill:#fff;}</style><clipPath id="clip-path"><rect class="cls-1" x="-117.89" width="102" height="73.7"/></clipPath><clipPath id="clip-path-2"><rect class="cls-1" width="102" height="73.7"/></clipPath><clipPath id="clip-path-5"><rect class="cls-1" x="112.12" width="102" height="73.7"/></clipPath><clipPath id="clip-path-6"><rect class="cls-1" y="-98.93" width="102" height="73.7"/></clipPath><clipPath id="clip-path-7"><rect class="cls-1" x="-117.89" y="-98.93" width="102" height="73.7"/></clipPath></defs><g class="cls-2"><path class="cls-3" d="M-44.19,132.2l-36.6-63.3,65-37.5,36.6,63.3Zm26.7-58.8-12.2-21.1-26,15L-36,101.4Zm13.1,22.8L-10,86.5l-13.9,21Z"/></g><g class="cls-4"><rect class="cls-5" width="102" height="73.7"/></g><g class="cls-4"><path class="cls-3" d="M73.7,132.2,37.1,68.9l65-37.5,36.6,63.3Zm26.7-58.8L88.2,52.3l-26,15,19.7,34.1Zm13.1,22.8-5.6-9.7L94,107.5Z"/></g><g class="cls-4"><path class="cls-3" d="M-36.7-18.4,26.6-55,64.1,10,.8,46.6Zm36,39.9L9,15.9-12,2ZM22,8.4,43.1-3.8l-15-26L-6-10.1Z"/></g><g class="cls-6"><path class="cls-3" d="M75.42-18.4,138.72-55l37.5,65-63.3,36.6Zm36,39.9,9.7-5.6L100.12,2Zm22.7-13.1,21.1-12.2-15-26-34.1,19.7Z"/></g><g class="cls-7"><path class="cls-3" d="M73.7,33.27,37.1-30l65-37.5,36.6,63.3Zm26.7-58.8L88.2-46.63l-26,15L81.9,2.47Zm13.1,22.8-5.6-9.7L94,8.57Z"/></g><g class="cls-8"><path class="cls-3" d="M-44.19,33.27-80.79-30l65-37.5,36.6,63.3Zm26.7-58.8-12.2-21.1-26,15L-36,2.47Zm13.1,22.8-5.6-9.7-13.9,21Z"/></g><g class="cls-9"><path class="cls-10" d="M17.25,75.73l-3-5.19L22,66l.75,1.3,7.8-4.5-5.25-9.1-15.59,9L2.62,50.4l20.79-12,2.25,3.9-13,7.5,2.62,4.55,15.59-9,9.75,16.88Z"/><path class="cls-10" d="M62.06,49.86l-2.62-4.55L41.25,55.81,29.25,35l7.8-4.5L46.8,47.42l10.39-6L47.44,24.53,55.23,20,65,36.92l2.6-1.5,2.25,3.89-2.6,1.5,2.63,4.55Z"/><path class="cls-10" d="M75.7,42,61.08,16.65l26-15L101.68,27ZM86.39,18.49l-4.88-8.44-10.39,6L79,29.69Zm5.25,9.1-2.25-3.9-5.54,8.4Z"/></g></svg>