<svg id="Слой_1" data-name="Слой 1" xmlns="http://www.w3.org/2000/svg" xmlns:xlink="http://www.w3.org/1999/xlink" viewBox="0 0 102 73.7"><defs><style>.cls-1{fill:none;}.cls-2{clip-path:url(#clip-path);}.cls-3{fill:#404040;}.cls-4{clip-path:url(#clip-path-2);}.cls-5{fill:#71727c;}.cls-6{clip-path:url(#clip-path-5);}.cls-7{clip-path:url(#clip-path-6);}.cls-8{clip-path:url(#clip-path-7);}.cls-9{isolation:isolate;}.cls-10{fill:#fff;}</style><clipPath id="clip-path"><rect class="cls-1" x="-136.85" width="102" height="73.7"/></clipPath><clipPath id="clip-path-2"><rect class="cls-1" width="102" height="73.7"/></clipPath><clipPath id="clip-path-5"><rect class="cls-1" x="117.07" width="102" height="73.7"/></clipPath><clipPath id="clip-path-6"><rect class="cls-1" x="-9.07" y="-98.93" width="102" height="73.7"/></clipPath><clipPath id="clip-path-7"><rect class="cls-1" x="-136.85" y="-98.93" width="102" height="73.7"/></clipPath></defs><g class="cls-2"><path class="cls-3" d="M-63.16,132.2-99.75,68.9l65-37.5L1.84,94.7Zm26.7-58.8-12.2-21.1-26,15L-55,101.4Zm13.11,22.8-5.6-9.7-13.9,21Z"/></g><g class="cls-4"><rect class="cls-5" width="102" height="73.7"/></g><g class="cls-4"><path class="cls-3" d="M73.7,132.2,37.1,68.9l65-37.5,36.6,63.3Zm26.7-58.8L88.2,52.3l-26,15,19.7,34.1Zm13.1,22.8-5.6-9.7L94,107.5Z"/></g><g class="cls-4"><path class="cls-3" d="M-36.7-18.4,26.6-55,64.1,10,.8,46.6Zm36,39.9L9,15.9-12,2ZM22,8.4,43.1-3.8l-15-26L-6-10.1Z"/></g><g class="cls-6"><path class="cls-3" d="M80.37-18.4,143.67-55l37.5,65-63.3,36.6Zm36,39.9,9.7-5.6L105.07,2Zm22.7-13.1,21.1-12.2-15-26-34.1,19.7Z"/></g><g class="cls-7"><path class="cls-3" d="M64.63,33.27,28-30l65-37.5,36.6,63.3Zm26.7-58.8-12.2-21.1-26,15,19.7,34.1Zm13.1,22.8-5.6-9.7-13.9,21Z"/></g><g class="cls-8"><path class="cls-3" d="M-63.16,33.27-99.75-30l65-37.5L1.84-4.23Zm26.7-58.8-12.2-21.1-26,15L-55,2.47Zm13.11,22.8-5.6-9.7-13.9,21Z"/></g><g class="cls-9"><path class="cls-10" d="M21.37,73.7l-3-5.2,7.8-4.5.75,1.3,7.79-4.5-5.25-9.09-15.59,9L6.75,48.37l20.78-12,2.25,3.9-13,7.5,2.63,4.54,15.58-9L44.75,60.2Z"/><path class="cls-10" d="M66.19,47.82l-2.25-3.89L40.5,45.34,33.38,33l26-15L74,43.32ZM53.81,26.39l-10.39,6,4.12,7.15,13.4-.81Z"/><path class="cls-10" d="M95.41,31l-2.25-3.9L69.73,28.46,62.6,16.12l26-15,14.63,25.33ZM83,9.52l-10.39,6,4.12,7.14,13.39-.8Z"/></g></svg>