<svg id="Слой_1" data-name="Слой 1" xmlns="http://www.w3.org/2000/svg" xmlns:xlink="http://www.w3.org/1999/xlink" viewBox="0 0 102 73.7"><defs><style>.cls-1{fill:none;}.cls-2{clip-path:url(#clip-path);}.cls-3{fill:#404040;}.cls-4{clip-path:url(#clip-path-2);}.cls-5{clip-path:url(#clip-path-3);}.cls-6{fill:#71727c;}.cls-7{clip-path:url(#clip-path-6);}.cls-8{clip-path:url(#clip-path-7);}.cls-9{isolation:isolate;}.cls-10{fill:#fff;}</style><clipPath id="clip-path"><rect class="cls-1" x="130.26" y="98.93" width="102" height="73.7"/></clipPath><clipPath id="clip-path-2"><rect class="cls-1" y="98.93" width="102" height="73.7"/></clipPath><clipPath id="clip-path-3"><rect class="cls-1" width="102" height="73.7"/></clipPath><clipPath id="clip-path-6"><rect class="cls-1" x="130.26" width="102" height="73.7"/></clipPath><clipPath id="clip-path-7"><rect class="cls-1" x="-112.12" width="102" height="73.7"/></clipPath></defs><g class="cls-2"><path class="cls-3" d="M93.56,80.53l63.3-36.6,37.5,65-63.3,36.6Zm36,39.9,9.7-5.6-21-13.9Zm22.7-13.1,21.1-12.2-15-26-34.1,19.7Z"/></g><g class="cls-4"><path class="cls-3" d="M-36.7,80.53l63.3-36.6,37.5,65L.8,145.53Zm36,39.9,9.7-5.6-21-13.9ZM22,107.33l21.1-12.2-15-26L-6,88.83Z"/></g><g class="cls-5"><rect class="cls-6" width="102" height="73.7"/></g><g class="cls-5"><path class="cls-3" d="M73.7,132.2,37.1,68.9l65-37.5,36.6,63.3Zm26.7-58.8L88.2,52.3l-26,15,19.7,34.1Zm13.1,22.8-5.6-9.7L94,107.5Z"/></g><g class="cls-5"><path class="cls-3" d="M-36.7-18.4,26.6-55,64.1,10,.8,46.6Zm36,39.9L9,15.9-12,2ZM22,8.4,43.1-3.8l-15-26L-6-10.1Z"/></g><g class="cls-7"><path class="cls-3" d="M93.56-18.4,156.86-55l37.5,65-63.3,36.6Zm36,39.9,9.7-5.6L118.26,2Zm22.7-13.1,21.1-12.2-15-26-34.1,19.7Z"/></g><g class="cls-8"><path class="cls-3" d="M-38.42,132.2-75,68.9l65-37.5,36.6,63.3Zm26.7-58.8-12.2-21.1-26,15,19.7,34.1ZM1.38,96.2l-5.6-9.7-13.9,21Z"/></g><g class="cls-9"><path class="cls-10" d="M33.24,66.88l-2.63-4.54L12.43,72.84.43,52.05l7.79-4.5L18,64.44l10.39-6L18.61,41.55l7.8-4.5,9.75,16.89,2.59-1.5L41,56.34l-2.59,1.5L41,62.38Z"/><path class="cls-10" d="M65.06,48.51l-2.25-3.9L39.38,46,32.25,33.68l26-15L72.86,44ZM52.69,27.08l-10.4,6,4.13,7.14,13.39-.8Z"/><path class="cls-10" d="M94.29,31.63,92,27.74,68.6,29.14,61.48,16.8l26-15,14.62,25.33ZM81.92,10.2l-10.4,6,4.13,7.14L89,22.54Z"/></g></svg>