<svg id="Слой_1" data-name="Слой 1" xmlns="http://www.w3.org/2000/svg" xmlns:xlink="http://www.w3.org/1999/xlink" viewBox="0 0 102 73.7"><defs><style>.cls-1{fill:none;}.cls-2{clip-path:url(#clip-path);}.cls-3{fill:#404040;}.cls-4{clip-path:url(#clip-path-2);}.cls-5{clip-path:url(#clip-path-3);}.cls-6{clip-path:url(#clip-path-4);}.cls-7{clip-path:url(#clip-path-5);}.cls-8{fill:#71727c;}.cls-9{isolation:isolate;}.cls-10{fill:#fff;}</style><clipPath id="clip-path"><rect class="cls-1" y="98.93" width="102" height="73.7"/></clipPath><clipPath id="clip-path-2"><rect class="cls-1" x="121.19" y="98.93" width="102" height="73.7"/></clipPath><clipPath id="clip-path-3"><rect class="cls-1" x="-130.26" width="102" height="73.7"/></clipPath><clipPath id="clip-path-4"><rect class="cls-1" x="121.19" width="102" height="73.7"/></clipPath><clipPath id="clip-path-5"><rect class="cls-1" width="102" height="73.7"/></clipPath></defs><g class="cls-2"><path class="cls-3" d="M-36.7,80.53l63.3-36.6,37.5,65L.8,145.53Zm36,39.9,9.7-5.6-21-13.9ZM22,107.33l21.1-12.2-15-26L-6,88.83Z"/></g><g class="cls-4"><path class="cls-3" d="M84.49,80.53l63.3-36.6,37.5,65L122,145.53Zm36,39.9,9.7-5.6-21-13.9Zm22.7-13.1,21.1-12.2-15-26-34.1,19.7Z"/></g><g class="cls-5"><path class="cls-3" d="M-56.56,132.2l-36.6-63.3,65-37.5L8.44,94.7Zm26.7-58.8-12.2-21.1-26,15,19.7,34.1Zm13.1,22.8-5.6-9.7-13.9,21Z"/></g><g class="cls-6"><path class="cls-3" d="M84.49-18.4,147.79-55l37.5,65L122,46.6Zm36,39.9,9.7-5.6L109.19,2Zm22.7-13.1,21.1-12.2-15-26-34.1,19.7Z"/></g><g class="cls-7"><rect class="cls-8" width="102" height="73.7"/></g><g class="cls-7"><path class="cls-3" d="M73.7,132.2,37.1,68.9l65-37.5,36.6,63.3Zm26.7-58.8L88.2,52.3l-26,15,19.7,34.1Zm13.1,22.8-5.6-9.7L94,107.5Z"/></g><g class="cls-7"><path class="cls-3" d="M-36.7-18.4,26.6-55,64.1,10,.8,46.6Zm36,39.9L9,15.9-12,2ZM22,8.4,43.1-3.8l-15-26L-6-10.1Z"/></g><g class="cls-9"><path class="cls-10" d="M34.61,65.78,32,61.24,13.8,71.74,1.8,51l7.79-4.5,9.75,16.89,10.4-6L20,40.45,27.78,36l9.75,16.89,2.6-1.5,2.25,3.9-2.6,1.5,2.62,4.54Z"/><path class="cls-10" d="M48.25,57.91l-3-5.2L53,48.21l.75,1.3,7.8-4.5-5.25-9.09-15.59,9L33.63,32.58l20.78-12,2.25,3.9-13,7.5,2.62,4.54,15.59-9,9.75,16.89Z"/><path class="cls-10" d="M74.88,42.53,60.25,17.2l26-15,14.63,25.33ZM85.57,19,80.69,10.6l-10.39,6,7.87,13.64Zm5.25,9.1-2.25-3.9L83,32.64Z"/></g></svg>