<svg id="Слой_1" data-name="Слой 1" xmlns="http://www.w3.org/2000/svg" xmlns:xlink="http://www.w3.org/1999/xlink" viewBox="0 0 102 73.7"><defs><style>.cls-1{fill:none;}.cls-2{clip-path:url(#clip-path);}.cls-3{fill:#fff;}.cls-4{clip-path:url(#clip-path-2);}.cls-5{clip-path:url(#clip-path-3);}.cls-6{fill:#57b25c;}</style><clipPath id="clip-path"><rect class="cls-1" x="117.89" width="102" height="73.7"/></clipPath><clipPath id="clip-path-2"><rect class="cls-1" x="-126.14" width="102" height="73.7"/></clipPath><clipPath id="clip-path-3"><rect class="cls-1" width="102" height="73.7"/></clipPath></defs><g class="cls-2"><path class="cls-3" d="M81.19-18.4,144.49-55,182,10l-63.3,36.6Zm36,39.9,9.7-5.6L105.89,2Zm22.7-13.1L161-3.8l-15-26-34.1,19.7Z"/></g><g class="cls-4"><path class="cls-3" d="M-52.44,132.2-89,68.9l65-37.5,36.6,63.3Zm26.7-58.8-12.2-21.1-26,15,19.7,34.1Zm13.1,22.8-5.6-9.7-13.9,21Z"/></g><g class="cls-5"><rect class="cls-6" width="102" height="73.7"/></g><g class="cls-5"><path class="cls-3" d="M73.7,132.2,37.1,68.9l65-37.5,36.6,63.3Zm26.7-58.8L88.2,52.3l-26,15,19.7,34.1Zm13.1,22.8-5.6-9.7L94,107.5Z"/></g><g class="cls-5"><path class="cls-3" d="M-36.7-18.4,26.6-55,64.1,10,.8,46.6Zm36,39.9L9,15.9-12,2ZM22,8.4,43.1-3.8l-15-26L-6-10.1Z"/></g><path class="cls-3" d="M20.18,73.7l-3-5.2L25,64l.75,1.3,7.8-4.5-5.25-9.09-15.59,9L5.55,48.37l20.79-12,2.25,3.9-13,7.5,2.62,4.54,15.59-9L43.56,60.2Z"/><path class="cls-3" d="M65,47.83l-2.62-4.55L44.18,53.78,32.18,33l7.8-4.5,9.75,16.89,10.39-6L50.37,22.49,58.16,18l9.75,16.89,2.6-1.5,2.25,3.9-2.6,1.5,2.63,4.55Z"/><path class="cls-3" d="M78.63,40,64,14.62l26-15L104.61,25ZM89.32,16.46,84.45,8l-10.4,6,7.88,13.64Zm5.25,9.09-2.25-3.89-5.54,8.39Z"/></svg>