<svg id="Слой_1" data-name="Слой 1" xmlns="http://www.w3.org/2000/svg" xmlns:xlink="http://www.w3.org/1999/xlink" viewBox="0 0 102 73.7"><defs><style>.cls-1{fill:none;}.cls-2{clip-path:url(#clip-path);}.cls-3{fill:#fff;}.cls-4{clip-path:url(#clip-path-2);}.cls-5{fill:#57b25c;}.cls-6{isolation:isolate;}</style><clipPath id="clip-path"><rect class="cls-1" x="127.79" width="102" height="73.7"/></clipPath><clipPath id="clip-path-2"><rect class="cls-1" width="102" height="73.7"/></clipPath></defs><g class="cls-2"><path class="cls-3" d="M91.09-18.4,154.39-55l37.5,65-63.3,36.6Zm36,39.9,9.7-5.6L115.79,2Zm22.7-13.1,21.1-12.2-15-26-34.1,19.7Z"/></g><g class="cls-4"><rect class="cls-5" width="102" height="73.7"/></g><g class="cls-4"><path class="cls-3" d="M73.7,132.2,37.1,68.9l65-37.5,36.6,63.3Zm26.7-58.8L88.2,52.3l-26,15,19.7,34.1Zm13.1,22.8-5.6-9.7L94,107.5Z"/></g><g class="cls-4"><path class="cls-3" d="M-36.7-18.4,26.6-55,64.1,10,.8,46.6Zm36,39.9L9,15.9-12,2ZM22,8.4,43.1-3.8l-15-26L-6-10.1Z"/></g><g class="cls-6"><path class="cls-3" d="M22.7,72.67l-3-5.2L27.49,63l.75,1.3,7.8-4.5-5.25-9.09-15.59,9L8.07,47.34l20.79-12,2.25,3.9-13,7.5,2.62,4.55,15.59-9,9.75,16.89Z"/><path class="cls-3" d="M49.33,57.29l-3-5.19,7.79-4.5.75,1.29,6.5-3.75L56.49,36.7,42.2,45,40,41.05l7.39-11.19L37,35.86,34.7,32,56.79,19.21l1.87,3.25L50.34,35.05,62,28.3l9.37,16.24Z"/><path class="cls-3" d="M74.66,42.67,60,17.33l26-15,14.63,25.34ZM85.34,19.18l-4.87-8.45-10.39,6L78,30.37Zm5.25,9.09-2.25-3.9-5.54,8.4Z"/></g></svg>