<svg id="Слой_1" data-name="Слой 1" xmlns="http://www.w3.org/2000/svg" xmlns:xlink="http://www.w3.org/1999/xlink" viewBox="0 0 102 73.7"><defs><style>.cls-1{fill:none;}.cls-2{clip-path:url(#clip-path);}.cls-3{fill:#57b25c;}.cls-4{fill:#fff;}.cls-5{clip-path:url(#clip-path-4);}</style><clipPath id="clip-path"><rect class="cls-1" width="102" height="73.7"/></clipPath><clipPath id="clip-path-4"><rect class="cls-1" x="-117.89" width="102" height="73.7"/></clipPath></defs><g class="cls-2"><rect class="cls-3" width="102" height="73.7"/></g><g class="cls-2"><path class="cls-4" d="M73.7,132.2,37.1,68.9l65-37.5,36.6,63.3Zm26.7-58.8L88.2,52.3l-26,15,19.7,34.1Zm13.1,22.8-5.6-9.7L94,107.5Z"/></g><g class="cls-2"><path class="cls-4" d="M-36.7-18.4,26.6-55,64.1,10,.8,46.6Zm36,39.9L9,15.9-12,2ZM22,8.4,43.1-3.8l-15-26L-6-10.1Z"/></g><g class="cls-5"><path class="cls-4" d="M-44.19,132.2l-36.6-63.3,65-37.5,36.6,63.3Zm26.7-58.8-12.2-21.1-26,15L-36,101.4Zm13.1,22.8L-10,86.5l-13.9,21Z"/></g><path class="cls-4" d="M23,72.43l-3-5.19,10.16-15.4-5.25-9.09L6.71,53.25l-2.25-3.9,26-15,8.25,14.29L28.52,64l2.25,3.9Z"/><path class="cls-4" d="M48.31,57.81,41.18,45.47l5.2-3-6.7.4-6-10.39L62.26,16l6,10.39L64.57,32l5.19-3,7.13,12.34ZM59.72,29.57l-3-5.2-13,7.5,3,5.2,8.37-.5Zm7.12,12.34-2.62-4.55-13,7.5,2.62,4.55Z"/><path class="cls-4" d="M80.13,39.43l-3-5.19,7.8-4.5L85.68,31l6.49-3.75L87.3,18.84,73,27.09l-2.25-3.9L78.15,12,67.76,18l-2.25-3.9L87.59,1.35,89.47,4.6,81.15,17.19l11.69-6.75,9.38,16.24Z"/></svg>